<?xml version="1.0" encoding="UTF-8"?>
<svg id="Camada_1" xmlns="http://www.w3.org/2000/svg" viewBox="0 0 800 800">
  <defs>
    <style>
      .cls-1 {
        fill: #fff;
      }
    </style>
  </defs>
  <path class="cls-1" d="M580.97,254.48c0-21.83-3.82-25.41-26.32-25.44-17.09-.02-34.19,0-51.73,0-.08-15.2.24-30.23-17.98-30.47-52.71-.7-105.43-.45-158.14-.11-10.99.07-17.82,6.14-17.94,18.07-.04,3.7-.6,7.4-.88,10.65-1.71.78-2.55,1.49-3.39,1.5-14.85.17-29.7.32-44.55.35-27.18.06-30.25,3.09-30.25,30.52-.01,64.68,0,129.36,0,194.43-2.22,1.34-2.95,1.98-3.8,2.26-27.01,8.98-41.45,26.64-42.15,51.59-.66,23.46,13.12,41.61,38.85,52.92,3.37,1.48,6.67,7.37,6.78,11.3.64,22.99.23,46,.35,69.01.1,20.34,5.46,25.73,25.43,25.73,100.16.03,200.32.03,300.49,0,20.33,0,25.23-4.87,25.24-25.51.05-128.93.05-257.86,0-386.79ZM322.87,213.3h165.16v43.92h-165.16v-43.92ZM195.93,508.8c-.1-22.64,18.07-41.21,40.75-41.65,23.19-.45,42.32,18.24,42.41,41.46.09,22.4-18.4,41.41-40.75,41.9-22.81.51-42.31-18.68-42.41-41.71ZM568.04,625.49c0,22.39-4.65,27.15-26.66,27.16-90.58.04-181.15.04-271.73,0-21.62,0-26.23-4.62-26.27-25.91-.04-18.21-.41-36.44.32-54.63.16-3.9,3.59-9.82,6.94-11.11,26.94-10.38,41.68-29.61,40.44-54.37-1.31-25.94-16.64-43.16-46.81-51.83-.28-3.37-.85-7.08-.85-10.79-.06-58.95-.08-117.9-.02-176.86.02-18.89,6-25,24.71-25.29,12.85-.2,25.7-.04,39.38-.04.57,4.39,1.36,7.56,1.31,10.72-.19,13.24,6.96,19.69,19.4,19.75,51.76.25,103.52.33,155.27-.03,19.05-.13,19.53-14.69,19.46-30.11,16.3,0,32.03-.79,47.64.27,10.83.73,16.99,8.02,17.44,19.29.1,2.39.04,4.79.04,7.19,0,118.86.01,237.73,0,356.59Z"/>
  <path class="cls-1" d="M497.78,612.09h29.39v-79.72h-29.39v79.72Z"/>
  <path class="cls-1" d="M459.59,537.55c21.3-20.61,40.49-39.16,61.34-59.34-2.88-2.34-5.63-4.57-10.27-8.33-16.24,16.86-32.07,33.29-50.18,52.1-11.25-13.04-22.12-25.64-31.85-36.91-21.31,21.17-40.9,40.63-60.8,60.4,1.62,1.53,3.93,3.72,8.22,7.78,16.49-17.33,32.59-34.25,50.58-53.16,11.63,13.22,22.91,26.04,32.96,37.47Z"/>
  <path class="cls-1" d="M410.98,612.37h27.84v-68.82h-27.84v68.82Z"/>
  <path class="cls-1" d="M454.44,612.53h29.01v-54.57h-29.01v54.57Z"/>
  <path class="cls-1" d="M366.58,611.96h28.28v-31.38h-28.28v31.38Z"/>
  <path class="cls-1" d="M512.51,462.94c4.14-7.89,7.73-14.74,11.87-22.64h-24.5c4.77,8.55,8.38,15.02,12.63,22.64Z"/>
  <path class="cls-1" d="M426.06,477c4.21-7.78,7.9-14.6,11.93-22.05h-24.22c4.4,7.9,8.04,14.42,12.3,22.05Z"/>
  <path class="cls-1" d="M234.55,510.38c-15.74-8.98-15.33-11.45-21.91-4.21,7.54,7,15.06,13.98,21.2,19.68,10.4-9.33,21.61-19.39,33.17-29.76-3.4-3.23-3.2-3.15-9.56-9.2-7.29,8.78-16.85,16.21-22.9,23.49Z"/>
  <rect class="cls-1" x="295.02" y="308.4" width="222.53" height="18.79"/>
  <rect class="cls-1" x="295.02" y="344.21" width="222.53" height="18.79"/>
  <rect class="cls-1" x="295.02" y="381.2" width="137.39" height="18.79"/>
</svg>