<svg width="42" height="42" viewBox="0 0 42 42" fill="none" xmlns="http://www.w3.org/2000/svg">
<path d="M42 21C42 25.009 40.8739 28.7567 38.9279 31.9459C35.2387 37.9775 28.5901 42 21 42C14.6712 42 8.99549 39.1982 5.14864 34.7703C1.94144 31.0856 0 26.2658 0 21C0 9.4009 9.4009 0 21 0C32.5991 0 42 9.4009 42 21Z" fill="#E8E1EF"/>
<path d="M23.3105 15.4883C23.3105 15.4883 26.6421 13.9108 27.0074 16.5239C27.4308 19.5509 23.7997 19.7198 23.7997 19.7198L23.3105 15.4883Z" fill="#F48462"/>
<path d="M25.0939 18.1843C25.0583 18.1843 25.0218 18.1757 24.9885 18.1577C24.8786 18.0992 24.8372 17.9627 24.8957 17.8528L25.9511 15.8717C26.0097 15.7622 26.1462 15.7199 26.2556 15.7789C26.3655 15.8374 26.407 15.9739 26.3484 16.0838L25.293 18.0649C25.2525 18.141 25.1745 18.1843 25.0939 18.1843Z" fill="black"/>
<path d="M25.4186 17.5734C25.2966 17.5734 25.1961 17.4756 25.1934 17.3531C25.1907 17.2292 25.2894 17.1256 25.4137 17.1229L26.3808 17.1013C26.5258 17.0891 26.6083 17.1972 26.611 17.3215C26.6137 17.4454 26.515 17.549 26.3907 17.5517L25.4236 17.5734C25.4222 17.5734 25.4204 17.5734 25.4186 17.5734Z" fill="black"/>
<path d="M38.9277 31.946C37.5989 34.1171 35.8872 36.027 33.8872 37.5766C33.7565 37.6847 33.6259 37.7838 33.4908 37.8784C29.9998 40.473 25.68 42 20.9998 42C18.1935 42 15.5133 41.4505 13.0674 40.4505C12.9277 40.3919 12.7881 40.3334 12.6484 40.2703C9.74754 39.0135 7.18898 37.1216 5.14844 34.7703C5.99078 32.1532 7.56285 29.6667 10.3647 28.0901C17.5178 24.0676 28.2295 24.0676 32.9953 26.3288C35.9228 27.7162 37.8556 30.2027 38.9277 31.946Z" fill="#A37B90"/>
<path d="M24.6731 12.4838C24.6731 12.4838 26.8749 8.9325 26.4303 7.41628C25.9857 5.90006 24.0028 7.38611 24.0028 7.38611C24.0028 7.38611 23.5519 4.12034 21.1195 4.75457C17.8817 5.59871 14.6659 11.3005 14.6659 11.3005C14.6659 11.3005 13.0173 10.8865 12.4591 12.332C11.81 14.0145 12.3794 15.9023 13.4195 17.5816C14.4596 19.2609 17.2758 17.8757 17.2758 17.8757L24.6731 12.4838Z" fill="black"/>
<path d="M17.8379 22.764L17.9555 26.6536C17.9555 26.6536 19.396 27.4059 21.1591 27.3676C23.5397 27.3158 24.3059 26.2685 24.3059 26.2685L24.0955 21.2225L17.8379 22.764Z" fill="#F48462"/>
<path d="M17.8379 22.6729C17.8379 22.6729 19.3428 25.5963 22.028 25.0878C24.1924 24.6779 24.1041 21.6125 24.1041 21.6125L17.8379 22.6729Z" fill="black"/>
<path d="M24.6781 12.484C24.6781 12.484 25.8691 19.2484 24.6637 21.8921C23.3115 24.8583 19.8493 24.4615 18.6079 23.5813C16.9335 22.3943 16.2115 20.475 16.2115 20.475C16.2115 20.475 13.9939 21.0069 13.1777 19.2132C12.3209 17.329 13.6525 15.7304 14.7669 15.5957C15.8813 15.461 16.0196 15.6596 16.0196 15.6596L15.6124 13.6277C15.6124 13.6277 22.1151 5.811 24.6781 12.484Z" fill="#F48462"/>
<path d="M16.0158 15.6594C16.0158 15.6594 17.4645 15.7108 19.1005 14.4098C21.0194 12.8837 20.7163 10.3644 20.7163 10.3644C20.7163 10.3644 24.2091 12.3671 25.0771 15.0067C25.9451 17.6463 25.9329 8.68868 22.069 9.01301C18.2059 9.33733 13.0505 11.8607 16.0158 15.6594Z" fill="black"/>
<path d="M15.755 18.6482C15.7059 18.6482 15.6568 18.6324 15.6154 18.5995L13.8334 17.1869C13.7361 17.1099 13.7195 16.9685 13.7965 16.8707C13.8744 16.773 14.0159 16.7567 14.1132 16.8342L15.8956 18.2468C15.9929 18.3239 16.0096 18.4653 15.9321 18.5631C15.8875 18.6194 15.8217 18.6482 15.755 18.6482Z" fill="black"/>
<path d="M14.1745 18.9825C14.1087 18.9825 14.0439 18.9541 13.9997 18.8991C13.9213 18.8027 13.9358 18.6613 14.0321 18.5825L15.0204 17.7775C15.1173 17.6996 15.2592 17.7131 15.3376 17.8099C15.4159 17.9063 15.4015 18.0478 15.3051 18.1266L14.3168 18.9316C14.2749 18.9658 14.2245 18.9825 14.1745 18.9825Z" fill="black"/>
<path d="M19.4509 16.6662C19.3364 16.6662 19.2383 16.5792 19.227 16.463L19.1202 15.3702C19.1081 15.2464 19.1986 15.136 19.3225 15.1238C19.4491 15.1166 19.5567 15.2027 19.5684 15.3261L19.6752 16.4189C19.6874 16.5428 19.5968 16.6531 19.4729 16.6653C19.4657 16.6657 19.4585 16.6662 19.4509 16.6662Z" fill="black"/>
<path d="M23.7087 16.5063C23.5943 16.5063 23.4961 16.4194 23.4848 16.3031L23.378 15.2103C23.3659 15.0865 23.4564 14.9761 23.5803 14.9639C23.7046 14.9576 23.8145 15.0432 23.8262 15.1662L23.933 16.259C23.9452 16.3829 23.8546 16.4932 23.7307 16.5054C23.7231 16.5058 23.7159 16.5063 23.7087 16.5063Z" fill="black"/>
<path d="M22.1464 19.2138C22.1347 19.2138 22.123 19.2129 22.1113 19.2111C21.9883 19.1918 21.9046 19.0765 21.9235 18.9535C22.178 17.3359 21.6041 16.0269 21.5978 16.0138C21.5469 15.9003 21.5982 15.767 21.7118 15.7165C21.8257 15.6643 21.9586 15.717 22.0095 15.8301C22.0356 15.8882 22.6437 17.2756 22.369 19.0242C22.351 19.1346 22.2555 19.2138 22.1464 19.2138Z" fill="black"/>
<path d="M24.0807 14.2198C24.0312 14.2198 23.9816 14.2036 23.9398 14.1703C23.5789 13.8802 22.9271 13.9095 22.9204 13.9099C22.7979 13.928 22.6906 13.8212 22.6839 13.6969C22.6776 13.573 22.7726 13.4667 22.8965 13.4604C22.9307 13.4577 23.7258 13.4212 24.2217 13.8194C24.3186 13.8973 24.3339 14.0388 24.2564 14.1361C24.2118 14.1915 24.1465 14.2198 24.0807 14.2198Z" fill="black"/>
<path d="M19.0908 14.386C19.0237 14.386 18.957 14.3562 18.9124 14.299C18.8363 14.2004 18.8543 14.0594 18.952 13.9828C19.4552 13.5932 20.2498 13.645 20.2836 13.6468C20.4074 13.6558 20.5007 13.7634 20.4921 13.8869C20.4836 14.0107 20.3791 14.1067 20.252 14.0963C20.2453 14.0963 19.5944 14.0553 19.2282 14.3391C19.1876 14.3706 19.139 14.386 19.0908 14.386Z" fill="black"/>
<path d="M15.502 15.6906C15.502 15.6906 16.2821 17.6708 16.5393 17.5789C16.7961 17.487 16.2357 14.3379 15.474 14.2393C14.7123 14.1406 15.502 15.6906 15.502 15.6906Z" fill="black"/>
<path d="M21.3419 20.9194C20.6874 20.9194 20.3343 20.5172 20.2275 20.2555C20.1807 20.1402 20.2365 20.0086 20.3514 19.9622C20.4649 19.9149 20.596 19.9704 20.6437 20.0839C20.6703 20.1433 20.9149 20.6411 21.7437 20.4086C21.8627 20.3767 21.9879 20.4451 22.0212 20.5649C22.0545 20.6848 21.9847 20.8091 21.8649 20.8424C21.6735 20.896 21.4991 20.9194 21.3419 20.9194Z" fill="black"/>
<path d="M13.5744 37.7793L13.0654 40.4505C12.9258 40.3919 12.7861 40.3333 12.6465 40.2703L13.1375 37.6937C13.16 37.5721 13.2771 37.491 13.4032 37.5135C13.5249 37.5406 13.6014 37.6532 13.5744 37.7793Z" fill="#F7B369"/>
<path d="M24.2646 25.5121C24.2646 25.5121 26.6001 30.2284 26.0357 30.1572C25.4713 30.086 22.0074 27.5423 22.0074 27.5423C22.0074 27.5423 19.2713 30.5964 18.4772 30.654C17.683 30.7117 17.8947 25.3284 17.8947 25.3284C17.8947 25.3284 18.4785 27.0739 21.4506 27.0437C24.4956 27.013 24.2646 25.5121 24.2646 25.5121Z" fill="#F7B369"/>
</svg>
