<svg width="44" height="42" viewBox="0 0 44 42" fill="none" xmlns="http://www.w3.org/2000/svg">
<path d="M43.5863 20.9977C43.5863 24.7676 42.5616 28.3078 40.7674 31.3705C40.2574 32.2398 39.6825 33.073 39.0519 33.8612C38.1247 35.0233 37.0769 36.0862 35.9224 37.0321C35.89 37.0591 35.8575 37.0861 35.8251 37.1086C34.4249 38.2481 32.8763 39.2165 31.2073 39.9867C30.4562 40.3335 29.6773 40.6398 28.8799 40.901C26.7101 41.6082 24.3872 41.9955 21.9717 41.9955C19.8993 41.9955 17.8964 41.7117 16.0001 41.1803C14.3311 40.7164 12.7454 40.0633 11.2711 39.2435C9.23573 38.1175 7.40438 36.6762 5.85585 34.9917C5.76313 34.8927 5.67506 34.7936 5.58697 34.6945C5.44324 34.5368 5.30414 34.3747 5.16969 34.2125C4.52987 33.4469 3.94569 32.6361 3.42178 31.7894C1.47453 28.6321 0.352539 24.9433 0.352539 20.9977C0.352539 9.39989 10.0332 0 21.9717 0C33.9056 0 43.5863 9.39989 43.5863 20.9977Z" fill="#E8E1EF"/>
<path d="M18.635 12.028C18.635 12.028 14.8875 9.11752 16.5937 6.70561C18.3003 4.29371 21.9579 6.7475 21.9579 6.7475C21.9579 6.7475 23.3831 5.36251 25.399 6.48311C27.4148 7.60371 27.6453 10.3367 27.6453 10.3367C27.6453 10.3367 29.6987 10.2913 29.816 12.7189C29.9333 15.1466 27.2438 17.3081 27.2438 17.3081L18.635 12.028Z" fill="black"/>
<path d="M35.8246 37.1086C34.4244 38.2481 32.8759 39.2165 31.2068 39.9867C30.4557 40.3335 29.6768 40.6397 28.8794 40.901C26.7096 41.6081 24.3868 41.9954 21.9713 41.9954C19.8988 41.9954 17.8959 41.7117 15.9997 41.1802C14.3306 40.7163 12.745 40.0632 11.2706 39.2435L11.0156 25.209C16.7368 21.3085 22.2865 22.2813 22.2865 22.2813C22.2865 22.2813 29.5748 21.4751 33.3812 24.8576C33.9376 25.3531 34.4105 25.9206 34.7768 26.5917C35.3841 27.6952 35.6855 32.1271 35.8246 37.1086Z" fill="#6876AA"/>
<path d="M25.2116 18.6438L25.2589 23.2699C25.2589 23.2699 24.4137 24.608 21.6305 24.8548C19.5572 25.0386 18.8232 24.59 18.8232 24.59L19.0889 22.2443L19.3509 19.9567L24.3701 18.8334L25.2116 18.6438Z" fill="#F48462"/>
<path d="M24.3711 18.8336C24.3604 18.9602 24.3122 19.1097 24.2371 19.2813C23.1953 21.6022 20.2874 22.1288 19.0898 22.2445L19.3518 19.9569L24.3711 18.8336Z" fill="black"/>
<path d="M18.1811 9.42294C18.1811 9.42294 15.7411 15.2466 16.7592 18.4598C17.7773 21.673 20.7988 21.0884 22.5982 20.4182C24.3975 19.748 25.2121 18.6454 25.2121 18.6454C25.2121 18.6454 26.9229 19.1624 28.0176 17.6018C29.1117 16.0416 28.3676 14.299 27.3884 13.9198C26.4092 13.5405 25.2756 14.2481 25.2756 14.2481L26.1343 12.5519C26.1343 12.5519 22.1141 4.13882 18.1811 9.42294Z" fill="#F48462"/>
<path d="M25.4768 16.7847C25.4059 16.7847 25.3354 16.7532 25.2899 16.6928C25.2144 16.5924 25.2366 16.4519 25.3396 16.378L27.47 14.8588C27.5724 14.7858 27.7175 14.8061 27.794 14.907C27.8696 15.0074 27.8473 15.148 27.7444 15.2218L25.614 16.741C25.5728 16.7708 25.525 16.7847 25.4768 16.7847Z" fill="black"/>
<path d="M27.4299 16.74C27.4118 16.74 27.3933 16.7378 27.3743 16.7333L25.9574 16.3937C25.8332 16.364 25.7571 16.2419 25.7882 16.1212C25.8183 16.0009 25.9407 15.9266 26.0692 15.9568L27.486 16.2964C27.6103 16.3261 27.6863 16.4482 27.6552 16.5689C27.6293 16.6716 27.5342 16.74 27.4299 16.74Z" fill="black"/>
<path d="M22.1936 11.8653C22.1672 11.8653 22.1407 11.8608 22.1143 11.8518C21.7629 11.7275 20.7512 11.673 20.3905 11.6622C20.263 11.6582 20.1624 11.5546 20.1661 11.4298C20.1703 11.3059 20.2677 11.2105 20.4049 11.2118C20.5454 11.2163 21.7884 11.2573 22.2729 11.4284C22.3934 11.4712 22.4551 11.6005 22.4115 11.7171C22.3772 11.8086 22.2882 11.8653 22.1936 11.8653Z" fill="black"/>
<path d="M17.5752 11.6924C17.4634 11.6924 17.3647 11.6131 17.3466 11.5024C17.3267 11.3798 17.4134 11.2641 17.5395 11.2447C18.1686 11.1483 18.3596 11.1573 18.3912 11.1596C18.5187 11.17 18.6132 11.2794 18.6021 11.4033C18.5915 11.5258 18.4811 11.619 18.3555 11.6086C18.3434 11.6068 18.1719 11.6037 17.6123 11.6902C17.5993 11.6915 17.5872 11.6924 17.5752 11.6924Z" fill="black"/>
<path d="M18.7852 16.8377C18.6859 16.8377 18.5946 16.7756 18.5635 16.6787C17.9682 14.8037 18.9618 13.4543 19.0044 13.398C19.0796 13.298 19.2242 13.2755 19.3276 13.3494C19.431 13.4223 19.4532 13.5633 19.3786 13.6633C19.3698 13.6755 18.4815 14.8942 19.0058 16.5459C19.0438 16.6648 18.9752 16.7909 18.8529 16.8274C18.8306 16.8346 18.8079 16.8377 18.7852 16.8377Z" fill="black"/>
<path d="M17.6165 13.9147C17.597 13.9147 17.5775 13.9124 17.5576 13.907C17.4338 13.8759 17.3597 13.7525 17.3926 13.6323L17.6795 12.5689C17.7115 12.4482 17.8377 12.3747 17.9624 12.4081C18.0862 12.4391 18.1603 12.5626 18.1274 12.6828L17.8404 13.7462C17.8136 13.8476 17.7194 13.9147 17.6165 13.9147Z" fill="black"/>
<path d="M20.6331 13.9431C20.6137 13.9431 20.5942 13.9409 20.5742 13.9355C20.4504 13.9044 20.3763 13.781 20.4092 13.6607L20.6962 12.5969C20.7282 12.4762 20.8538 12.4037 20.979 12.4361C21.1028 12.4672 21.177 12.5906 21.1445 12.7108L20.8575 13.7747C20.8301 13.8765 20.7361 13.9431 20.6331 13.9431Z" fill="black"/>
<path d="M17.6934 10.7348C17.6934 10.7348 18.2011 9.7998 19.3889 9.78044C20.5768 9.76107 21.2787 10.5673 21.2787 10.5673C21.2787 10.5673 20.7775 12.5153 22.403 13.5323C24.0285 14.5488 25.2757 14.2484 25.2757 14.2484L26.4431 13.8313L27.2855 12.1599L23.8602 8.64407L19.4506 6.43665L17.2354 8.42968L17.6934 10.7348Z" fill="black"/>
<path d="M19.7006 17.9184C19.6436 17.9184 19.6079 17.9157 19.5995 17.9148C19.4725 17.9044 19.3775 17.795 19.3886 17.6711C19.3997 17.5473 19.5216 17.4604 19.6385 17.4662C19.683 17.4689 20.5894 17.527 20.9672 16.723C21.0201 16.6095 21.1592 16.5618 21.2746 16.6118C21.391 16.6636 21.442 16.7974 21.3892 16.9104C20.9529 17.8382 20.0122 17.9184 19.7006 17.9184Z" fill="black"/>
<path d="M19.0895 22.244C19.0895 22.244 18.1076 23.2556 17.5225 25.1216C17.1905 26.1801 17.2721 27.7421 17.5007 27.7439C17.7292 27.7457 19.4438 25.1685 20.5375 25.0113C21.6312 24.8546 22.5464 27.9398 23.0133 28.0479C23.4802 28.156 25.2957 26.9417 25.9402 25.1843C26.5846 23.4263 25.4283 22.2936 25.4283 22.2936C25.4283 22.2936 19.7836 26.4557 19.0895 22.244Z" fill="#F7B369"/>
<path d="M16.0011 41.1802C14.332 40.7163 12.7464 40.0632 11.272 39.2435C9.23665 38.1175 7.40531 36.6762 5.85678 34.9917C5.76405 34.8926 5.67598 34.7935 5.58789 34.6945C5.79189 34.0864 6.01441 33.4784 6.26013 32.8883C8.49021 27.4925 11.017 25.209 11.017 25.209L16.0011 41.1802Z" fill="#6876AA"/>
<path d="M39.0537 33.8612C38.1264 35.0232 37.0786 36.0862 35.9241 37.032C35.8917 37.0591 35.8592 37.0861 35.8268 37.1086C34.4266 38.2481 32.8781 39.2165 31.209 39.9867L33.3834 24.8577C33.3834 24.8577 36.4341 27.1412 39.0537 33.8612Z" fill="#6876AA"/>
<path d="M10.9714 38.3909C10.9631 38.3909 10.9552 38.3905 10.9473 38.3896C10.8198 38.3769 10.7271 38.2666 10.7406 38.1427L11.1819 33.9765C11.1949 33.8522 11.3159 33.7608 11.436 33.7756C11.5635 33.7882 11.6562 33.8986 11.6428 34.0225L11.2014 38.1887C11.1894 38.3049 11.0887 38.3909 10.9714 38.3909Z" fill="#F7B369"/>
</svg>
