<svg width="42" height="42" viewBox="0 0 42 42" fill="none" xmlns="http://www.w3.org/2000/svg">
<path d="M42 20.9977C42 24.7676 41.0046 28.3078 39.2616 31.3705C38.0365 33.5234 36.4375 35.4421 34.5549 37.0321C32.5596 38.7211 30.2445 40.0453 27.7132 40.901C25.6054 41.6082 23.3488 41.9955 21.0023 41.9955C14.7822 41.9955 9.1882 39.2886 5.34627 34.9917C5.11657 34.7395 4.89588 34.4783 4.67968 34.2125C4.05813 33.4469 3.49061 32.6361 2.98166 31.7894C1.08997 28.6321 0 24.9433 0 20.9977C0 9.39989 9.4044 0 21.0023 0C32.5956 0 42 9.39989 42 20.9977Z" fill="#E8E1EF"/>
<path d="M15.5671 16.7902C15.5671 16.7902 10.7622 20.4141 10.4046 24.8154C9.86322 31.4764 17.4403 28.5623 18.2731 24.3159C19.1059 20.0691 15.5671 16.7902 15.5671 16.7902Z" fill="black"/>
<path d="M15.1355 16.3365C15.1355 16.3365 13.4014 14.4205 13.9009 11.4515C14.2396 9.43864 15.1355 8.78691 15.1355 8.78691C15.1355 8.78691 13.7712 6.039 17.8329 6.20565C21.8947 6.3723 24.2845 8.36623 24.2845 8.36623C24.2845 8.36623 26.141 7.45462 26.9738 9.61925C27.8066 11.7839 26.9738 14.9777 26.9738 14.9777L15.1355 16.3365Z" fill="black"/>
<path d="M34.5529 37.033C32.5576 38.722 30.2426 40.0462 27.7113 40.902C25.6034 41.6091 23.3469 41.9965 21.0003 41.9965C16.8116 41.9965 12.9066 40.7669 9.62765 38.65C9.44749 38.5374 9.27184 38.4203 9.10069 38.2987C7.71795 37.3528 6.45683 36.2403 5.34433 34.9927C5.11463 34.7405 4.89393 34.4793 4.67773 34.2135L17.9691 24.5839C17.9781 24.5794 18.4826 24.2101 18.4826 24.2101L23.7027 24.6335L25.8692 24.8091L34.5529 37.033Z" fill="#F7B369"/>
<path d="M18.4853 24.547L5.34703 34.9918C5.11733 34.7396 4.89663 34.4784 4.68043 34.2126C4.05888 33.4469 3.49138 32.6362 2.98242 31.7895C3.38778 31.4246 3.81116 31.0598 4.24805 30.695C10.2699 25.673 16.2242 24.7497 17.9718 24.583C18.3096 24.5515 18.4853 24.547 18.4853 24.547Z" fill="#F7B369"/>
<path d="M24.0518 19.6835L23.9523 24.982C23.9523 24.982 23.029 26.4769 20.1225 26.6363C17.957 26.7552 17.2949 25.5477 17.2949 25.5477L17.9057 20.9275L23.1691 19.8627L24.0518 19.6835Z" fill="#F48462"/>
<path d="M39.2613 31.3705C38.0362 33.5234 36.4373 35.4421 34.5546 37.032C32.5593 38.721 30.2443 40.0452 27.713 40.901L31.109 36.7618L23.7044 24.6325L23.6504 24.5469C23.6504 24.5469 24.5016 24.5784 25.8709 24.8081C28.9877 25.3261 34.7798 26.8619 39.2613 31.3705Z" fill="#F7B369"/>
<path d="M24.0517 19.3809C24.036 19.516 23.9801 19.6745 23.8954 19.8556C22.7239 22.3044 18.7937 23.2372 17.543 23.3178L17.9015 20.8766L24.0517 19.3809Z" fill="black"/>
<path d="M17.0767 9.54707C17.0767 9.54707 14.3184 15.6982 15.2575 19.178C16.1966 22.6578 19.3638 22.1417 21.2618 21.489C23.1598 20.8364 24.0493 19.6847 24.0493 19.6847C24.0493 19.6847 25.8108 20.3009 27.0085 18.6691C28.2061 17.0373 27.4967 15.1433 26.4919 14.701C25.487 14.2587 24.2799 14.9758 24.2799 14.9758L25.2375 13.1895C25.2375 13.1895 21.3685 4.02829 17.0767 9.54707Z" fill="#F48462"/>
<path d="M24.2861 14.9755C24.2861 14.9755 21.6296 15.5115 19.7843 12.5555C17.939 9.59949 18.1083 8.38522 18.1083 8.38522L16.2698 11.4371C16.2698 11.4371 15.8586 9.32115 16.7049 7.97219C17.5512 6.62324 18.4299 6.90294 18.4299 6.90294L24.287 8.36629L25.8291 13.0608L24.2861 14.9755Z" fill="black"/>
<path d="M17.2886 17.4271C17.1922 17.4271 17.103 17.3645 17.0733 17.2681C16.6643 15.9326 17.6075 14.5805 17.6471 14.5238C17.7192 14.422 17.8588 14.399 17.9606 14.4702C18.0624 14.5418 18.0862 14.6828 18.0146 14.7841C18.0065 14.7958 17.1602 16.0146 17.5039 17.1361C17.5399 17.255 17.4732 17.3811 17.3543 17.4176C17.3327 17.4239 17.3102 17.4271 17.2886 17.4271Z" fill="black"/>
<path d="M24.5378 17.9021C24.482 17.9021 24.4266 17.8814 24.3829 17.84C24.2924 17.7544 24.2888 17.6121 24.3743 17.522L26.057 15.7483C26.1426 15.6573 26.2854 15.6546 26.375 15.7402C26.4656 15.8253 26.4692 15.9681 26.3831 16.0582L24.7004 17.8319C24.6572 17.8787 24.5973 17.9021 24.5378 17.9021Z" fill="black"/>
<path d="M26.317 17.4305C26.3058 17.4305 26.2936 17.4296 26.2824 17.4278L25.1226 17.249C24.9996 17.2301 24.9154 17.1148 24.9343 16.9923C24.9532 16.8693 25.0717 16.7869 25.191 16.804L26.3508 16.9828C26.4738 17.0017 26.558 17.117 26.5391 17.2395C26.522 17.3508 26.426 17.4305 26.317 17.4305Z" fill="black"/>
<path d="M19.5147 19.1943C18.9296 19.1943 18.2658 18.7993 18.1698 18.7398C18.1009 18.697 18.0599 18.6209 18.0626 18.5403C18.0658 18.4592 18.1117 18.3858 18.1833 18.3484L20.053 17.372C20.112 17.3409 20.1818 17.3373 20.2448 17.3639C20.3065 17.39 20.3534 17.4422 20.3727 17.5062C20.3853 17.549 20.6795 18.5529 20.0557 19.0303C19.9012 19.1492 19.7124 19.1943 19.5147 19.1943ZM18.7752 18.5471C19.1314 18.7052 19.576 18.8304 19.7818 18.6732C20.0088 18.4989 20.0192 18.1557 19.9926 17.9116L18.7752 18.5471Z" fill="black"/>
<path d="M16.1015 12.3681C15.9943 12.3681 15.8993 12.291 15.8804 12.1816C15.8588 12.0591 15.9412 11.9424 16.0633 11.9213L17.1604 11.7307C17.2839 11.7051 17.3996 11.7911 17.4208 11.9136C17.4424 12.0361 17.36 12.1528 17.2379 12.1739L16.1407 12.3645C16.1277 12.3672 16.1146 12.3681 16.1015 12.3681Z" fill="black"/>
<path d="M20.6613 13.0881C20.6271 13.0881 20.5924 13.08 20.5595 13.0638L18.7606 12.1531C18.6494 12.0968 18.6048 11.9612 18.6611 11.8504C18.7174 11.7392 18.8539 11.6955 18.9638 11.7509L20.7627 12.6621C20.8739 12.7184 20.9185 12.8539 20.8622 12.9647C20.823 13.0431 20.7433 13.0881 20.6613 13.0881Z" fill="black"/>
<path d="M27.639 16.79C27.639 16.79 31.4697 20.1109 30.9287 25.5229C30.3874 30.9349 25.0208 30.2404 23.8935 28.2654C22.186 25.2734 24.0529 19.6848 24.0529 19.6848C24.0529 19.6848 27.3435 20.2356 27.639 16.79Z" fill="black"/>
<path d="M16.1019 14.9033C16.0798 14.9033 16.0577 14.9002 16.0361 14.8934C15.9167 14.8569 15.8505 14.7313 15.887 14.6124L16.1942 13.6125L15.928 13.2864C15.8492 13.19 15.8631 13.0486 15.9595 12.9697C16.0555 12.8909 16.1978 12.9049 16.2762 13.0013L16.6189 13.4206C16.6667 13.4792 16.6824 13.5575 16.6599 13.6291L16.3171 14.7443C16.2879 14.8416 16.1982 14.9033 16.1019 14.9033Z" fill="black"/>
<path d="M19.4595 15.2032C19.4374 15.2032 19.4153 15.2001 19.3932 15.1933C19.2739 15.1573 19.2077 15.0312 19.2442 14.9123L19.55 13.9155L19.1577 13.4575C19.0766 13.3629 19.0879 13.221 19.1825 13.1399C19.2766 13.0593 19.4194 13.0701 19.5 13.1647L19.9729 13.7169C20.0229 13.7754 20.0396 13.8561 20.0171 13.9295L19.6747 15.0447C19.645 15.1406 19.5554 15.2032 19.4595 15.2032Z" fill="black"/>
<path d="M20.0904 26.7435C18.1735 26.7435 17.0381 25.6982 17.0214 25.6828C16.9313 25.5977 16.9273 25.4554 17.0129 25.3649C17.098 25.2748 17.2403 25.2707 17.3308 25.355C17.4214 25.4401 19.5725 27.3975 23.0654 25.4369C23.1748 25.3752 23.3117 25.4144 23.3721 25.5225C23.4333 25.631 23.3946 25.7684 23.2865 25.8292C22.0709 26.5111 20.9939 26.7435 20.0904 26.7435Z" fill="white"/>
<path d="M11.5347 31.349C11.3996 31.4616 8.55755 33.9973 9.6295 38.65C9.44934 38.5374 9.27369 38.4203 9.10254 38.2987C8.26029 33.6415 11.2059 31.0337 11.242 31.0067C11.3365 30.9256 11.4762 30.9346 11.5572 31.0292C11.6387 31.1238 11.6293 31.2679 11.5347 31.349Z" fill="white"/>
</svg>
