<svg width="341" height="416" viewBox="0 0 341 416" fill="none" xmlns="http://www.w3.org/2000/svg">
<mask id="mask0_258_1531" style="mask-type:luminance" maskUnits="userSpaceOnUse" x="0" y="0" width="442" height="463">
<path d="M0.836914 231.496C0.836914 359.348 99.5576 462.992 221.335 462.992C343.114 462.992 441.837 359.348 441.837 231.496C441.837 103.646 343.114 6.10352e-05 221.335 6.10352e-05C99.5576 6.10352e-05 0.836914 103.646 0.836914 231.496Z" fill="white"/>
</mask>
<g mask="url(#mask0_258_1531)">
<path d="M8.57721 409.36C8.57721 410.521 7.68347 411.462 6.57523 411.462C5.46922 411.462 4.57324 410.521 4.57324 409.36C4.57324 408.199 5.46922 407.258 6.57523 407.258C7.68347 407.258 8.57721 408.199 8.57721 409.36Z" fill="#25A6CE"/>
<path d="M33.8067 409.36C33.8067 410.521 32.9107 411.461 31.8047 411.461C30.6987 411.461 29.8027 410.521 29.8027 409.36C29.8027 408.198 30.6987 407.258 31.8047 407.258C32.9107 407.258 33.8067 408.198 33.8067 409.36Z" fill="#25A6CE"/>
<path d="M59.0313 409.359C59.0313 410.521 58.1376 411.461 57.0293 411.461C55.9233 411.461 55.0273 410.521 55.0273 409.359C55.0273 408.198 55.9233 407.258 57.0293 407.258C58.1376 407.258 59.0313 408.198 59.0313 409.359Z" fill="#25A6CE"/>
<path d="M84.2608 409.36C84.2608 410.521 83.3648 411.462 82.2588 411.462C81.1528 411.462 80.2568 410.521 80.2568 409.36C80.2568 408.199 81.1528 407.258 82.2588 407.258C83.3648 407.258 84.2608 408.199 84.2608 409.36Z" fill="#25A6CE"/>
<path d="M109.485 409.359C109.485 410.521 108.592 411.461 107.483 411.461C106.377 411.461 105.481 410.521 105.481 409.359C105.481 408.198 106.377 407.258 107.483 407.258C108.592 407.258 109.485 408.198 109.485 409.359Z" fill="#25A6CE"/>
<path d="M134.712 409.36C134.712 410.521 133.816 411.461 132.71 411.461C131.604 411.461 130.708 410.521 130.708 409.36C130.708 408.198 131.604 407.258 132.71 407.258C133.816 407.258 134.712 408.198 134.712 409.36Z" fill="#25A6CE"/>
<path d="M159.944 409.36C159.944 410.521 159.048 411.461 157.942 411.461C156.833 411.461 155.938 410.521 155.938 409.36C155.938 408.198 156.833 407.258 157.942 407.258C159.048 407.258 159.944 408.198 159.944 409.36Z" fill="#25A6CE"/>
<path d="M185.168 409.359C185.168 410.521 184.272 411.461 183.166 411.461C182.06 411.461 181.164 410.521 181.164 409.359C181.164 408.198 182.06 407.258 183.166 407.258C184.272 407.258 185.168 408.198 185.168 409.359Z" fill="#25A6CE"/>
<path d="M210.398 409.359C210.398 410.521 209.502 411.461 208.396 411.461C207.288 411.461 206.392 410.521 206.392 409.359C206.392 408.198 207.288 407.258 208.396 407.258C209.502 407.258 210.398 408.198 210.398 409.359Z" fill="#25A6CE"/>
<path d="M235.623 409.36C235.623 410.521 234.727 411.462 233.621 411.462C232.515 411.462 231.619 410.521 231.619 409.36C231.619 408.199 232.515 407.258 233.621 407.258C234.727 407.258 235.623 408.199 235.623 409.36Z" fill="#25A6CE"/>
<path d="M260.852 409.359C260.852 410.521 259.956 411.461 258.85 411.461C257.742 411.461 256.846 410.521 256.846 409.359C256.846 408.198 257.742 407.258 258.85 407.258C259.956 407.258 260.852 408.198 260.852 409.359Z" fill="#25A6CE"/>
<path d="M286.076 409.36C286.076 410.521 285.18 411.461 284.074 411.461C282.968 411.461 282.072 410.521 282.072 409.36C282.072 408.198 282.968 407.258 284.074 407.258C285.18 407.258 286.076 408.198 286.076 409.36Z" fill="#25A6CE"/>
<path d="M311.304 409.359C311.304 410.521 310.408 411.461 309.302 411.461C308.194 411.461 307.298 410.521 307.298 409.359C307.298 408.198 308.194 407.258 309.302 407.258C310.408 407.258 311.304 408.198 311.304 409.359Z" fill="#25A6CE"/>
<path d="M336.531 409.36C336.531 410.521 335.635 411.462 334.529 411.462C333.423 411.462 332.527 410.521 332.527 409.36C332.527 408.199 333.423 407.258 334.529 407.258C335.635 407.258 336.531 408.199 336.531 409.36Z" fill="#25A6CE"/>
<path d="M8.57721 390.131C8.57721 391.293 7.68347 392.233 6.57523 392.233C5.46922 392.233 4.57324 391.293 4.57324 390.131C4.57324 388.97 5.46922 388.03 6.57523 388.03C7.68347 388.03 8.57721 388.97 8.57721 390.131Z" fill="#25A6CE"/>
<path d="M33.8067 390.131C33.8067 391.293 32.9107 392.233 31.8047 392.233C30.6987 392.233 29.8027 391.293 29.8027 390.131C29.8027 388.97 30.6987 388.03 31.8047 388.03C32.9107 388.03 33.8067 388.97 33.8067 390.131Z" fill="#25A6CE"/>
<path d="M59.0313 390.133C59.0313 391.294 58.1376 392.234 57.0293 392.234C55.9233 392.234 55.0273 391.294 55.0273 390.133C55.0273 388.972 55.9233 388.031 57.0293 388.031C58.1376 388.031 59.0313 388.972 59.0313 390.133Z" fill="#25A6CE"/>
<path d="M84.2608 390.133C84.2608 391.294 83.3648 392.234 82.2588 392.234C81.1528 392.234 80.2568 391.294 80.2568 390.133C80.2568 388.971 81.1528 388.031 82.2588 388.031C83.3648 388.031 84.2608 388.971 84.2608 390.133Z" fill="#25A6CE"/>
<path d="M109.485 390.133C109.485 391.294 108.592 392.234 107.483 392.234C106.377 392.234 105.481 391.294 105.481 390.133C105.481 388.972 106.377 388.031 107.483 388.031C108.592 388.031 109.485 388.972 109.485 390.133Z" fill="#25A6CE"/>
<path d="M134.712 390.133C134.712 391.294 133.816 392.234 132.71 392.234C131.604 392.234 130.708 391.294 130.708 390.133C130.708 388.971 131.604 388.031 132.71 388.031C133.816 388.031 134.712 388.971 134.712 390.133Z" fill="#25A6CE"/>
<path d="M159.944 390.131C159.944 391.293 159.048 392.233 157.942 392.233C156.833 392.233 155.938 391.293 155.938 390.131C155.938 388.97 156.833 388.03 157.942 388.03C159.048 388.03 159.944 388.97 159.944 390.131Z" fill="#25A6CE"/>
<path d="M185.168 390.132C185.168 391.293 184.272 392.233 183.166 392.233C182.06 392.233 181.164 391.293 181.164 390.132C181.164 388.97 182.06 388.03 183.166 388.03C184.272 388.03 185.168 388.97 185.168 390.132Z" fill="#25A6CE"/>
<path d="M210.398 390.133C210.398 391.294 209.502 392.234 208.396 392.234C207.288 392.234 206.392 391.294 206.392 390.133C206.392 388.972 207.288 388.031 208.396 388.031C209.502 388.031 210.398 388.972 210.398 390.133Z" fill="#25A6CE"/>
<path d="M235.623 390.133C235.623 391.294 234.727 392.234 233.621 392.234C232.515 392.234 231.619 391.294 231.619 390.133C231.619 388.971 232.515 388.031 233.621 388.031C234.727 388.031 235.623 388.971 235.623 390.133Z" fill="#25A6CE"/>
<path d="M260.852 390.132C260.852 391.293 259.956 392.233 258.85 392.233C257.742 392.233 256.846 391.293 256.846 390.132C256.846 388.97 257.742 388.03 258.85 388.03C259.956 388.03 260.852 388.97 260.852 390.132Z" fill="#25A6CE"/>
<path d="M286.076 390.133C286.076 391.294 285.18 392.234 284.074 392.234C282.968 392.234 282.072 391.294 282.072 390.133C282.072 388.971 282.968 388.031 284.074 388.031C285.18 388.031 286.076 388.971 286.076 390.133Z" fill="#25A6CE"/>
<path d="M311.304 390.132C311.304 391.293 310.408 392.233 309.302 392.233C308.194 392.233 307.298 391.293 307.298 390.132C307.298 388.97 308.194 388.03 309.302 388.03C310.408 388.03 311.304 388.97 311.304 390.132Z" fill="#25A6CE"/>
<path d="M336.531 390.132C336.531 391.293 335.635 392.233 334.529 392.233C333.423 392.233 332.527 391.293 332.527 390.132C332.527 388.97 333.423 388.03 334.529 388.03C335.635 388.03 336.531 388.97 336.531 390.132Z" fill="#25A6CE"/>
<path d="M8.57721 370.906C8.57721 372.067 7.68347 373.008 6.57523 373.008C5.46922 373.008 4.57324 372.067 4.57324 370.906C4.57324 369.745 5.46922 368.804 6.57523 368.804C7.68347 368.804 8.57721 369.745 8.57721 370.906Z" fill="#25A6CE"/>
<path d="M33.8067 370.906C33.8067 372.067 32.9107 373.008 31.8047 373.008C30.6987 373.008 29.8027 372.067 29.8027 370.906C29.8027 369.745 30.6987 368.804 31.8047 368.804C32.9107 368.804 33.8067 369.745 33.8067 370.906Z" fill="#25A6CE"/>
<path d="M59.0313 370.906C59.0313 372.067 58.1376 373.008 57.0293 373.008C55.9233 373.008 55.0273 372.067 55.0273 370.906C55.0273 369.745 55.9233 368.804 57.0293 368.804C58.1376 368.804 59.0313 369.745 59.0313 370.906Z" fill="#25A6CE"/>
<path d="M84.2608 370.906C84.2608 372.067 83.3648 373.008 82.2588 373.008C81.1528 373.008 80.2568 372.067 80.2568 370.906C80.2568 369.745 81.1528 368.804 82.2588 368.804C83.3648 368.804 84.2608 369.745 84.2608 370.906Z" fill="#25A6CE"/>
<path d="M109.485 370.906C109.485 372.067 108.592 373.008 107.483 373.008C106.377 373.008 105.481 372.067 105.481 370.906C105.481 369.745 106.377 368.804 107.483 368.804C108.592 368.804 109.485 369.745 109.485 370.906Z" fill="#25A6CE"/>
<path d="M134.712 370.906C134.712 372.067 133.816 373.008 132.71 373.008C131.604 373.008 130.708 372.067 130.708 370.906C130.708 369.745 131.604 368.804 132.71 368.804C133.816 368.804 134.712 369.745 134.712 370.906Z" fill="#25A6CE"/>
<path d="M159.944 370.906C159.944 372.067 159.048 373.008 157.942 373.008C156.833 373.008 155.938 372.067 155.938 370.906C155.938 369.745 156.833 368.804 157.942 368.804C159.048 368.804 159.944 369.745 159.944 370.906Z" fill="#25A6CE"/>
<path d="M185.168 370.906C185.168 372.067 184.272 373.008 183.166 373.008C182.06 373.008 181.164 372.067 181.164 370.906C181.164 369.745 182.06 368.804 183.166 368.804C184.272 368.804 185.168 369.745 185.168 370.906Z" fill="#25A6CE"/>
<path d="M210.398 370.906C210.398 372.067 209.502 373.008 208.396 373.008C207.288 373.008 206.392 372.067 206.392 370.906C206.392 369.745 207.288 368.804 208.396 368.804C209.502 368.804 210.398 369.745 210.398 370.906Z" fill="#25A6CE"/>
<path d="M235.623 370.906C235.623 372.067 234.727 373.008 233.621 373.008C232.515 373.008 231.619 372.067 231.619 370.906C231.619 369.745 232.515 368.804 233.621 368.804C234.727 368.804 235.623 369.745 235.623 370.906Z" fill="#25A6CE"/>
<path d="M260.852 370.906C260.852 372.067 259.956 373.008 258.85 373.008C257.742 373.008 256.846 372.067 256.846 370.906C256.846 369.745 257.742 368.804 258.85 368.804C259.956 368.804 260.852 369.745 260.852 370.906Z" fill="#25A6CE"/>
<path d="M286.076 370.906C286.076 372.067 285.18 373.008 284.074 373.008C282.968 373.008 282.072 372.067 282.072 370.906C282.072 369.745 282.968 368.804 284.074 368.804C285.18 368.804 286.076 369.745 286.076 370.906Z" fill="#25A6CE"/>
<path d="M311.304 370.906C311.304 372.067 310.408 373.008 309.302 373.008C308.194 373.008 307.298 372.067 307.298 370.906C307.298 369.745 308.194 368.804 309.302 368.804C310.408 368.804 311.304 369.745 311.304 370.906Z" fill="#25A6CE"/>
<path d="M336.531 370.906C336.531 372.067 335.635 373.008 334.529 373.008C333.423 373.008 332.527 372.067 332.527 370.906C332.527 369.745 333.423 368.804 334.529 368.804C335.635 368.804 336.531 369.745 336.531 370.906Z" fill="#25A6CE"/>
<path d="M8.57721 351.677C8.57721 352.839 7.68347 353.779 6.57523 353.779C5.46922 353.779 4.57324 352.839 4.57324 351.677C4.57324 350.516 5.46922 349.576 6.57523 349.576C7.68347 349.576 8.57721 350.516 8.57721 351.677Z" fill="#25A6CE"/>
<path d="M33.8067 351.677C33.8067 352.839 32.9107 353.779 31.8047 353.779C30.6987 353.779 29.8027 352.839 29.8027 351.677C29.8027 350.516 30.6987 349.576 31.8047 349.576C32.9107 349.576 33.8067 350.516 33.8067 351.677Z" fill="#25A6CE"/>
<path d="M59.0313 351.678C59.0313 352.839 58.1376 353.779 57.0293 353.779C55.9233 353.779 55.0273 352.839 55.0273 351.678C55.0273 350.516 55.9233 349.576 57.0293 349.576C58.1376 349.576 59.0313 350.516 59.0313 351.678Z" fill="#25A6CE"/>
<path d="M84.2608 351.677C84.2608 352.839 83.3648 353.779 82.2588 353.779C81.1528 353.779 80.2568 352.839 80.2568 351.677C80.2568 350.516 81.1528 349.576 82.2588 349.576C83.3648 349.576 84.2608 350.516 84.2608 351.677Z" fill="#25A6CE"/>
<path d="M109.485 351.678C109.485 352.839 108.592 353.779 107.483 353.779C106.377 353.779 105.481 352.839 105.481 351.678C105.481 350.516 106.377 349.576 107.483 349.576C108.592 349.576 109.485 350.516 109.485 351.678Z" fill="#25A6CE"/>
<path d="M134.712 351.677C134.712 352.839 133.816 353.779 132.71 353.779C131.604 353.779 130.708 352.839 130.708 351.677C130.708 350.516 131.604 349.576 132.71 349.576C133.816 349.576 134.712 350.516 134.712 351.677Z" fill="#25A6CE"/>
<path d="M159.944 351.677C159.944 352.839 159.048 353.779 157.942 353.779C156.833 353.779 155.938 352.839 155.938 351.677C155.938 350.516 156.833 349.576 157.942 349.576C159.048 349.576 159.944 350.516 159.944 351.677Z" fill="#25A6CE"/>
<path d="M185.168 351.678C185.168 352.839 184.272 353.779 183.166 353.779C182.06 353.779 181.164 352.839 181.164 351.678C181.164 350.516 182.06 349.576 183.166 349.576C184.272 349.576 185.168 350.516 185.168 351.678Z" fill="#25A6CE"/>
<path d="M210.398 351.678C210.398 352.839 209.502 353.779 208.396 353.779C207.288 353.779 206.392 352.839 206.392 351.678C206.392 350.516 207.288 349.576 208.396 349.576C209.502 349.576 210.398 350.516 210.398 351.678Z" fill="#25A6CE"/>
<path d="M235.623 351.677C235.623 352.839 234.727 353.779 233.621 353.779C232.515 353.779 231.619 352.839 231.619 351.677C231.619 350.516 232.515 349.576 233.621 349.576C234.727 349.576 235.623 350.516 235.623 351.677Z" fill="#25A6CE"/>
<path d="M260.852 351.678C260.852 352.839 259.956 353.779 258.85 353.779C257.742 353.779 256.846 352.839 256.846 351.678C256.846 350.516 257.742 349.576 258.85 349.576C259.956 349.576 260.852 350.516 260.852 351.678Z" fill="#25A6CE"/>
<path d="M286.076 351.677C286.076 352.839 285.18 353.779 284.074 353.779C282.968 353.779 282.072 352.839 282.072 351.677C282.072 350.516 282.968 349.576 284.074 349.576C285.18 349.576 286.076 350.516 286.076 351.677Z" fill="#25A6CE"/>
<path d="M311.304 351.678C311.304 352.839 310.408 353.779 309.302 353.779C308.194 353.779 307.298 352.839 307.298 351.678C307.298 350.516 308.194 349.576 309.302 349.576C310.408 349.576 311.304 350.516 311.304 351.678Z" fill="#25A6CE"/>
<path d="M336.531 351.678C336.531 352.839 335.635 353.779 334.529 353.779C333.423 353.779 332.527 352.839 332.527 351.678C332.527 350.516 333.423 349.576 334.529 349.576C335.635 349.576 336.531 350.516 336.531 351.678Z" fill="#25A6CE"/>
<path d="M8.57721 332.451C8.57721 333.612 7.68347 334.552 6.57523 334.552C5.46922 334.552 4.57324 333.612 4.57324 332.451C4.57324 331.289 5.46922 330.349 6.57523 330.349C7.68347 330.349 8.57721 331.289 8.57721 332.451Z" fill="#25A6CE"/>
<path d="M33.8067 332.451C33.8067 333.612 32.9107 334.552 31.8047 334.552C30.6987 334.552 29.8027 333.612 29.8027 332.451C29.8027 331.289 30.6987 330.349 31.8047 330.349C32.9107 330.349 33.8067 331.289 33.8067 332.451Z" fill="#25A6CE"/>
<path d="M59.0313 332.45C59.0313 333.611 58.1376 334.552 57.0293 334.552C55.9233 334.552 55.0273 333.611 55.0273 332.45C55.0273 331.289 55.9233 330.348 57.0293 330.348C58.1376 330.348 59.0313 331.289 59.0313 332.45Z" fill="#25A6CE"/>
<path d="M84.2608 332.45C84.2608 333.611 83.3648 334.552 82.2588 334.552C81.1528 334.552 80.2568 333.611 80.2568 332.45C80.2568 331.289 81.1528 330.348 82.2588 330.348C83.3648 330.348 84.2608 331.289 84.2608 332.45Z" fill="#25A6CE"/>
<path d="M109.485 332.45C109.485 333.611 108.592 334.552 107.483 334.552C106.377 334.552 105.481 333.611 105.481 332.45C105.481 331.289 106.377 330.348 107.483 330.348C108.592 330.348 109.485 331.289 109.485 332.45Z" fill="#25A6CE"/>
<path d="M134.712 332.45C134.712 333.612 133.816 334.552 132.71 334.552C131.604 334.552 130.708 333.612 130.708 332.45C130.708 331.289 131.604 330.349 132.71 330.349C133.816 330.349 134.712 331.289 134.712 332.45Z" fill="#25A6CE"/>
<path d="M159.944 332.451C159.944 333.612 159.048 334.552 157.942 334.552C156.833 334.552 155.938 333.612 155.938 332.451C155.938 331.289 156.833 330.349 157.942 330.349C159.048 330.349 159.944 331.289 159.944 332.451Z" fill="#25A6CE"/>
<path d="M185.168 332.451C185.168 333.612 184.272 334.553 183.166 334.553C182.06 334.553 181.164 333.612 181.164 332.451C181.164 331.29 182.06 330.349 183.166 330.349C184.272 330.349 185.168 331.29 185.168 332.451Z" fill="#25A6CE"/>
<path d="M210.398 332.45C210.398 333.611 209.502 334.552 208.396 334.552C207.288 334.552 206.392 333.611 206.392 332.45C206.392 331.289 207.288 330.348 208.396 330.348C209.502 330.348 210.398 331.289 210.398 332.45Z" fill="#25A6CE"/>
<path d="M235.623 332.45C235.623 333.611 234.727 334.552 233.621 334.552C232.515 334.552 231.619 333.611 231.619 332.45C231.619 331.289 232.515 330.348 233.621 330.348C234.727 330.348 235.623 331.289 235.623 332.45Z" fill="#25A6CE"/>
<path d="M260.852 332.451C260.852 333.612 259.956 334.553 258.85 334.553C257.742 334.553 256.846 333.612 256.846 332.451C256.846 331.29 257.742 330.349 258.85 330.349C259.956 330.349 260.852 331.29 260.852 332.451Z" fill="#25A6CE"/>
<path d="M286.076 332.45C286.076 333.612 285.18 334.552 284.074 334.552C282.968 334.552 282.072 333.612 282.072 332.45C282.072 331.289 282.968 330.349 284.074 330.349C285.18 330.349 286.076 331.289 286.076 332.45Z" fill="#25A6CE"/>
<path d="M311.304 332.451C311.304 333.612 310.408 334.553 309.302 334.553C308.194 334.553 307.298 333.612 307.298 332.451C307.298 331.29 308.194 330.349 309.302 330.349C310.408 330.349 311.304 331.29 311.304 332.451Z" fill="#25A6CE"/>
<path d="M336.531 332.451C336.531 333.612 335.635 334.553 334.529 334.553C333.423 334.553 332.527 333.612 332.527 332.451C332.527 331.29 333.423 330.349 334.529 330.349C335.635 330.349 336.531 331.29 336.531 332.451Z" fill="#25A6CE"/>
<path d="M8.57721 313.224C8.57721 314.385 7.68347 315.325 6.57523 315.325C5.46922 315.325 4.57324 314.385 4.57324 313.224C4.57324 312.062 5.46922 311.122 6.57523 311.122C7.68347 311.122 8.57721 312.062 8.57721 313.224Z" fill="#25A6CE"/>
<path d="M33.8067 313.224C33.8067 314.385 32.9107 315.325 31.8047 315.325C30.6987 315.325 29.8027 314.385 29.8027 313.224C29.8027 312.062 30.6987 311.122 31.8047 311.122C32.9107 311.122 33.8067 312.062 33.8067 313.224Z" fill="#25A6CE"/>
<path d="M59.0313 313.224C59.0313 314.385 58.1376 315.325 57.0293 315.325C55.9233 315.325 55.0273 314.385 55.0273 313.224C55.0273 312.062 55.9233 311.122 57.0293 311.122C58.1376 311.122 59.0313 312.062 59.0313 313.224Z" fill="#25A6CE"/>
<path d="M84.2608 313.224C84.2608 314.385 83.3648 315.325 82.2588 315.325C81.1528 315.325 80.2568 314.385 80.2568 313.224C80.2568 312.062 81.1528 311.122 82.2588 311.122C83.3648 311.122 84.2608 312.062 84.2608 313.224Z" fill="#25A6CE"/>
<path d="M109.485 313.224C109.485 314.385 108.592 315.325 107.483 315.325C106.377 315.325 105.481 314.385 105.481 313.224C105.481 312.062 106.377 311.122 107.483 311.122C108.592 311.122 109.485 312.062 109.485 313.224Z" fill="#25A6CE"/>
<path d="M134.712 313.224C134.712 314.385 133.816 315.325 132.71 315.325C131.604 315.325 130.708 314.385 130.708 313.224C130.708 312.062 131.604 311.122 132.71 311.122C133.816 311.122 134.712 312.062 134.712 313.224Z" fill="#25A6CE"/>
<path d="M159.944 313.224C159.944 314.385 159.048 315.325 157.942 315.325C156.833 315.325 155.938 314.385 155.938 313.224C155.938 312.062 156.833 311.122 157.942 311.122C159.048 311.122 159.944 312.062 159.944 313.224Z" fill="#25A6CE"/>
<path d="M185.168 313.224C185.168 314.385 184.272 315.325 183.166 315.325C182.06 315.325 181.164 314.385 181.164 313.224C181.164 312.062 182.06 311.122 183.166 311.122C184.272 311.122 185.168 312.062 185.168 313.224Z" fill="#25A6CE"/>
<path d="M210.398 313.224C210.398 314.385 209.502 315.325 208.396 315.325C207.288 315.325 206.392 314.385 206.392 313.224C206.392 312.062 207.288 311.122 208.396 311.122C209.502 311.122 210.398 312.062 210.398 313.224Z" fill="#25A6CE"/>
<path d="M235.623 313.224C235.623 314.385 234.727 315.325 233.621 315.325C232.515 315.325 231.619 314.385 231.619 313.224C231.619 312.062 232.515 311.122 233.621 311.122C234.727 311.122 235.623 312.062 235.623 313.224Z" fill="#25A6CE"/>
<path d="M260.852 313.224C260.852 314.385 259.956 315.325 258.85 315.325C257.742 315.325 256.846 314.385 256.846 313.224C256.846 312.062 257.742 311.122 258.85 311.122C259.956 311.122 260.852 312.062 260.852 313.224Z" fill="#25A6CE"/>
<path d="M286.076 313.224C286.076 314.385 285.18 315.325 284.074 315.325C282.968 315.325 282.072 314.385 282.072 313.224C282.072 312.062 282.968 311.122 284.074 311.122C285.18 311.122 286.076 312.062 286.076 313.224Z" fill="#25A6CE"/>
<path d="M311.304 313.224C311.304 314.385 310.408 315.325 309.302 315.325C308.194 315.325 307.298 314.385 307.298 313.224C307.298 312.062 308.194 311.122 309.302 311.122C310.408 311.122 311.304 312.062 311.304 313.224Z" fill="#25A6CE"/>
<path d="M336.531 313.224C336.531 314.385 335.635 315.325 334.529 315.325C333.423 315.325 332.527 314.385 332.527 313.224C332.527 312.062 333.423 311.122 334.529 311.122C335.635 311.122 336.531 312.062 336.531 313.224Z" fill="#25A6CE"/>
<path d="M8.57721 293.996C8.57721 295.157 7.68347 296.098 6.57523 296.098C5.46922 296.098 4.57324 295.157 4.57324 293.996C4.57324 292.835 5.46922 291.894 6.57523 291.894C7.68347 291.894 8.57721 292.835 8.57721 293.996Z" fill="#25A6CE"/>
<path d="M33.8067 293.996C33.8067 295.157 32.9107 296.098 31.8047 296.098C30.6987 296.098 29.8027 295.157 29.8027 293.996C29.8027 292.835 30.6987 291.894 31.8047 291.894C32.9107 291.894 33.8067 292.835 33.8067 293.996Z" fill="#25A6CE"/>
<path d="M59.0313 293.996C59.0313 295.157 58.1376 296.097 57.0293 296.097C55.9233 296.097 55.0273 295.157 55.0273 293.996C55.0273 292.834 55.9233 291.894 57.0293 291.894C58.1376 291.894 59.0313 292.834 59.0313 293.996Z" fill="#25A6CE"/>
<path d="M84.2608 293.996C84.2608 295.157 83.3648 296.098 82.2588 296.098C81.1528 296.098 80.2568 295.157 80.2568 293.996C80.2568 292.835 81.1528 291.894 82.2588 291.894C83.3648 291.894 84.2608 292.835 84.2608 293.996Z" fill="#25A6CE"/>
<path d="M109.485 293.996C109.485 295.157 108.592 296.097 107.483 296.097C106.377 296.097 105.481 295.157 105.481 293.996C105.481 292.834 106.377 291.894 107.483 291.894C108.592 291.894 109.485 292.834 109.485 293.996Z" fill="#25A6CE"/>
<path d="M134.712 293.996C134.712 295.157 133.816 296.098 132.71 296.098C131.604 296.098 130.708 295.157 130.708 293.996C130.708 292.835 131.604 291.894 132.71 291.894C133.816 291.894 134.712 292.835 134.712 293.996Z" fill="#25A6CE"/>
<path d="M159.944 293.996C159.944 295.157 159.048 296.098 157.942 296.098C156.833 296.098 155.938 295.157 155.938 293.996C155.938 292.835 156.833 291.894 157.942 291.894C159.048 291.894 159.944 292.835 159.944 293.996Z" fill="#25A6CE"/>
<path d="M185.168 293.996C185.168 295.157 184.272 296.097 183.166 296.097C182.06 296.097 181.164 295.157 181.164 293.996C181.164 292.834 182.06 291.894 183.166 291.894C184.272 291.894 185.168 292.834 185.168 293.996Z" fill="#25A6CE"/>
<path d="M210.398 293.996C210.398 295.157 209.502 296.097 208.396 296.097C207.288 296.097 206.392 295.157 206.392 293.996C206.392 292.834 207.288 291.894 208.396 291.894C209.502 291.894 210.398 292.834 210.398 293.996Z" fill="#25A6CE"/>
<path d="M235.623 293.996C235.623 295.157 234.727 296.098 233.621 296.098C232.515 296.098 231.619 295.157 231.619 293.996C231.619 292.835 232.515 291.894 233.621 291.894C234.727 291.894 235.623 292.835 235.623 293.996Z" fill="#25A6CE"/>
<path d="M260.852 293.996C260.852 295.157 259.956 296.097 258.85 296.097C257.742 296.097 256.846 295.157 256.846 293.996C256.846 292.834 257.742 291.894 258.85 291.894C259.956 291.894 260.852 292.834 260.852 293.996Z" fill="#25A6CE"/>
<path d="M286.076 293.996C286.076 295.157 285.18 296.098 284.074 296.098C282.968 296.098 282.072 295.157 282.072 293.996C282.072 292.835 282.968 291.894 284.074 291.894C285.18 291.894 286.076 292.835 286.076 293.996Z" fill="#25A6CE"/>
<path d="M311.304 293.996C311.304 295.157 310.408 296.097 309.302 296.097C308.194 296.097 307.298 295.157 307.298 293.996C307.298 292.834 308.194 291.894 309.302 291.894C310.408 291.894 311.304 292.834 311.304 293.996Z" fill="#25A6CE"/>
<path d="M336.531 293.996C336.531 295.157 335.635 296.097 334.529 296.097C333.423 296.097 332.527 295.157 332.527 293.996C332.527 292.834 333.423 291.894 334.529 291.894C335.635 291.894 336.531 292.834 336.531 293.996Z" fill="#25A6CE"/>
<path d="M8.57721 274.77C8.57721 275.931 7.68347 276.871 6.57523 276.871C5.46922 276.871 4.57324 275.931 4.57324 274.77C4.57324 273.608 5.46922 272.668 6.57523 272.668C7.68347 272.668 8.57721 273.608 8.57721 274.77Z" fill="#25A6CE"/>
<path d="M33.8067 274.77C33.8067 275.931 32.9107 276.871 31.8047 276.871C30.6987 276.871 29.8027 275.931 29.8027 274.77C29.8027 273.608 30.6987 272.668 31.8047 272.668C32.9107 272.668 33.8067 273.608 33.8067 274.77Z" fill="#25A6CE"/>
<path d="M59.0313 274.77C59.0313 275.931 58.1376 276.871 57.0293 276.871C55.9233 276.871 55.0273 275.931 55.0273 274.77C55.0273 273.608 55.9233 272.668 57.0293 272.668C58.1376 272.668 59.0313 273.608 59.0313 274.77Z" fill="#25A6CE"/>
<path d="M84.2608 274.77C84.2608 275.931 83.3648 276.871 82.2588 276.871C81.1528 276.871 80.2568 275.931 80.2568 274.77C80.2568 273.608 81.1528 272.668 82.2588 272.668C83.3648 272.668 84.2608 273.608 84.2608 274.77Z" fill="#25A6CE"/>
<path d="M109.485 274.77C109.485 275.931 108.592 276.871 107.483 276.871C106.377 276.871 105.481 275.931 105.481 274.77C105.481 273.608 106.377 272.668 107.483 272.668C108.592 272.668 109.485 273.608 109.485 274.77Z" fill="#25A6CE"/>
<path d="M134.712 274.77C134.712 275.931 133.816 276.871 132.71 276.871C131.604 276.871 130.708 275.931 130.708 274.77C130.708 273.608 131.604 272.668 132.71 272.668C133.816 272.668 134.712 273.608 134.712 274.77Z" fill="#25A6CE"/>
<path d="M159.944 274.77C159.944 275.931 159.048 276.871 157.942 276.871C156.833 276.871 155.938 275.931 155.938 274.77C155.938 273.608 156.833 272.668 157.942 272.668C159.048 272.668 159.944 273.608 159.944 274.77Z" fill="#25A6CE"/>
<path d="M185.168 274.77C185.168 275.931 184.272 276.871 183.166 276.871C182.06 276.871 181.164 275.931 181.164 274.77C181.164 273.608 182.06 272.668 183.166 272.668C184.272 272.668 185.168 273.608 185.168 274.77Z" fill="#25A6CE"/>
<path d="M210.398 274.77C210.398 275.931 209.502 276.871 208.396 276.871C207.288 276.871 206.392 275.931 206.392 274.77C206.392 273.608 207.288 272.668 208.396 272.668C209.502 272.668 210.398 273.608 210.398 274.77Z" fill="#25A6CE"/>
<path d="M235.623 274.77C235.623 275.931 234.727 276.871 233.621 276.871C232.515 276.871 231.619 275.931 231.619 274.77C231.619 273.608 232.515 272.668 233.621 272.668C234.727 272.668 235.623 273.608 235.623 274.77Z" fill="#25A6CE"/>
<path d="M260.852 274.77C260.852 275.931 259.956 276.871 258.85 276.871C257.742 276.871 256.846 275.931 256.846 274.77C256.846 273.608 257.742 272.668 258.85 272.668C259.956 272.668 260.852 273.608 260.852 274.77Z" fill="#25A6CE"/>
<path d="M286.076 274.77C286.076 275.931 285.18 276.871 284.074 276.871C282.968 276.871 282.072 275.931 282.072 274.77C282.072 273.608 282.968 272.668 284.074 272.668C285.18 272.668 286.076 273.608 286.076 274.77Z" fill="#25A6CE"/>
<path d="M311.304 274.77C311.304 275.931 310.408 276.871 309.302 276.871C308.194 276.871 307.298 275.931 307.298 274.77C307.298 273.608 308.194 272.668 309.302 272.668C310.408 272.668 311.304 273.608 311.304 274.77Z" fill="#25A6CE"/>
<path d="M336.531 274.77C336.531 275.931 335.635 276.871 334.529 276.871C333.423 276.871 332.527 275.931 332.527 274.77C332.527 273.608 333.423 272.668 334.529 272.668C335.635 272.668 336.531 273.608 336.531 274.77Z" fill="#25A6CE"/>
<path d="M8.57721 255.542C8.57721 256.703 7.68347 257.644 6.57523 257.644C5.46922 257.644 4.57324 256.703 4.57324 255.542C4.57324 254.381 5.46922 253.44 6.57523 253.44C7.68347 253.44 8.57721 254.381 8.57721 255.542Z" fill="#25A6CE"/>
<path d="M33.8067 255.542C33.8067 256.703 32.9107 257.644 31.8047 257.644C30.6987 257.644 29.8027 256.703 29.8027 255.542C29.8027 254.381 30.6987 253.44 31.8047 253.44C32.9107 253.44 33.8067 254.381 33.8067 255.542Z" fill="#25A6CE"/>
<path d="M59.0313 255.543C59.0313 256.704 58.1376 257.645 57.0293 257.645C55.9233 257.645 55.0273 256.704 55.0273 255.543C55.0273 254.382 55.9233 253.441 57.0293 253.441C58.1376 253.441 59.0313 254.382 59.0313 255.543Z" fill="#25A6CE"/>
<path d="M84.2608 255.543C84.2608 256.704 83.3648 257.645 82.2588 257.645C81.1528 257.645 80.2568 256.704 80.2568 255.543C80.2568 254.382 81.1528 253.441 82.2588 253.441C83.3648 253.441 84.2608 254.382 84.2608 255.543Z" fill="#25A6CE"/>
<path d="M109.485 255.543C109.485 256.704 108.592 257.645 107.483 257.645C106.377 257.645 105.481 256.704 105.481 255.543C105.481 254.382 106.377 253.441 107.483 253.441C108.592 253.441 109.485 254.382 109.485 255.543Z" fill="#25A6CE"/>
<path d="M134.712 255.543C134.712 256.704 133.816 257.645 132.71 257.645C131.604 257.645 130.708 256.704 130.708 255.543C130.708 254.382 131.604 253.441 132.71 253.441C133.816 253.441 134.712 254.382 134.712 255.543Z" fill="#25A6CE"/>
<path d="M159.944 255.542C159.944 256.703 159.048 257.644 157.942 257.644C156.833 257.644 155.938 256.703 155.938 255.542C155.938 254.381 156.833 253.44 157.942 253.44C159.048 253.44 159.944 254.381 159.944 255.542Z" fill="#25A6CE"/>
<path d="M185.168 255.542C185.168 256.703 184.272 257.644 183.166 257.644C182.06 257.644 181.164 256.703 181.164 255.542C181.164 254.381 182.06 253.44 183.166 253.44C184.272 253.44 185.168 254.381 185.168 255.542Z" fill="#25A6CE"/>
<path d="M210.398 255.543C210.398 256.704 209.502 257.645 208.396 257.645C207.288 257.645 206.392 256.704 206.392 255.543C206.392 254.382 207.288 253.441 208.396 253.441C209.502 253.441 210.398 254.382 210.398 255.543Z" fill="#25A6CE"/>
<path d="M235.623 255.543C235.623 256.704 234.727 257.645 233.621 257.645C232.515 257.645 231.619 256.704 231.619 255.543C231.619 254.382 232.515 253.441 233.621 253.441C234.727 253.441 235.623 254.382 235.623 255.543Z" fill="#25A6CE"/>
<path d="M260.852 255.542C260.852 256.703 259.956 257.644 258.85 257.644C257.742 257.644 256.846 256.703 256.846 255.542C256.846 254.381 257.742 253.44 258.85 253.44C259.956 253.44 260.852 254.381 260.852 255.542Z" fill="#25A6CE"/>
<path d="M286.076 255.543C286.076 256.704 285.18 257.645 284.074 257.645C282.968 257.645 282.072 256.704 282.072 255.543C282.072 254.382 282.968 253.441 284.074 253.441C285.18 253.441 286.076 254.382 286.076 255.543Z" fill="#25A6CE"/>
<path d="M311.304 255.542C311.304 256.703 310.408 257.644 309.302 257.644C308.194 257.644 307.298 256.703 307.298 255.542C307.298 254.381 308.194 253.44 309.302 253.44C310.408 253.44 311.304 254.381 311.304 255.542Z" fill="#25A6CE"/>
<path d="M336.531 255.542C336.531 256.703 335.635 257.644 334.529 257.644C333.423 257.644 332.527 256.703 332.527 255.542C332.527 254.381 333.423 253.44 334.529 253.44C335.635 253.44 336.531 254.381 336.531 255.542Z" fill="#25A6CE"/>
<path d="M8.57721 236.315C8.57721 237.476 7.68347 238.417 6.57523 238.417C5.46922 238.417 4.57324 237.476 4.57324 236.315C4.57324 235.154 5.46922 234.213 6.57523 234.213C7.68347 234.213 8.57721 235.154 8.57721 236.315Z" fill="#25A6CE"/>
<path d="M33.8067 236.315C33.8067 237.476 32.9107 238.417 31.8047 238.417C30.6987 238.417 29.8027 237.476 29.8027 236.315C29.8027 235.154 30.6987 234.213 31.8047 234.213C32.9107 234.213 33.8067 235.154 33.8067 236.315Z" fill="#25A6CE"/>
<path d="M59.0313 236.314C59.0313 237.476 58.1376 238.416 57.0293 238.416C55.9233 238.416 55.0273 237.476 55.0273 236.314C55.0273 235.153 55.9233 234.213 57.0293 234.213C58.1376 234.213 59.0313 235.153 59.0313 236.314Z" fill="#25A6CE"/>
<path d="M84.2608 236.314C84.2608 237.476 83.3648 238.416 82.2588 238.416C81.1528 238.416 80.2568 237.476 80.2568 236.314C80.2568 235.153 81.1528 234.213 82.2588 234.213C83.3648 234.213 84.2608 235.153 84.2608 236.314Z" fill="#25A6CE"/>
<path d="M109.485 236.314C109.485 237.476 108.592 238.416 107.483 238.416C106.377 238.416 105.481 237.476 105.481 236.314C105.481 235.153 106.377 234.213 107.483 234.213C108.592 234.213 109.485 235.153 109.485 236.314Z" fill="#25A6CE"/>
<path d="M134.712 236.314C134.712 237.476 133.816 238.416 132.71 238.416C131.604 238.416 130.708 237.476 130.708 236.314C130.708 235.153 131.604 234.213 132.71 234.213C133.816 234.213 134.712 235.153 134.712 236.314Z" fill="#25A6CE"/>
<path d="M159.944 236.315C159.944 237.476 159.048 238.417 157.942 238.417C156.833 238.417 155.938 237.476 155.938 236.315C155.938 235.154 156.833 234.213 157.942 234.213C159.048 234.213 159.944 235.154 159.944 236.315Z" fill="#25A6CE"/>
<path d="M185.168 236.315C185.168 237.476 184.272 238.417 183.166 238.417C182.06 238.417 181.164 237.476 181.164 236.315C181.164 235.154 182.06 234.213 183.166 234.213C184.272 234.213 185.168 235.154 185.168 236.315Z" fill="#25A6CE"/>
<path d="M210.398 236.314C210.398 237.476 209.502 238.416 208.396 238.416C207.288 238.416 206.392 237.476 206.392 236.314C206.392 235.153 207.288 234.213 208.396 234.213C209.502 234.213 210.398 235.153 210.398 236.314Z" fill="#25A6CE"/>
<path d="M235.623 236.314C235.623 237.476 234.727 238.416 233.621 238.416C232.515 238.416 231.619 237.476 231.619 236.314C231.619 235.153 232.515 234.213 233.621 234.213C234.727 234.213 235.623 235.153 235.623 236.314Z" fill="#25A6CE"/>
<path d="M260.852 236.315C260.852 237.476 259.956 238.417 258.85 238.417C257.742 238.417 256.846 237.476 256.846 236.315C256.846 235.154 257.742 234.213 258.85 234.213C259.956 234.213 260.852 235.154 260.852 236.315Z" fill="#25A6CE"/>
<path d="M286.076 236.314C286.076 237.476 285.18 238.416 284.074 238.416C282.968 238.416 282.072 237.476 282.072 236.314C282.072 235.153 282.968 234.213 284.074 234.213C285.18 234.213 286.076 235.153 286.076 236.314Z" fill="#25A6CE"/>
<path d="M311.304 236.315C311.304 237.476 310.408 238.417 309.302 238.417C308.194 238.417 307.298 237.476 307.298 236.315C307.298 235.154 308.194 234.213 309.302 234.213C310.408 234.213 311.304 235.154 311.304 236.315Z" fill="#25A6CE"/>
<path d="M336.531 236.315C336.531 237.476 335.635 238.417 334.529 238.417C333.423 238.417 332.527 237.476 332.527 236.315C332.527 235.154 333.423 234.213 334.529 234.213C335.635 234.213 336.531 235.154 336.531 236.315Z" fill="#25A6CE"/>
<path d="M8.57721 217.088C8.57721 218.249 7.68347 219.189 6.57523 219.189C5.46922 219.189 4.57324 218.249 4.57324 217.088C4.57324 215.926 5.46922 214.986 6.57523 214.986C7.68347 214.986 8.57721 215.926 8.57721 217.088Z" fill="#25A6CE"/>
<path d="M33.8067 217.088C33.8067 218.249 32.9107 219.189 31.8047 219.189C30.6987 219.189 29.8027 218.249 29.8027 217.088C29.8027 215.926 30.6987 214.986 31.8047 214.986C32.9107 214.986 33.8067 215.926 33.8067 217.088Z" fill="#25A6CE"/>
<path d="M59.0313 217.088C59.0313 218.249 58.1376 219.189 57.0293 219.189C55.9233 219.189 55.0273 218.249 55.0273 217.088C55.0273 215.926 55.9233 214.986 57.0293 214.986C58.1376 214.986 59.0313 215.926 59.0313 217.088Z" fill="#25A6CE"/>
<path d="M84.2608 217.088C84.2608 218.249 83.3648 219.189 82.2588 219.189C81.1528 219.189 80.2568 218.249 80.2568 217.088C80.2568 215.926 81.1528 214.986 82.2588 214.986C83.3648 214.986 84.2608 215.926 84.2608 217.088Z" fill="#25A6CE"/>
<path d="M109.485 217.088C109.485 218.249 108.592 219.189 107.483 219.189C106.377 219.189 105.481 218.249 105.481 217.088C105.481 215.926 106.377 214.986 107.483 214.986C108.592 214.986 109.485 215.926 109.485 217.088Z" fill="#25A6CE"/>
<path d="M134.712 217.088C134.712 218.249 133.816 219.189 132.71 219.189C131.604 219.189 130.708 218.249 130.708 217.088C130.708 215.926 131.604 214.986 132.71 214.986C133.816 214.986 134.712 215.926 134.712 217.088Z" fill="#25A6CE"/>
<path d="M159.944 217.088C159.944 218.249 159.048 219.189 157.942 219.189C156.833 219.189 155.938 218.249 155.938 217.088C155.938 215.926 156.833 214.986 157.942 214.986C159.048 214.986 159.944 215.926 159.944 217.088Z" fill="#25A6CE"/>
<path d="M185.168 217.088C185.168 218.249 184.272 219.189 183.166 219.189C182.06 219.189 181.164 218.249 181.164 217.088C181.164 215.926 182.06 214.986 183.166 214.986C184.272 214.986 185.168 215.926 185.168 217.088Z" fill="#25A6CE"/>
<path d="M210.398 217.088C210.398 218.249 209.502 219.189 208.396 219.189C207.288 219.189 206.392 218.249 206.392 217.088C206.392 215.926 207.288 214.986 208.396 214.986C209.502 214.986 210.398 215.926 210.398 217.088Z" fill="#25A6CE"/>
<path d="M235.623 217.088C235.623 218.249 234.727 219.189 233.621 219.189C232.515 219.189 231.619 218.249 231.619 217.088C231.619 215.926 232.515 214.986 233.621 214.986C234.727 214.986 235.623 215.926 235.623 217.088Z" fill="#25A6CE"/>
<path d="M260.852 217.088C260.852 218.249 259.956 219.189 258.85 219.189C257.742 219.189 256.846 218.249 256.846 217.088C256.846 215.926 257.742 214.986 258.85 214.986C259.956 214.986 260.852 215.926 260.852 217.088Z" fill="#25A6CE"/>
<path d="M286.076 217.088C286.076 218.249 285.18 219.189 284.074 219.189C282.968 219.189 282.072 218.249 282.072 217.088C282.072 215.926 282.968 214.986 284.074 214.986C285.18 214.986 286.076 215.926 286.076 217.088Z" fill="#25A6CE"/>
<path d="M311.304 217.088C311.304 218.249 310.408 219.189 309.302 219.189C308.194 219.189 307.298 218.249 307.298 217.088C307.298 215.926 308.194 214.986 309.302 214.986C310.408 214.986 311.304 215.926 311.304 217.088Z" fill="#25A6CE"/>
<path d="M336.531 217.088C336.531 218.249 335.635 219.189 334.529 219.189C333.423 219.189 332.527 218.249 332.527 217.088C332.527 215.926 333.423 214.986 334.529 214.986C335.635 214.986 336.531 215.926 336.531 217.088Z" fill="#25A6CE"/>
<path d="M8.57721 197.861C8.57721 199.022 7.68347 199.963 6.57523 199.963C5.46922 199.963 4.57324 199.022 4.57324 197.861C4.57324 196.7 5.46922 195.759 6.57523 195.759C7.68347 195.759 8.57721 196.7 8.57721 197.861Z" fill="#25A6CE"/>
<path d="M33.8067 197.861C33.8067 199.022 32.9107 199.963 31.8047 199.963C30.6987 199.963 29.8027 199.022 29.8027 197.861C29.8027 196.7 30.6987 195.759 31.8047 195.759C32.9107 195.759 33.8067 196.7 33.8067 197.861Z" fill="#25A6CE"/>
<path d="M59.0313 197.86C59.0313 199.021 58.1376 199.962 57.0293 199.962C55.9233 199.962 55.0273 199.021 55.0273 197.86C55.0273 196.699 55.9233 195.759 57.0293 195.759C58.1376 195.759 59.0313 196.699 59.0313 197.86Z" fill="#25A6CE"/>
<path d="M84.2608 197.861C84.2608 199.022 83.3648 199.963 82.2588 199.963C81.1528 199.963 80.2568 199.022 80.2568 197.861C80.2568 196.7 81.1528 195.759 82.2588 195.759C83.3648 195.759 84.2608 196.7 84.2608 197.861Z" fill="#25A6CE"/>
<path d="M109.485 197.86C109.485 199.021 108.592 199.962 107.483 199.962C106.377 199.962 105.481 199.021 105.481 197.86C105.481 196.699 106.377 195.759 107.483 195.759C108.592 195.759 109.485 196.699 109.485 197.86Z" fill="#25A6CE"/>
<path d="M134.712 197.861C134.712 199.022 133.816 199.962 132.71 199.962C131.604 199.962 130.708 199.022 130.708 197.861C130.708 196.699 131.604 195.759 132.71 195.759C133.816 195.759 134.712 196.699 134.712 197.861Z" fill="#25A6CE"/>
<path d="M159.944 197.861C159.944 199.022 159.048 199.963 157.942 199.963C156.833 199.963 155.938 199.022 155.938 197.861C155.938 196.7 156.833 195.759 157.942 195.759C159.048 195.759 159.944 196.7 159.944 197.861Z" fill="#25A6CE"/>
<path d="M185.168 197.861C185.168 199.023 184.272 199.963 183.166 199.963C182.06 199.963 181.164 199.023 181.164 197.861C181.164 196.7 182.06 195.76 183.166 195.76C184.272 195.76 185.168 196.7 185.168 197.861Z" fill="#25A6CE"/>
<path d="M210.398 197.86C210.398 199.021 209.502 199.962 208.396 199.962C207.288 199.962 206.392 199.021 206.392 197.86C206.392 196.699 207.288 195.759 208.396 195.759C209.502 195.759 210.398 196.699 210.398 197.86Z" fill="#25A6CE"/>
<path d="M235.623 197.861C235.623 199.022 234.727 199.963 233.621 199.963C232.515 199.963 231.619 199.022 231.619 197.861C231.619 196.7 232.515 195.759 233.621 195.759C234.727 195.759 235.623 196.7 235.623 197.861Z" fill="#25A6CE"/>
<path d="M260.852 197.861C260.852 199.023 259.956 199.963 258.85 199.963C257.742 199.963 256.846 199.023 256.846 197.861C256.846 196.7 257.742 195.76 258.85 195.76C259.956 195.76 260.852 196.7 260.852 197.861Z" fill="#25A6CE"/>
<path d="M286.076 197.861C286.076 199.022 285.18 199.962 284.074 199.962C282.968 199.962 282.072 199.022 282.072 197.861C282.072 196.699 282.968 195.759 284.074 195.759C285.18 195.759 286.076 196.699 286.076 197.861Z" fill="#25A6CE"/>
<path d="M311.304 197.861C311.304 199.023 310.408 199.963 309.302 199.963C308.194 199.963 307.298 199.023 307.298 197.861C307.298 196.7 308.194 195.76 309.302 195.76C310.408 195.76 311.304 196.7 311.304 197.861Z" fill="#25A6CE"/>
<path d="M336.531 197.861C336.531 199.022 335.635 199.963 334.529 199.963C333.423 199.963 332.527 199.022 332.527 197.861C332.527 196.7 333.423 195.759 334.529 195.759C335.635 195.759 336.531 196.7 336.531 197.861Z" fill="#25A6CE"/>
<path d="M8.57721 178.634C8.57721 179.795 7.68347 180.735 6.57523 180.735C5.46922 180.735 4.57324 179.795 4.57324 178.634C4.57324 177.472 5.46922 176.532 6.57523 176.532C7.68347 176.532 8.57721 177.472 8.57721 178.634Z" fill="#25A6CE"/>
<path d="M33.8067 178.634C33.8067 179.795 32.9107 180.735 31.8047 180.735C30.6987 180.735 29.8027 179.795 29.8027 178.634C29.8027 177.472 30.6987 176.532 31.8047 176.532C32.9107 176.532 33.8067 177.472 33.8067 178.634Z" fill="#25A6CE"/>
<path d="M59.0313 178.634C59.0313 179.795 58.1376 180.735 57.0293 180.735C55.9233 180.735 55.0273 179.795 55.0273 178.634C55.0273 177.472 55.9233 176.532 57.0293 176.532C58.1376 176.532 59.0313 177.472 59.0313 178.634Z" fill="#25A6CE"/>
<path d="M84.2608 178.634C84.2608 179.795 83.3648 180.735 82.2588 180.735C81.1528 180.735 80.2568 179.795 80.2568 178.634C80.2568 177.472 81.1528 176.532 82.2588 176.532C83.3648 176.532 84.2608 177.472 84.2608 178.634Z" fill="#25A6CE"/>
<path d="M109.485 178.634C109.485 179.795 108.592 180.735 107.483 180.735C106.377 180.735 105.481 179.795 105.481 178.634C105.481 177.472 106.377 176.532 107.483 176.532C108.592 176.532 109.485 177.472 109.485 178.634Z" fill="#25A6CE"/>
<path d="M134.712 178.634C134.712 179.795 133.816 180.735 132.71 180.735C131.604 180.735 130.708 179.795 130.708 178.634C130.708 177.472 131.604 176.532 132.71 176.532C133.816 176.532 134.712 177.472 134.712 178.634Z" fill="#25A6CE"/>
<path d="M159.944 178.634C159.944 179.795 159.048 180.735 157.942 180.735C156.833 180.735 155.938 179.795 155.938 178.634C155.938 177.472 156.833 176.532 157.942 176.532C159.048 176.532 159.944 177.472 159.944 178.634Z" fill="#25A6CE"/>
<path d="M185.168 178.634C185.168 179.795 184.272 180.735 183.166 180.735C182.06 180.735 181.164 179.795 181.164 178.634C181.164 177.472 182.06 176.532 183.166 176.532C184.272 176.532 185.168 177.472 185.168 178.634Z" fill="#25A6CE"/>
<path d="M210.398 178.634C210.398 179.795 209.502 180.735 208.396 180.735C207.288 180.735 206.392 179.795 206.392 178.634C206.392 177.472 207.288 176.532 208.396 176.532C209.502 176.532 210.398 177.472 210.398 178.634Z" fill="#25A6CE"/>
<path d="M235.623 178.634C235.623 179.795 234.727 180.735 233.621 180.735C232.515 180.735 231.619 179.795 231.619 178.634C231.619 177.472 232.515 176.532 233.621 176.532C234.727 176.532 235.623 177.472 235.623 178.634Z" fill="#25A6CE"/>
<path d="M260.852 178.634C260.852 179.795 259.956 180.735 258.85 180.735C257.742 180.735 256.846 179.795 256.846 178.634C256.846 177.472 257.742 176.532 258.85 176.532C259.956 176.532 260.852 177.472 260.852 178.634Z" fill="#25A6CE"/>
<path d="M286.076 178.634C286.076 179.795 285.18 180.735 284.074 180.735C282.968 180.735 282.072 179.795 282.072 178.634C282.072 177.472 282.968 176.532 284.074 176.532C285.18 176.532 286.076 177.472 286.076 178.634Z" fill="#25A6CE"/>
<path d="M311.304 178.634C311.304 179.795 310.408 180.735 309.302 180.735C308.194 180.735 307.298 179.795 307.298 178.634C307.298 177.472 308.194 176.532 309.302 176.532C310.408 176.532 311.304 177.472 311.304 178.634Z" fill="#25A6CE"/>
<path d="M336.531 178.634C336.531 179.795 335.635 180.735 334.529 180.735C333.423 180.735 332.527 179.795 332.527 178.634C332.527 177.472 333.423 176.532 334.529 176.532C335.635 176.532 336.531 177.472 336.531 178.634Z" fill="#25A6CE"/>
<path d="M8.57721 159.406C8.57721 160.567 7.68347 161.508 6.57523 161.508C5.46922 161.508 4.57324 160.567 4.57324 159.406C4.57324 158.245 5.46922 157.304 6.57523 157.304C7.68347 157.304 8.57721 158.245 8.57721 159.406Z" fill="#25A6CE"/>
<path d="M33.8067 159.407C33.8067 160.568 32.9107 161.508 31.8047 161.508C30.6987 161.508 29.8027 160.568 29.8027 159.407C29.8027 158.245 30.6987 157.305 31.8047 157.305C32.9107 157.305 33.8067 158.245 33.8067 159.407Z" fill="#25A6CE"/>
<path d="M59.0313 159.407C59.0313 160.568 58.1376 161.508 57.0293 161.508C55.9233 161.508 55.0273 160.568 55.0273 159.407C55.0273 158.245 55.9233 157.305 57.0293 157.305C58.1376 157.305 59.0313 158.245 59.0313 159.407Z" fill="#25A6CE"/>
<path d="M84.2608 159.406C84.2608 160.567 83.3648 161.508 82.2588 161.508C81.1528 161.508 80.2568 160.567 80.2568 159.406C80.2568 158.245 81.1528 157.304 82.2588 157.304C83.3648 157.304 84.2608 158.245 84.2608 159.406Z" fill="#25A6CE"/>
<path d="M109.485 159.407C109.485 160.568 108.592 161.508 107.483 161.508C106.377 161.508 105.481 160.568 105.481 159.407C105.481 158.245 106.377 157.305 107.483 157.305C108.592 157.305 109.485 158.245 109.485 159.407Z" fill="#25A6CE"/>
<path d="M134.712 159.407C134.712 160.568 133.816 161.508 132.71 161.508C131.604 161.508 130.708 160.568 130.708 159.407C130.708 158.245 131.604 157.305 132.71 157.305C133.816 157.305 134.712 158.245 134.712 159.407Z" fill="#25A6CE"/>
<path d="M159.944 159.407C159.944 160.568 159.048 161.508 157.942 161.508C156.833 161.508 155.938 160.568 155.938 159.407C155.938 158.245 156.833 157.305 157.942 157.305C159.048 157.305 159.944 158.245 159.944 159.407Z" fill="#25A6CE"/>
<path d="M185.168 159.407C185.168 160.568 184.272 161.508 183.166 161.508C182.06 161.508 181.164 160.568 181.164 159.407C181.164 158.245 182.06 157.305 183.166 157.305C184.272 157.305 185.168 158.245 185.168 159.407Z" fill="#25A6CE"/>
<path d="M210.398 159.407C210.398 160.568 209.502 161.508 208.396 161.508C207.288 161.508 206.392 160.568 206.392 159.407C206.392 158.245 207.288 157.305 208.396 157.305C209.502 157.305 210.398 158.245 210.398 159.407Z" fill="#25A6CE"/>
<path d="M235.623 159.406C235.623 160.567 234.727 161.508 233.621 161.508C232.515 161.508 231.619 160.567 231.619 159.406C231.619 158.245 232.515 157.304 233.621 157.304C234.727 157.304 235.623 158.245 235.623 159.406Z" fill="#25A6CE"/>
<path d="M260.852 159.407C260.852 160.568 259.956 161.508 258.85 161.508C257.742 161.508 256.846 160.568 256.846 159.407C256.846 158.245 257.742 157.305 258.85 157.305C259.956 157.305 260.852 158.245 260.852 159.407Z" fill="#25A6CE"/>
<path d="M286.076 159.407C286.076 160.568 285.18 161.508 284.074 161.508C282.968 161.508 282.072 160.568 282.072 159.407C282.072 158.245 282.968 157.305 284.074 157.305C285.18 157.305 286.076 158.245 286.076 159.407Z" fill="#25A6CE"/>
<path d="M311.304 159.407C311.304 160.568 310.408 161.508 309.302 161.508C308.194 161.508 307.298 160.568 307.298 159.407C307.298 158.245 308.194 157.305 309.302 157.305C310.408 157.305 311.304 158.245 311.304 159.407Z" fill="#25A6CE"/>
<path d="M336.531 159.406C336.531 160.567 335.635 161.508 334.529 161.508C333.423 161.508 332.527 160.567 332.527 159.406C332.527 158.245 333.423 157.304 334.529 157.304C335.635 157.304 336.531 158.245 336.531 159.406Z" fill="#25A6CE"/>
<path d="M8.57721 140.178C8.57721 141.34 7.68347 142.28 6.57523 142.28C5.46922 142.28 4.57324 141.34 4.57324 140.178C4.57324 139.017 5.46922 138.077 6.57523 138.077C7.68347 138.077 8.57721 139.017 8.57721 140.178Z" fill="#25A6CE"/>
<path d="M33.8067 140.178C33.8067 141.34 32.9107 142.28 31.8047 142.28C30.6987 142.28 29.8027 141.34 29.8027 140.178C29.8027 139.017 30.6987 138.077 31.8047 138.077C32.9107 138.077 33.8067 139.017 33.8067 140.178Z" fill="#25A6CE"/>
<path d="M59.0313 140.179C59.0313 141.34 58.1376 142.281 57.0293 142.281C55.9233 142.281 55.0273 141.34 55.0273 140.179C55.0273 139.018 55.9233 138.077 57.0293 138.077C58.1376 138.077 59.0313 139.018 59.0313 140.179Z" fill="#25A6CE"/>
<path d="M84.2608 140.179C84.2608 141.34 83.3648 142.281 82.2588 142.281C81.1528 142.281 80.2568 141.34 80.2568 140.179C80.2568 139.018 81.1528 138.077 82.2588 138.077C83.3648 138.077 84.2608 139.018 84.2608 140.179Z" fill="#25A6CE"/>
<path d="M109.485 140.179C109.485 141.34 108.592 142.281 107.483 142.281C106.377 142.281 105.481 141.34 105.481 140.179C105.481 139.018 106.377 138.077 107.483 138.077C108.592 138.077 109.485 139.018 109.485 140.179Z" fill="#25A6CE"/>
<path d="M134.712 140.179C134.712 141.34 133.816 142.281 132.71 142.281C131.604 142.281 130.708 141.34 130.708 140.179C130.708 139.018 131.604 138.077 132.71 138.077C133.816 138.077 134.712 139.018 134.712 140.179Z" fill="#25A6CE"/>
<path d="M159.944 140.178C159.944 141.34 159.048 142.28 157.942 142.28C156.833 142.28 155.938 141.34 155.938 140.178C155.938 139.017 156.833 138.077 157.942 138.077C159.048 138.077 159.944 139.017 159.944 140.178Z" fill="#25A6CE"/>
<path d="M185.168 140.179C185.168 141.34 184.272 142.28 183.166 142.28C182.06 142.28 181.164 141.34 181.164 140.179C181.164 139.017 182.06 138.077 183.166 138.077C184.272 138.077 185.168 139.017 185.168 140.179Z" fill="#25A6CE"/>
<path d="M210.398 140.179C210.398 141.34 209.502 142.281 208.396 142.281C207.288 142.281 206.392 141.34 206.392 140.179C206.392 139.018 207.288 138.077 208.396 138.077C209.502 138.077 210.398 139.018 210.398 140.179Z" fill="#25A6CE"/>
<path d="M235.623 140.179C235.623 141.34 234.727 142.281 233.621 142.281C232.515 142.281 231.619 141.34 231.619 140.179C231.619 139.018 232.515 138.077 233.621 138.077C234.727 138.077 235.623 139.018 235.623 140.179Z" fill="#25A6CE"/>
<path d="M260.852 140.179C260.852 141.34 259.956 142.28 258.85 142.28C257.742 142.28 256.846 141.34 256.846 140.179C256.846 139.017 257.742 138.077 258.85 138.077C259.956 138.077 260.852 139.017 260.852 140.179Z" fill="#25A6CE"/>
<path d="M286.076 140.179C286.076 141.34 285.18 142.281 284.074 142.281C282.968 142.281 282.072 141.34 282.072 140.179C282.072 139.018 282.968 138.077 284.074 138.077C285.18 138.077 286.076 139.018 286.076 140.179Z" fill="#25A6CE"/>
<path d="M311.304 140.179C311.304 141.34 310.408 142.28 309.302 142.28C308.194 142.28 307.298 141.34 307.298 140.179C307.298 139.017 308.194 138.077 309.302 138.077C310.408 138.077 311.304 139.017 311.304 140.179Z" fill="#25A6CE"/>
<path d="M336.531 140.179C336.531 141.34 335.635 142.28 334.529 142.28C333.423 142.28 332.527 141.34 332.527 140.179C332.527 139.017 333.423 138.077 334.529 138.077C335.635 138.077 336.531 139.017 336.531 140.179Z" fill="#25A6CE"/>
<path d="M8.57721 120.953C8.57721 122.114 7.68347 123.055 6.57523 123.055C5.46922 123.055 4.57324 122.114 4.57324 120.953C4.57324 119.792 5.46922 118.851 6.57523 118.851C7.68347 118.851 8.57721 119.792 8.57721 120.953Z" fill="#25A6CE"/>
<path d="M33.8067 120.953C33.8067 122.114 32.9107 123.055 31.8047 123.055C30.6987 123.055 29.8027 122.114 29.8027 120.953C29.8027 119.792 30.6987 118.851 31.8047 118.851C32.9107 118.851 33.8067 119.792 33.8067 120.953Z" fill="#25A6CE"/>
<path d="M59.0313 120.953C59.0313 122.114 58.1376 123.055 57.0293 123.055C55.9233 123.055 55.0273 122.114 55.0273 120.953C55.0273 119.792 55.9233 118.851 57.0293 118.851C58.1376 118.851 59.0313 119.792 59.0313 120.953Z" fill="#25A6CE"/>
<path d="M84.2608 120.953C84.2608 122.114 83.3648 123.055 82.2588 123.055C81.1528 123.055 80.2568 122.114 80.2568 120.953C80.2568 119.792 81.1528 118.851 82.2588 118.851C83.3648 118.851 84.2608 119.792 84.2608 120.953Z" fill="#25A6CE"/>
<path d="M109.485 120.953C109.485 122.114 108.592 123.055 107.483 123.055C106.377 123.055 105.481 122.114 105.481 120.953C105.481 119.792 106.377 118.851 107.483 118.851C108.592 118.851 109.485 119.792 109.485 120.953Z" fill="#25A6CE"/>
<path d="M134.712 120.953C134.712 122.114 133.816 123.055 132.71 123.055C131.604 123.055 130.708 122.114 130.708 120.953C130.708 119.792 131.604 118.851 132.71 118.851C133.816 118.851 134.712 119.792 134.712 120.953Z" fill="#25A6CE"/>
<path d="M159.944 120.953C159.944 122.114 159.048 123.055 157.942 123.055C156.833 123.055 155.938 122.114 155.938 120.953C155.938 119.792 156.833 118.851 157.942 118.851C159.048 118.851 159.944 119.792 159.944 120.953Z" fill="#25A6CE"/>
<path d="M185.168 120.953C185.168 122.114 184.272 123.055 183.166 123.055C182.06 123.055 181.164 122.114 181.164 120.953C181.164 119.792 182.06 118.851 183.166 118.851C184.272 118.851 185.168 119.792 185.168 120.953Z" fill="#25A6CE"/>
<path d="M210.398 120.953C210.398 122.114 209.502 123.055 208.396 123.055C207.288 123.055 206.392 122.114 206.392 120.953C206.392 119.792 207.288 118.851 208.396 118.851C209.502 118.851 210.398 119.792 210.398 120.953Z" fill="#25A6CE"/>
<path d="M235.623 120.953C235.623 122.114 234.727 123.055 233.621 123.055C232.515 123.055 231.619 122.114 231.619 120.953C231.619 119.792 232.515 118.851 233.621 118.851C234.727 118.851 235.623 119.792 235.623 120.953Z" fill="#25A6CE"/>
<path d="M260.852 120.953C260.852 122.114 259.956 123.055 258.85 123.055C257.742 123.055 256.846 122.114 256.846 120.953C256.846 119.792 257.742 118.851 258.85 118.851C259.956 118.851 260.852 119.792 260.852 120.953Z" fill="#25A6CE"/>
<path d="M286.076 120.953C286.076 122.114 285.18 123.055 284.074 123.055C282.968 123.055 282.072 122.114 282.072 120.953C282.072 119.792 282.968 118.851 284.074 118.851C285.18 118.851 286.076 119.792 286.076 120.953Z" fill="#25A6CE"/>
<path d="M311.304 120.953C311.304 122.114 310.408 123.055 309.302 123.055C308.194 123.055 307.298 122.114 307.298 120.953C307.298 119.792 308.194 118.851 309.302 118.851C310.408 118.851 311.304 119.792 311.304 120.953Z" fill="#25A6CE"/>
<path d="M336.531 120.953C336.531 122.114 335.635 123.055 334.529 123.055C333.423 123.055 332.527 122.114 332.527 120.953C332.527 119.792 333.423 118.851 334.529 118.851C335.635 118.851 336.531 119.792 336.531 120.953Z" fill="#25A6CE"/>
<path d="M8.57721 101.725C8.57721 102.886 7.68347 103.827 6.57523 103.827C5.46922 103.827 4.57324 102.886 4.57324 101.725C4.57324 100.564 5.46922 99.6234 6.57523 99.6234C7.68347 99.6234 8.57721 100.564 8.57721 101.725Z" fill="#25A6CE"/>
<path d="M33.8067 101.726C33.8067 102.887 32.9107 103.828 31.8047 103.828C30.6987 103.828 29.8027 102.887 29.8027 101.726C29.8027 100.565 30.6987 99.624 31.8047 99.624C32.9107 99.624 33.8067 100.565 33.8067 101.726Z" fill="#25A6CE"/>
<path d="M59.0313 101.726C59.0313 102.887 58.1376 103.827 57.0293 103.827C55.9233 103.827 55.0273 102.887 55.0273 101.726C55.0273 100.564 55.9233 99.6238 57.0293 99.6238C58.1376 99.6238 59.0313 100.564 59.0313 101.726Z" fill="#25A6CE"/>
<path d="M84.2608 101.725C84.2608 102.886 83.3648 103.827 82.2588 103.827C81.1528 103.827 80.2568 102.886 80.2568 101.725C80.2568 100.564 81.1528 99.6234 82.2588 99.6234C83.3648 99.6234 84.2608 100.564 84.2608 101.725Z" fill="#25A6CE"/>
<path d="M109.485 101.726C109.485 102.887 108.592 103.827 107.483 103.827C106.377 103.827 105.481 102.887 105.481 101.726C105.481 100.564 106.377 99.6238 107.483 99.6238C108.592 99.6238 109.485 100.564 109.485 101.726Z" fill="#25A6CE"/>
<path d="M134.712 101.726C134.712 102.887 133.816 103.828 132.71 103.828C131.604 103.828 130.708 102.887 130.708 101.726C130.708 100.565 131.604 99.624 132.71 99.624C133.816 99.624 134.712 100.565 134.712 101.726Z" fill="#25A6CE"/>
<path d="M159.944 101.726C159.944 102.887 159.048 103.828 157.942 103.828C156.833 103.828 155.938 102.887 155.938 101.726C155.938 100.565 156.833 99.624 157.942 99.624C159.048 99.624 159.944 100.565 159.944 101.726Z" fill="#25A6CE"/>
<path d="M185.168 101.726C185.168 102.887 184.272 103.827 183.166 103.827C182.06 103.827 181.164 102.887 181.164 101.726C181.164 100.564 182.06 99.6238 183.166 99.6238C184.272 99.6238 185.168 100.564 185.168 101.726Z" fill="#25A6CE"/>
<path d="M210.398 101.726C210.398 102.887 209.502 103.827 208.396 103.827C207.288 103.827 206.392 102.887 206.392 101.726C206.392 100.564 207.288 99.6238 208.396 99.6238C209.502 99.6238 210.398 100.564 210.398 101.726Z" fill="#25A6CE"/>
<path d="M235.623 101.725C235.623 102.886 234.727 103.827 233.621 103.827C232.515 103.827 231.619 102.886 231.619 101.725C231.619 100.564 232.515 99.6234 233.621 99.6234C234.727 99.6234 235.623 100.564 235.623 101.725Z" fill="#25A6CE"/>
<path d="M260.852 101.726C260.852 102.887 259.956 103.827 258.85 103.827C257.742 103.827 256.846 102.887 256.846 101.726C256.846 100.564 257.742 99.6238 258.85 99.6238C259.956 99.6238 260.852 100.564 260.852 101.726Z" fill="#25A6CE"/>
<path d="M286.076 101.726C286.076 102.887 285.18 103.828 284.074 103.828C282.968 103.828 282.072 102.887 282.072 101.726C282.072 100.565 282.968 99.624 284.074 99.624C285.18 99.624 286.076 100.565 286.076 101.726Z" fill="#25A6CE"/>
<path d="M311.304 101.726C311.304 102.887 310.408 103.827 309.302 103.827C308.194 103.827 307.298 102.887 307.298 101.726C307.298 100.564 308.194 99.6238 309.302 99.6238C310.408 99.6238 311.304 100.564 311.304 101.726Z" fill="#25A6CE"/>
<path d="M336.531 101.725C336.531 102.886 335.635 103.827 334.529 103.827C333.423 103.827 332.527 102.886 332.527 101.725C332.527 100.564 333.423 99.6233 334.529 99.6233C335.635 99.6233 336.531 100.564 336.531 101.725Z" fill="#25A6CE"/>
<path d="M8.57721 82.4977C8.57721 83.6588 7.68347 84.5995 6.57523 84.5995C5.46922 84.5995 4.57324 83.6588 4.57324 82.4977C4.57324 81.3365 5.46922 80.3958 6.57523 80.3958C7.68347 80.3958 8.57721 81.3365 8.57721 82.4977Z" fill="#25A6CE"/>
<path d="M33.8067 82.4977C33.8067 83.6588 32.9107 84.5995 31.8047 84.5995C30.6987 84.5995 29.8027 83.6588 29.8027 82.4977C29.8027 81.3365 30.6987 80.3958 31.8047 80.3958C32.9107 80.3958 33.8067 81.3365 33.8067 82.4977Z" fill="#25A6CE"/>
<path d="M59.0313 82.4967C59.0313 83.6579 58.1376 84.5985 57.0293 84.5985C55.9233 84.5985 55.0273 83.6579 55.0273 82.4967C55.0273 81.3355 55.9233 80.3949 57.0293 80.3949C58.1376 80.3949 59.0313 81.3355 59.0313 82.4967Z" fill="#25A6CE"/>
<path d="M84.2608 82.4969C84.2608 83.658 83.3648 84.5987 82.2588 84.5987C81.1528 84.5987 80.2568 83.658 80.2568 82.4969C80.2568 81.3357 81.1528 80.395 82.2588 80.395C83.3648 80.395 84.2608 81.3357 84.2608 82.4969Z" fill="#25A6CE"/>
<path d="M109.485 82.4967C109.485 83.6579 108.592 84.5985 107.483 84.5985C106.377 84.5985 105.481 83.6579 105.481 82.4967C105.481 81.3355 106.377 80.3949 107.483 80.3949C108.592 80.3949 109.485 81.3355 109.485 82.4967Z" fill="#25A6CE"/>
<path d="M134.712 82.4969C134.712 83.658 133.816 84.5987 132.71 84.5987C131.604 84.5987 130.708 83.658 130.708 82.4969C130.708 81.3357 131.604 80.395 132.71 80.395C133.816 80.395 134.712 81.3357 134.712 82.4969Z" fill="#25A6CE"/>
<path d="M159.944 82.4977C159.944 83.6588 159.048 84.5995 157.942 84.5995C156.833 84.5995 155.938 83.6588 155.938 82.4977C155.938 81.3365 156.833 80.3958 157.942 80.3958C159.048 80.3958 159.944 81.3365 159.944 82.4977Z" fill="#25A6CE"/>
<path d="M185.168 82.4978C185.168 83.6589 184.272 84.5996 183.166 84.5996C182.06 84.5996 181.164 83.6589 181.164 82.4978C181.164 81.3366 182.06 80.396 183.166 80.396C184.272 80.396 185.168 81.3366 185.168 82.4978Z" fill="#25A6CE"/>
<path d="M210.398 82.4967C210.398 83.6579 209.502 84.5985 208.396 84.5985C207.288 84.5985 206.392 83.6579 206.392 82.4967C206.392 81.3355 207.288 80.3949 208.396 80.3949C209.502 80.3949 210.398 81.3355 210.398 82.4967Z" fill="#25A6CE"/>
<path d="M235.623 82.4969C235.623 83.658 234.727 84.5987 233.621 84.5987C232.515 84.5987 231.619 83.658 231.619 82.4969C231.619 81.3357 232.515 80.395 233.621 80.395C234.727 80.395 235.623 81.3357 235.623 82.4969Z" fill="#25A6CE"/>
<path d="M260.852 82.4978C260.852 83.6589 259.956 84.5996 258.85 84.5996C257.742 84.5996 256.846 83.6589 256.846 82.4978C256.846 81.3366 257.742 80.396 258.85 80.396C259.956 80.396 260.852 81.3366 260.852 82.4978Z" fill="#25A6CE"/>
<path d="M286.076 82.4969C286.076 83.658 285.18 84.5987 284.074 84.5987C282.968 84.5987 282.072 83.658 282.072 82.4969C282.072 81.3357 282.968 80.395 284.074 80.395C285.18 80.395 286.076 81.3357 286.076 82.4969Z" fill="#25A6CE"/>
<path d="M311.304 82.4978C311.304 83.6589 310.408 84.5996 309.302 84.5996C308.194 84.5996 307.298 83.6589 307.298 82.4978C307.298 81.3366 308.194 80.396 309.302 80.396C310.408 80.396 311.304 81.3366 311.304 82.4978Z" fill="#25A6CE"/>
<path d="M336.531 82.4978C336.531 83.6589 335.635 84.5996 334.529 84.5996C333.423 84.5996 332.527 83.6589 332.527 82.4978C332.527 81.3366 333.423 80.396 334.529 80.396C335.635 80.396 336.531 81.3366 336.531 82.4978Z" fill="#25A6CE"/>
<path d="M8.57721 63.27C8.57721 64.4312 7.68347 65.3718 6.57523 65.3718C5.46922 65.3718 4.57324 64.4312 4.57324 63.27C4.57324 62.1088 5.46922 61.1682 6.57523 61.1682C7.68347 61.1682 8.57721 62.1088 8.57721 63.27Z" fill="#25A6CE"/>
<path d="M33.8067 63.2706C33.8067 64.4318 32.9107 65.3724 31.8047 65.3724C30.6987 65.3724 29.8027 64.4318 29.8027 63.2706C29.8027 62.1095 30.6987 61.1688 31.8047 61.1688C32.9107 61.1688 33.8067 62.1095 33.8067 63.2706Z" fill="#25A6CE"/>
<path d="M59.0313 63.2705C59.0313 64.4317 58.1376 65.3723 57.0293 65.3723C55.9233 65.3723 55.0273 64.4317 55.0273 63.2705C55.0273 62.1093 55.9233 61.1687 57.0293 61.1687C58.1376 61.1687 59.0313 62.1093 59.0313 63.2705Z" fill="#25A6CE"/>
<path d="M84.2608 63.27C84.2608 64.4312 83.3648 65.3718 82.2588 65.3718C81.1528 65.3718 80.2568 64.4312 80.2568 63.27C80.2568 62.1088 81.1528 61.1682 82.2588 61.1682C83.3648 61.1682 84.2608 62.1088 84.2608 63.27Z" fill="#25A6CE"/>
<path d="M109.485 63.2705C109.485 64.4317 108.592 65.3723 107.483 65.3723C106.377 65.3723 105.481 64.4317 105.481 63.2705C105.481 62.1093 106.377 61.1687 107.483 61.1687C108.592 61.1687 109.485 62.1093 109.485 63.2705Z" fill="#25A6CE"/>
<path d="M134.712 63.2706C134.712 64.4318 133.816 65.3724 132.71 65.3724C131.604 65.3724 130.708 64.4318 130.708 63.2706C130.708 62.1095 131.604 61.1688 132.71 61.1688C133.816 61.1688 134.712 62.1095 134.712 63.2706Z" fill="#25A6CE"/>
<path d="M159.944 63.2706C159.944 64.4318 159.048 65.3724 157.942 65.3724C156.833 65.3724 155.938 64.4318 155.938 63.2706C155.938 62.1095 156.833 61.1688 157.942 61.1688C159.048 61.1688 159.944 62.1095 159.944 63.2706Z" fill="#25A6CE"/>
<path d="M185.168 63.2705C185.168 64.4317 184.272 65.3723 183.166 65.3723C182.06 65.3723 181.164 64.4317 181.164 63.2705C181.164 62.1093 182.06 61.1687 183.166 61.1687C184.272 61.1687 185.168 62.1093 185.168 63.2705Z" fill="#25A6CE"/>
<path d="M210.398 63.2705C210.398 64.4317 209.502 65.3723 208.396 65.3723C207.288 65.3723 206.392 64.4317 206.392 63.2705C206.392 62.1093 207.288 61.1687 208.396 61.1687C209.502 61.1687 210.398 62.1093 210.398 63.2705Z" fill="#25A6CE"/>
<path d="M235.623 63.27C235.623 64.4312 234.727 65.3718 233.621 65.3718C232.515 65.3718 231.619 64.4312 231.619 63.27C231.619 62.1088 232.515 61.1682 233.621 61.1682C234.727 61.1682 235.623 62.1088 235.623 63.27Z" fill="#25A6CE"/>
<path d="M260.852 63.2705C260.852 64.4317 259.956 65.3723 258.85 65.3723C257.742 65.3723 256.846 64.4317 256.846 63.2705C256.846 62.1093 257.742 61.1687 258.85 61.1687C259.956 61.1687 260.852 62.1093 260.852 63.2705Z" fill="#25A6CE"/>
<path d="M286.076 63.2706C286.076 64.4318 285.18 65.3724 284.074 65.3724C282.968 65.3724 282.072 64.4318 282.072 63.2706C282.072 62.1095 282.968 61.1688 284.074 61.1688C285.18 61.1688 286.076 62.1095 286.076 63.2706Z" fill="#25A6CE"/>
<path d="M311.304 63.2705C311.304 64.4317 310.408 65.3723 309.302 65.3723C308.194 65.3723 307.298 64.4317 307.298 63.2705C307.298 62.1093 308.194 61.1687 309.302 61.1687C310.408 61.1687 311.304 62.1093 311.304 63.2705Z" fill="#25A6CE"/>
<path d="M336.531 63.2699C336.531 64.4311 335.635 65.3718 334.529 65.3718C333.423 65.3718 332.527 64.4311 332.527 63.2699C332.527 62.1088 333.423 61.1681 334.529 61.1681C335.635 61.1681 336.531 62.1088 336.531 63.2699Z" fill="#25A6CE"/>
<path d="M8.57721 44.0437C8.57721 45.2049 7.68347 46.1456 6.57523 46.1456C5.46922 46.1456 4.57324 45.2049 4.57324 44.0437C4.57324 42.8826 5.46922 41.9419 6.57523 41.9419C7.68347 41.9419 8.57721 42.8826 8.57721 44.0437Z" fill="#25A6CE"/>
<path d="M33.8067 44.0437C33.8067 45.2049 32.9107 46.1456 31.8047 46.1456C30.6987 46.1456 29.8027 45.2049 29.8027 44.0437C29.8027 42.8826 30.6987 41.9419 31.8047 41.9419C32.9107 41.9419 33.8067 42.8826 33.8067 44.0437Z" fill="#25A6CE"/>
<path d="M59.0313 44.0438C59.0313 45.205 58.1376 46.1456 57.0293 46.1456C55.9233 46.1456 55.0273 45.205 55.0273 44.0438C55.0273 42.8826 55.9233 41.942 57.0293 41.942C58.1376 41.942 59.0313 42.8826 59.0313 44.0438Z" fill="#25A6CE"/>
<path d="M84.2608 44.0437C84.2608 45.2049 83.3648 46.1456 82.2588 46.1456C81.1528 46.1456 80.2568 45.2049 80.2568 44.0437C80.2568 42.8826 81.1528 41.9419 82.2588 41.9419C83.3648 41.9419 84.2608 42.8826 84.2608 44.0437Z" fill="#25A6CE"/>
<path d="M109.485 44.0438C109.485 45.205 108.592 46.1456 107.483 46.1456C106.377 46.1456 105.481 45.205 105.481 44.0438C105.481 42.8826 106.377 41.942 107.483 41.942C108.592 41.942 109.485 42.8826 109.485 44.0438Z" fill="#25A6CE"/>
<path d="M134.712 44.0437C134.712 45.2049 133.816 46.1456 132.71 46.1456C131.604 46.1456 130.708 45.2049 130.708 44.0437C130.708 42.8826 131.604 41.9419 132.71 41.9419C133.816 41.9419 134.712 42.8826 134.712 44.0437Z" fill="#25A6CE"/>
<path d="M159.944 44.0437C159.944 45.2049 159.048 46.1456 157.942 46.1456C156.833 46.1456 155.938 45.2049 155.938 44.0437C155.938 42.8826 156.833 41.9419 157.942 41.9419C159.048 41.9419 159.944 42.8826 159.944 44.0437Z" fill="#25A6CE"/>
<path d="M185.168 44.0438C185.168 45.205 184.272 46.1456 183.166 46.1456C182.06 46.1456 181.164 45.205 181.164 44.0438C181.164 42.8826 182.06 41.942 183.166 41.942C184.272 41.942 185.168 42.8826 185.168 44.0438Z" fill="#25A6CE"/>
<path d="M210.398 44.0438C210.398 45.205 209.502 46.1456 208.396 46.1456C207.288 46.1456 206.392 45.205 206.392 44.0438C206.392 42.8826 207.288 41.942 208.396 41.942C209.502 41.942 210.398 42.8826 210.398 44.0438Z" fill="#25A6CE"/>
<path d="M235.623 44.0437C235.623 45.2049 234.727 46.1456 233.621 46.1456C232.515 46.1456 231.619 45.2049 231.619 44.0437C231.619 42.8826 232.515 41.9419 233.621 41.9419C234.727 41.9419 235.623 42.8826 235.623 44.0437Z" fill="#25A6CE"/>
<path d="M260.852 44.0438C260.852 45.205 259.956 46.1456 258.85 46.1456C257.742 46.1456 256.846 45.205 256.846 44.0438C256.846 42.8826 257.742 41.942 258.85 41.942C259.956 41.942 260.852 42.8826 260.852 44.0438Z" fill="#25A6CE"/>
<path d="M286.076 44.0437C286.076 45.2049 285.18 46.1456 284.074 46.1456C282.968 46.1456 282.072 45.2049 282.072 44.0437C282.072 42.8826 282.968 41.9419 284.074 41.9419C285.18 41.9419 286.076 42.8826 286.076 44.0437Z" fill="#25A6CE"/>
<path d="M311.304 44.0438C311.304 45.205 310.408 46.1456 309.302 46.1456C308.194 46.1456 307.298 45.205 307.298 44.0438C307.298 42.8826 308.194 41.942 309.302 41.942C310.408 41.942 311.304 42.8826 311.304 44.0438Z" fill="#25A6CE"/>
<path d="M336.531 44.0438C336.531 45.205 335.635 46.1456 334.529 46.1456C333.423 46.1456 332.527 45.205 332.527 44.0438C332.527 42.8826 333.423 41.942 334.529 41.942C335.635 41.942 336.531 42.8826 336.531 44.0438Z" fill="#25A6CE"/>
<path d="M8.57721 24.8161C8.57721 25.9772 7.68347 26.9179 6.57523 26.9179C5.46922 26.9179 4.57324 25.9772 4.57324 24.8161C4.57324 23.6549 5.46922 22.7143 6.57523 22.7143C7.68347 22.7143 8.57721 23.6549 8.57721 24.8161Z" fill="#25A6CE"/>
<path d="M33.8067 24.8161C33.8067 25.9772 32.9107 26.9179 31.8047 26.9179C30.6987 26.9179 29.8027 25.9772 29.8027 24.8161C29.8027 23.6549 30.6987 22.7143 31.8047 22.7143C32.9107 22.7143 33.8067 23.6549 33.8067 24.8161Z" fill="#25A6CE"/>
<path d="M59.0313 24.8159C59.0313 25.9771 58.1376 26.9177 57.0293 26.9177C55.9233 26.9177 55.0273 25.9771 55.0273 24.8159C55.0273 23.6547 55.9233 22.7141 57.0293 22.7141C58.1376 22.7141 59.0313 23.6547 59.0313 24.8159Z" fill="#25A6CE"/>
<path d="M84.2608 24.8161C84.2608 25.9772 83.3648 26.9179 82.2588 26.9179C81.1528 26.9179 80.2568 25.9772 80.2568 24.8161C80.2568 23.6549 81.1528 22.7143 82.2588 22.7143C83.3648 22.7143 84.2608 23.6549 84.2608 24.8161Z" fill="#25A6CE"/>
<path d="M109.485 24.8159C109.485 25.9771 108.592 26.9177 107.483 26.9177C106.377 26.9177 105.481 25.9771 105.481 24.8159C105.481 23.6547 106.377 22.7141 107.483 22.7141C108.592 22.7141 109.485 23.6547 109.485 24.8159Z" fill="#25A6CE"/>
<path d="M134.712 24.8161C134.712 25.9772 133.816 26.9179 132.71 26.9179C131.604 26.9179 130.708 25.9772 130.708 24.8161C130.708 23.6549 131.604 22.7143 132.71 22.7143C133.816 22.7143 134.712 23.6549 134.712 24.8161Z" fill="#25A6CE"/>
<path d="M159.944 24.8161C159.944 25.9772 159.048 26.9179 157.942 26.9179C156.833 26.9179 155.938 25.9772 155.938 24.8161C155.938 23.6549 156.833 22.7143 157.942 22.7143C159.048 22.7143 159.944 23.6549 159.944 24.8161Z" fill="#25A6CE"/>
<path d="M185.168 24.8159C185.168 25.9771 184.272 26.9177 183.166 26.9177C182.06 26.9177 181.164 25.9771 181.164 24.8159C181.164 23.6547 182.06 22.7141 183.166 22.7141C184.272 22.7141 185.168 23.6547 185.168 24.8159Z" fill="#25A6CE"/>
<path d="M210.398 24.8159C210.398 25.9771 209.502 26.9177 208.396 26.9177C207.288 26.9177 206.392 25.9771 206.392 24.8159C206.392 23.6547 207.288 22.7141 208.396 22.7141C209.502 22.7141 210.398 23.6547 210.398 24.8159Z" fill="#25A6CE"/>
<path d="M235.623 24.8161C235.623 25.9772 234.727 26.9179 233.621 26.9179C232.515 26.9179 231.619 25.9772 231.619 24.8161C231.619 23.6549 232.515 22.7143 233.621 22.7143C234.727 22.7143 235.623 23.6549 235.623 24.8161Z" fill="#25A6CE"/>
<path d="M260.852 24.8159C260.852 25.9771 259.956 26.9177 258.85 26.9177C257.742 26.9177 256.846 25.9771 256.846 24.8159C256.846 23.6547 257.742 22.7141 258.85 22.7141C259.956 22.7141 260.852 23.6547 260.852 24.8159Z" fill="#25A6CE"/>
<path d="M286.076 24.8161C286.076 25.9772 285.18 26.9179 284.074 26.9179C282.968 26.9179 282.072 25.9772 282.072 24.8161C282.072 23.6549 282.968 22.7143 284.074 22.7143C285.18 22.7143 286.076 23.6549 286.076 24.8161Z" fill="#25A6CE"/>
<path d="M311.304 24.8159C311.304 25.9771 310.408 26.9177 309.302 26.9177C308.194 26.9177 307.298 25.9771 307.298 24.8159C307.298 23.6547 308.194 22.7141 309.302 22.7141C310.408 22.7141 311.304 23.6547 311.304 24.8159Z" fill="#25A6CE"/>
<path d="M336.531 24.8159C336.531 25.9771 335.635 26.9177 334.529 26.9177C333.423 26.9177 332.527 25.9771 332.527 24.8159C332.527 23.6547 333.423 22.7141 334.529 22.7141C335.635 22.7141 336.531 23.6547 336.531 24.8159Z" fill="#25A6CE"/>
<path d="M8.57721 5.58855C8.57721 6.74971 7.68347 7.69037 6.57523 7.69037C5.46922 7.69037 4.57324 6.74971 4.57324 5.58855C4.57324 4.42738 5.46922 3.48672 6.57523 3.48672C7.68347 3.48672 8.57721 4.42738 8.57721 5.58855Z" fill="#25A6CE"/>
<path d="M33.8067 5.58855C33.8067 6.74971 32.9107 7.69037 31.8047 7.69037C30.6987 7.69037 29.8027 6.74971 29.8027 5.58855C29.8027 4.42738 30.6987 3.48672 31.8047 3.48672C32.9107 3.48672 33.8067 4.42738 33.8067 5.58855Z" fill="#25A6CE"/>
<path d="M59.0313 5.58977C59.0313 6.75093 58.1376 7.69159 57.0293 7.69159C55.9233 7.69159 55.0273 6.75093 55.0273 5.58977C55.0273 4.4286 55.9233 3.48794 57.0293 3.48794C58.1376 3.48794 59.0313 4.4286 59.0313 5.58977Z" fill="#25A6CE"/>
<path d="M84.2608 5.58983C84.2608 6.75099 83.3648 7.69165 82.2588 7.69165C81.1528 7.69165 80.2568 6.75099 80.2568 5.58983C80.2568 4.42866 81.1528 3.488 82.2588 3.488C83.3648 3.488 84.2608 4.42866 84.2608 5.58983Z" fill="#25A6CE"/>
<path d="M109.485 5.58977C109.485 6.75093 108.592 7.69159 107.483 7.69159C106.377 7.69159 105.481 6.75093 105.481 5.58977C105.481 4.4286 106.377 3.48794 107.483 3.48794C108.592 3.48794 109.485 4.4286 109.485 5.58977Z" fill="#25A6CE"/>
<path d="M134.712 5.58983C134.712 6.75099 133.816 7.69165 132.71 7.69165C131.604 7.69165 130.708 6.75099 130.708 5.58983C130.708 4.42866 131.604 3.488 132.71 3.488C133.816 3.488 134.712 4.42866 134.712 5.58983Z" fill="#25A6CE"/>
<path d="M159.944 5.58855C159.944 6.74971 159.048 7.69037 157.942 7.69037C156.833 7.69037 155.938 6.74971 155.938 5.58855C155.938 4.42738 156.833 3.48672 157.942 3.48672C159.048 3.48672 159.944 4.42738 159.944 5.58855Z" fill="#25A6CE"/>
<path d="M185.168 5.58861C185.168 6.74977 184.272 7.69043 183.166 7.69043C182.06 7.69043 181.164 6.74977 181.164 5.58861C181.164 4.42744 182.06 3.48678 183.166 3.48678C184.272 3.48678 185.168 4.42744 185.168 5.58861Z" fill="#25A6CE"/>
<path d="M210.398 5.58977C210.398 6.75093 209.502 7.69159 208.396 7.69159C207.288 7.69159 206.392 6.75093 206.392 5.58977C206.392 4.4286 207.288 3.48794 208.396 3.48794C209.502 3.48794 210.398 4.4286 210.398 5.58977Z" fill="#25A6CE"/>
<path d="M235.623 5.58983C235.623 6.75099 234.727 7.69165 233.621 7.69165C232.515 7.69165 231.619 6.75099 231.619 5.58983C231.619 4.42866 232.515 3.488 233.621 3.488C234.727 3.488 235.623 4.42866 235.623 5.58983Z" fill="#25A6CE"/>
<path d="M260.852 5.58861C260.852 6.74977 259.956 7.69043 258.85 7.69043C257.742 7.69043 256.846 6.74977 256.846 5.58861C256.846 4.42744 257.742 3.48678 258.85 3.48678C259.956 3.48678 260.852 4.42744 260.852 5.58861Z" fill="#25A6CE"/>
<path d="M286.076 5.58983C286.076 6.75099 285.18 7.69165 284.074 7.69165C282.968 7.69165 282.072 6.75099 282.072 5.58983C282.072 4.42866 282.968 3.488 284.074 3.488C285.18 3.488 286.076 4.42866 286.076 5.58983Z" fill="#25A6CE"/>
<path d="M311.304 5.58861C311.304 6.74977 310.408 7.69043 309.302 7.69043C308.194 7.69043 307.298 6.74977 307.298 5.58861C307.298 4.42744 308.194 3.48678 309.302 3.48678C310.408 3.48678 311.304 4.42744 311.304 5.58861Z" fill="#25A6CE"/>
<path d="M336.531 5.58861C336.531 6.74977 335.635 7.69043 334.529 7.69043C333.423 7.69043 332.527 6.74977 332.527 5.58861C332.527 4.42744 333.423 3.48678 334.529 3.48678C335.635 3.48678 336.531 4.42744 336.531 5.58861Z" fill="#25A6CE"/>
</g>
</svg>
