<?xml version="1.0" encoding="UTF-8"?>
<svg id="Camada_1" xmlns="http://www.w3.org/2000/svg" viewBox="0 0 800 800">
  <defs>
    <style>
      .cls-1 {
        fill: #fff;
      }
    </style>
  </defs>
  <g>
    <path class="cls-1" d="M513.9,405.25c.06,76.47-61.62,138.02-138.29,137.99-76.39-.03-138.15-61.58-138.16-137.68,0-77.56,61.34-138.74,139.11-138.74,75.97,0,137.28,61.8,137.34,138.43ZM243.58,408.24c0,1.61-.05,2.75,0,3.88,1.56,29.76,12.38,55.77,31.27,78.72,3.83,4.66,6.7,5.39,12.31,3.01,11.09-4.7,22.69-8.22,34.48-12.37-11.86-22.78-18.17-47.29-18.86-73.24h-59.21ZM429.85,481.27c13.49,4.97,26.37,9.81,39.36,14.32,1.23.43,3.67-.86,4.76-2.06,13.43-14.94,23.17-31.99,28.8-51.33,3.21-11.01,5.12-22.21,5.15-33.74h-59.3c-.79,26.01-6.99,50.29-18.77,72.82ZM302.86,401.66c.65-25.8,7.05-49.85,18.5-71.97-13.66-5.07-26.84-10.04-40.1-14.76-1-.36-3.02.72-3.91,1.71-13.58,15.07-23.3,32.33-28.88,51.87-3.07,10.73-5.09,21.62-4.85,33.15h59.25ZM429.97,329.67c11.78,22.3,17.8,46.46,18.69,72.03h59.63c-.63-6.05-.96-11.81-1.86-17.48-4.09-25.85-15.13-48.42-32.63-67.82-.88-.97-3.22-1.57-4.46-1.13-12.98,4.59-25.87,9.43-39.38,14.41ZM442.59,408.49h-63.51v66.27c14.29,1.89,28.09,3.76,41.92,5.44,1.09.13,2.93-.71,3.42-1.64,11.53-21.8,17.73-44.99,18.17-70.07ZM327.74,480.12c15.32-1.76,29.95-3.43,44.65-5.12v-66.52h-63.65c.71,25.77,7.01,49.58,19,71.64ZM442.56,401.76c-.31-21.47-5.01-41.37-13.52-60.42-4.85-10.85-4.86-10.7-16.65-9.2-11.02,1.4-22.08,2.47-33.29,3.71v65.91h63.46ZM372.41,401.79v-65.72c-13.52-1.69-26.73-3.05-39.83-5.17-4.03-.65-5.45.42-7.1,3.73-6.87,13.8-11.81,28.23-14.42,43.39-1.33,7.75-1.78,15.66-2.65,23.76h63.99ZM466.81,310.66c-.1-.64-.2-1.28-.31-1.92-22.62-20.86-49.13-32.97-79.98-35.69-.09.72-.19.96-.12,1.03,15.09,13.95,28.45,29.33,39.06,47.02.56.93,2.53,1.89,3.46,1.61,12.67-3.89,25.27-7.99,37.88-12.04ZM364.94,273.56c-31.01,2.38-57.67,14.3-81.54,36.71,13.8,4.45,26.24,8.53,38.76,12.36,1.09.33,3.35-.6,3.95-1.61,10.56-17.7,23.73-33.22,38.84-47.47ZM364.9,536.52c-14.92-14.08-28.28-29.21-38.68-46.81-.51-.86-2.27-1.77-3.11-1.52-12.65,3.81-25.24,7.81-39.15,12.17,23.88,22.05,50.28,33.77,80.93,36.16ZM467.47,500.39c-13.83-4.35-26.41-8.4-39.09-12.13-.97-.28-3.06,1.4-3.85,2.66-9.81,15.82-21.54,30.01-35.46,42.36-1.06.94-2.69,1.22-4.06,1.81.58.64,1.17,1.28,1.75,1.92,30.42-2.82,56.8-14.66,80.7-36.62ZM420.77,325.35c-11.55-19.55-25.05-35.33-41.76-49.22v53.74c13.86-1.5,27.29-2.95,41.76-4.51ZM372.45,275.91c-16.93,14.43-30.5,30.1-41.82,49.5,14.55,1.55,27.99,2.97,41.82,4.44v-53.94ZM420.65,485.53c-14.55-1.53-27.95-2.94-41.55-4.37v52.83c16.64-13.68,29.9-29.18,41.55-48.46ZM372.4,534.09v-52.99c-13.83,1.49-27.21,2.93-41.54,4.48,11.39,19.2,24.85,34.55,41.54,48.51Z"/>
    <path class="cls-1" d="M375.68,546.74h-.06c-37.88-.02-73.46-14.7-100.19-41.33-26.74-26.64-41.46-62.1-41.47-99.85,0-38.45,14.7-74.29,41.42-100.93,26.71-26.64,62.64-41.31,101.19-41.31h0c37.68,0,73.06,14.74,99.62,41.51,26.55,26.76,41.19,62.42,41.22,100.41h0c.03,37.85-14.62,73.38-41.27,100.04-26.72,26.74-62.4,41.46-100.46,41.46ZM381.56,536.5c-.08.06-.16.13-.24.19l-3.69,3.03c2.22-.03,4.44-.12,6.65-.25l-2.72-2.97ZM373.39,539.72c.09,0,.2,0,.29,0l-2.53-2.12,2.24,2.11ZM428.37,491.9c-.34.26-.71.63-.86.87-9.21,14.85-20.06,28.17-32.32,39.67,24.21-3.79,45.7-13.85,65.33-30.57-.82-.26-1.64-.52-2.45-.77-10.27-3.25-19.98-6.32-29.71-9.19ZM290.91,501.85c19.31,16.5,40.44,26.39,64.21,30.03-13.42-13.51-23.63-26.43-31.74-40.11-9.92,2.99-19.87,6.12-30.39,9.43l-2.07.65ZM336.73,488.46c8.96,14.17,19.35,26.44,32.17,37.96v-41.43l-32.17,3.47ZM382.6,485.05v41.34c12.37-11.02,22.76-23.31,32.13-37.97l-32.13-3.38ZM472.94,498.44l.08.02s.07-.07.1-.11c-.06.03-.12.05-.18.08ZM277.98,497.85c.18.19.36.38.54.56l.54-.17c-.36-.11-.72-.24-1.07-.39ZM434.76,479.35c1.68.62,3.35,1.24,5.01,1.85,10.35,3.83,20.14,7.45,30.12,10.92.45-.16,1.17-.59,1.48-.93,13.24-14.73,22.67-31.54,28.04-49.97,2.97-10.2,4.6-19.81,4.95-29.27h-52.37c-1.17,23.91-6.95,46.55-17.24,67.4ZM323.45,491.8h0ZM247.07,411.74c0,.07,0,.13,0,.2,1.5,28.5,11.46,53.58,30.48,76.68,2.86,3.47,4.09,3.77,8.24,2.01,7.95-3.36,15.92-6.06,24.37-8.92,2.15-.73,4.34-1.47,6.55-2.23-10.4-21.17-16.22-43.92-17.3-67.75h-52.34ZM425.93,483.56l-1.58,2.62c1.46-1.06,3.26-1.79,5.02-1.28.34.1.69.2,1.03.3-.58-.22-1.17-.43-1.76-.65l-2.71-1ZM323.42,484.66c1.16,0,2.37.39,3.42,1l-1.13-1.9-2.57.91c.09,0,.19,0,.28,0ZM425.25,482.49h.02s0-.02,0-.02c0,0-.02.01-.02.02ZM421.13,476.72h0ZM382.57,471.7l5.76.76c11.31,1.5,22,2.92,32.88,4.25.09-.03.2-.07.29-.12,10.84-20.61,16.57-41.78,17.48-64.59h-56.41v59.7ZM421.64,476.5h0ZM312.37,411.98c1.12,22.94,6.95,44.57,17.33,64.39l39.18-4.49v-59.9h-56.51ZM312.29,398.29h56.62v-59.12c-2.74-.33-5.46-.66-8.17-.98-9.44-1.12-19.2-2.29-28.71-3.82-2.31-.37-2.35-.29-3.41,1.84-6.9,13.85-11.64,28.12-14.1,42.42-.89,5.19-1.37,10.4-1.88,15.93-.11,1.24-.23,2.49-.35,3.74ZM382.6,398.26h56.37c-.72-19.18-5.03-37.37-13.12-55.5-1.74-3.89-3.11-6.96-4.17-7.57-1.02-.58-4.11-.19-8.38.36l-.45.06c-7.68.98-15.52,1.81-23.1,2.61-2.37.25-4.75.5-7.14.76v59.28ZM452.01,398.19h52.42c-.06-.64-.11-1.27-.17-1.9-.36-4.01-.7-7.79-1.29-11.54-3.92-24.73-14.57-46.91-31.66-65.91-.23-.12-.69-.24-.95-.24-10.07,3.56-19.96,7.23-30.42,11.1-1.68.62-3.36,1.25-5.06,1.87,10.11,20.34,15.86,42.71,17.13,66.61ZM247.11,398.16h52.38c1.04-23.25,6.75-45.61,16.99-66.56l-4.49-1.67c-10.74-4-20.9-7.79-31.26-11.48-.29.14-.64.37-.78.53-13.3,14.77-22.77,31.76-28.12,50.49-3.03,10.62-4.56,19.83-4.72,28.69ZM423.9,328.54c.78.27,1.48.65,2.12,1.15l-.69-1.3-1.44.15ZM325.95,328.43l-.08.15c.07-.05.13-.09.2-.13h-.13ZM321.86,326.14l3.53,1.31,1.45-2.48c-1.52.91-3.4,1.39-4.98,1.17ZM424.63,325l1.41,2.39,2.72-1c.17-.06.34-.12.5-.19-1.53.21-3.25-.32-4.63-1.2ZM382.51,283.78v42.19l32.41-3.5c-9.26-14.78-19.74-27.29-32.41-38.68ZM336.46,322.51l32.49,3.45v-42.29c-13.04,11.92-23.55,24.48-32.49,38.84ZM428.34,319.07s.11.07.17.1c9.95-3.06,20.03-6.3,29.78-9.44l3.01-.97c-19.27-16.87-41.45-27.32-66.1-31.14,13.55,13.36,24.43,26.98,33.14,41.45ZM290.24,308.8l2.91.94c10.26,3.32,19.95,6.45,29.63,9.42.15-.05.34-.13.47-.21,8.53-14.25,19.03-27.66,31.95-40.78-24.19,3.65-45.57,13.74-64.97,30.62ZM323.36,318.89h0ZM470.5,311.62c.92.02,1.87.19,2.76.49-1.05-1.1-2.12-2.2-3.2-3.26l.44,2.77ZM377.51,270.32l3.75,3.12c.59.49,1.17.98,1.75,1.47-.13-.55-.14-1.15-.02-1.81.02-.11.05-.27.08-.48l.26-2.12c-1.93-.1-3.87-.15-5.81-.17ZM373.44,270.35l-1.3,1.23,1.44-1.23s-.09,0-.14,0ZM388.78,271.5s0,0,0,0c0,0,0,0,0,0Z"/>
  </g>
  <path class="cls-1" d="M607.82,314.27c-8.83-8.83-20.61-13.72-33.15-13.75h-.14c-12.97,0-24.98,4.86-33.84,13.71-8.82,8.81-13.68,20.73-13.67,33.58,0,12.86,4.89,24.81,13.75,33.64,8.87,8.84,20.87,13.7,33.79,13.7h.15c12.54-.04,24.35-5.01,33.25-14,8.95-9.04,13.82-21,13.73-33.66-.1-12.59-5.02-24.39-13.85-33.22ZM547.67,371.02c4.14-8.2,12.06-14.18,21.49-15.62-7.47-1.96-12.99-8.76-12.99-16.85,0-9.62,7.79-17.41,17.41-17.41s17.41,7.79,17.41,17.41c0,8.09-5.52,14.88-12.99,16.85,9.76,1.49,17.92,7.85,21.92,16.53-6.47,6.81-15.67,11.07-25.85,11.07-.08,0-.15,0-.23,0-10.42-.07-19.77-4.7-26.16-11.98Z"/>
  <path class="cls-1" d="M409.82,163.27c-8.83-8.83-20.61-13.72-33.15-13.75h-.14c-12.97,0-24.98,4.86-33.84,13.71-8.82,8.81-13.68,20.73-13.67,33.58,0,12.86,4.89,24.81,13.75,33.64,8.87,8.84,20.87,13.7,33.79,13.7h.15c12.54-.04,24.35-5.01,33.25-14,8.95-9.04,13.82-21,13.73-33.66-.1-12.59-5.02-24.39-13.85-33.22ZM349.67,220.02c4.14-8.2,12.06-14.18,21.49-15.62-7.47-1.96-12.99-8.76-12.99-16.85,0-9.62,7.79-17.41,17.41-17.41s17.41,7.79,17.41,17.41c0,8.09-5.52,14.88-12.99,16.85,9.76,1.49,17.92,7.85,21.92,16.53-6.47,6.81-15.67,11.07-25.85,11.07-.08,0-.15,0-.23,0-10.42-.07-19.77-4.7-26.16-11.98Z"/>
  <path class="cls-1" d="M210.82,314.27c-8.83-8.83-20.61-13.72-33.15-13.75h-.14c-12.97,0-24.98,4.86-33.84,13.71-8.82,8.81-13.68,20.73-13.67,33.58,0,12.86,4.89,24.81,13.75,33.64,8.87,8.84,20.87,13.7,33.79,13.7h.15c12.54-.04,24.35-5.01,33.25-14,8.95-9.04,13.82-21,13.73-33.66-.1-12.59-5.02-24.39-13.85-33.22ZM150.67,371.02c4.14-8.2,12.06-14.18,21.49-15.62-7.47-1.96-12.99-8.76-12.99-16.85,0-9.62,7.79-17.41,17.41-17.41s17.41,7.79,17.41,17.41c0,8.09-5.52,14.88-12.99,16.85,9.76,1.49,17.92,7.85,21.92,16.53-6.47,6.81-15.67,11.07-25.85,11.07-.08,0-.15,0-.23,0-10.42-.07-19.77-4.7-26.16-11.98Z"/>
  <path class="cls-1" d="M563.82,519.27c-8.83-8.83-20.61-13.72-33.15-13.75h-.14c-12.97,0-24.98,4.86-33.84,13.71-8.82,8.81-13.68,20.73-13.67,33.58,0,12.86,4.89,24.81,13.75,33.64,8.87,8.84,20.87,13.7,33.79,13.7h.15c12.54-.04,24.35-5.01,33.25-14,8.95-9.04,13.82-21,13.73-33.66-.1-12.59-5.02-24.39-13.85-33.22ZM503.67,576.02c4.14-8.2,12.06-14.18,21.49-15.62-7.47-1.96-12.99-8.76-12.99-16.85,0-9.62,7.79-17.41,17.41-17.41s17.41,7.79,17.41,17.41c0,8.09-5.52,14.88-12.99,16.85,9.76,1.49,17.92,7.85,21.92,16.53-6.47,6.81-15.67,11.07-25.85,11.07-.08,0-.15,0-.23,0-10.42-.07-19.77-4.7-26.16-11.98Z"/>
  <path class="cls-1" d="M261.82,519.27c-8.83-8.83-20.61-13.72-33.15-13.75h-.14c-12.97,0-24.98,4.86-33.84,13.71-8.82,8.81-13.68,20.73-13.67,33.58,0,12.86,4.89,24.81,13.75,33.64,8.87,8.84,20.87,13.7,33.79,13.7h.15c12.54-.04,24.35-5.01,33.25-14,8.95-9.04,13.82-21,13.73-33.66-.1-12.59-5.02-24.39-13.85-33.22ZM201.67,576.02c4.14-8.2,12.06-14.18,21.49-15.62-7.47-1.96-12.99-8.76-12.99-16.85,0-9.62,7.79-17.41,17.41-17.41s17.41,7.79,17.41,17.41c0,8.09-5.52,14.88-12.99,16.85,9.76,1.49,17.92,7.85,21.92,16.53-6.47,6.81-15.67,11.07-25.85,11.07-.08,0-.15,0-.23,0-10.42-.07-19.77-4.7-26.16-11.98Z"/>
  <path class="cls-1" d="M361.76,633.15c-.08,0-.17,0-.25,0-8.79-.5-17.63-1.52-26.26-3.02-2.37-.41-3.96-2.67-3.55-5.05.41-2.37,2.67-3.97,5.05-3.55,8.3,1.45,16.8,2.43,25.26,2.91,2.41.14,4.25,2.2,4.11,4.6-.13,2.32-2.06,4.12-4.35,4.12ZM387.68,633.13c-2.29,0-4.22-1.79-4.35-4.11-.14-2.41,1.7-4.47,4.1-4.61,8.46-.49,16.95-1.48,25.25-2.93,2.37-.41,4.64,1.17,5.05,3.54.42,2.37-1.17,4.64-3.54,5.05-8.63,1.51-17.46,2.54-26.26,3.05-.09,0-.17,0-.26,0ZM310.76,624.24c-.41,0-.83-.06-1.25-.18-8.42-2.51-16.79-5.55-24.86-9.03-2.21-.95-3.23-3.52-2.28-5.73.95-2.21,3.52-3.23,5.73-2.28,7.76,3.35,15.8,6.27,23.9,8.68,2.31.69,3.62,3.12,2.93,5.43-.56,1.89-2.3,3.12-4.18,3.12ZM438.67,624.17c-1.88,0-3.61-1.22-4.18-3.11-.69-2.31.62-4.74,2.93-5.43,8.09-2.42,16.12-5.35,23.88-8.7,2.21-.96,4.78.06,5.74,2.27.96,2.21-.06,4.78-2.27,5.74-8.07,3.49-16.43,6.54-24.84,9.06-.42.12-.84.18-1.25.18ZM188.35,533.2c-1.42,0-2.81-.69-3.65-1.96-4.84-7.34-9.3-15.03-13.25-22.86-1.09-2.15-.22-4.78,1.93-5.86,2.15-1.08,4.78-.22,5.86,1.93,3.8,7.53,8.09,14.93,12.74,21.99,1.33,2.01.77,4.72-1.24,6.05-.74.49-1.58.72-2.4.72ZM570.06,504.26c1.08-2.15,3.7-3.02,5.86-1.94,2.15,1.08,3.02,3.71,1.94,5.86-3.95,7.84-8.4,15.55-13.24,22.89-.84,1.27-2.23,1.96-3.65,1.96-.82,0-1.66-.23-2.4-.72-2.01-1.33-2.57-4.03-1.24-6.04M165.04,486.98c-1.78,0-3.45-1.1-4.1-2.87-3.01-8.25-5.57-16.78-7.6-25.33-.56-2.34.89-4.7,3.24-5.25,2.34-.55,4.7.89,5.25,3.24,1.95,8.22,4.41,16.41,7.3,24.35.83,2.26-.34,4.77-2.6,5.59-.49.18-1,.27-1.5.27ZM584.24,486.77c-.5,0-1-.09-1.49-.26-2.27-.82-3.43-3.33-2.61-5.59,2.89-7.94,5.34-16.14,7.28-24.37.55-2.35,2.9-3.8,5.25-3.25,2.35.55,3.8,2.9,3.25,5.25-2.02,8.56-4.57,17.09-7.58,25.35-.64,1.77-2.32,2.87-4.1,2.87ZM153.09,436.6c-2.18,0-4.07-1.64-4.33-3.86-1.01-8.7-1.53-17.57-1.54-26.38,0-2.41,1.95-4.37,4.36-4.37h0c2.41,0,4.36,1.95,4.36,4.36,0,8.48.51,17.02,1.48,25.38.28,2.39-1.44,4.56-3.83,4.84-.17.02-.34.03-.51.03ZM596.15,436.37c-.17,0-.34,0-.51-.03-2.39-.28-4.11-2.44-3.83-4.84.97-8.37,1.46-16.91,1.46-25.38v-.47c0-2.41,1.95-4.36,4.36-4.36s4.36,1.95,4.36,4.36v.47c0,8.81-.51,17.69-1.51,26.39-.26,2.22-2.14,3.86-4.33,3.86ZM188.1,288.14c-.82,0-1.65-.23-2.39-.72-2.01-1.32-2.57-4.03-1.25-6.04,4.82-7.34,10.13-14.47,15.78-21.21,1.55-1.85,4.3-2.09,6.15-.54,1.85,1.55,2.09,4.3.54,6.15-5.43,6.48-10.54,13.35-15.18,20.4-.84,1.28-2.23,1.97-3.65,1.97ZM560.74,287.58c-1.41,0-2.8-.69-3.64-1.96-4.66-7.04-9.78-13.89-15.23-20.35-1.55-1.84-1.32-4.6.52-6.15,1.84-1.55,4.59-1.32,6.15.52,5.67,6.72,10.99,13.84,15.84,21.16,1.33,2.01.78,4.72-1.23,6.05-.74.49-1.58.72-2.4.72ZM221.36,248.45c-1.16,0-2.31-.46-3.17-1.37-1.66-1.75-1.58-4.51.17-6.17,6.38-6.04,13.19-11.77,20.22-17.02,1.93-1.44,4.66-1.05,6.11.88,1.44,1.93,1.05,4.66-.88,6.11-6.76,5.06-13.31,10.57-19.45,16.38-.84.8-1.92,1.19-3,1.19ZM527.37,248c-1.07,0-2.15-.39-2.99-1.18-6.16-5.79-12.72-11.28-19.5-16.32-1.93-1.44-2.34-4.17-.9-6.1,1.44-1.94,4.17-2.34,6.1-.9,7.05,5.24,13.87,10.95,20.27,16.97,1.76,1.65,1.84,4.41.19,6.17-.86.91-2.02,1.37-3.18,1.37ZM262.82,217.46c-1.5,0-2.97-.78-3.78-2.17-1.21-2.08-.5-4.75,1.58-5.96,7.6-4.41,15.54-8.42,23.59-11.91,2.21-.96,4.78.06,5.74,2.27.96,2.21-.06,4.78-2.27,5.74-7.74,3.36-15.37,7.21-22.68,11.45-.69.4-1.44.59-2.19.59ZM485.8,217.12c-.74,0-1.49-.19-2.18-.58-7.33-4.22-14.98-8.06-22.74-11.39-2.21-.95-3.24-3.52-2.28-5.73.95-2.21,3.52-3.24,5.73-2.29,8.07,3.47,16.03,7.45,23.65,11.85,2.09,1.2,2.8,3.87,1.6,5.96-.81,1.4-2.28,2.19-3.78,2.19ZM310.3,196.87c-1.88,0-3.61-1.22-4.18-3.11-.69-2.31.62-4.74,2.92-5.43,8.41-2.53,17.06-4.58,25.72-6.11,2.37-.42,4.64,1.16,5.06,3.54.42,2.37-1.16,4.64-3.54,5.06-8.33,1.47-16.65,3.45-24.73,5.88-.42.13-.84.19-1.26.19ZM438.22,196.67c-.41,0-.83-.06-1.24-.18-8.09-2.4-16.42-4.36-24.75-5.8-2.37-.41-3.97-2.67-3.55-5.04s2.68-3.96,5.04-3.55c8.67,1.5,17.33,3.53,25.74,6.03,2.31.69,3.63,3.12,2.94,5.43-.56,1.9-2.3,3.12-4.18,3.12Z"/>
</svg>