<?xml version="1.0" encoding="UTF-8"?>
<svg id="Camada_1" xmlns="http://www.w3.org/2000/svg" viewBox="0 0 800 800">
  <defs>
    <style>
      .cls-1 {
        fill: #fff;
      }
    </style>
  </defs>
  <path class="cls-1" d="M529.62,650.54H187.37c-4.86-2.2-5.96-6.15-5.96-11.16.08-142.6.06-285.2.06-427.8,0-.63,0-1.25,0-1.89.19-6.77,3.05-9.64,9.92-9.69,10.99-.08,21.99-.02,32.99-.02h5.35c0-7.36.22-14.09-.08-20.81-.22-5.04,1.21-8.9,5.8-11.3h230.05c2.44,2.19,4.99,4.25,7.3,6.56,32.8,32.74,65.64,65.43,98.29,98.32,15.22,15.32,12.43,8.31,12.45,30.08.1,95.98.05,191.96.05,287.94,0,9-2.51,11.56-11.38,11.59-6.91.03-13.82,0-20.74,0h-16.15c0,12.74-.17,24.81.08,36.87.1,5.04-1.22,8.9-5.81,11.31h.03ZM567.09,586.01v-289.41h-100.32c-9.45,0-11.75-2.3-11.76-11.63v-100.82h-208.83v401.87h320.91,0ZM197.97,216.31v417.79h321.05v-31.75H242.64c-10.89,0-12.92-2.03-12.92-12.91V216.31s-31.76,0-31.76,0ZM553.53,280.28c-27.4-27.44-55.08-55.18-82.12-82.27v82.27h82.12Z"/>
  <path class="cls-1" d="M430.71,529.87h-92.38c-1.41,0-2.84.08-4.24-.08-4.58-.46-7.8-3.79-7.81-7.95,0-4.18,3.23-7.52,7.79-7.97,1.24-.12,2.51-.07,3.77-.07h186.16c1.56,0,3.19-.11,4.69.23,3.96.89,6.39,3.41,6.53,7.53.15,4.16-2.17,6.83-6.06,7.9-1.77.48-3.73.38-5.61.38-30.95.02-61.9,0-92.85,0h0Z"/>
  <path class="cls-1" d="M430.73,336.72h-92.37c-1.89,0-3.81.11-5.64-.25-3.86-.76-6.05-3.4-6.31-7.22-.25-3.59,1.4-6.5,4.94-7.72,1.88-.65,4-.83,6.01-.83,62.37-.04,124.73-.04,187.1,0,1.86,0,3.81.15,5.54.74,3.7,1.26,5.53,4.12,5.2,8-.33,3.87-2.65,6.33-6.47,7.07-1.67.33-3.44.22-5.17.22-30.95,0-61.9,0-92.84,0h0Z"/>
  <path class="cls-1" d="M430.74,385.02c-30.95,0-61.89,0-92.84,0-7.77,0-11.56-2.65-11.6-7.94-.04-5.3,3.9-8.15,11.49-8.15,62.05-.02,124.1-.02,186.15,0,1.87,0,3.8.13,5.58.61,3.8,1.04,5.81,3.77,5.68,7.65-.13,4.07-2.36,6.79-6.47,7.49-1.99.35-4.06.31-6.1.31-30.63.02-61.27,0-91.9,0v.02Z"/>
  <path class="cls-1" d="M430.76,417.27c30.79,0,61.58,0,92.37.02,2.04,0,4.13,0,6.09.43,3.83.87,5.93,3.52,6,7.41.07,3.87-1.9,6.64-5.69,7.65-1.94.52-4.03.58-6.06.58-61.73.03-123.47.03-185.2.02-7.98,0-11.97-2.75-11.94-8.16.04-5.35,3.96-7.95,12.09-7.96h92.37,0Z"/>
  <path class="cls-1" d="M430.82,465.58h91.91c1.41,0,2.83-.05,4.24.04,5.05.3,8.22,3.32,8.3,7.83.08,4.2-2.9,7.44-7.61,8.11-1.39.2-2.82.12-4.23.12-61.74,0-123.49,0-185.23-.02-2.02,0-4.1-.12-6.04-.61-4.09-1.04-6-4.08-5.7-8.07.28-4.01,2.67-6.65,6.83-7.21,1.71-.24,3.45-.18,5.18-.18h92.38,0Z"/>
  <path class="cls-1" d="M310.42,304.59c-7.68,0-15.38.07-23.06-.02-6.2-.07-9.36-3.05-9.41-9.23-.11-15.22-.11-30.43,0-45.65.05-6.28,3.05-9.28,9.29-9.31,15.38-.08,30.75-.09,46.12,0,5.77.04,8.77,2.94,8.81,8.7.13,15.53.13,31.06,0,46.59-.05,5.98-3.09,8.8-9.15,8.88-7.53.1-15.06.03-22.59.03h0ZM325.93,256.67h-31.66v31.55h31.66v-31.55Z"/>
  <path class="cls-1" d="M293.7,336.6c-2.83,0-5.67.21-8.47-.05-4.05-.37-7.17-3.58-7.16-7.44,0-4.03,1.93-7.48,6.01-7.83,6.51-.58,13.15-.63,19.66-.07,4.23.37,6.37,3.74,6.18,8.11-.17,3.93-3.1,6.93-7.29,7.26-2.96.24-5.96.05-8.94.05v-.02h0Z"/>
  <path class="cls-1" d="M294.03,465.68c2.83,0,5.67-.18,8.48.04,4.33.34,6.89,2.83,7.41,7.14.47,3.99-1.9,7.85-6.04,8.21-6.51.56-13.14.54-19.66,0-4.04-.34-6.69-4.48-6.11-8.18.66-4.16,3.04-6.88,7.46-7.16,2.82-.18,5.65-.03,8.48-.04h0Z"/>
  <path class="cls-1" d="M294.11,529.81c-2.83,0-5.67.2-8.48-.05-4.48-.4-7.74-4.02-7.64-8.09.1-4.15,3.39-7.59,7.96-7.77,5.33-.21,10.68-.21,16.01,0,4.91.2,8.1,3.61,8.01,8.09-.08,4.23-3.23,7.48-7.86,7.81-2.66.19-5.34.04-8,.04v-.03h0Z"/>
  <path class="cls-1" d="M294.02,384.81c-2.98,0-5.99.24-8.93-.06-4.15-.41-7.11-3.57-7.03-7.49.08-4,1.98-7.4,6.15-7.71,6.52-.49,13.14-.51,19.67,0,4.09.32,6.08,3.6,6.07,7.71,0,4.03-2.75,7.09-6.99,7.5-2.95.29-5.96.06-8.94.06v-.02Z"/>
  <path class="cls-1" d="M294.11,417.13c3.13.16,6.3.08,9.38.53,4.15.6,6.33,3.41,6.41,7.49.08,4.09-2.01,7.32-6.13,7.64-6.37.5-12.83.5-19.21.08-4.04-.27-6.91-4.13-6.51-7.88.43-4.19,2.71-7.06,7.13-7.44,2.96-.25,5.95-.05,8.93-.05v-.38h0Z"/>
</svg>