<svg width="589" height="589" viewBox="0 0 589 589" fill="none" xmlns="http://www.w3.org/2000/svg">
<path d="M66.7098 151.338L263 151.338V142.726L66.7098 142.726V151.338Z" fill="#EBEBEB"/>
<path d="M251.986 151.349H243.375V179.822H251.986V151.349Z" fill="#EBEBEB"/>
<path d="M251.986 151.349H243.375V160.149H251.986V151.349Z" fill="#DBDBDB"/>
<path d="M86.3114 151.349H77.7002V179.822H86.3114V151.349Z" fill="#EBEBEB"/>
<path d="M86.3114 151.349H77.7002V160.149H86.3114V151.349Z" fill="#DBDBDB"/>
<path d="M226.353 142.738V87.8788H212.535V142.738H226.353Z" fill="#C7C7C7"/>
<path d="M226.353 90.9769V84.9456H212.535V90.9769H226.353Z" fill="#DBDBDB"/>
<path d="M226.353 100.931V98.6929H212.535V100.931H226.353Z" fill="#DBDBDB"/>
<path d="M226.353 135.541V129.509H210.815V135.541H226.353Z" fill="#DBDBDB"/>
<path d="M212.534 142.738V78.7375H202.875V142.738H212.534Z" fill="#DBDBDB"/>
<path d="M210.649 109.365V84.7571H204.854V109.365H210.649Z" fill="#EBEBEB"/>
<path d="M140.988 142.76L186.503 97.7665L179.712 90.8969L134.197 135.891L140.988 142.76Z" fill="#C7C7C7"/>
<path d="M150.282 130.807L167.783 113.507L163.709 109.385L146.208 126.685L150.282 130.807Z" fill="#DBDBDB"/>
<path d="M202.887 142.738V94.134H186.489V142.738H202.887Z" fill="#A6A6A6"/>
<path d="M202.887 137.602V133.067H186.489V137.602H202.887Z" fill="#C7C7C7"/>
<path d="M202.887 130.087V128.331H186.489V130.087H202.887Z" fill="#C7C7C7"/>
<path d="M237.685 142.75V97.0673H226.364V142.75H237.685Z" fill="#A6A6A6"/>
<path d="M237.685 137.897V133.644H226.364V137.897H237.685Z" fill="#C7C7C7"/>
<path d="M237.685 110.732V106.479H226.364V110.732H237.685Z" fill="#C7C7C7"/>
<path d="M237.673 115.303V113.653H226.352V115.303H237.673Z" fill="#C7C7C7"/>
<path d="M106.397 84.2152C116.057 93.6392 117.682 108.317 115.644 121.134C115.644 121.416 115.138 121.346 115.138 121.063C115.138 118.153 115.232 115.256 115.22 112.381C115.22 112.24 115.126 112.122 115.067 111.992C112.464 110.277 110.311 107.963 108.788 105.243C107.174 102.074 106.538 98.4926 105.313 95.1706C105.195 94.8526 105.537 94.9468 105.749 95.1117C111.639 99.4468 113.5 104.112 115.173 110.343C115.134 107.083 114.791 103.833 114.148 100.637C113.026 94.6113 110.253 89.016 106.138 84.4744C106.116 84.4383 106.106 84.3958 106.111 84.3538C106.116 84.3118 106.135 84.2726 106.165 84.2427C106.195 84.2128 106.234 84.1938 106.276 84.1888C106.318 84.1838 106.361 84.1931 106.397 84.2152Z" fill="#A6A6A6"/>
<path d="M104.582 85.3225C102.91 85.3225 101.873 88.0319 100.577 88.8565C100.441 88.9672 100.283 89.0479 100.113 89.0933C99.9434 89.1388 99.766 89.1479 99.5926 89.1201C99.4191 89.0923 99.2535 89.0282 99.1065 88.932C98.9596 88.8359 98.8345 88.7098 98.7396 88.562C97.4556 86.7714 99.2225 84.5686 100.872 83.3317C99.7795 83.9439 98.6268 84.4413 97.432 84.816C97.2688 84.8734 97.095 84.8941 96.9229 84.8768C96.7508 84.8594 96.5846 84.8043 96.4361 84.7155C96.2877 84.6267 96.1607 84.5062 96.064 84.3628C95.9674 84.2193 95.9036 84.0563 95.877 83.8853C95.3116 81.4469 98.3744 80.3513 100.483 80.3513C99.4582 79.6445 96.5367 77.7244 98.127 76.8173C99.7173 75.9103 103.134 78.6197 104.241 79.5267C105.89 80.8579 107.846 82.8605 107.928 84.9455C107.987 87.3251 105.855 85.829 104.582 85.3225Z" fill="#DBDBDB"/>
<path d="M105.054 85.7349C102.933 84.7571 98.8454 86.159 98.5038 85.3461C97.797 83.7087 101.06 82.5896 102.827 82.3658C101.201 81.9299 98.1151 81.1878 98.1858 79.6682C98.3036 77.7598 102.957 79.3973 105.313 81.1996C108.269 83.4731 108.258 85.676 107.763 86.1118C107.091 86.7126 105.407 85.888 105.054 85.7349Z" fill="#EBEBEB"/>
<path d="M128.401 83.2846C118.388 92.367 116.209 106.927 117.799 119.803C117.799 120.097 118.294 120.038 118.306 119.803C118.412 116.893 118.436 113.995 118.553 111.121L118.718 110.732C121.385 109.126 123.624 106.899 125.244 104.241C126.988 101.131 127.754 97.5738 129.108 94.3107C129.238 93.9926 128.896 94.0751 128.672 94.2282C122.629 98.3395 120.58 102.934 118.659 109.095C118.82 105.838 119.285 102.604 120.049 99.435C121.406 93.4502 124.399 87.9604 128.696 83.5791C128.735 83.5401 128.757 83.4871 128.757 83.4319C128.757 83.3766 128.735 83.3237 128.696 83.2846C128.657 83.2456 128.604 83.2236 128.549 83.2236C128.493 83.2236 128.441 83.2456 128.401 83.2846Z" fill="#A6A6A6"/>
<path d="M130.169 84.4508C131.83 84.5686 132.773 87.2663 134.033 88.0909C134.165 88.207 134.32 88.294 134.488 88.3461C134.656 88.3981 134.833 88.4141 135.008 88.393C135.182 88.3719 135.351 88.3141 135.501 88.2235C135.652 88.1328 135.782 88.0114 135.882 87.867C137.237 86.1236 135.553 83.8501 133.951 82.5543C135.016 83.241 136.149 83.8173 137.331 84.2741C137.492 84.3379 137.666 84.3654 137.838 84.3546C138.011 84.3438 138.18 84.2951 138.331 84.2119C138.483 84.1286 138.615 84.0129 138.717 83.873C138.819 83.7331 138.889 83.5724 138.922 83.4024C139.57 80.9757 136.566 79.7742 134.457 79.6446C135.494 78.9731 138.486 77.159 136.978 76.1106C135.47 75.0622 131.936 77.748 130.758 78.6315C129.062 79.9038 127.036 81.8239 126.883 83.8972C126.694 86.3239 128.873 84.9103 130.169 84.4508Z" fill="#DBDBDB"/>
<path d="M129.674 84.816C131.841 83.9325 135.858 85.4757 136.235 84.6865C137.001 83.0844 133.785 81.8357 132.042 81.553C133.679 81.176 136.754 80.587 136.754 79.0203C136.754 77.1119 132.042 78.5726 129.58 80.2925C126.54 82.4483 126.47 84.6393 126.941 85.0988C127.601 85.7467 129.321 84.9927 129.674 84.816Z" fill="#EBEBEB"/>
<path d="M118.154 107.28C117.483 112.139 116.443 116.94 115.044 121.64C115.025 121.732 114.97 121.813 114.892 121.865C114.813 121.917 114.718 121.936 114.625 121.917C114.533 121.898 114.452 121.844 114.4 121.765C114.348 121.687 114.33 121.591 114.349 121.499C115.008 117.07 116.21 112.723 116.858 108.305C117.581 103.824 117.842 99.2808 117.635 94.7465C117.211 87.2898 115.185 79.3501 110.32 73.5425C110.214 73.4012 110.438 73.2009 110.544 73.3305C120.297 84.6982 118.79 98.6339 118.79 99.8826C120.168 95.1706 121.593 89.7872 126.812 84.9927C127.036 84.7807 127.212 84.8867 127.177 85.2401C126.246 93.9573 123.82 98.5161 118.754 103.181C118.554 104.536 118.377 105.914 118.154 107.28Z" fill="#A6A6A6"/>
<path d="M110.226 74.8265C108.47 74.0491 106.056 76.2755 104.336 76.4286C104.143 76.4749 103.942 76.4807 103.746 76.4455C103.551 76.4103 103.365 76.335 103.2 76.2243C103.035 76.1137 102.895 75.97 102.788 75.8024C102.682 75.6348 102.611 75.4469 102.58 75.2506C102.145 72.7533 105.09 71.3397 107.422 70.892C105.95 70.7978 104.501 71.1983 103.052 70.8096C102.852 70.7863 102.66 70.7201 102.488 70.6155C102.317 70.5109 102.17 70.3703 102.058 70.2035C101.946 70.0366 101.872 69.8475 101.84 69.6491C101.808 69.4507 101.82 69.2478 101.874 69.0543C102.522 66.2389 106.244 66.6983 108.459 67.6525C107.752 66.4745 105.69 62.9405 107.775 62.7402C109.86 62.54 112.063 67.1224 112.758 68.6302C113.795 70.8449 114.832 73.8959 113.854 76.0988C112.758 78.6197 111.298 75.9928 110.226 74.8265Z" fill="#DBDBDB"/>
<path d="M110.52 75.4862C108.8 73.4247 103.864 72.8122 103.911 71.7991C104.006 69.7494 107.952 70.2206 109.896 70.8803C108.435 69.608 105.561 67.3463 106.444 65.7442C107.528 63.824 111.521 67.8646 113.065 70.9274C114.996 74.7794 113.866 77.0412 113.135 77.2532C112.134 77.536 110.803 75.8396 110.52 75.4862Z" fill="#EBEBEB"/>
<path d="M124.574 109.896L128.873 142.738H102.71C103.252 139.829 108.117 109.86 108.117 109.86L124.574 109.896Z" fill="#DBDBDB"/>
<path d="M436.578 118.307C437.291 115.285 438.588 112.432 440.395 109.907C442.115 107.551 444.887 105.839 448.712 104.771C449.89 104.418 451.268 104.041 452.929 103.593C454.638 103.178 456.309 102.618 457.924 101.921C459.567 101.219 461.083 100.252 462.412 99.0581C463.759 97.8424 464.7 96.2431 465.109 94.4757C465.461 93.2046 465.506 91.8681 465.239 90.5765C464.991 89.416 464.51 88.3179 463.825 87.3488C463.117 86.3713 462.22 85.5461 461.187 84.9221C460.13 84.2677 458.977 83.7828 457.771 83.4849C456.385 83.129 454.942 83.0608 453.53 83.2847C452.246 83.4755 450.993 83.8401 449.807 84.3684C448.651 84.8866 447.56 85.539 446.556 86.3121C445.63 87.0149 444.745 87.7701 443.905 88.5739L436.72 80.3279C438.058 78.5206 439.69 76.9515 441.549 75.6866C443.36 74.4569 445.346 73.5077 447.439 72.8711C449.573 72.2331 451.786 71.896 454.013 71.8698C456.312 71.8369 458.606 72.1103 460.833 72.6827C463.371 73.3233 465.803 74.3271 468.054 75.663C470.304 76.9895 472.267 78.7516 473.827 80.8462C475.435 83.0337 476.544 85.5467 477.078 88.2087C477.677 91.3386 477.54 94.5649 476.677 97.6327C476.23 99.552 475.499 101.394 474.51 103.099C473.631 104.567 472.526 105.887 471.235 107.01C469.957 108.107 468.543 109.038 467.03 109.778C465.387 110.569 463.691 111.242 461.952 111.792C460.409 112.263 458.89 112.688 457.37 113.088C455.905 113.466 454.477 113.979 453.106 114.619C451.794 115.214 450.598 116.036 449.572 117.046C448.517 118.157 447.785 119.533 447.451 121.028L436.578 118.307ZM430.912 141.666L434.387 127.86L445.496 130.652L442.021 144.458L430.912 141.666Z" fill="#EBEBEB"/>
<path d="M86.0881 374.345C86.5937 376.577 86.6577 378.886 86.2766 381.142C85.7143 383.542 84.372 385.688 82.4599 387.244C81.8002 387.845 80.9874 388.552 80.0214 389.353C79.0213 390.177 78.095 391.088 77.2531 392.074C76.3851 393.067 75.6884 394.197 75.1916 395.419C74.6931 396.661 74.5862 398.026 74.8853 399.33C75.0687 400.289 75.4719 401.192 76.0633 401.969C76.6041 402.657 77.277 403.23 78.0423 403.653C78.8293 404.066 79.6901 404.318 80.5751 404.396C81.4879 404.491 82.4099 404.443 83.308 404.254C84.3311 404.056 85.3044 403.656 86.1706 403.076C86.9628 402.537 87.6764 401.891 88.2909 401.156C88.8894 400.432 89.4032 399.641 89.8223 398.8C90.2137 398.037 90.556 397.25 90.8472 396.444L98.2686 399.554C97.9591 401.187 97.3778 402.755 96.5487 404.195C95.7429 405.603 94.7259 406.878 93.5331 407.977C92.3272 409.096 90.9664 410.037 89.4925 410.769C87.978 411.53 86.37 412.088 84.7098 412.43C82.8212 412.828 80.885 412.951 78.9612 412.795C77.0417 412.643 75.1716 412.11 73.4599 411.228C71.6841 410.292 70.1327 408.982 68.9129 407.388C67.5107 405.505 66.5632 403.324 66.1446 401.015C65.8173 399.599 65.7061 398.141 65.8147 396.692C65.9194 395.434 66.2257 394.201 66.7218 393.04C67.2087 391.896 67.8466 390.822 68.6184 389.847C69.4458 388.784 70.3515 387.784 71.3278 386.855C72.1995 386.054 73.0712 385.277 73.9547 384.499C74.8088 383.786 75.5972 382.997 76.3107 382.143C76.9468 381.32 77.4333 380.391 77.7479 379.398C78.0917 378.319 78.1325 377.166 77.8656 376.065L86.0881 374.345ZM82.2949 357.016L84.4507 367.3L76.2047 369.032L74.0489 358.76L82.2949 357.016Z" fill="#EBEBEB"/>
<path d="M457.064 269.232C458.451 271.052 459.471 273.125 460.068 275.334C460.542 277.76 460.199 280.275 459.09 282.484C458.749 283.309 458.301 284.287 457.759 285.418C457.187 286.583 456.722 287.797 456.369 289.046C455.992 290.31 455.829 291.628 455.886 292.945C455.954 294.281 456.422 295.566 457.229 296.632C457.792 297.426 458.535 298.076 459.397 298.529C460.176 298.932 461.03 299.172 461.906 299.236C462.793 299.293 463.683 299.168 464.521 298.87C465.385 298.57 466.199 298.141 466.936 297.598C467.786 296.996 468.503 296.226 469.044 295.336C469.561 294.517 469.957 293.629 470.222 292.698C470.46 291.793 470.598 290.864 470.635 289.929C470.683 289.078 470.683 288.225 470.635 287.373L478.669 287.114C479.073 288.722 479.201 290.387 479.046 292.038C478.892 293.659 478.495 295.248 477.868 296.75C477.229 298.267 476.381 299.687 475.347 300.967C474.289 302.3 473.062 303.488 471.695 304.501C470.139 305.65 468.425 306.567 466.606 307.222C464.796 307.88 462.875 308.172 460.951 308.082C458.951 307.969 456.999 307.427 455.226 306.492C453.168 305.358 451.399 303.766 450.055 301.839C449.169 300.687 448.462 299.408 447.958 298.046C447.528 296.859 447.293 295.609 447.263 294.347C447.228 293.102 447.359 291.858 447.652 290.648C447.972 289.34 448.386 288.057 448.889 286.808C449.348 285.712 449.808 284.64 450.302 283.592C450.794 282.583 451.188 281.53 451.48 280.447C451.746 279.429 451.834 278.373 451.74 277.325C451.6 276.202 451.156 275.139 450.456 274.25L457.064 269.232ZM446.462 255.096L452.694 263.542L445.897 268.56L439.665 260.114L446.462 255.096Z" fill="#EBEBEB"/>
<path d="M495.75 247.981C495.709 245.462 496.166 242.96 497.093 240.618C498.243 238.159 500.184 236.156 502.606 234.929C503.442 234.422 504.479 233.857 505.704 233.209C506.946 232.547 508.129 231.778 509.238 230.912C510.399 230.044 511.403 228.984 512.206 227.778C513.013 226.548 513.424 225.102 513.384 223.632C513.405 222.616 513.197 221.608 512.777 220.682C512.357 219.757 511.736 218.937 510.958 218.283C510.212 217.656 509.346 217.187 508.413 216.905C507.453 216.602 506.452 216.447 505.445 216.446C504.299 216.432 503.163 216.645 502.099 217.07C501.126 217.478 500.211 218.013 499.378 218.66C498.569 219.299 497.837 220.03 497.199 220.84C496.611 221.572 496.068 222.339 495.573 223.137L488.293 218.119C488.992 216.433 489.967 214.876 491.179 213.513C492.37 212.188 493.752 211.049 495.279 210.132C496.834 209.205 498.511 208.499 500.261 208.035C502.061 207.561 503.914 207.323 505.774 207.328C507.901 207.329 510.016 207.638 512.053 208.247C514.084 208.844 515.974 209.841 517.613 211.18C519.306 212.584 520.676 214.336 521.63 216.316C522.745 218.659 523.305 221.226 523.268 223.82C523.29 225.413 523.079 227 522.643 228.532C522.238 229.858 521.63 231.114 520.841 232.255C520.059 233.373 519.132 234.383 518.085 235.258C516.947 236.208 515.742 237.074 514.48 237.85C513.373 238.522 512.253 239.169 511.134 239.782C510.057 240.371 509.036 241.058 508.083 241.832C507.186 242.556 506.425 243.434 505.833 244.423C505.221 245.498 504.915 246.721 504.95 247.957L495.75 247.981ZM495.915 267.465V255.921H505.197V267.465H495.915Z" fill="#EBEBEB"/>
<path d="M205.349 314.903C204.789 312.448 204.717 309.906 205.137 307.423C205.754 304.78 207.239 302.42 209.354 300.72C210.072 300.048 210.956 299.283 212.028 298.364C213.119 297.448 214.135 296.448 215.067 295.372C216.012 294.273 216.772 293.028 217.317 291.685C217.865 290.319 217.98 288.818 217.647 287.385C217.446 286.331 217.003 285.339 216.351 284.487C215.747 283.757 215.002 283.156 214.16 282.72C213.299 282.26 212.353 281.979 211.38 281.895C210.38 281.802 209.372 281.858 208.388 282.06C207.264 282.287 206.196 282.731 205.243 283.368C204.366 283.966 203.574 284.679 202.887 285.488C202.233 286.282 201.672 287.148 201.214 288.068C200.768 288.907 200.375 289.772 200.036 290.66L192.014 287.22C192.349 285.427 192.982 283.703 193.887 282.119C194.771 280.572 195.887 279.169 197.197 277.961C198.519 276.726 200.01 275.687 201.626 274.875C203.293 274.042 205.058 273.425 206.88 273.037C208.959 272.603 211.089 272.468 213.206 272.636C215.313 272.801 217.367 273.381 219.249 274.344C221.201 275.364 222.906 276.8 224.244 278.55C226.697 281.971 227.91 286.126 227.684 290.33C227.565 291.708 227.231 293.06 226.694 294.335C226.161 295.599 225.464 296.787 224.621 297.869C223.703 299.031 222.707 300.129 221.64 301.156C220.686 302.039 219.732 302.899 218.766 303.724C217.834 304.526 216.974 305.409 216.198 306.362C215.475 307.262 214.909 308.278 214.525 309.366C214.158 310.555 214.117 311.82 214.407 313.03L205.349 314.903ZM209.554 333.928L207.198 322.642L216.28 320.711L218.636 332.008L209.554 333.928Z" fill="#EBEBEB"/>
<path d="M488.623 406.28L504.361 405.951L512.112 405.821C514.692 405.762 517.248 405.821 519.816 405.75L519.298 406.28L519.227 393.099L519.816 393.688L504.184 393.617C498.989 393.617 493.794 393.476 488.587 393.417L488.917 393.099C488.917 395.254 488.811 397.422 488.752 399.625L488.623 406.28ZM488.623 406.28L488.458 399.754C488.458 397.563 488.328 395.337 488.305 393.099V392.781H488.623C493.83 392.722 499.024 392.592 504.219 392.58L519.816 392.51H520.405V393.099V406.28V406.811H519.875C517.248 406.811 514.609 406.811 511.994 406.74L504.149 406.61L488.623 406.28Z" fill="#EBEBEB"/>
<path d="M506.021 422.902L521.759 422.572L529.51 422.443C532.09 422.384 534.647 422.443 537.215 422.372L536.696 422.902L536.637 409.72L537.215 410.309L521.618 410.239C516.423 410.239 511.228 410.097 506.021 410.038L506.351 409.72C506.351 411.876 506.245 414.043 506.198 416.246L506.021 422.902ZM506.021 422.902L505.856 416.376C505.856 414.185 505.727 411.958 505.703 409.72V409.402H506.021C511.228 409.343 516.423 409.214 521.618 409.202L537.215 409.131H537.815V409.72L537.745 422.902V423.432H537.167C534.541 423.432 531.914 423.432 529.287 423.361L521.441 423.232L506.021 422.902Z" fill="#EBEBEB"/>
<path d="M471.2 422.902L486.938 422.572L494.689 422.443C497.257 422.384 499.825 422.443 502.393 422.372L501.875 422.902L501.828 409.72L502.417 410.309L486.82 410.239C481.625 410.239 476.418 410.097 471.223 410.038L471.542 409.72C471.542 411.876 471.447 414.043 471.388 416.246L471.2 422.902ZM471.2 422.902L471.035 416.376C470.976 414.185 470.905 411.958 470.882 409.72V409.402H471.2C476.395 409.343 481.602 409.214 486.797 409.202L502.393 409.131H502.982V409.72L503.006 422.902V423.432H502.488C499.861 423.432 497.222 423.432 494.607 423.361L486.761 423.232L471.2 422.902Z" fill="#EBEBEB"/>
<path d="M69.1834 422.902L84.9097 422.572L92.6609 422.443C95.2407 422.384 97.8088 422.443 100.377 422.372L99.8467 422.902L99.7878 409.72L100.377 410.309L84.8154 410.239C79.6087 410.239 74.4137 410.097 69.2187 410.038L69.5368 409.72C69.5368 411.876 69.4307 414.043 69.3836 416.246L69.1834 422.902ZM69.1834 422.902L69.0067 416.376C69.0067 414.185 68.8771 411.958 68.8535 409.72V409.402H69.1834C74.3783 409.343 79.5733 409.214 84.7801 409.202L100.377 409.131H100.966V409.72L100.895 422.902V423.432H100.377C97.7499 423.432 95.1111 423.432 92.4842 423.361L84.6387 423.232L69.1834 422.902Z" fill="#EBEBEB"/>
<path d="M69.1834 56.2731L84.9097 55.9432L92.6609 55.8019C95.2407 55.8019 97.8088 55.8019 100.377 55.8019L99.8467 56.332L99.7878 43.1502L100.377 43.7274L84.8154 43.586C79.6087 43.586 74.4137 43.4564 69.2187 43.3975L69.5368 43.0795C69.5368 45.2352 69.4307 47.4027 69.3836 49.5938L69.1834 56.2731ZM69.1834 56.2731L69.0067 49.747C69.0067 47.5441 68.8771 45.3177 68.8535 43.0913V42.7732H69.1834C74.3783 42.7732 79.5733 42.5847 84.7801 42.5847L100.377 42.514H100.966V43.1148L100.895 56.2966V56.815H100.377C97.7499 56.815 95.1111 56.815 92.4842 56.7561L84.6387 56.544L69.1834 56.2731Z" fill="#EBEBEB"/>
<path d="M51.8318 72.8947L67.5581 72.5648L75.3093 72.4235C77.8892 72.4235 80.4454 72.4235 83.0252 72.4235L82.4951 72.9536V59.7717L83.0841 60.349L67.3814 60.2194C62.1746 60.2194 56.9797 60.078 51.8318 60.078L52.1499 59.76C52.1499 61.9157 52.0438 64.0832 51.9967 66.2743L51.8318 72.8947ZM51.8318 72.8947L51.6551 66.3685C51.6551 64.1657 51.5255 61.9393 51.502 59.7128V59.3948H51.8318C57.0268 59.3948 62.2218 59.2063 67.4285 59.2063L83.0252 59.1356H83.6142V59.7364L83.5435 72.9182V73.4365H83.0252C80.3865 73.4365 77.7596 73.4365 75.1326 73.4365L67.2872 73.2952L51.8318 72.8947Z" fill="#EBEBEB"/>
<path d="M506.021 56.2849L521.759 55.955L529.51 55.8254C532.09 55.8254 534.647 55.8254 537.215 55.7548L536.696 56.2849L536.637 43.103L537.215 43.692L521.618 43.586C516.423 43.586 511.228 43.4564 506.021 43.3975L506.351 43.0795C506.351 45.2352 506.245 47.4027 506.198 49.5938L506.021 56.2849ZM506.021 56.2849L505.856 49.7587C505.856 47.5559 505.727 45.3412 505.703 43.103V42.785H506.021C511.228 42.7261 516.423 42.6083 521.618 42.5965L537.167 42.514H537.768V43.103L537.709 56.2849V56.815H537.167C534.541 56.815 531.914 56.815 529.287 56.815L521.441 56.6854L506.021 56.2849Z" fill="#EBEBEB"/>
<path d="M337.155 227.154L321.429 227.484L313.678 227.613C311.098 227.672 308.53 227.613 305.962 227.684L306.492 227.154L306.551 240.336L305.962 239.747L321.559 239.829C326.766 239.829 331.96 239.959 337.155 240.018L336.837 240.336C336.837 238.18 336.943 236.012 336.991 233.821L337.155 227.154ZM337.155 227.154L337.332 233.68C337.332 235.883 337.462 238.097 337.485 240.336V240.654H337.155C331.96 240.654 326.766 240.83 321.559 240.842L305.962 240.913H305.373V240.312L305.444 227.13V226.6H305.962C308.589 226.6 311.228 226.6 313.855 226.659L321.7 226.789L337.155 227.154Z" fill="#EBEBEB"/>
<path d="M319.756 210.532L304.03 210.862L296.279 210.992C293.699 210.992 291.131 210.992 288.563 211.062L289.093 210.532L289.152 223.714L288.563 223.125L304.159 223.207C309.354 223.207 314.561 223.337 319.756 223.396L319.438 223.714C319.438 221.558 319.532 219.391 319.591 217.2L319.756 210.532ZM319.756 210.532L319.921 217.058C319.98 219.261 320.062 221.476 320.074 223.714V224.032H319.744C314.549 224.091 309.343 224.209 304.148 224.22L288.551 224.291H287.962V223.702L288.033 210.52V209.99H288.61C291.237 209.99 293.875 209.99 296.502 210.049L304.348 210.179L319.756 210.532Z" fill="#EBEBEB"/>
<path d="M45.2002 482.415L107.528 482.132L169.856 482.026L294.5 481.826L419.145 482.026L481.473 482.132L543.8 482.415L481.473 482.709L419.145 482.815L294.5 483.004L169.856 482.815L107.528 482.709L45.2002 482.415Z" fill="#263238"/>
<path d="M294.5 543.294C411.861 543.294 507 534.032 507 522.608C507 511.183 411.861 501.922 294.5 501.922C177.14 501.922 82.001 511.183 82.001 522.608C82.001 534.032 177.14 543.294 294.5 543.294Z" fill="#EBEBEB"/>
<path d="M503.006 352.799C498.53 348.417 492.746 343.116 485.901 345.013C479.47 346.791 477.007 353.812 475.853 359.667C474.369 367.218 473.214 374.828 472.013 382.426C470.811 390.024 469.657 397.74 468.561 405.456C467.933 409.791 467.32 414.13 466.724 418.473C466.417 420.64 466.115 422.808 465.816 424.975C465.522 427.107 465.169 429.24 465.051 431.384C465.051 432.067 466.087 432.161 466.229 431.513C467.065 427.897 467.407 424.127 467.937 420.464C468.467 416.8 469.009 413.066 469.539 409.379C470.611 402.04 471.73 394.712 472.826 387.374C473.921 380.035 475.076 372.719 476.254 365.392C477.243 359.172 477.714 351.456 483.216 347.357C484.711 346.336 486.441 345.711 488.244 345.542C490.048 345.373 491.864 345.665 493.523 346.391C497.14 347.781 500.037 350.373 502.876 352.941C503.006 353.023 503.124 352.893 503.006 352.799Z" fill="#263238"/>
<path d="M496.916 348.323C496.916 348.323 487.763 345.036 483.251 351.704C478.739 358.371 484.134 375.358 525.777 384.935C524.558 371.919 521.174 359.198 515.764 347.298C506.834 327.826 490.92 335.2 496.916 348.323Z" fill="#25A6CE"/>
<path d="M523.385 382.155C522.756 380.99 522.056 379.865 521.288 378.786C520.593 377.714 519.887 376.642 519.18 375.582C518.65 374.781 518.096 373.98 517.554 373.226C517.554 373.037 517.554 372.837 517.625 372.637L517.766 371.553C517.872 370.776 517.99 369.986 518.096 369.197C518.202 368.408 518.343 367.654 518.496 366.841C518.592 366.008 518.773 365.187 519.038 364.391C519.038 364.261 518.873 364.202 518.862 364.391C518.772 364.863 518.646 365.328 518.485 365.781L518.202 366.829C518.002 367.618 517.813 368.408 517.637 369.185C517.46 369.963 517.33 370.658 517.201 371.388C517.142 371.753 517.095 372.107 517.048 372.46C516.305 371.4 515.54 370.351 514.762 369.327C512.548 366.417 510.215 363.613 507.788 360.869C507.788 360.869 507.788 360.869 507.788 360.798C508.012 356.427 507.906 352.092 508.872 347.84C508.872 347.722 508.731 347.651 508.696 347.769C507.598 351.827 507.074 356.018 507.141 360.221C506.281 359.255 505.397 358.289 504.514 357.335C502.476 355.155 500.414 352.999 498.306 350.903C498.223 350.82 498.082 350.903 498.164 351.032C501.698 354.814 505.008 358.748 508.26 362.753C505.716 362.712 503.172 362.806 500.638 363.036C497.823 363.236 495.019 363.601 492.215 363.99C492.086 363.99 492.121 364.19 492.215 364.179C495.002 363.768 497.811 363.517 500.626 363.425C503.347 363.307 506.045 363.425 508.766 363.425C510.525 365.592 512.257 367.783 513.961 369.998H513.608C512.972 369.998 512.336 369.998 511.699 369.998C510.427 369.998 509.167 370.116 507.906 370.222C505.318 370.437 502.748 370.83 500.214 371.4C500.189 371.4 500.165 371.41 500.147 371.427C500.13 371.445 500.12 371.469 500.12 371.494C500.12 371.519 500.13 371.543 500.147 371.561C500.165 371.578 500.189 371.588 500.214 371.588C502.77 371.294 505.338 371.058 507.906 370.964C509.084 370.964 510.368 370.964 511.593 370.964H513.608C513.96 371.012 514.318 370.98 514.656 370.87C515.771 372.323 516.887 373.779 518.002 375.24C518.885 376.418 519.757 377.596 520.617 378.774C521.477 379.952 522.29 381.307 523.256 382.438C523.303 382.355 523.432 382.249 523.385 382.155Z" fill="#263238"/>
<path d="M500.897 357.782C499.421 357.594 497.932 357.523 496.444 357.57C494.96 357.57 493.464 357.57 491.98 357.664C491.85 357.664 491.862 357.853 491.98 357.853C493.487 357.735 494.995 357.711 496.503 357.735C498.011 357.759 499.424 357.9 500.873 357.853C500.944 357.853 500.944 357.794 500.897 357.782Z" fill="#263238"/>
<path d="M513.973 361.139C514.138 359.714 514.315 358.289 514.621 356.887C514.621 356.862 514.611 356.838 514.594 356.82C514.576 356.803 514.552 356.793 514.527 356.793C514.502 356.793 514.478 356.803 514.46 356.82C514.443 356.838 514.433 356.862 514.433 356.887C514.221 358.289 513.95 359.679 513.75 361.081C513.643 361.776 513.549 362.482 513.455 363.177C513.336 363.834 513.281 364.501 513.29 365.168C513.298 365.195 513.315 365.218 513.337 365.234C513.359 365.25 513.386 365.259 513.414 365.259C513.441 365.259 513.468 365.25 513.491 365.234C513.513 365.218 513.529 365.195 513.537 365.168C513.661 364.511 513.732 363.846 513.75 363.177C513.808 362.494 513.891 361.811 513.973 361.139Z" fill="#263238"/>
<path d="M511.251 345.378C510.886 346.768 510.521 348.17 510.274 349.571C510.144 350.29 510.026 351.009 509.932 351.727C509.803 352.422 509.755 353.13 509.791 353.836C509.791 353.851 509.797 353.866 509.808 353.877C509.819 353.889 509.834 353.895 509.85 353.895C509.865 353.895 509.88 353.889 509.891 353.877C509.902 353.866 509.908 353.851 509.908 353.836C510.074 353.179 510.18 352.509 510.227 351.833C510.321 351.138 510.427 350.455 510.545 349.76C510.804 348.311 511.063 346.874 511.428 345.448C511.44 345.331 511.251 345.26 511.251 345.378Z" fill="#263238"/>
<path d="M457.064 429.84C456.828 427.225 456.569 424.598 456.298 421.983C455.741 416.8 455.116 411.621 454.425 406.445C453.73 401.297 453.071 396.126 452.234 390.99C451.933 388.588 451.401 386.221 450.644 383.922C450.375 382.941 449.884 382.035 449.211 381.274C448.537 380.512 447.697 379.915 446.757 379.528C441.856 377.843 438.511 382.921 436.579 386.514C436.52 386.62 436.673 386.702 436.744 386.608C437.922 384.9 441.196 380.129 444.919 380.353C447.416 380.494 449.419 382.273 450.62 388.504C453.613 404.042 456.31 435.624 456.628 437.639C456.793 438.734 457.559 438.687 457.571 437.509C457.523 434.988 457.229 432.408 457.064 429.84Z" fill="#263238"/>
<path d="M437.839 384.641C437.839 384.641 442.127 369.515 432.656 377.078C416.894 389.671 416.341 417.012 416.341 417.012C416.341 417.012 444.354 400.744 447.829 390.012C453.024 374.062 437.839 384.641 437.839 384.641Z" fill="#25A6CE"/>
<path d="M443.14 392.062C440.949 392.51 438.711 392.804 436.496 393.122L433.339 393.57C432.632 393.664 431.913 393.735 431.195 393.817C433.28 390.943 435.389 388.08 437.391 385.147C437.41 385.122 437.418 385.091 437.414 385.06C437.409 385.029 437.393 385.001 437.368 384.982C437.343 384.963 437.311 384.955 437.28 384.96C437.249 384.964 437.221 384.981 437.203 385.006C435.532 386.719 433.959 388.524 432.491 390.413L431.242 386.879C430.771 385.524 430.252 384.181 429.911 382.779C429.911 382.661 429.699 382.779 429.734 382.838C430.111 384.216 430.382 385.642 430.759 387.032C431.136 388.422 431.525 389.694 431.996 391.002C430.971 392.333 429.982 393.699 429.027 395.078C428.544 393.711 427.944 392.392 427.531 391.002C427.531 390.884 427.307 390.943 427.343 391.002C427.849 392.545 428.12 394.135 428.591 395.714C427.944 396.656 427.307 397.599 426.695 398.541C425.517 400.296 424.492 402.075 423.455 403.865C423.374 403.9 423.306 403.96 423.262 404.037C423.217 404.113 423.198 404.202 423.208 404.29C421.441 407.352 419.757 410.451 418.096 413.584C418.083 413.606 418.08 413.632 418.086 413.656C418.093 413.68 418.109 413.701 418.131 413.714C418.153 413.726 418.179 413.729 418.203 413.723C418.227 413.716 418.248 413.7 418.26 413.678C419.921 410.58 421.794 407.564 423.691 404.608C423.988 404.509 424.297 404.45 424.61 404.431L425.576 404.219C426.294 404.066 427.013 403.877 427.732 403.701C429.157 403.347 430.559 403.006 432.008 402.758C432.125 402.758 432.067 402.558 432.008 402.581C430.311 402.9 428.615 403.1 426.895 403.288C426.082 403.383 425.281 403.489 424.48 403.618H424.362C425.36 402.095 426.381 400.579 427.425 399.071C428.438 397.599 429.487 396.138 430.535 394.677C431.513 394.548 432.467 394.288 433.433 394.112L436.684 393.476C438.852 393.04 441.019 392.557 443.199 392.203C443.316 392.274 443.258 392.038 443.14 392.062Z" fill="#263238"/>
<path d="M426.306 393.558C426.176 393.157 426.059 392.757 425.929 392.38C425.666 391.544 425.45 390.695 425.281 389.835C425.281 389.718 425.081 389.777 425.104 389.835C425.293 390.695 425.493 391.544 425.682 392.392C425.853 393.247 426.098 394.087 426.412 394.901C426.432 394.935 426.462 394.962 426.499 394.977C426.535 394.991 426.576 394.994 426.614 394.983C426.652 394.972 426.685 394.949 426.708 394.917C426.731 394.885 426.743 394.846 426.742 394.807C426.612 394.406 426.436 393.982 426.306 393.558Z" fill="#263238"/>
<path d="M446.002 388.563C444.73 388.752 443.446 388.846 442.15 388.964C440.854 389.082 439.594 389.247 438.31 389.447C438.239 389.447 438.239 389.565 438.31 389.553C439.594 389.47 440.878 389.364 442.162 389.199C443.446 389.034 444.718 388.846 446.014 388.752C446.132 388.74 446.12 388.551 446.002 388.563Z" fill="#263238"/>
<path d="M477.62 410.698C477.114 399.566 476.442 388.445 475.264 377.361C474.711 371.836 474.086 366.323 473.309 360.869C472.622 355.464 471.555 350.114 470.116 344.859C469.13 340.774 467.318 336.934 464.792 333.574C463.544 331.94 461.901 330.65 460.018 329.826C458.134 329.002 456.072 328.67 454.025 328.862C449.16 329.463 445.225 332.538 441.833 335.871C438.028 339.617 434.541 343.705 431.019 347.651C430.123 348.664 429.24 349.689 428.356 350.714C428.286 350.808 428.415 350.938 428.498 350.844C431.949 346.886 435.566 343.034 439.276 339.358C442.74 335.954 446.344 332.29 451.056 330.83C453.287 330.122 455.674 330.065 457.936 330.665C459.738 331.234 461.362 332.261 462.648 333.645C465.357 336.449 466.865 340.254 467.949 343.941C470.941 354.177 472.013 364.909 473.12 375.476C474.228 386.042 475.017 396.974 475.559 407.765C476.101 418.555 476.525 429.452 477.573 440.266C477.703 441.597 477.868 442.928 478.044 444.259C478.15 445.143 479.54 445.154 479.47 444.259C478.633 433.068 478.115 421.889 477.62 410.698Z" fill="#263238"/>
<path d="M441.243 337.049C441.243 337.049 447.605 325.269 440.065 321.5C432.526 317.73 407.411 345.79 400.072 386.832C400.072 386.832 440.678 368.867 454.472 350.961C468.267 333.056 452.646 329.121 441.243 337.049Z" fill="#25A6CE"/>
<path d="M447.216 346.615C442.657 346.615 438.098 346.273 433.539 346.297L436.107 343.363C437.376 342.061 438.556 340.676 439.641 339.217C439.7 339.123 439.571 338.993 439.477 339.064C438.236 340.125 437.082 341.283 436.025 342.527C434.847 343.705 433.74 344.954 432.609 346.179C430.865 348.075 429.157 349.984 427.449 351.916C427.449 351.727 427.449 351.539 427.449 351.362C427.449 350.561 427.449 349.76 427.449 349.006C427.449 347.463 427.449 345.908 427.449 344.365C427.449 341.231 427.449 338.074 427.685 334.941C427.685 334.823 427.508 334.823 427.496 334.941C427.284 338.098 426.954 341.231 426.801 344.365C426.731 345.92 426.695 347.463 426.672 349.018C426.672 349.807 426.672 350.608 426.672 351.374C426.672 351.81 426.672 352.269 426.672 352.717C426.413 353.023 426.13 353.317 425.871 353.612C422.231 357.782 418.803 362.082 415.386 366.464C415.386 366.228 415.386 365.969 415.328 365.734C415.328 365.251 415.222 364.768 415.174 364.285C415.057 363.236 414.915 362.2 414.75 361.151C414.585 360.103 414.456 359.196 414.291 358.218C414.126 357.24 413.831 356.015 413.749 354.908C413.754 354.894 413.756 354.878 413.754 354.863C413.752 354.848 413.747 354.834 413.738 354.821C413.729 354.809 413.718 354.798 413.704 354.791C413.691 354.784 413.676 354.781 413.661 354.781C413.645 354.781 413.63 354.784 413.617 354.791C413.604 354.798 413.592 354.809 413.583 354.821C413.575 354.834 413.569 354.848 413.567 354.863C413.565 354.878 413.567 354.894 413.572 354.908C413.757 356.016 413.883 357.132 413.949 358.253L414.232 361.269C414.314 362.27 414.409 363.272 414.515 364.285L414.656 365.734C414.656 365.969 414.715 366.217 414.75 366.452C414.762 366.658 414.827 366.857 414.939 367.029L413.207 369.291C410.851 372.342 408.636 375.429 406.375 378.503C406.304 378.597 406.445 378.727 406.516 378.633C408.66 375.841 410.863 373.096 413.089 370.387C414.762 370.457 416.47 370.328 418.143 370.304C419.816 370.281 421.677 370.304 423.42 370.304C423.445 370.304 423.469 370.294 423.487 370.277C423.505 370.259 423.515 370.235 423.515 370.21C423.515 370.185 423.505 370.161 423.487 370.143C423.469 370.126 423.445 370.116 423.42 370.116C421.653 370.116 419.886 370.175 418.131 370.186C416.376 370.198 414.892 370.116 413.29 370.186C415.245 367.83 417.236 365.474 419.18 363.06L421.488 360.468C422.164 360.556 422.846 360.58 423.526 360.539H425.882C427.378 360.539 428.875 360.539 430.382 360.48C433.481 360.48 436.579 360.327 439.677 360.315C439.691 360.32 439.706 360.322 439.721 360.32C439.737 360.318 439.751 360.312 439.763 360.304C439.776 360.295 439.786 360.284 439.793 360.27C439.8 360.257 439.804 360.242 439.804 360.226C439.804 360.211 439.8 360.196 439.793 360.183C439.786 360.169 439.776 360.158 439.763 360.149C439.751 360.14 439.737 360.135 439.721 360.133C439.706 360.131 439.691 360.133 439.677 360.138C436.567 360.138 433.469 359.961 430.371 359.879C428.863 359.879 427.367 359.796 425.859 359.773H423.503C423.055 359.773 422.584 359.773 422.113 359.773L427.237 353.706C427.277 353.679 427.309 353.643 427.331 353.6C428.992 351.633 430.653 349.677 432.338 347.71C432.573 347.451 432.809 347.192 433.033 346.921C437.745 347.062 442.457 346.756 447.169 346.85C447.346 346.803 447.346 346.615 447.216 346.615Z" fill="#263238"/>
<path d="M444.883 354.684H443.776C443.754 354.684 443.733 354.693 443.718 354.708C443.702 354.724 443.693 354.745 443.693 354.766C443.693 354.788 443.702 354.809 443.718 354.825C443.733 354.84 443.754 354.849 443.776 354.849H444.871C444.887 354.842 444.9 354.831 444.91 354.817C444.919 354.803 444.925 354.787 444.926 354.77C444.927 354.753 444.924 354.736 444.916 354.721C444.909 354.706 444.897 354.693 444.883 354.684Z" fill="#263238"/>
<path d="M442.421 354.696C440.96 354.696 439.5 354.696 438.039 354.601L435.86 354.578C435.183 354.495 434.498 354.495 433.822 354.578C433.803 354.578 433.785 354.585 433.772 354.599C433.758 354.612 433.751 354.63 433.751 354.649C433.751 354.667 433.758 354.685 433.772 354.699C433.785 354.712 433.803 354.719 433.822 354.719C434.496 354.855 435.185 354.903 435.871 354.861H438.062H442.445C442.551 354.884 442.551 354.696 442.421 354.696Z" fill="#263238"/>
<path d="M429.664 368.408C426.693 367.908 423.688 367.636 420.676 367.595V367.654C423.668 367.936 426.648 368.101 429.617 368.584C429.735 368.608 429.782 368.419 429.664 368.408Z" fill="#263238"/>
<path d="M417.448 355.332C417.448 355.073 417.389 354.814 417.353 354.554C417.283 353.965 417.189 353.376 417.094 352.799C416.918 351.68 416.729 350.573 416.517 349.454C416.517 349.359 416.317 349.383 416.329 349.454C416.47 350.632 416.6 351.751 416.706 352.905L416.847 354.601C416.831 355.144 416.907 355.686 417.071 356.204C417.094 356.239 417.127 356.267 417.166 356.284C417.205 356.301 417.248 356.307 417.29 356.301C417.332 356.295 417.371 356.277 417.403 356.249C417.435 356.222 417.459 356.185 417.471 356.145C417.512 355.874 417.504 355.599 417.448 355.332Z" fill="#263238"/>
<path d="M477.219 321.936C475.759 319.226 473.909 315.657 470.281 315.881C467.289 316.069 465.934 319.12 465.298 321.653C463.319 329.463 463.178 337.709 462.801 345.719C461.976 362.647 461.246 379.587 461.14 396.538C461.14 401.25 461.14 405.962 461.14 410.674C461.14 415.469 461.14 420.287 461.469 425.069C461.469 425.163 461.507 425.253 461.573 425.319C461.639 425.386 461.729 425.423 461.823 425.423C461.917 425.423 462.007 425.386 462.073 425.319C462.139 425.253 462.176 425.163 462.176 425.069C462.176 420.97 462.059 416.823 462.047 412.771C462.035 408.719 462.047 404.773 462.117 400.767C462.251 392.671 462.467 384.574 462.765 376.477C463.072 368.431 463.425 360.385 463.767 352.34C463.932 348.323 464.108 344.294 464.285 340.277C464.462 336.26 464.627 332.49 465.074 328.615C465.322 326.436 465.64 324.268 466.099 322.136C466.323 320.545 466.97 319.044 467.972 317.789C468.664 317.106 469.577 316.692 470.547 316.623C471.517 316.554 472.48 316.834 473.261 317.412C474.922 318.609 476.222 320.239 477.019 322.124C477.044 322.151 477.079 322.166 477.115 322.167C477.152 322.168 477.187 322.155 477.213 322.13C477.24 322.105 477.256 322.07 477.257 322.034C477.258 321.998 477.244 321.962 477.219 321.936Z" fill="#263238"/>
<path d="M476.23 320.64C476.23 320.64 473.25 310.109 479.846 315.374C490.825 324.138 491.214 343.21 491.214 343.21C491.214 343.21 471.695 331.878 469.268 324.362C465.652 313.266 476.23 320.64 476.23 320.64Z" fill="#25A6CE"/>
<path d="M487.103 335.4C486.927 335.106 486.738 334.823 486.55 334.528C486.573 334.23 486.573 333.931 486.55 333.633C486.55 333.186 486.55 332.726 486.55 332.278C486.55 331.383 486.55 330.488 486.644 329.604C486.644 329.579 486.634 329.555 486.616 329.538C486.599 329.52 486.575 329.51 486.55 329.51C486.525 329.51 486.501 329.52 486.483 329.538C486.465 329.555 486.455 329.579 486.455 329.604C486.455 330.476 486.373 331.36 486.349 332.231C486.349 332.667 486.349 333.103 486.349 333.539C486.349 333.704 486.349 333.904 486.349 334.104C485.584 332.926 484.794 331.748 483.993 330.57C483.758 330.229 483.51 329.899 483.275 329.569C483.149 328.427 483.129 327.275 483.216 326.129C483.216 324.951 483.216 323.679 483.287 322.454C483.287 322.336 483.098 322.336 483.098 322.454C483.098 323.726 483.004 324.998 482.933 326.271C482.856 327.176 482.833 328.084 482.862 328.992C480.978 326.436 478.975 323.962 476.972 321.5C476.902 321.417 476.76 321.5 476.831 321.618C478.08 323.208 479.281 324.833 480.459 326.483C478.162 325.941 475.83 325.635 473.497 325.305C473.38 325.305 473.332 325.47 473.497 325.493C475.971 325.87 478.398 326.483 480.836 327.025C481.767 328.344 482.698 329.663 483.605 330.994L484.712 332.62H484.618L483.852 332.514L482.226 332.373C481.107 332.278 479.976 332.22 478.845 332.161C478.728 332.161 478.739 332.349 478.845 332.349C479.953 332.349 481.06 332.455 482.156 332.573L483.911 332.785L484.665 332.879H484.889C485.513 333.798 486.149 334.717 486.762 335.636C487.869 337.273 488.858 339.017 490.025 340.583C490.04 340.596 490.059 340.604 490.079 340.606C490.099 340.608 490.119 340.603 490.136 340.592C490.153 340.582 490.166 340.566 490.174 340.548C490.181 340.529 490.183 340.509 490.178 340.489C489.256 338.733 488.229 337.033 487.103 335.4Z" fill="#263238"/>
<path d="M482.25 323.502C482.25 323.09 482.25 322.678 482.25 322.265C482.226 321.404 482.262 320.542 482.356 319.686C482.361 319.671 482.363 319.656 482.361 319.641C482.359 319.626 482.354 319.612 482.345 319.599C482.336 319.587 482.325 319.576 482.311 319.569C482.298 319.562 482.283 319.559 482.268 319.559C482.252 319.559 482.237 319.562 482.224 319.569C482.21 319.576 482.199 319.587 482.19 319.599C482.182 319.612 482.176 319.626 482.174 319.641C482.172 319.656 482.174 319.671 482.179 319.686C482.179 320.546 482.085 321.394 482.038 322.242C482.038 322.678 482.038 323.102 482.038 323.526V324.115C482.008 324.318 482.008 324.524 482.038 324.727C482.038 324.749 482.047 324.77 482.062 324.786C482.077 324.801 482.098 324.81 482.12 324.81C482.142 324.81 482.163 324.801 482.179 324.786C482.194 324.77 482.203 324.749 482.203 324.727C482.232 324.54 482.232 324.349 482.203 324.162L482.25 323.502Z" fill="#263238"/>
<path d="M479.835 327.861C479.104 327.731 478.362 327.696 477.632 327.637C476.902 327.578 476.03 327.496 475.276 327.39C475.251 327.39 475.227 327.4 475.209 327.417C475.192 327.435 475.182 327.459 475.182 327.484C475.182 327.509 475.192 327.533 475.209 327.551C475.227 327.568 475.251 327.578 475.276 327.578C476.819 327.672 478.35 327.955 479.894 328.002C479.905 328.014 479.917 327.873 479.835 327.861Z" fill="#263238"/>
<path d="M485.961 327.92C486.02 328.002 485.961 328.238 485.961 328.332V329.404C485.961 329.651 485.961 329.899 485.961 330.146C485.919 330.356 485.919 330.572 485.961 330.782C485.961 330.782 486.02 330.782 486.031 330.782C486.055 330.682 486.055 330.577 486.031 330.476C486.025 330.362 486.025 330.248 486.031 330.134V329.404C486.031 329.157 486.031 328.909 486.031 328.662V328.332C486.031 328.226 486.031 328.002 486.031 327.92C486.031 327.837 485.843 327.743 485.961 327.92Z" fill="#263238"/>
<path d="M477.667 378.138C473.567 375.063 469.88 370.634 464.355 370.41C459.796 370.234 456.604 373.662 454.778 377.478C453.865 379.515 453.121 381.623 452.552 383.781C451.727 386.655 450.942 389.549 450.196 392.463C448.774 398.188 447.557 403.96 446.544 409.779C445.99 413.019 445.472 416.27 445.06 419.533C444.542 422.841 444.223 426.176 444.106 429.522C444.103 429.651 444.149 429.776 444.234 429.872C444.319 429.969 444.437 430.031 444.565 430.046C444.692 430.06 444.821 430.027 444.926 429.952C445.03 429.877 445.103 429.766 445.13 429.64C445.684 426.907 445.92 424.092 446.308 421.335C446.697 418.579 447.133 415.787 447.592 413.03C448.535 407.533 449.626 402.036 450.867 396.538C452.045 391.367 453.223 386.125 454.861 381.095C456.039 377.49 457.971 373.285 461.87 371.989C467.76 370.022 473.167 375.028 477.502 378.291C477.631 378.35 477.761 378.209 477.667 378.138Z" fill="#263238"/>
<path d="M473.426 375.193C473.426 375.193 469.633 364.391 475.111 362.235C483.357 359.066 504.773 383.239 500.567 420.275C500.567 420.275 483.993 411.146 471.742 400.862C459.491 390.578 456.428 377.16 461.764 373.697C467.1 370.234 473.426 375.193 473.426 375.193Z" fill="#25A6CE"/>
<path d="M498.094 412.371C497.524 411.078 496.859 409.83 496.103 408.636C495.396 407.364 494.689 406.104 493.959 404.855C492.534 402.417 491.12 399.978 489.659 397.551L488.941 396.373C488.941 396.232 489 396.079 489.023 395.938L489.27 394.866C489.459 394.065 489.6 393.252 489.742 392.439C490.048 390.86 490.319 389.258 490.743 387.727C490.743 387.621 490.59 387.586 490.566 387.727C490.225 389.305 489.718 390.872 489.259 392.439C489.023 393.205 488.776 393.958 488.575 394.736L488.363 395.525C486.608 392.639 484.829 389.765 482.874 386.985C483 386.605 483.068 386.207 483.074 385.807C483.133 385.265 483.192 384.723 483.263 384.181C483.404 383.003 483.545 381.743 483.722 380.529C484.075 378.173 484.429 375.817 485.018 373.461C485.018 373.343 484.865 373.308 484.841 373.461C484.24 375.817 483.604 378.173 483.157 380.529C482.945 381.707 482.733 382.885 482.579 384.063C482.509 384.652 482.438 385.241 482.379 385.83C482.379 385.995 482.379 386.184 482.308 386.36C481.719 385.524 481.13 384.676 480.506 383.863C478.61 381.366 476.642 378.939 474.616 376.512C474.545 376.418 474.381 376.512 474.463 376.618C477.856 380.957 480.972 385.505 483.793 390.236L485.407 392.863L484.865 392.792C484.17 392.698 483.475 392.663 482.78 392.592L478.586 392.227C475.794 392.003 472.991 391.838 470.21 391.544C470.093 391.544 470.057 391.709 470.21 391.72C473.038 392.05 475.841 392.498 478.657 392.898C480.047 393.099 481.425 393.287 482.815 393.464C483.866 393.673 484.936 393.779 486.007 393.782C487.103 395.572 488.21 397.316 489.306 399.13C489.058 399.13 488.799 399.13 488.564 399.13H484.57C482.768 399.13 480.966 399.13 479.175 399.13C479.045 399.13 479.069 399.307 479.175 399.307C481.001 399.307 482.815 399.424 484.641 399.519L487.233 399.672L488.528 399.766C488.916 399.856 489.319 399.856 489.706 399.766L492.51 404.313C493.37 405.715 494.242 407.105 495.125 408.495C495.958 409.969 496.899 411.378 497.941 412.712C497.988 412.547 498.141 412.488 498.094 412.371Z" fill="#263238"/>
<path d="M490.189 382.438C490.024 383.631 489.776 384.812 489.447 385.972C489.141 387.15 488.799 388.328 488.41 389.506C488.404 389.521 488.401 389.537 488.401 389.553C488.402 389.57 488.405 389.586 488.412 389.6C488.419 389.615 488.429 389.628 488.441 389.639C488.454 389.65 488.468 389.658 488.484 389.663C488.499 389.668 488.516 389.67 488.532 389.668C488.548 389.666 488.564 389.661 488.578 389.653C488.592 389.645 488.604 389.634 488.614 389.62C488.624 389.607 488.631 389.592 488.634 389.576C488.999 388.398 489.329 387.22 489.612 386.042C489.895 384.864 490.083 383.686 490.378 382.449C490.379 382.424 490.371 382.4 490.354 382.381C490.338 382.362 490.314 382.351 490.289 382.349C490.264 382.348 490.24 382.356 490.221 382.373C490.202 382.389 490.191 382.413 490.189 382.438Z" fill="#263238"/>
<path d="M478.009 389.671C477.755 389.457 477.435 389.336 477.102 389.329L475.535 389.117C474.569 388.987 473.592 388.881 472.626 388.764C470.6 388.528 468.585 388.328 466.559 388.08C466.441 388.08 466.406 388.245 466.559 388.257C468.467 388.493 470.364 388.787 472.272 389.034L475.064 389.4L476.419 389.541C476.941 389.546 477.458 389.637 477.95 389.812C477.967 389.812 477.983 389.808 477.997 389.798C478.011 389.789 478.021 389.776 478.028 389.761C478.034 389.746 478.036 389.729 478.032 389.713C478.029 389.697 478.021 389.682 478.009 389.671Z" fill="#263238"/>
<path d="M490.166 405.962C489.211 405.88 488.246 405.844 487.291 405.821H485.842H485.147C484.846 405.85 484.542 405.85 484.24 405.821C484.111 405.821 484.099 406.021 484.24 405.998C484.522 405.968 484.807 405.968 485.088 405.998H485.842L487.28 406.092C488.234 406.151 489.2 406.21 490.154 406.21C490.272 406.163 490.283 405.962 490.166 405.962Z" fill="#263238"/>
<path d="M496.008 401.816L496.326 400.19C496.515 399.118 496.715 398.046 496.915 396.986C496.915 396.961 496.905 396.937 496.888 396.919C496.87 396.902 496.846 396.892 496.821 396.892C496.796 396.892 496.772 396.902 496.754 396.919C496.737 396.937 496.727 396.961 496.727 396.986L496.02 400.108C495.902 400.626 495.784 401.144 495.678 401.663C495.678 401.91 495.584 402.146 495.525 402.393C495.451 402.641 495.423 402.901 495.443 403.159C495.445 403.182 495.454 403.205 495.47 403.223C495.485 403.242 495.506 403.255 495.529 403.261C495.552 403.267 495.576 403.267 495.598 403.259C495.621 403.251 495.641 403.237 495.655 403.218C495.86 402.777 495.98 402.301 496.008 401.816Z" fill="#263238"/>
<path d="M439.865 425.376L441.02 438.51L444.942 482.839H479.658L484.559 438.51L486.008 425.376H439.865Z" fill="#37474F"/>
<path d="M439.865 425.376L441.02 438.51H484.559L486.008 425.376H439.865Z" fill="#263238"/>
<path d="M436.426 432.456H489.447V421.806H436.426V432.456Z" fill="#37474F"/>
<path d="M252.092 381.825C252.092 362.977 255.171 346.041 261.328 331.018C267.485 315.995 280.183 302.907 299.424 291.755C305.204 288.292 312.327 284.365 320.793 279.975C329.505 275.4 337.808 270.088 345.614 264.096C353.592 258.062 360.518 250.75 366.111 242.456C371.749 234.001 374.671 224.026 374.486 213.866C374.655 206.466 373.081 199.13 369.892 192.45C366.951 186.487 362.826 181.184 357.77 176.865C352.578 172.537 346.569 169.297 340.1 167.335C333.469 165.242 326.557 164.173 319.603 164.166C311.722 164.058 303.899 165.516 296.585 168.454C289.858 171.226 283.546 174.917 277.831 179.421C272.262 183.831 267.221 188.871 262.812 194.441C258.753 199.504 254.996 204.802 251.562 210.308H242.868L201.32 175.675C206.126 164.029 212.86 153.277 221.24 143.869C229.434 134.697 238.965 126.813 249.512 120.486C260.241 114.107 271.818 109.277 283.898 106.138C296.334 102.853 309.144 101.202 322.006 101.226C336.672 101.234 351.259 103.373 365.31 107.575C379.321 111.699 392.372 118.57 403.701 127.789C415.403 137.476 424.861 149.591 431.419 163.294C438.534 177.729 442.092 194.955 442.092 214.973C442.27 226 440.813 236.992 437.768 247.592C435.005 256.761 430.81 265.436 425.341 273.296C419.924 281.023 413.52 288.009 406.292 294.076C398.444 300.614 390.146 306.594 381.46 311.97C373.756 316.603 366.06 321.033 358.371 325.258C350.93 329.317 343.876 334.049 337.297 339.394C331.101 344.415 325.824 350.473 321.7 357.299C317.664 364.037 315.645 372.217 315.645 381.837L252.092 381.825ZM253.27 516.341V436.673H317.353V516.341H253.27Z" fill="#007AFF"/>
<g opacity="0.2">
<path d="M252.092 381.825C252.092 362.977 255.171 346.041 261.328 331.018C267.485 315.995 280.183 302.907 299.424 291.755C305.204 288.292 312.327 284.365 320.793 279.975C329.505 275.4 337.808 270.088 345.614 264.096C353.592 258.062 360.518 250.75 366.111 242.456C371.749 234.001 374.671 224.026 374.486 213.866C374.655 206.466 373.081 199.13 369.892 192.45C366.951 186.487 362.826 181.184 357.77 176.865C352.578 172.537 346.569 169.297 340.1 167.335C333.469 165.242 326.557 164.173 319.603 164.166C311.722 164.058 303.899 165.516 296.585 168.454C289.858 171.226 283.546 174.917 277.831 179.421C272.262 183.831 267.221 188.871 262.812 194.441C258.753 199.504 254.996 204.802 251.562 210.308H242.868L201.32 175.675C206.126 164.029 212.86 153.277 221.24 143.869C229.434 134.697 238.965 126.813 249.512 120.486C260.241 114.107 271.818 109.277 283.898 106.138C296.334 102.853 309.144 101.202 322.006 101.226C336.672 101.234 351.259 103.373 365.31 107.575C379.321 111.699 392.372 118.57 403.701 127.789C415.403 137.476 424.861 149.591 431.419 163.294C438.534 177.729 442.092 194.955 442.092 214.973C442.27 226 440.813 236.992 437.768 247.592C435.005 256.761 430.81 265.436 425.341 273.296C419.924 281.023 413.52 288.009 406.292 294.076C398.444 300.614 390.146 306.594 381.46 311.97C373.756 316.603 366.06 321.033 358.371 325.258C350.93 329.317 343.876 334.049 337.297 339.394C331.101 344.415 325.824 350.473 321.7 357.299C317.664 364.037 315.645 372.217 315.645 381.837L252.092 381.825ZM253.27 516.341V436.673H317.353V516.341H253.27Z" fill="black"/>
</g>
<path d="M243.446 381.825C243.446 362.977 246.524 346.041 252.681 331.018C258.838 315.995 271.541 302.907 290.79 291.755C296.562 288.292 303.681 284.365 312.147 279.975C320.864 275.403 329.172 270.091 336.979 264.096C344.955 258.059 351.881 250.748 357.476 242.456C363.105 233.998 366.023 224.025 365.84 213.866C365.992 206.484 364.41 199.169 361.222 192.509C358.281 186.545 354.156 181.243 349.101 176.924C343.908 172.596 337.899 169.356 331.431 167.394C324.799 165.301 317.887 164.232 310.933 164.225C303.052 164.094 295.224 165.532 287.904 168.454C281.172 171.227 274.857 174.918 269.138 179.421C263.572 183.831 258.536 188.871 254.13 194.441C250.067 199.504 246.307 204.802 242.869 210.308L192.639 175.675C197.441 164.027 204.176 153.274 212.559 143.869C220.749 134.693 230.281 126.81 240.831 120.486C251.556 114.109 263.128 109.279 275.205 106.138C287.652 102.849 300.474 101.198 313.348 101.226C328.014 101.233 342.601 103.372 356.652 107.575C370.664 111.696 383.715 118.568 395.043 127.789C406.748 137.474 416.206 149.589 422.761 163.294C429.876 177.729 433.438 194.955 433.445 214.973C433.62 226.001 432.159 236.993 429.11 247.592C426.34 256.765 422.133 265.44 416.647 273.296C411.231 281.023 404.827 288.009 397.599 294.076C389.755 300.62 381.456 306.599 372.767 311.97C365.078 316.603 357.382 321.033 349.678 325.258C342.237 329.317 335.183 334.049 328.603 339.394C322.412 344.415 317.138 350.474 313.018 357.299C308.982 364.037 306.96 372.217 306.952 381.837L243.446 381.825ZM244.624 516.341V436.673H308.636V516.341H244.624Z" fill="#25A6CE"/>
<path d="M217.035 522.714C214.526 523.515 142.986 522.596 140.288 520.829C139.252 520.169 138.781 509.744 138.569 497.116V496.727C138.569 494.124 138.486 491.438 138.474 488.729C138.474 488.352 138.474 487.975 138.474 487.609C138.38 469.398 138.663 450.491 138.663 450.491L186.525 450.974L185.076 487.692L185.017 489.153L184.723 496.763V497.54C184.723 497.54 211.923 510.192 214.691 512.43C217.459 514.668 219.544 521.913 217.035 522.714Z" fill="#AD6359"/>
<path d="M217.035 522.714C214.526 523.515 142.986 522.596 140.289 520.829C139.252 520.17 138.781 509.744 138.569 497.116V496.727C138.569 494.124 138.486 491.438 138.475 488.729C138.475 488.352 138.475 487.975 138.475 487.61L185.088 487.739L185.029 489.2L184.735 496.81V497.587C184.735 497.587 211.923 510.192 214.691 512.43C217.46 514.668 219.545 521.913 217.035 522.714Z" fill="#EBEBEB"/>
<path d="M217.035 522.714C215.492 523.209 187.773 523.044 166.075 522.431C152.528 522.066 141.337 521.501 140.288 520.829C139.24 520.158 138.792 510.039 138.58 497.646C138.58 497.47 138.58 497.293 138.58 497.116C138.58 496.939 138.58 496.845 138.58 496.716L184.746 496.81V497.587C184.746 497.587 211.981 510.192 214.738 512.442C217.494 514.692 219.544 521.913 217.035 522.714Z" fill="#007AFF"/>
<path d="M216.269 519.922C204.206 519.474 155.543 518.744 143.586 519.251C143.492 519.251 143.492 519.321 143.586 519.333C155.531 520.04 204.194 520.334 216.257 520.122C216.516 520.122 216.516 519.934 216.269 519.922Z" fill="#263238"/>
<path d="M189.859 496.998C185.147 496.056 179.316 496.704 175.64 500.037C175.499 500.167 175.64 500.367 175.84 500.32C180.396 498.92 185.087 498.008 189.835 497.599C189.905 497.588 189.97 497.553 190.017 497.5C190.064 497.447 190.092 497.379 190.094 497.308C190.097 497.237 190.075 497.168 190.032 497.111C189.989 497.054 189.928 497.015 189.859 496.998Z" fill="#263238"/>
<path d="M193.263 499.107C188.551 498.164 182.72 498.812 179.044 502.146C178.903 502.276 179.044 502.476 179.245 502.429C183.785 501.031 188.46 500.119 193.192 499.708C193.265 499.705 193.334 499.676 193.388 499.626C193.441 499.577 193.475 499.51 193.484 499.437C193.492 499.365 193.475 499.292 193.434 499.231C193.394 499.171 193.333 499.127 193.263 499.107Z" fill="#263238"/>
<path d="M196.656 501.216C191.944 500.273 186.112 500.921 182.437 504.255C182.296 504.384 182.437 504.585 182.637 504.537C187.193 503.141 191.884 502.233 196.632 501.828C196.713 501.831 196.792 501.802 196.852 501.747C196.912 501.691 196.947 501.615 196.95 501.534C196.953 501.452 196.924 501.373 196.869 501.314C196.813 501.254 196.737 501.219 196.656 501.216Z" fill="#263238"/>
<path d="M196.173 486.726C194.335 484.135 190.848 485.254 188.845 486.891C185.459 489.767 182.891 493.485 181.4 497.67C181.393 497.688 181.389 497.707 181.391 497.726C181.393 497.746 181.399 497.764 181.409 497.781C181.42 497.797 181.434 497.81 181.451 497.82C181.468 497.829 181.487 497.834 181.506 497.835C181.506 498.2 181.836 498.589 182.249 498.435C186.183 497.034 190.565 496.079 193.958 493.464C195.937 491.968 197.904 489.188 196.173 486.726ZM187.773 495.09C185.853 495.832 183.91 496.468 182.025 497.269C183.486 495.172 184.84 493.028 186.513 491.073C187.306 490.127 188.156 489.23 189.057 488.387C190.495 487.127 196.125 484.464 195.207 489.659C194.712 492.522 190.071 494.218 187.773 495.09Z" fill="#263238"/>
<path d="M169.35 496.268C173.237 497.988 177.737 497.964 181.895 498.424C182.319 498.424 182.543 498.011 182.472 497.658C182.491 497.652 182.507 497.642 182.521 497.628C182.535 497.615 182.546 497.599 182.553 497.58C182.559 497.562 182.562 497.543 182.56 497.524C182.559 497.505 182.553 497.486 182.543 497.469C180.121 493.745 176.766 490.72 172.813 488.693C170.457 487.515 166.829 487.28 165.651 490.225C164.473 493.17 167.076 495.267 169.35 496.268ZM167.253 492.852C165.179 488.01 171.27 489.318 172.942 490.213C174.023 490.812 175.058 491.489 176.041 492.239C178.058 493.802 179.993 495.469 181.836 497.234C179.81 496.88 177.772 496.715 175.734 496.433C173.308 496.115 168.454 495.526 167.276 492.852H167.253Z" fill="#263238"/>
<path d="M166.098 522.431C152.551 522.066 141.36 521.501 140.312 520.829C139.263 520.158 138.816 510.039 138.604 497.646C144.14 502.606 157.946 514.916 166.098 522.431Z" fill="#263238"/>
<path d="M123.973 244.411C123.973 244.411 134.716 365.298 136.459 374.522C136.872 376.63 137.119 388.057 137.284 402.735C137.649 434.788 137.437 492.581 137.437 492.581H187.867C187.867 492.581 186.371 392.451 184.133 374.015C181.895 355.579 167.641 244.435 167.641 244.435L123.973 244.411Z" fill="#37474F"/>
<path d="M185.583 483.793C177.714 483.628 179.975 483.569 172.106 483.487C168.254 483.487 142.951 483.239 139.346 483.828C139.324 483.828 139.303 483.837 139.288 483.852C139.272 483.868 139.264 483.889 139.264 483.911C139.264 483.933 139.272 483.954 139.288 483.969C139.303 483.984 139.324 483.993 139.346 483.993C142.951 484.582 168.254 484.37 172.106 484.323C179.975 484.252 177.714 484.193 185.583 484.029C185.614 484.029 185.644 484.016 185.666 483.994C185.688 483.972 185.7 483.942 185.7 483.911C185.7 483.879 185.688 483.85 185.666 483.827C185.644 483.805 185.614 483.793 185.583 483.793Z" fill="#263238"/>
<path d="M147.015 426.554C146.952 419.235 146.897 411.919 146.85 404.608C146.85 397.54 146.85 390.472 146.473 383.404C145.79 369.067 142.939 354.979 140.819 340.807C138.698 326.636 137.025 312.406 135.459 298.164C133.704 282.19 132.16 266.181 130.523 250.195C130.523 250.089 130.334 250.089 130.346 250.195C132.702 278.75 135.376 307.293 139.323 335.671C140.312 342.739 141.388 349.784 142.55 356.804C143.728 363.872 144.906 371.035 145.46 378.232C146.014 385.43 146.096 392.368 146.167 399.436C146.253 406.756 146.328 414.067 146.391 421.371C146.544 437.604 146.697 462.601 146.862 478.834C146.874 478.888 146.905 478.938 146.948 478.973C146.992 479.008 147.047 479.027 147.103 479.027C147.16 479.027 147.214 479.008 147.258 478.973C147.302 478.938 147.333 478.888 147.345 478.834C147.251 464.273 147.121 441.031 147.015 426.554Z" fill="#263238"/>
<path d="M113.336 244.411C113.336 244.411 134.717 365.298 136.46 374.522C136.872 376.63 137.12 388.057 137.285 402.735L161.387 244.411H113.336Z" fill="#263238"/>
<path d="M158.476 526.978C155.92 527.603 84.6159 521.607 82.0478 519.663C81.0583 518.933 81.3293 508.495 82.0478 495.891C82.0478 495.761 82.0478 495.62 82.0478 495.49C82.1892 492.899 82.3423 490.225 82.5308 487.515L82.6015 486.337C83.7795 468.161 85.4169 449.324 85.4169 449.324L133.114 453.259L129.074 489.777L128.92 491.226L128.096 498.8L128.013 499.578C128.013 499.578 154.271 514.079 156.874 516.518C159.478 518.956 161.033 526.354 158.476 526.978Z" fill="#AD6359"/>
<path d="M158.476 526.978C155.92 527.603 84.6159 521.607 82.0478 519.663C81.0583 518.933 81.3293 508.496 82.0478 495.891C82.0478 495.761 82.0478 495.62 82.0478 495.49C82.1892 492.899 82.3423 490.225 82.5308 487.515L82.6015 486.337L129.074 489.765L128.92 491.214L128.096 498.789L128.013 499.566C128.013 499.566 154.271 514.068 156.874 516.506C159.478 518.944 161.033 526.354 158.476 526.978Z" fill="#EBEBEB"/>
<path d="M158.476 526.978C155.92 527.603 84.6159 521.607 82.0478 519.663C81.0583 518.932 81.3293 508.495 82.0478 495.891C82.0478 495.761 82.0478 495.62 82.0478 495.49L128.096 498.848L128.013 499.625C128.013 499.625 154.271 514.126 156.874 516.565C159.478 519.003 161.033 526.354 158.476 526.978Z" fill="#007AFF"/>
<path d="M157.852 524.139C145.86 522.832 97.3619 518.709 85.4052 518.32C85.311 518.32 85.2992 518.391 85.4052 518.403C97.2559 519.957 145.79 523.692 157.84 524.293C158.135 524.351 158.159 524.21 157.852 524.139Z" fill="#263238"/>
<path d="M133.185 499.401C128.473 498.129 122.689 498.365 118.789 501.428C118.636 501.545 118.789 501.769 118.966 501.734C123.603 500.652 128.342 500.072 133.102 500.002C133.176 500.002 133.247 499.975 133.302 499.926C133.358 499.878 133.394 499.811 133.404 499.738C133.414 499.664 133.397 499.59 133.357 499.529C133.317 499.467 133.255 499.422 133.185 499.401Z" fill="#263238"/>
<path d="M136.436 501.746C131.724 500.473 125.929 500.709 122.029 503.772C121.888 503.89 122.029 504.113 122.206 504.078C126.843 502.997 131.582 502.417 136.342 502.346C136.417 502.349 136.49 502.324 136.548 502.276C136.606 502.229 136.644 502.162 136.655 502.088C136.667 502.014 136.651 501.938 136.611 501.875C136.57 501.812 136.508 501.766 136.436 501.746Z" fill="#263238"/>
<path d="M139.676 504.09C134.964 502.818 129.169 503.053 125.269 506.116C125.128 506.234 125.269 506.458 125.458 506.422C130.094 505.34 134.833 504.759 139.594 504.691C139.668 504.69 139.739 504.663 139.794 504.615C139.85 504.566 139.886 504.499 139.896 504.426C139.906 504.353 139.889 504.279 139.849 504.217C139.808 504.155 139.747 504.11 139.676 504.09Z" fill="#263238"/>
<path d="M140.182 489.612C138.545 486.891 134.987 487.751 132.867 489.247C129.264 491.868 126.419 495.396 124.621 499.472C124.621 499.566 124.621 499.625 124.715 499.649C124.704 499.741 124.715 499.834 124.747 499.921C124.779 500.008 124.831 500.086 124.899 500.149C124.966 500.212 125.048 500.258 125.137 500.284C125.226 500.31 125.319 500.314 125.41 500.297C129.427 499.178 133.88 498.483 137.438 496.162C139.605 494.76 141.761 492.18 140.182 489.612ZM131.218 497.352C129.251 497.952 127.272 498.447 125.328 499.119C126.864 497.073 128.503 495.107 130.24 493.229C131.094 492.335 132.007 491.501 132.973 490.731C134.493 489.553 140.288 487.303 139.016 492.428C138.345 495.278 133.586 496.645 131.241 497.352H131.218Z" fill="#263238"/>
<path d="M112.782 497.222C116.54 499.213 121.028 499.507 125.139 500.25C125.563 500.332 125.823 499.896 125.776 499.543C125.794 499.537 125.811 499.526 125.824 499.513C125.838 499.5 125.849 499.483 125.856 499.465C125.863 499.447 125.865 499.428 125.864 499.409C125.862 499.389 125.856 499.371 125.846 499.354C123.701 495.468 120.568 492.217 116.764 489.93C114.526 488.623 110.874 488.093 109.519 490.943C108.164 493.794 110.591 496.056 112.782 497.222ZM110.933 493.688C109.201 488.705 115.185 490.437 116.823 491.45C117.854 492.132 118.838 492.884 119.768 493.7C121.671 495.402 123.483 497.203 125.198 499.095C123.196 498.6 121.181 498.282 119.167 497.917C116.74 497.34 111.91 496.421 110.933 493.665V493.688Z" fill="#263238"/>
<path d="M130.134 495.302L79.751 493.17C79.751 493.17 93.51 382.603 93.7574 375.782C94.4171 358.112 106.138 244.329 106.138 244.329H167.677C167.677 244.329 163.79 270.61 157.157 287.267C152.693 288.83 148.383 290.801 144.282 293.157C144.282 293.157 138.51 368.419 138.298 377.808C137.826 396.397 130.134 495.302 130.134 495.302Z" fill="#37474F"/>
<path d="M128.791 486.066C120.946 485.572 123.208 485.607 115.339 485.195C111.498 484.994 86.2183 483.71 82.6019 484.146C82.5194 484.146 82.5194 484.288 82.6019 484.311C86.1359 485.053 111.475 485.913 115.315 486.031C123.184 486.29 120.934 486.137 128.803 486.302C128.834 486.301 128.864 486.287 128.885 486.263C128.906 486.24 128.917 486.21 128.915 486.178C128.913 486.147 128.899 486.118 128.876 486.097C128.853 486.076 128.823 486.065 128.791 486.066Z" fill="#263238"/>
<path d="M110.65 251.114C108.365 279.775 106.021 308.448 103.394 337.108C100.767 365.769 97.6921 394.548 93.9696 423.161C91.8845 439.123 89.5285 461.635 87.043 477.561C87.043 477.667 87.1843 477.714 87.2079 477.561C92.2851 449.289 96.0193 414.138 99.1881 385.571C102.357 357.005 104.96 328.356 107.281 299.707C108.589 283.498 109.767 267.276 111.015 251.067C111.027 250.914 110.733 250.914 110.65 251.114Z" fill="#263238"/>
<path d="M159.348 286.16C154.129 288.071 149.088 290.436 144.282 293.228C144.241 293.246 144.209 293.281 144.194 293.323C144.179 293.365 144.18 293.411 144.199 293.452C144.218 293.492 144.252 293.524 144.294 293.539C144.336 293.555 144.382 293.553 144.423 293.534C149.5 291.355 154.672 289.27 159.619 286.808C159.705 286.772 159.773 286.703 159.809 286.617C159.844 286.531 159.844 286.434 159.808 286.348C159.772 286.262 159.703 286.194 159.617 286.159C159.531 286.124 159.434 286.124 159.348 286.16Z" fill="#263238"/>
<path d="M160.963 251.326C160.963 251.15 160.645 251.114 160.645 251.326C160.645 257.346 160.303 262.647 159.796 268.29C159.561 270.905 157.44 285.347 152.917 284.299C152.163 284.122 151.739 283.368 151.657 282.225C151.665 280.729 151.867 279.24 152.257 277.796C152.752 274.769 153.164 271.741 153.435 268.678C153.962 262.989 153.898 257.261 153.247 251.586C153.238 251.554 153.218 251.525 153.192 251.505C153.165 251.485 153.133 251.474 153.1 251.474C153.066 251.474 153.034 251.485 153.007 251.505C152.981 251.525 152.961 251.554 152.952 251.586C153.086 259.462 152.626 267.338 151.574 275.146C151.009 278.903 149.112 284.57 153.047 285.135C156.981 285.7 159.643 276.253 160.115 273.661C161.365 266.285 161.65 258.777 160.963 251.326Z" fill="#263238"/>
<path d="M153.034 284.664C152.627 285.636 152.288 286.636 152.021 287.656C151.724 288.442 151.58 289.278 151.597 290.118C151.597 290.283 151.821 290.295 151.903 290.189C152.372 289.46 152.729 288.666 152.964 287.833C153.305 286.902 153.67 285.983 153.988 285.041C154.038 284.914 154.036 284.773 153.982 284.648C153.928 284.523 153.826 284.425 153.7 284.375C153.573 284.325 153.432 284.327 153.307 284.382C153.182 284.436 153.084 284.537 153.034 284.664Z" fill="#263238"/>
<path d="M132.513 256.05C132.528 255.42 132.464 254.791 132.325 254.177C132.316 254.16 132.302 254.145 132.286 254.135C132.269 254.125 132.25 254.12 132.231 254.12C132.211 254.12 132.192 254.125 132.175 254.135C132.159 254.145 132.145 254.16 132.136 254.177C132.012 254.711 131.941 255.255 131.924 255.803C131.924 256.427 131.783 256.981 131.712 257.664C131.581 258.938 131.361 260.202 131.053 261.445C130.479 263.793 129.283 265.942 127.589 267.665C125.901 269.327 123.898 270.636 121.699 271.517C119.265 272.379 116.783 273.099 114.266 273.673C114.241 273.673 114.217 273.683 114.199 273.701C114.182 273.718 114.172 273.742 114.172 273.767C114.172 273.792 114.182 273.816 114.199 273.834C114.217 273.852 114.241 273.861 114.266 273.861C117.053 273.856 119.813 273.312 122.394 272.259C124.682 271.401 126.765 270.073 128.508 268.36C130.248 266.591 131.471 264.379 132.042 261.964C132.331 260.718 132.496 259.448 132.537 258.17C132.57 257.464 132.562 256.756 132.513 256.05Z" fill="#263238"/>
<path d="M192.745 140.865C196.538 145.448 200.661 157.828 200.508 161.209C200.354 164.59 179.516 172.271 176.571 170.433C173.626 168.595 162.034 152.221 161.928 146.155C161.822 140.088 188.81 136.13 192.745 140.865Z" fill="#AD6359"/>
<path d="M161.387 132.454C159.478 130.464 153.305 124.515 150.561 127.201C148.841 128.873 152.987 133.456 154.731 135.27C158.324 138.992 161.104 145.577 162.4 148.793C163.695 152.009 169.762 145.66 169.762 145.66C169.762 145.66 166.369 137.626 161.387 132.454Z" fill="#AD6359"/>
<path d="M166.452 152.386C166.452 152.386 168.584 158.111 172.059 157.982C175.534 157.852 174.651 152.928 174.604 152.575C174.71 152.881 176.807 158.088 180.293 157.605C183.78 157.122 182.296 152.28 182.19 151.974C182.379 152.221 185.064 155.508 187.621 154.53C192.026 152.857 185.418 144.293 186.054 140.535C186.054 140.535 192.556 140.901 192.745 140.865C192.745 140.865 186.619 132.619 181.495 132.007C180.749 131.903 179.991 132.06 179.347 132.451C178.703 132.841 178.214 133.442 177.961 134.151C177.961 134.151 176.277 131.265 173.52 131.559C172.106 131.712 171.093 134.115 171.093 134.115C170.68 133.481 170.099 132.974 169.415 132.649C168.731 132.325 167.97 132.196 167.218 132.278C165.274 132.596 164.308 135.022 164.202 135.965C163.377 143.174 166.452 152.386 166.452 152.386Z" fill="#AD6359"/>
<path d="M164.426 135.305C164.426 135.305 164.343 135.305 164.331 135.305C163.269 141.16 164.013 147.199 166.464 152.622C166.546 152.787 166.852 152.728 166.793 152.527C165.177 146.931 164.379 141.13 164.426 135.305Z" fill="#263238"/>
<path d="M171.082 134.033C171.082 133.962 170.976 133.962 170.964 134.033C169.865 140.498 171.119 147.143 174.498 152.763C174.627 152.963 174.934 153.01 174.804 152.763C172.648 148.852 170.964 139.487 171.082 134.033Z" fill="#263238"/>
<path d="M182.59 152.28C179.363 146.743 178.22 140.736 177.949 134.386C177.949 134.304 177.831 134.316 177.808 134.386C177.101 137.532 177.702 141.548 178.432 144.647C179.058 147.529 180.426 150.197 182.402 152.386C182.461 152.48 182.59 152.398 182.59 152.28Z" fill="#263238"/>
<path d="M166.452 152.386C166.965 153.444 167.572 154.453 168.266 155.402C168.904 156.352 169.782 157.116 170.811 157.616C171.3 157.804 171.841 157.804 172.33 157.616C172.831 157.438 173.277 157.133 173.626 156.733C173.935 156.304 174.151 155.815 174.261 155.298C174.37 154.781 174.371 154.246 174.262 153.729L173.826 151.185L175.122 153.423C175.689 154.423 176.413 155.326 177.266 156.097C177.639 156.475 178.088 156.77 178.584 156.961C179.08 157.152 179.61 157.235 180.141 157.204C180.635 157.174 181.103 156.975 181.468 156.641C181.833 156.306 182.071 155.856 182.143 155.366C182.28 154.265 182.138 153.147 181.731 152.115L180.682 149.241L182.603 151.597C183.137 152.255 183.75 152.844 184.428 153.352C185.058 153.85 185.82 154.153 186.62 154.224C186.98 154.24 187.338 154.157 187.655 153.982C187.971 153.807 188.232 153.548 188.41 153.234C188.688 152.481 188.749 151.665 188.587 150.878C188.249 149.14 187.776 147.431 187.173 145.766C186.89 144.918 186.608 144.058 186.372 143.186C186.083 142.33 185.979 141.423 186.066 140.524C186.082 141.414 186.265 142.293 186.608 143.115C186.914 143.952 187.256 144.776 187.597 145.613C188.328 147.279 188.9 149.01 189.305 150.784C189.548 151.737 189.507 152.74 189.188 153.67C188.957 154.158 188.589 154.568 188.129 154.848C187.668 155.129 187.135 155.268 186.596 155.249C185.6 155.193 184.644 154.84 183.851 154.236C183.085 153.687 182.392 153.041 181.79 152.315L182.661 151.797C183.169 153.005 183.352 154.325 183.192 155.626C183.084 156.349 182.725 157.012 182.178 157.499C181.633 157.952 180.964 158.231 180.258 158.3C179.585 158.341 178.91 158.237 178.28 157.996C177.65 157.754 177.079 157.379 176.607 156.898C175.659 156.049 174.863 155.045 174.251 153.929L175.11 153.623C175.221 154.269 175.189 154.931 175.018 155.564C174.848 156.196 174.541 156.784 174.121 157.287C173.667 157.76 173.099 158.109 172.472 158.3C171.833 158.497 171.143 158.446 170.54 158.158C169.456 157.566 168.562 156.68 167.96 155.602C167.337 154.591 166.831 153.512 166.452 152.386Z" fill="#263238"/>
<path d="M174.109 167.995C174.109 167.995 151.645 156.509 160.444 149.936C163.048 147.98 176.112 143.068 177.148 145.671C178.491 149.029 173.414 152.103 169.927 153.517C169.927 153.517 178.114 156.356 177.843 162.635C177.775 163.785 177.39 164.895 176.731 165.841C176.072 166.787 175.165 167.532 174.109 167.995Z" fill="#AD6359"/>
<path d="M159.749 150.525C160.676 149.633 161.733 148.887 162.883 148.31C164.025 147.701 165.206 147.166 166.417 146.708C168.822 145.763 171.305 145.03 173.838 144.517C174.511 144.376 175.202 144.336 175.888 144.399C176.302 144.425 176.705 144.546 177.066 144.753C177.253 144.861 177.42 145 177.56 145.165C177.699 145.329 177.807 145.516 177.878 145.719C178.149 146.444 178.149 147.243 177.878 147.969C177.63 148.63 177.263 149.241 176.795 149.771C175.907 150.775 174.851 151.616 173.673 152.256C172.54 152.905 171.359 153.464 170.139 153.929V153.093C171.062 153.453 171.949 153.899 172.789 154.424C173.634 154.933 174.424 155.53 175.145 156.203C175.856 156.895 176.46 157.689 176.936 158.559C177.418 159.406 177.734 160.338 177.867 161.304C177.617 160.385 177.219 159.514 176.689 158.724C176.147 157.958 175.505 157.269 174.78 156.674C174.053 156.066 173.263 155.537 172.424 155.095C171.609 154.646 170.753 154.276 169.868 153.988L168.773 153.647L169.833 153.152C170.981 152.654 172.095 152.08 173.166 151.432C174.225 150.821 175.179 150.046 175.994 149.135C176.384 148.757 176.671 148.287 176.828 147.767C176.984 147.247 177.005 146.696 176.889 146.166C176.63 145.342 175.228 145.377 174.038 145.554C172.848 145.73 171.588 146.048 170.351 146.355C169.114 146.661 167.901 147.003 166.687 147.391C164.226 148.07 161.885 149.127 159.749 150.525Z" fill="#263238"/>
<path d="M148.251 184.251C168.112 208.765 196.985 224.645 204.112 219.473C211.239 214.302 187.22 187.231 186.807 186.831C185.405 185.488 174.78 179.963 155.484 171.835C136.554 163.86 139.381 173.307 148.251 184.251Z" fill="#AD6359"/>
<path d="M177.879 181.412L162.918 201.085C162.918 201.085 150.361 188.127 143.717 179.551C137.073 170.975 137.732 164.307 152.599 169.844C161.301 173.066 169.752 176.933 177.879 181.412Z" fill="#007AFF"/>
<path d="M161.493 196.573C163.319 193.887 165.227 191.248 167.182 188.669C168.16 187.396 169.103 186.1 170.104 184.84C171.105 183.58 172.248 182.319 173.273 181.023C173.343 180.929 173.485 181.023 173.414 181.118C172.472 182.413 171.624 183.768 170.681 185.064C169.739 186.36 168.702 187.703 167.701 189.022C165.73 191.614 163.7 194.158 161.611 196.655C161.552 196.726 161.387 196.655 161.493 196.573Z" fill="#263238"/>
<path d="M170.08 191.637L162.918 201.061C162.918 201.061 150.361 188.103 143.717 179.527L143.081 178.691L142.81 178.302L142.397 177.701C142.044 177.183 141.726 176.676 141.443 176.182C141.337 176.005 141.243 175.828 141.149 175.652C140.657 174.757 140.263 173.814 139.971 172.836C139.884 172.535 139.817 172.228 139.771 171.917C139.771 171.764 139.771 171.623 139.771 171.481C146.297 176.005 161.611 185.912 170.08 191.637Z" fill="#263238"/>
<path d="M170.681 256.486C170.681 256.486 102.51 257.664 102.109 257.24C101.049 256.062 114.82 185.865 129.062 171.399C134.092 166.287 144.47 168.372 146.202 169.208C150.195 171.14 153.953 175.31 157.098 183.038C163.389 198.493 171.541 255.379 170.681 256.486Z" fill="#007AFF"/>
<path opacity="0.1" d="M149.606 171.517H128.956L129.062 171.399C129.542 170.913 130.076 170.482 130.652 170.115H147.792C148.433 170.532 149.04 171.001 149.606 171.517ZM151.879 173.873H127.012C126.682 174.309 126.364 174.78 126.046 175.275H152.963C152.622 174.78 152.268 174.344 151.962 173.873H151.879ZM154.448 177.631H124.621C124.361 178.09 124.102 178.561 123.855 179.044H155.249C155.001 178.561 154.742 178.078 154.471 177.631H154.448ZM156.368 181.4H122.665L121.994 182.802H156.992C156.804 182.319 156.603 181.848 156.391 181.412L156.368 181.4ZM157.864 185.158H120.957L120.356 186.56H158.347C158.194 186.124 158.04 185.606 157.852 185.158H157.864ZM159.042 188.916H119.402C119.225 189.387 119.037 189.846 118.848 190.329H159.454L159.042 188.916ZM160.055 192.674H117.977C117.812 193.145 117.635 193.604 117.47 194.087H160.432C160.283 193.608 160.165 193.137 160.078 192.674H160.055ZM160.974 196.443H116.622C116.457 196.903 116.304 197.374 116.151 197.845H161.292L160.974 196.443ZM161.822 200.201H115.444C115.291 200.661 115.149 201.132 114.996 201.603H162.211C162.046 201.132 161.951 200.661 161.845 200.26L161.822 200.201ZM162.623 203.959H114.266C114.113 204.418 113.971 204.89 113.83 205.373H163C162.847 204.901 162.752 204.43 162.646 203.959H162.623ZM163.389 207.717H113.088C112.947 208.188 112.805 208.659 112.676 209.13H163.742L163.389 207.717ZM164.119 211.486H111.981C111.839 211.958 111.71 212.417 111.58 212.888H164.402C164.319 212.417 164.237 211.946 164.142 211.486H164.119ZM164.814 215.244H110.932C110.803 215.715 110.673 216.187 110.555 216.646H165.097C165.014 216.175 164.92 215.715 164.837 215.244H164.814ZM165.485 219.002H109.931C109.801 219.473 109.684 219.944 109.566 220.416H165.756C165.686 219.944 165.603 219.473 165.509 219.002H165.485ZM166.157 222.772H108.953C108.847 223.243 108.729 223.702 108.612 224.173H166.404C166.334 223.714 166.251 223.243 166.18 222.772H166.157ZM166.769 226.529H108.023C107.917 227.001 107.799 227.472 107.693 227.931H167.029C166.958 227.472 166.875 227.001 166.793 226.529H166.769ZM167.382 230.287H107.127C107.021 230.77 106.915 231.241 106.797 231.701H167.629C167.559 231.23 167.488 230.77 167.406 230.287H167.382ZM167.983 234.045H106.267C106.161 234.516 106.055 234.999 105.949 235.459H168.207C168.136 234.999 168.065 234.528 168.006 234.045H167.983ZM168.536 237.815H105.431C105.337 238.286 105.231 238.757 105.136 239.216H168.748L168.536 237.815ZM169.078 241.572H104.63C104.536 242.055 104.441 242.515 104.347 242.974H169.302C169.231 242.515 169.173 242.044 169.102 241.572H169.078ZM169.597 245.33H103.888C103.778 245.817 103.684 246.288 103.605 246.744H169.809C169.75 246.284 169.632 245.813 169.632 245.33H169.597ZM170.068 249.088H103.169C103.075 249.583 102.992 250.054 102.91 250.502H170.268C170.221 250.054 170.162 249.583 170.091 249.088H170.068ZM170.504 252.858H102.486C102.403 253.364 102.345 253.835 102.274 254.26H170.598C170.621 253.847 170.574 253.376 170.527 252.858H170.504ZM102.038 256.616C101.986 256.82 101.986 257.035 102.038 257.24C102.356 257.558 144.635 256.91 162.646 256.616H102.038Z" fill="#030402"/>
<path d="M132.949 179.904C128.355 186.207 104.795 212.252 103.924 214.667C103.052 217.082 108.506 222.418 108.412 223.42C108.058 227.495 99.2586 254.613 95.7364 251.856C91.0951 248.228 71.4461 222.242 74.2261 210.992C77.0062 199.742 122.889 172.73 130.169 170.386C137.449 168.042 137.485 173.684 132.949 179.904Z" fill="#AD6359"/>
<path d="M114.443 203.617L101.061 184.828C101.061 184.828 116.033 175.004 126.046 170.81C136.059 166.616 140.995 168.949 131.842 181.895C126.491 189.484 120.681 196.739 114.443 203.617Z" fill="#007AFF"/>
<path d="M105.02 183.603C107.14 186.061 109.201 188.574 111.204 191.142C112.194 192.403 113.195 193.651 114.149 194.936C115.103 196.22 116.046 197.657 117.047 198.976C117.118 199.07 116.976 199.188 116.906 199.094C115.892 197.916 114.809 196.738 113.796 195.442C112.783 194.146 111.746 192.85 110.733 191.555C108.73 188.987 106.787 186.36 104.914 183.697C104.843 183.627 104.961 183.532 105.02 183.603Z" fill="#263238"/>
<path d="M114.42 203.712C116.47 200.99 118.884 198.564 121.099 195.984C123.314 193.404 125.517 190.742 127.625 188.056C127.625 188.056 127.778 188.056 127.731 188.127C126.754 189.528 125.799 190.942 124.774 192.308C124.268 192.98 123.738 193.64 123.196 194.299L123.985 193.651C124.793 193.044 125.63 192.478 126.494 191.955C126.494 191.955 126.589 191.955 126.494 192.026C125.745 192.719 124.958 193.372 124.138 193.981C123.549 194.429 122.96 194.841 122.336 195.253L121.394 196.431C119.337 199.086 117.047 201.55 114.549 203.794C114.479 203.9 114.349 203.794 114.42 203.712Z" fill="#263238"/>
<path d="M107.257 262.152C110.403 260.02 106.079 257.523 106.079 257.523C106.079 257.523 113.147 259.619 115.503 256.168C117.859 252.716 112.488 250.007 112.111 249.795C112.488 249.913 119.037 251.656 121.087 247.945C123.137 244.235 117.388 242.161 117.011 242.055C117.4 242.055 122.501 241.832 123.42 238.651C124.986 233.197 110.332 232.561 107.175 229.227C107.175 229.227 108.589 222.018 108.706 221.817C107.759 223.435 106.288 224.682 104.536 225.351C101.367 226.247 98.5167 226.765 97.2327 228.285C96.6336 228.95 96.2644 229.79 96.1795 230.681C96.0947 231.572 96.2987 232.466 96.7615 233.232C96.7615 233.232 92.7563 232.773 91.0482 235.647C90.1765 237.12 91.7668 239.841 91.7668 239.841C90.8604 239.776 89.9537 239.961 89.1456 240.377C88.3375 240.792 87.659 241.422 87.1844 242.197C86.0888 244.317 87.8558 246.709 87.8558 246.709C87.8558 246.709 84.6517 247.887 84.2394 250.431C83.4501 255.532 100.519 266.699 107.257 262.152Z" fill="#AD6359"/>
<path d="M88.1387 247.144C88.1387 247.144 88.0091 247.144 88.0562 247.227C92.9391 252.487 99.3079 256.136 106.315 257.688C106.539 257.688 106.704 257.381 106.468 257.287C99.8993 254.812 93.7249 251.395 88.1387 247.144Z" fill="#263238"/>
<path d="M91.7192 239.794C91.7115 239.788 91.7026 239.783 91.6931 239.78C91.6836 239.777 91.6736 239.777 91.6638 239.778C91.6539 239.779 91.6444 239.782 91.6357 239.787C91.627 239.791 91.6194 239.798 91.6132 239.806C91.607 239.813 91.6024 239.822 91.5997 239.832C91.5969 239.841 91.596 239.851 91.5971 239.861C91.5982 239.871 91.6013 239.88 91.606 239.889C91.6108 239.898 91.6172 239.905 91.625 239.912C97.0685 245.651 104.384 249.257 112.252 250.078C112.523 250.078 112.794 249.842 112.476 249.795C107.198 248.994 96.9024 243.846 91.7192 239.794Z" fill="#263238"/>
<path d="M117.647 241.879C109.967 241.007 103.335 237.756 97.0088 233.444C96.9264 233.444 96.8557 233.503 96.9028 233.574C99.4237 236.531 103.747 238.863 107.269 240.395C110.504 241.875 114.07 242.481 117.612 242.15C117.801 242.138 117.801 241.902 117.647 241.879Z" fill="#263238"/>
<path d="M87.7026 246.709C87.0627 246.064 86.6139 245.256 86.406 244.372C86.198 243.488 86.2391 242.564 86.5246 241.702C86.8935 240.891 87.5414 240.239 88.3505 239.864C89.3148 239.531 90.3459 239.438 91.3544 239.593C90.7921 238.801 90.4832 237.857 90.4685 236.885C90.4538 235.913 90.7339 234.96 91.2719 234.151C91.8752 233.459 92.7157 233.018 93.6279 232.914C94.669 232.813 95.719 232.853 96.7496 233.032C96.3203 232.527 96.0148 231.928 95.8573 231.284C95.6999 230.64 95.6948 229.968 95.8425 229.321C96.0375 228.619 96.3951 227.973 96.8862 227.435C97.3774 226.896 97.9884 226.481 98.6697 226.223C100.273 225.643 101.937 225.248 103.629 225.045C104.498 224.915 105.348 224.682 106.162 224.35C107.039 223.949 107.774 223.292 108.27 222.465C108.365 222.324 108.365 222.465 108.27 222.595C107.941 223.156 107.518 223.658 107.022 224.079C106.506 224.528 105.931 224.905 105.314 225.198C103.78 225.777 102.205 226.237 100.602 226.577C99.1961 226.951 97.9537 227.779 97.0677 228.933C96.6627 229.543 96.4351 230.254 96.4101 230.986C96.3852 231.718 96.5639 232.443 96.9263 233.079C96.9263 233.079 96.9263 233.232 96.8203 233.22C95.8797 233.216 94.9422 233.327 94.0284 233.55C93.2705 233.731 92.5873 234.143 92.073 234.728C91.5964 235.475 91.3238 236.333 91.2824 237.218C91.2411 238.102 91.4324 238.983 91.8373 239.77C90.8214 239.838 89.8269 240.094 88.9041 240.524C88.305 240.892 87.8229 241.424 87.5141 242.055C87.1612 242.783 87.0174 243.595 87.0985 244.4C87.1796 245.205 87.4825 245.971 87.9735 246.614C87.978 246.634 87.978 246.654 87.9735 246.673C87.9735 246.673 86.9486 247.097 86.9015 247.097C87.1603 246.951 87.4278 246.822 87.7026 246.709Z" fill="#263238"/>
<path d="M146.179 179.657C142.433 181.035 135.106 175.934 131.913 171.481C131.701 171.175 131.489 157.923 131.183 155.308C131.112 154.766 148.111 157.334 148.111 157.334C147.567 160.722 147.441 164.164 147.734 167.582C147.781 167.959 149.795 178.337 146.179 179.657Z" fill="#AD6359"/>
<path d="M148.111 157.334C148.111 157.334 147.922 158.429 147.769 160.055C143.057 165.839 135.494 166.451 131.654 166.322C131.524 162.211 131.371 156.898 131.183 155.308C131.112 154.777 148.111 157.334 148.111 157.334Z" fill="#263238"/>
<path d="M131.253 127.071C131.253 127.071 125.834 129.168 124.727 134.587C123.62 140.005 124.727 145.754 125.175 146.049C125.622 146.343 131.253 127.071 131.253 127.071Z" fill="#263238"/>
<path d="M153.14 134.068C154.53 140.041 150.313 156.756 145.884 160.243C139.476 165.309 129.533 165.167 125.363 157.593C121.334 150.254 127.224 128.579 132.113 125.457C139.299 120.875 151.055 125.233 153.14 134.068Z" fill="#AD6359"/>
<path d="M136.33 143.457C136.33 143.457 136.413 143.528 136.401 143.575C136.165 144.753 136.083 146.084 137.072 146.649C137.072 146.649 137.072 146.72 137.072 146.708C135.8 146.308 135.918 144.505 136.33 143.457Z" fill="#263238"/>
<path d="M137.568 142.42C139.464 142.597 138.958 146.366 137.214 146.202C135.471 146.037 135.989 142.267 137.568 142.42Z" fill="#263238"/>
<path d="M129.758 142.291C129.758 142.291 129.663 142.291 129.652 142.385C129.545 143.563 129.227 144.87 128.12 145.13V145.2C129.439 145.177 129.84 143.41 129.758 142.291Z" fill="#263238"/>
<path d="M128.874 140.936C127.012 140.559 126.388 144.305 128.12 144.658C129.851 145.012 130.428 141.254 128.874 140.936Z" fill="#263238"/>
<path d="M136.071 153.199C135.765 153.446 135.447 153.8 135.023 153.8C134.587 153.755 134.166 153.618 133.786 153.399C133.931 153.645 134.14 153.847 134.391 153.982C134.643 154.117 134.927 154.18 135.212 154.165C135.46 154.134 135.692 154.025 135.874 153.853C136.056 153.682 136.179 153.457 136.225 153.211C136.225 153.211 136.119 153.14 136.071 153.199Z" fill="#263238"/>
<path d="M130.617 147.827C130.617 147.827 130.123 149.524 130.005 150.348C131.606 150.582 133.165 151.047 134.634 151.726C134.976 151.891 135.023 151.597 134.634 151.291C133.538 150.4 132.201 149.859 130.794 149.736C130.794 149.5 131.607 147.132 131.477 147.097C130.841 147.06 130.203 147.112 129.581 147.25C130.499 143.716 131.937 140.276 132.855 136.648C132.855 136.518 132.702 136.448 132.643 136.554C130.944 140.152 129.602 143.908 128.638 147.768C128.485 148.287 130.264 147.922 130.617 147.827Z" fill="#263238"/>
<path d="M139.004 141.136C138.557 140.853 138.203 140.512 137.826 140.194C137.449 139.876 136.955 139.581 136.778 139.016C136.74 138.846 136.762 138.668 136.839 138.511C136.916 138.355 137.044 138.23 137.202 138.156C137.533 138.047 137.888 138.031 138.228 138.107C138.568 138.184 138.881 138.352 139.134 138.592C139.729 138.991 140.15 139.602 140.312 140.3C140.343 140.464 140.324 140.633 140.258 140.787C140.192 140.94 140.081 141.07 139.941 141.16C139.8 141.25 139.636 141.296 139.469 141.291C139.302 141.287 139.14 141.233 139.004 141.136Z" fill="#263238"/>
<path d="M128.049 136.789C128.567 136.707 129.038 136.566 129.545 136.436C130.09 136.389 130.605 136.161 131.005 135.788C131.11 135.649 131.167 135.479 131.167 135.305C131.167 135.131 131.11 134.961 131.005 134.822C130.747 134.587 130.431 134.425 130.089 134.353C129.748 134.28 129.393 134.3 129.062 134.41C128.354 134.528 127.715 134.906 127.271 135.47C127.181 135.603 127.131 135.758 127.126 135.919C127.121 136.079 127.162 136.237 127.243 136.375C127.325 136.513 127.444 136.625 127.586 136.699C127.729 136.772 127.889 136.803 128.049 136.789Z" fill="#263238"/>
<path d="M150.361 148.346C146.897 148.004 148.782 132.725 148.782 132.725C146.644 133.453 144.408 133.851 142.15 133.903C139.869 133.823 137.604 133.483 135.4 132.89C134.929 132.714 141.184 130.947 141.184 130.947C141.184 130.947 125.799 132.289 125.281 129.392C125.093 128.39 127.955 119.273 140.725 119.85C150.149 120.274 154.543 130.122 154.543 130.122C154.543 130.122 159.125 135.223 158.336 137.532C156.993 141.584 154.036 148.711 150.361 148.346Z" fill="#263238"/>
<path d="M148.263 148.428C148.263 148.428 152.563 143.292 154.931 144.894C157.298 146.496 153.753 154.141 150.713 154.978C150.335 155.109 149.933 155.163 149.533 155.136C149.133 155.109 148.743 155.001 148.386 154.82C148.028 154.639 147.711 154.387 147.453 154.08C147.195 153.773 147.002 153.417 146.885 153.034L148.263 148.428Z" fill="#AD6359"/>
<path d="M205.644 218.59C215.209 211.204 206.068 173.708 200.508 159.902C198.87 155.838 172.895 163.436 174.109 167.995C181.047 193.781 195.171 226.683 205.644 218.59Z" fill="#AD6359"/>
<path d="M178.408 182.142L181.271 189.21C182.248 191.566 183.203 193.922 184.263 196.278C185.323 198.634 186.348 200.908 187.432 203.205C188.515 205.502 189.717 207.752 190.895 210.014C189.405 207.938 188.047 205.77 186.831 203.523C185.653 201.273 184.475 198.964 183.45 196.632C182.425 194.299 181.483 191.92 180.635 189.493C179.786 187.066 179.056 184.628 178.408 182.142Z" fill="#263238"/>
<path d="M176.701 107.61C176.814 108.935 176.533 110.264 175.891 111.429C175.25 112.594 174.278 113.542 173.098 114.155C171.918 114.768 170.583 115.017 169.261 114.871C167.939 114.725 166.69 114.191 165.672 113.335C164.654 112.48 163.912 111.342 163.541 110.066C163.169 108.789 163.184 107.431 163.584 106.162C163.984 104.894 164.75 103.773 165.787 102.941C166.824 102.108 168.084 101.601 169.409 101.485C170.29 101.407 171.178 101.504 172.021 101.77C172.865 102.036 173.648 102.466 174.325 103.035C175.003 103.604 175.561 104.301 175.969 105.086C176.376 105.871 176.625 106.729 176.701 107.61Z" fill="white"/>
<path d="M176.7 107.61C176.846 109.414 176.295 111.205 175.159 112.614C174.024 114.023 172.392 114.943 170.598 115.185C169.622 115.381 168.615 115.368 167.643 115.148C166.672 114.927 165.758 114.504 164.962 113.906C164.166 113.307 163.505 112.547 163.023 111.676C162.541 110.804 162.248 109.84 162.165 108.848C162.081 107.855 162.208 106.856 162.538 105.916C162.867 104.976 163.392 104.117 164.077 103.394C164.762 102.671 165.592 102.1 166.513 101.721C167.434 101.341 168.425 101.16 169.42 101.19C171.224 101.129 172.983 101.759 174.337 102.953C175.69 104.147 176.536 105.813 176.7 107.61ZM176.7 107.61C176.625 106.744 176.375 105.901 175.965 105.134C175.556 104.367 174.995 103.69 174.317 103.145C173.639 102.6 172.858 102.199 172.02 101.964C171.183 101.729 170.306 101.666 169.444 101.779C167.795 101.991 166.292 102.832 165.248 104.126C164.205 105.421 163.702 107.068 163.845 108.724C163.988 110.381 164.766 111.918 166.016 113.014C167.265 114.11 168.89 114.681 170.551 114.608C171.421 114.571 172.274 114.359 173.06 113.983C173.845 113.608 174.547 113.077 175.121 112.423C175.696 111.769 176.132 111.006 176.404 110.178C176.675 109.351 176.776 108.478 176.7 107.61Z" fill="#263238"/>
<path d="M162.07 120.015C162.132 120.753 161.974 121.493 161.616 122.141C161.258 122.79 160.716 123.318 160.058 123.658C159.4 123.998 158.656 124.136 157.92 124.054C157.184 123.971 156.489 123.672 155.922 123.195C155.356 122.718 154.944 122.083 154.738 121.371C154.532 120.66 154.542 119.903 154.767 119.197C154.991 118.491 155.419 117.867 155.998 117.405C156.576 116.942 157.279 116.662 158.017 116.599C158.508 116.555 159.002 116.609 159.472 116.757C159.942 116.906 160.378 117.145 160.755 117.463C161.131 117.781 161.441 118.17 161.667 118.607C161.893 119.045 162.03 119.524 162.07 120.015Z" fill="white"/>
<path d="M162.07 120.015C162.136 120.823 161.957 121.633 161.557 122.338C161.156 123.044 160.553 123.612 159.825 123.97C159.097 124.328 158.279 124.459 157.476 124.345C156.672 124.231 155.922 123.878 155.322 123.332C154.723 122.786 154.301 122.072 154.113 121.283C153.924 120.494 153.977 119.667 154.266 118.909C154.554 118.15 155.063 117.497 155.728 117.032C156.393 116.567 157.183 116.314 157.994 116.304C159.014 116.3 159.999 116.679 160.754 117.366C161.509 118.053 161.978 118.998 162.07 120.015ZM162.07 120.015C162.031 119.537 161.893 119.072 161.664 118.65C161.436 118.229 161.122 117.859 160.743 117.566C160.364 117.272 159.928 117.06 159.463 116.945C158.998 116.829 158.513 116.811 158.041 116.893C157.377 117.005 156.761 117.308 156.267 117.765C155.773 118.222 155.423 118.813 155.259 119.465C155.096 120.118 155.126 120.804 155.345 121.439C155.565 122.075 155.966 122.633 156.497 123.045C157.029 123.457 157.669 123.706 158.34 123.76C159.011 123.814 159.682 123.672 160.273 123.35C160.864 123.029 161.349 122.542 161.668 121.95C161.987 121.357 162.127 120.685 162.07 120.015Z" fill="#263238"/>
<path d="M226.954 76.3226C227.58 81.4941 226.127 86.7024 222.916 90.8039C219.704 94.9053 214.997 97.5647 209.826 98.1981C206.423 98.6217 202.969 98.1381 199.813 96.7963C198.274 98.8111 196.291 100.444 194.018 101.568C191.745 102.692 189.243 103.276 186.708 103.276C184.172 103.276 181.671 102.692 179.398 101.568C177.125 100.444 175.142 98.8111 173.603 96.7963C172.878 97.0103 172.138 97.164 171.388 97.2557C168.823 97.5689 166.222 97.1313 163.901 95.9962C161.579 94.861 159.637 93.0768 158.309 90.86C156.981 88.6432 156.325 86.0888 156.419 83.5064C156.514 80.924 157.356 78.4245 158.842 76.3108C155.948 72.6278 154.464 68.0318 154.659 63.3514C154.853 58.671 156.714 54.2142 159.905 50.7845C163.096 47.3549 167.407 45.178 172.061 44.6465C176.715 44.115 181.406 45.2638 185.288 47.8857C187.109 45.6217 189.496 43.8789 192.207 42.8337C194.917 41.7884 197.856 41.4778 200.726 41.9333C203.595 42.3889 206.293 43.5943 208.547 45.4277C210.801 47.2611 212.53 49.6573 213.56 52.3739C214.249 52.1424 214.959 51.9845 215.681 51.9027C217.859 51.6416 220.065 52.0507 222.005 53.0753C223.945 54.1 225.526 55.6915 226.538 57.6379C227.55 59.5842 227.945 61.7928 227.67 63.9693C227.395 66.1458 226.463 68.1867 224.999 69.8201C226.029 71.8554 226.691 74.0568 226.954 76.3226Z" fill="white"/>
<path d="M226.954 76.3226C227.566 81.4923 226.133 86.6965 222.96 90.8238C221.897 92.1682 220.67 93.3751 219.308 94.4167C216.551 96.5036 213.298 97.8358 209.868 98.282C206.439 98.7282 202.953 98.273 199.754 96.9612H199.942C198.394 99.0146 196.393 100.683 194.094 101.835C191.795 102.988 189.261 103.593 186.69 103.605C184.106 103.614 181.555 103.03 179.233 101.897C176.912 100.744 174.879 99.0859 173.284 97.0437L173.708 97.185C170.967 98.0127 168.037 97.9715 165.321 97.0672C162.592 96.1666 160.214 94.4319 158.524 92.1078C157.696 90.9396 157.042 89.6581 156.58 88.3029C156.138 86.9399 155.904 85.5183 155.885 84.0857C155.859 81.1982 156.732 78.3741 158.382 76.0046V76.6643C155.369 72.892 153.832 68.1519 154.059 63.3293C154.187 59.737 155.279 56.2453 157.221 53.2206C159.164 50.1959 161.884 47.7498 165.098 46.1389C168.311 44.5279 171.899 43.8116 175.484 44.0651C179.07 44.3186 182.521 45.5325 185.476 47.5794L184.958 47.6501C186.829 45.3473 189.276 43.5807 192.05 42.5296C194.825 41.4786 197.828 41.1806 200.755 41.6659C203.664 42.1486 206.394 43.3908 208.67 45.2668C210.945 47.1429 212.685 49.5864 213.713 52.3503L213.56 52.2679C215.862 51.5193 218.347 51.5524 220.628 52.3621C222.305 52.9619 223.808 53.9662 225.004 55.2861C226.2 56.6059 227.052 58.2005 227.484 59.9283C227.917 61.6562 227.916 63.4641 227.482 65.1916C227.049 66.9192 226.195 68.513 224.998 69.8319C226.029 71.8626 226.691 74.0604 226.954 76.3226ZM226.954 76.3226C226.676 74.0575 225.998 71.8598 224.951 69.8319C226.552 68.0745 227.522 65.8338 227.707 63.4638C227.893 61.0938 227.284 58.7295 225.976 56.7443C224.683 54.7645 222.768 53.2704 220.534 52.4964C218.299 51.7225 215.871 51.7125 213.63 52.4681H213.513V52.3503C212.467 49.6758 210.741 47.3207 208.506 45.5179C206.27 43.7183 203.594 42.5472 200.755 42.1253C197.929 41.7032 195.041 42.0281 192.379 43.0677C189.734 44.118 187.413 45.8493 185.653 48.086L185.429 48.3687L185.123 48.1567C181.331 45.6295 176.764 44.5342 172.238 45.0667C167.712 45.5992 163.524 47.7248 160.422 51.0631C157.321 54.4014 155.508 58.7345 155.309 63.287C155.11 67.8395 156.538 72.3142 159.336 75.9103L159.596 76.2402L159.348 76.5818C157.809 78.7543 156.986 81.3526 156.992 84.015C157.011 85.338 157.221 86.6514 157.617 87.9142C158.03 89.1744 158.629 90.3656 159.395 91.4482C160.954 93.6283 163.151 95.2715 165.683 96.1512C168.214 97.031 170.956 97.1041 173.531 96.3604L173.802 96.2897L173.955 96.5018C175.454 98.4756 177.379 100.086 179.586 101.214C182.947 102.916 186.795 103.396 190.471 102.57C194.146 101.745 197.42 99.666 199.73 96.6903L199.813 96.5842H199.93C203.069 97.9421 206.512 98.446 209.908 98.045C213.325 97.625 216.573 96.3217 219.332 94.2636C220.691 93.2418 221.918 92.0547 222.984 90.7296C224.03 89.374 224.904 87.8942 225.587 86.3239C226.895 83.163 227.365 79.7184 226.954 76.3226Z" fill="#263238"/>
<path d="M193.369 76.9352C193.344 75.5015 193.601 74.0768 194.123 72.7415C194.779 71.3401 195.887 70.1995 197.268 69.502C197.751 69.2075 198.329 68.8894 199.035 68.5243C199.751 68.1475 200.433 67.71 201.073 67.2167C201.732 66.7157 202.305 66.111 202.77 65.4261C203.235 64.7293 203.477 63.9077 203.465 63.0701C203.477 62.4587 203.343 61.8531 203.076 61.3031C202.834 60.8107 202.493 60.3736 202.075 60.0191C201.649 59.6645 201.156 59.4 200.626 59.2416C200.081 59.0648 199.513 58.9734 198.941 58.9707C198.287 58.9585 197.637 59.0829 197.033 59.3359C196.48 59.5633 195.961 59.8645 195.49 60.2311C195.049 60.5995 194.654 61.0187 194.312 61.4798C193.974 61.8953 193.663 62.332 193.381 62.7874L189.234 59.9249C189.636 58.9683 190.194 58.0847 190.884 57.3097C191.547 56.5455 192.326 55.8897 193.192 55.366C194.076 54.8451 195.028 54.4487 196.02 54.188C197.046 53.9174 198.103 53.7827 199.165 53.7875C200.361 53.7937 201.551 53.9682 202.699 54.3058C203.855 54.6506 204.931 55.2189 205.868 55.9786C206.832 56.7751 207.612 57.7719 208.153 58.9C208.763 60.237 209.061 61.6952 209.025 63.1644C209.039 64.0721 208.92 64.9771 208.671 65.8502C208.446 66.6073 208.1 67.3233 207.647 67.9706C207.201 68.609 206.674 69.1871 206.08 69.6905C205.434 70.2314 204.749 70.7236 204.03 71.163L202.122 72.2585C201.51 72.5986 200.931 72.9929 200.39 73.4365C199.868 73.8436 199.425 74.3426 199.082 74.909C198.728 75.5239 198.552 76.2258 198.576 76.9352H193.369ZM193.463 88.0319V81.4587H198.741V88.0319H193.463Z" fill="#007AFF"/>
<path d="M181.577 64.6369C181.903 66.0319 181.943 67.4786 181.695 68.8895C181.359 70.3896 180.529 71.7335 179.339 72.7062C178.927 73.0832 178.42 73.519 177.808 74.0256C177.184 74.5422 176.605 75.1096 176.076 75.7219C175.536 76.346 175.102 77.0543 174.792 77.8187C174.481 78.5972 174.415 79.4521 174.603 80.269C174.71 80.866 174.961 81.428 175.334 81.9064C175.672 82.3428 176.097 82.7038 176.582 82.9666C177.071 83.2286 177.608 83.3888 178.161 83.4378C178.732 83.4897 179.307 83.4579 179.869 83.3436C180.51 83.2207 181.119 82.9681 181.66 82.6014C182.152 82.2681 182.6 81.8721 182.991 81.4234C183.368 80.9735 183.688 80.479 183.945 79.9509C184.186 79.4731 184.398 78.9814 184.581 78.4784L189.222 80.4339C189.032 81.4538 188.67 82.4338 188.15 83.3318C187.647 84.2091 187.011 85.0037 186.266 85.6878C185.509 86.382 184.661 86.9687 183.745 87.4312C182.797 87.9074 181.791 88.256 180.753 88.4679C179.569 88.7196 178.354 88.795 177.148 88.6917C175.947 88.6017 174.777 88.2691 173.708 87.7139C172.606 87.1386 171.638 86.3356 170.869 85.3579C169.478 83.4095 168.793 81.0454 168.925 78.6551C168.991 77.8718 169.182 77.1042 169.491 76.3816C169.793 75.665 170.19 74.9916 170.669 74.379C171.188 73.7144 171.755 73.0884 172.365 72.506C172.907 72.0112 173.461 71.5164 174.003 71.0452C174.526 70.5779 175.004 70.0611 175.428 69.5021C175.842 68.9919 176.165 68.4141 176.382 67.794C176.597 67.1187 176.621 66.3972 176.453 65.7089L181.577 64.6369ZM179.221 53.7993L180.576 60.2312L175.404 61.315L174.05 54.8831L179.221 53.7993Z" fill="#007AFF"/>
</svg>
