<svg width="21" height="21" viewBox="0 0 21 21" fill="none" xmlns="http://www.w3.org/2000/svg">
<g clip-path="url(#clip0_414_265)">
<path d="M10.5 0C4.70106 0 0 4.70106 0 10.5C0 15.4241 3.39024 19.556 7.96362 20.6909V13.7088H5.79852V10.5H7.96362V9.11736C7.96362 5.54358 9.58104 3.8871 13.0897 3.8871C13.755 3.8871 14.9029 4.01772 15.3724 4.14792V7.05642C15.1246 7.03038 14.6941 7.01736 14.1595 7.01736C12.4379 7.01736 11.7726 7.66962 11.7726 9.36516V10.5H15.2023L14.6131 13.7088H11.7726V20.9231C16.9718 20.2952 21.0004 15.8684 21.0004 10.5C21 4.70106 16.2989 0 10.5 0Z" fill="black"/>
</g>
<defs>
<clipPath id="clip0_414_265">
<rect width="21" height="21" fill="white"/>
</clipPath>
</defs>
</svg>
