<svg width="42" height="42" viewBox="0 0 42 42" fill="none" xmlns="http://www.w3.org/2000/svg">
<path d="M42 20.9977C42 24.7676 41.0046 28.3078 39.2615 31.3705C38.7661 32.2398 38.2076 33.073 37.5951 33.8612C36.6943 35.0233 35.6764 36.0862 34.5549 37.0321C34.5233 37.0591 34.4918 37.0861 34.4603 37.1086C33.1001 38.2481 31.5957 39.2165 29.9743 39.9867C29.2446 40.3335 28.4879 40.6398 27.7133 40.901C25.6054 41.6082 23.3488 41.9955 21.0023 41.9955C18.989 41.9955 17.0432 41.7117 15.2011 41.1803C13.5796 40.7164 12.0392 40.0633 10.607 39.2435C8.6297 38.1175 6.85061 36.6762 5.34627 34.9917C5.25619 34.8927 5.17063 34.7936 5.08506 34.6945C4.94543 34.5368 4.8103 34.3747 4.67968 34.2125C4.05813 33.4469 3.49061 32.6361 2.98166 31.7894C1.08997 28.6321 0 24.9433 0 20.9977C0 9.39989 9.4044 0 21.0023 0C32.5956 0 42 9.39989 42 20.9977Z" fill="#E8E1EF"/>
<path d="M17.7613 12.0281C17.7613 12.0281 14.1207 9.11756 15.7782 6.70566C17.4362 4.29376 20.9894 6.74754 20.9894 6.74754C20.9894 6.74754 22.3739 5.36255 24.3323 6.48315C26.2906 7.60375 26.5145 10.3368 26.5145 10.3368C26.5145 10.3368 28.5093 10.2913 28.6233 12.719C28.7372 15.1466 26.1244 17.3081 26.1244 17.3081L17.7613 12.0281Z" fill="black"/>
<path d="M34.4604 37.1086C33.1002 38.2481 31.5958 39.2165 29.9744 39.9867C29.2447 40.3335 28.4881 40.6398 27.7134 40.901C25.6055 41.6082 23.349 41.9955 21.0024 41.9955C18.9891 41.9955 17.0433 41.7117 15.2012 41.1803C13.5798 40.7164 12.0394 40.0633 10.6071 39.2435L10.3594 25.209C15.9173 21.3085 21.3087 22.2814 21.3087 22.2814C21.3087 22.2814 28.389 21.4752 32.0868 24.8577C32.6273 25.3531 33.0867 25.9206 33.4425 26.5917C34.0325 27.6952 34.3253 32.1272 34.4604 37.1086Z" fill="#6876AA"/>
<path d="M24.1504 18.6438L24.1964 23.2699C24.1964 23.2699 23.3753 24.6081 20.6715 24.8549C18.6573 25.0387 17.9443 24.5901 17.9443 24.5901L18.2024 22.2444L18.4569 19.9568L23.3329 18.8335L24.1504 18.6438Z" fill="#F48462"/>
<path d="M23.3327 18.8336C23.3223 18.9601 23.2755 19.1097 23.2025 19.2813C22.1905 21.6022 19.3655 22.1287 18.2021 22.2445L18.4566 19.9569L23.3327 18.8336Z" fill="black"/>
<path d="M17.32 9.42289C17.32 9.42289 14.9495 15.2466 15.9386 18.4598C16.9277 21.6729 19.863 21.0883 21.611 20.4181C23.359 19.7479 24.1504 18.6453 24.1504 18.6453C24.1504 18.6453 25.8123 19.1624 26.8757 17.6017C27.9387 16.0415 27.2158 14.2989 26.2645 13.9197C25.3133 13.5405 24.212 14.2481 24.212 14.2481L25.0462 12.5518C25.0462 12.5518 21.1408 4.13877 17.32 9.42289Z" fill="#F48462"/>
<path d="M24.4067 16.7847C24.3378 16.7847 24.2693 16.7531 24.2252 16.6928C24.1518 16.5923 24.1734 16.4518 24.2734 16.378L26.343 14.8588C26.4425 14.7858 26.5835 14.8061 26.6578 14.9069C26.7312 15.0074 26.7096 15.1479 26.6096 15.2218L24.54 16.741C24.5 16.7707 24.4536 16.7847 24.4067 16.7847Z" fill="black"/>
<path d="M26.3048 16.74C26.2872 16.74 26.2692 16.7378 26.2507 16.7333L24.8743 16.3937C24.7536 16.3639 24.6797 16.2419 24.7099 16.1212C24.7392 16.0009 24.8581 15.9266 24.9828 15.9568L26.3592 16.2964C26.48 16.3261 26.5538 16.4481 26.5236 16.5689C26.4984 16.6715 26.4061 16.74 26.3048 16.74Z" fill="black"/>
<path d="M21.2178 11.8654C21.1921 11.8654 21.1664 11.8609 21.1407 11.8518C20.7993 11.7275 19.8166 11.673 19.4661 11.6622C19.3423 11.6582 19.2445 11.5546 19.2481 11.4298C19.2522 11.306 19.3468 11.2105 19.4801 11.2118C19.6166 11.2163 20.8241 11.2573 21.2948 11.4285C21.4119 11.4713 21.4718 11.6005 21.4294 11.7172C21.3961 11.8086 21.3097 11.8654 21.2178 11.8654Z" fill="black"/>
<path d="M16.7307 11.6924C16.6221 11.6924 16.5262 11.6132 16.5086 11.5024C16.4893 11.3799 16.5735 11.2641 16.696 11.2447C17.3072 11.1484 17.4928 11.1574 17.5234 11.1596C17.6472 11.17 17.7391 11.2794 17.7283 11.4033C17.718 11.5258 17.6108 11.619 17.4887 11.6087C17.477 11.6069 17.3103 11.6037 16.7667 11.6902C16.7541 11.6915 16.7424 11.6924 16.7307 11.6924Z" fill="black"/>
<path d="M17.9072 16.8378C17.8108 16.8378 17.7221 16.7756 17.6919 16.6788C17.1136 14.8037 18.0788 13.4543 18.1202 13.398C18.1932 13.298 18.3337 13.2755 18.4342 13.3494C18.5346 13.4224 18.5562 13.5633 18.4837 13.6633C18.4752 13.6755 17.6122 14.8943 18.1216 16.5459C18.1585 16.6648 18.0919 16.7909 17.973 16.8274C17.9514 16.8346 17.9293 16.8378 17.9072 16.8378Z" fill="black"/>
<path d="M16.772 13.9147C16.7531 13.9147 16.7342 13.9124 16.7148 13.907C16.5945 13.876 16.5225 13.7526 16.5545 13.6323L16.8332 12.5689C16.8643 12.4482 16.9869 12.3748 17.108 12.4081C17.2283 12.4392 17.3003 12.5626 17.2683 12.6828L16.9896 13.7462C16.9634 13.8476 16.872 13.9147 16.772 13.9147Z" fill="black"/>
<path d="M19.7017 13.9431C19.6828 13.9431 19.6639 13.9409 19.6445 13.9355C19.5242 13.9044 19.4522 13.781 19.4842 13.6607L19.763 12.5969C19.794 12.4762 19.9161 12.4037 20.0377 12.4361C20.158 12.4672 20.23 12.5906 20.1985 12.7108L19.9197 13.7747C19.8931 13.8765 19.8017 13.9431 19.7017 13.9431Z" fill="black"/>
<path d="M16.8454 10.7348C16.8454 10.7348 17.3386 9.79978 18.4925 9.78041C19.6464 9.76104 20.3284 10.5673 20.3284 10.5673C20.3284 10.5673 19.8415 12.5152 21.4206 13.5323C22.9997 14.5488 24.2113 14.2484 24.2113 14.2484L25.3454 13.8313L26.1638 12.1599L22.8362 8.64404L18.5524 6.43662L16.4004 8.42966L16.8454 10.7348Z" fill="black"/>
<path d="M18.7962 17.9184C18.7408 17.9184 18.7061 17.9157 18.698 17.9148C18.5746 17.9044 18.4822 17.795 18.493 17.6711C18.5039 17.5472 18.6223 17.4603 18.7358 17.4662C18.7791 17.4689 19.6596 17.527 20.0267 16.723C20.078 16.6095 20.2131 16.5617 20.3253 16.6117C20.4383 16.6635 20.4879 16.7973 20.4365 16.9104C20.0127 17.8382 19.0988 17.9184 18.7962 17.9184Z" fill="black"/>
<path d="M18.2026 22.2441C18.2026 22.2441 17.2486 23.2557 16.6802 25.1217C16.3577 26.1801 16.437 27.7421 16.659 27.7439C16.8811 27.7457 18.5467 25.1685 19.6092 25.0113C20.6717 24.8546 21.5608 27.9399 22.0143 28.048C22.4679 28.1561 24.2316 26.9418 24.8577 25.1843C25.4838 23.4264 24.3605 22.2936 24.3605 22.2936C24.3605 22.2936 18.8768 26.4558 18.2026 22.2441Z" fill="#F7B369"/>
<path d="M15.202 41.1802C13.5805 40.7163 12.0401 40.0632 10.6078 39.2435C8.63058 38.1175 6.85149 36.6762 5.34715 34.9917C5.25707 34.8926 5.17151 34.7935 5.08594 34.6944C5.28411 34.0864 5.50029 33.4783 5.739 32.8883C7.90543 27.4925 10.3601 25.209 10.3601 25.209L15.202 41.1802Z" fill="#6876AA"/>
<path d="M37.5974 33.8612C36.6966 35.0233 35.6787 36.0862 34.5572 37.0321C34.5256 37.0591 34.4941 37.0861 34.4626 37.1086C33.1024 38.2482 31.598 39.2165 29.9766 39.9867L32.0889 24.8577C32.0889 24.8577 35.0526 27.1412 37.5974 33.8612Z" fill="#6876AA"/>
<path d="M10.3154 38.3909C10.3073 38.3909 10.2996 38.3904 10.292 38.3895C10.1681 38.3769 10.078 38.2666 10.0911 38.1427L10.5199 33.9765C10.5325 33.8522 10.6501 33.7607 10.7667 33.7756C10.8906 33.7882 10.9806 33.8986 10.9676 34.0224L10.5388 38.1887C10.5271 38.3049 10.4293 38.3909 10.3154 38.3909Z" fill="#F7B369"/>
</svg>
