<svg width="24" height="22" viewBox="0 0 24 22" fill="none" xmlns="http://www.w3.org/2000/svg">
<path d="M11.4956 1.71393C11.7021 1.29539 12.299 1.29539 12.5055 1.71393L15.1795 7.13206C15.2616 7.29826 15.4201 7.41346 15.6036 7.44012L21.5828 8.30895C22.0447 8.37607 22.2291 8.94369 21.8949 9.26948L17.5683 13.4869C17.4355 13.6163 17.375 13.8027 17.4063 13.9854L18.4277 19.9404C18.5066 20.4005 18.0237 20.7513 17.6106 20.5341L12.2626 17.7225C12.0986 17.6362 11.9026 17.6362 11.7385 17.7225L6.3905 20.5341C5.97737 20.7513 5.49453 20.4005 5.57343 19.9404L6.59481 13.9854C6.62614 13.8027 6.56557 13.6163 6.43285 13.4869L2.10622 9.26948C1.77199 8.94369 1.95642 8.37607 2.41832 8.30895L8.39757 7.44012C8.58099 7.41346 8.73955 7.29826 8.82158 7.13206L11.4956 1.71393Z" stroke="black" stroke-width="2" stroke-linejoin="round"/>
</svg>
