<svg width="22" height="18" viewBox="0 0 22 18" fill="none" xmlns="http://www.w3.org/2000/svg">
<path d="M18.5793 7.48418V4.44207C18.5793 3.88979 18.1316 3.44207 17.5793 3.44207H10.9093C10.6441 3.44207 10.3898 3.33672 10.2022 3.14918L8.76697 1.71391C8.57943 1.52638 8.32508 1.42102 8.05986 1.42102H2.40039C1.84811 1.42102 1.40039 1.86874 1.40039 2.42102V15.5789C1.40039 16.1312 1.84811 16.5789 2.40039 16.5789H3.57656C4.04899 16.5789 4.43197 16.1959 4.43197 15.7235V15.7235C4.43197 15.6209 4.45042 15.5192 4.48643 15.4232L7.22022 8.13306C7.36658 7.74275 7.7397 7.48418 8.15655 7.48418H19.213C19.8955 7.48418 20.3775 8.15288 20.1616 8.80041L17.7967 15.8951C17.6606 16.3035 17.2785 16.5789 16.8481 16.5789H3.42144" stroke="black" stroke-width="2" stroke-linecap="round" stroke-linejoin="round"/>
</svg>
