<svg width="53" height="33" viewBox="0 0 53 33" fill="none" xmlns="http://www.w3.org/2000/svg">
<path d="M14.7906 22.2859C16.0929 22.2859 17.1486 21.4224 17.1486 20.3573C17.1486 19.2921 16.0929 18.4287 14.7906 18.4287C13.4883 18.4287 12.4326 19.2921 12.4326 20.3573C12.4326 21.4224 13.4883 22.2859 14.7906 22.2859Z" fill="black" stroke="black" stroke-width="5" stroke-linecap="round" stroke-linejoin="round"/>
<path d="M3 10.7143V4.15714C3 3.51807 3.63343 3 4.4148 3H48.7452C49.5266 3 50.16 3.51807 50.16 4.15714V10.7143M3 10.7143V28.8429C3 29.482 3.63343 30 4.4148 30H48.7452C49.5266 30 50.16 29.482 50.16 28.8429V10.7143M3 10.7143H50.16" stroke="black" stroke-width="5" stroke-linecap="round" stroke-linejoin="round"/>
</svg>
