<svg width="18" height="22" viewBox="0 0 18 22" fill="none" xmlns="http://www.w3.org/2000/svg">
<path d="M11.9996 1.40002V5.00002C11.9996 5.66277 12.5369 6.20002 13.1996 6.20002H16.7996M5.39959 6.20002H7.79959M5.39959 9.80002H12.5996M5.39959 13.4H12.5996M14.9996 3.20002C14.4655 2.72217 13.9113 2.1554 13.5614 1.7873C13.3286 1.54236 13.007 1.40002 12.669 1.40002H3.59931C2.27383 1.40002 1.19932 2.47453 1.19931 3.80001L1.19922 18.2C1.19921 19.5254 2.27372 20.6 3.59921 20.6L14.3993 20.6C15.7247 20.6 16.7992 19.5255 16.7993 18.2001L16.7996 5.47786C16.7996 5.17102 16.6825 4.87606 16.4696 4.65516C16.0758 4.24667 15.4182 3.57454 14.9996 3.20002Z" stroke="black" stroke-width="2" stroke-linecap="round" stroke-linejoin="round"/>
</svg>
