<svg width="22" height="21" viewBox="0 0 22 21" fill="none" xmlns="http://www.w3.org/2000/svg">
<path fill-rule="evenodd" clip-rule="evenodd" d="M12.8626 2.3894C12.3875 0.536868 9.61246 0.536868 9.13744 2.3894C9.06652 2.66777 8.92742 2.9263 8.73146 3.14396C8.53549 3.36161 8.2882 3.53224 8.00971 3.64196C7.73122 3.75167 7.4294 3.79737 7.1288 3.77534C6.8282 3.7533 6.53733 3.66416 6.27985 3.51516C4.5648 2.5224 2.60224 4.3868 3.64727 6.01608C4.32229 7.06822 3.72352 8.44099 2.46348 8.73193C0.512172 9.182 0.512172 11.8195 2.46348 12.2684C2.75659 12.3358 3.02878 12.4681 3.2579 12.6544C3.48701 12.8407 3.66657 13.0758 3.78195 13.3405C3.89733 13.6052 3.94527 13.892 3.92187 14.1777C3.89846 14.4633 3.80438 14.7397 3.64727 14.9842C2.60224 16.6135 4.5648 18.4779 6.27985 17.4851C6.53728 17.3359 6.82818 17.2465 7.12886 17.2243C7.42954 17.202 7.73149 17.2476 8.01013 17.3572C8.28877 17.4668 8.53623 17.6374 8.73234 17.855C8.92845 18.0727 9.06768 18.3313 9.13869 18.6097C9.61246 20.4634 12.3888 20.4634 12.8613 18.6097C12.9326 18.3314 13.0719 18.073 13.2681 17.8555C13.4642 17.638 13.7116 17.4675 13.9902 17.358C14.2688 17.2484 14.5706 17.2028 14.8712 17.2249C15.1718 17.247 15.4627 17.3361 15.7201 17.4851C17.4352 18.4779 19.3978 16.6135 18.3527 14.9842C18.1959 14.7396 18.102 14.4633 18.0788 14.1777C18.0555 13.8922 18.1035 13.6054 18.2189 13.3408C18.3342 13.0762 18.5136 12.8411 18.7426 12.6548C18.9716 12.4684 19.2436 12.336 19.5365 12.2684C21.4878 11.8183 21.4878 9.18081 19.5365 8.73193C19.2434 8.66448 18.9712 8.53221 18.7421 8.3459C18.513 8.1596 18.3334 7.92452 18.218 7.65982C18.1027 7.39511 18.0547 7.10826 18.0781 6.82262C18.1015 6.53698 18.1956 6.26064 18.3527 6.01608C19.3978 4.3868 17.4352 2.5224 15.7201 3.51516C15.4627 3.66441 15.1718 3.75379 14.8711 3.77603C14.5705 3.79826 14.2685 3.75272 13.9899 3.64311C13.7112 3.5335 13.4638 3.36292 13.2677 3.14527C13.0715 2.92761 12.9323 2.66903 12.8613 2.39058L12.8626 2.3894Z" stroke="black" stroke-width="2"/>
<path d="M13.2222 10.5C13.2222 11.6659 12.2273 12.6111 11 12.6111C9.7727 12.6111 8.77778 11.6659 8.77778 10.5C8.77778 9.33407 9.7727 8.38889 11 8.38889C12.2273 8.38889 13.2222 9.33407 13.2222 10.5Z" stroke="black" stroke-width="2"/>
</svg>
