<svg width="20" height="19" viewBox="0 0 20 19" fill="none" xmlns="http://www.w3.org/2000/svg">
<path d="M12.6554 5.2078L12.6568 3.1078C12.6572 2.55085 12.4344 2.01656 12.0375 1.62247C11.6407 1.22838 11.1022 1.00677 10.5405 1.0064L3.12879 1.00149C2.56715 1.00111 2.02837 1.22201 1.63098 1.61557C1.23358 2.00913 1.01012 2.54313 1.00975 3.10008L1.00139 15.7001C1.00103 16.257 1.22378 16.7913 1.62065 17.1854C2.01753 17.5795 2.55601 17.8011 3.11765 17.8015L10.5294 17.8064C11.091 17.8068 11.6298 17.5859 12.0272 17.1923C12.4246 16.7988 12.6481 16.2648 12.6485 15.7078L12.6498 13.6078M6.29969 9.40359L19.0056 9.41201M19.0056 9.41201L15.8312 6.25991M19.0056 9.41201L15.827 12.5599" stroke="black" stroke-width="2" stroke-linecap="round" stroke-linejoin="round"/>
</svg>
