<svg width="36" height="36" viewBox="0 0 36 36" fill="none" xmlns="http://www.w3.org/2000/svg">
<path d="M28.076 27.538C27.3818 27.5405 26.6939 27.4054 26.0522 27.1406C25.4105 26.8757 24.8276 26.4863 24.3372 25.9948L18.9366 20.5908C18.7456 20.4081 18.4915 20.3062 18.2272 20.3062C17.9629 20.3062 17.7087 20.4081 17.5177 20.5908L12.0989 26.0096C11.6088 26.5018 11.0261 26.892 10.3843 27.1577C9.74261 27.4233 9.05459 27.5592 8.36005 27.5574H7.30273L14.1462 34.4008C15.1726 35.425 16.5633 36.0002 18.0133 36.0002C19.4633 36.0002 20.854 35.425 21.8804 34.4008L28.7376 27.5426L28.076 27.538Z" fill="black"/>
<path d="M8.36119 8.43998C9.05574 8.43812 9.74377 8.57395 10.3855 8.83962C11.0273 9.10528 11.61 9.4955 12.1 9.98774L17.5189 15.4077C17.7072 15.5955 17.9623 15.701 18.2283 15.701C18.4943 15.701 18.7494 15.5955 18.9377 15.4077L24.3372 10.0083C24.8268 9.51542 25.4095 9.12471 26.0513 8.85883C26.6931 8.59294 27.3813 8.45716 28.076 8.45937H28.7261L21.869 1.60223C21.3612 1.09428 20.7584 0.69133 20.0948 0.416414C19.4313 0.141499 18.7201 0 18.0019 0C17.2837 0 16.5725 0.141499 15.9089 0.416414C15.2454 0.69133 14.6425 1.09428 14.1348 1.60223L7.30273 8.43998H8.36119Z" fill="black"/>
<path d="M34.3978 14.1327L30.2541 9.98895C30.1606 10.0271 30.0607 10.0473 29.9598 10.0483H28.0756C27.0951 10.0507 26.1552 10.4401 25.4602 11.1318L20.0607 16.5279C19.5745 17.0133 18.9155 17.2859 18.2284 17.2859C17.5413 17.2859 16.8823 17.0133 16.3961 16.5279L10.9761 11.1113C10.2813 10.4192 9.34139 10.0293 8.36073 10.0266H6.04764C5.95232 10.0244 5.85811 10.0055 5.76934 9.9707L1.5994 14.1327C0.575205 15.159 0 16.5498 0 17.9998C0 19.4498 0.575205 20.8405 1.5994 21.8669L5.76022 26.0277C5.8488 25.9922 5.94312 25.9733 6.03852 25.9718H8.36073C9.34137 25.9689 10.2812 25.5791 10.9761 24.8871L16.3949 19.4683C17.3747 18.4897 19.0821 18.4897 20.0607 19.4683L25.4602 24.8666C26.1552 25.5583 27.0951 25.9477 28.0756 25.9502H29.9598C30.0608 25.9509 30.1607 25.971 30.2541 26.0095L34.3978 21.8658C34.9057 21.358 35.3087 20.7551 35.5836 20.0916C35.8585 19.4281 36 18.7169 36 17.9986C36 17.2804 35.8585 16.5692 35.5836 15.9057C35.3087 15.2422 34.9057 14.6393 34.3978 14.1315" fill="black"/>
</svg>
