<?xml version="1.0" encoding="UTF-8"?>
<svg id="Camada_1" xmlns="http://www.w3.org/2000/svg" viewBox="0 0 800 800">
  <defs>
    <style>
      .cls-1 {
        fill: #fff;
      }
    </style>
  </defs>
  <path class="cls-1" d="M294.1,584.73c-11.37.48-22.24,1.35-33.08,1.3-24.57-.11-48.3-4.43-70.31-15.92-17.95-9.38-17.9-9.48-17.9-29.7,0-10.75-.06-21.49.02-32.24.3-39.21,29.64-68.63,68.77-68.75,18-.05,36.11-.73,53.99.8,24.96,2.13,42.87,15.84,53.94,38.25,1.42,2.87,2.66,3.8,5.89,3.28,5.85-.92,11.8-1.62,17.71-1.69,16.53-.22,33.05-.17,49.58-.02,6.09.06,12.17.69,18.8,1.1.2-.3.81-1.04,1.22-1.88,11.6-23.82,30.62-37.75,56.96-39.34,20.39-1.23,41.02-1.08,61.4.46,30.7,2.31,56.9,30.19,58.36,61.04.81,16.99.55,34.04.18,51.07-.06,2.88-2.39,6.59-4.81,8.42-17.41,13.12-37.38,20.56-58.82,22.93-17.48,1.93-35.17,1.85-53.62,2.71,0,5.57-.24,12.61.08,19.63.24,5.33-1.68,8.94-6.03,12.08-23.63,17.05-50.21,25.58-79.04,26.87-24.27,1.09-48.59,1.39-72.44-4.71-17.34-4.43-33.32-11.73-47.12-23.21-2.05-1.71-3.39-5.28-3.55-8.08-.47-8.21-.17-16.46-.17-24.37v-.02ZM352.07,625.05c.75.42,1.15.72,1.61.87.77.27,1.58.51,2.39.63,27.61,4.42,55.2,4.42,82.83-.07,4.35-.7,5.39-2.63,5.34-6.81-.22-19.33-.1-38.66-.09-58,0-1.65-.07-3.33.23-4.94.82-4.43,4.14-7.02,8.47-6.57,4.42.46,6.95,3.07,7.05,7.48.17,7.38.05,14.76.05,22.27h26.47c0-8.91.35-17.49-.06-26.03-1.55-32.16-27.6-57.53-59.62-57.99-18.83-.27-37.66-.23-56.5,0-14.88.17-28.09,5.18-39.44,14.94-21.67,18.64-22.36,43.4-20.34,69.16h25.77c0-7.32-.15-14.38.05-21.42.15-5.36,3.16-8.4,7.77-8.46,4.83-.07,7.9,3.09,7.97,8.68.13,10.24.05,20.49.05,30.73v35.51h0ZM214.93,526.28v-21.85c0-1.32-.05-2.65.02-3.97.28-5.06,3.43-8.48,7.82-8.56,4.6-.08,7.96,3.44,7.98,8.78.07,20.31.04,40.63.04,60.95v5.48c21.27,3.94,42.03,4.19,63.41.66-2.33-35.24,10.87-62.27,41.74-79.71-3.92-15.23-21.84-30.81-39.57-31.83-20.88-1.21-41.9-.86-62.8-.06-6.57.25-13.66,3.09-19.39,6.58-24.87,15.17-27.47,36.83-24.82,63.5h25.58ZM502.3,568.3c16.07,3.29,46.58,2.23,59.57-2v-62.76c0-1.49-.08-2.98.1-4.46.49-4.19,3.05-6.64,7.09-7.05,4.11-.42,7.03,1.75,8.19,5.7.55,1.85.47,3.92.48,5.88.05,7.53.02,15.07.02,22.6h26.04c0-7.68.33-15.1-.06-22.47-1.27-24.47-20.14-45.65-44.45-47.55-19.71-1.54-39.67-1.5-59.41-.4-20.05,1.11-34.16,12.4-43.09,30.54,33.76,17.2,47.62,45.17,45.52,81.96h0ZM309.25,596.44c.8,4.22.25,9.46,2.38,11.01,7.31,5.34,15.55,9.4,24.25,14.41v-25.43h-26.63,0ZM460.15,620.65c7.62-4.08,14.37-7.47,20.87-11.25,6.27-3.66,6.71-5.39,4.71-12.81h-25.58v24.06h0ZM214.63,564.01v-21.29h-27.17c1.44,3.58,1.76,7.6,3.81,8.88,7.15,4.48,14.89,8.02,23.37,12.41h0ZM577.93,563.04c7.62-3.83,14.57-7.41,21.6-10.8,4.29-2.07,5.48-5.15,3.92-9.5h-25.52v20.28h0Z"/>
  <path class="cls-1" d="M357.82,306.92c-4.66,0-8.61.07-12.54,0-11.96-.26-18.33-6.68-18.34-18.55-.02-38.83-.02-77.65,0-116.49,0-11.89,6.49-18.36,18.41-18.36,61.12-.02,122.24-.02,183.37,0,12,0,18.46,6.36,18.47,18.25.03,38.83.03,77.65,0,116.49,0,12.37-6.42,18.65-19.16,18.66-41.3.04-82.59.06-123.89-.05-3.87,0-6.88.95-9.84,3.47-7.18,6.09-14.66,11.81-21.96,17.76-3,2.45-6.11,4.02-9.94,2.04-3.75-1.92-4.62-5.28-4.55-9.16.08-4.43.02-8.87.02-14.03l-.03-.02ZM530.93,291.04v-121.26h-187.84v121.28c7.53,0,14.77-.1,22.01.03,5.71.11,8.37,2.9,8.57,8.63.07,1.89,0,3.8,0,6.79,5.03-4.01,9.35-7.02,13.15-10.58,4.02-3.77,8.45-5,13.91-4.98,41.31.17,82.63.09,123.94.09h6.26Z"/>
  <path class="cls-1" d="M398.02,345.58c35.18.17,63.03,28.01,62.94,62.92-.09,35-28.05,62.77-63.13,62.73-34.69-.04-62.78-28.51-62.6-63.42.19-34.15,28.69-62.41,62.78-62.25h0ZM397.91,455.38c26.03.1,47.16-20.76,47.18-46.58.02-26.4-20.57-47.15-46.96-47.32-25.8-.16-46.83,20.79-47.02,46.83-.19,25.77,20.9,46.97,46.8,47.07Z"/>
  <path class="cls-1" d="M264.43,432.73c-31.66-.41-55.99-25.27-55.67-56.88.32-30.39,25.81-55.1,56.37-54.65,31.06.46,55.44,25.8,54.93,57.11-.49,30.04-25.81,54.8-55.63,54.42h0ZM224.61,376.82c-.13,21.99,17.25,39.69,39.36,40.07,21.76.38,39.99-17.42,40.22-39.24.23-22.31-17.34-40.43-39.37-40.6-22.15-.17-40.08,17.56-40.21,39.76h0Z"/>
  <path class="cls-1" d="M527.89,432.76c-30.53-.11-55.38-25.18-55.28-55.77.1-31.11,25.2-55.98,56.3-55.79,30.48.19,55.15,25.32,55.01,56.03-.14,30.91-25.08,55.64-56.02,55.53h0ZM568.05,377.11c-.02-22.25-17.8-40.07-39.93-40.05-21.85,0-39.61,17.83-39.66,39.8-.05,22.2,17.83,40.14,39.91,40.03,21.98-.11,39.69-17.87,39.67-39.77h0Z"/>
  <path class="cls-1" d="M437.17,213.01c-17.67,0-35.32,0-52.99,0-6.35,0-9.8-2.78-9.86-7.82-.06-5.07,3.41-8.02,9.71-8.02,35.32-.03,70.65-.03,105.98,0,6.27,0,9.86,2.93,9.9,7.87.04,5.01-3.52,7.97-9.75,7.98-17.67.03-35.32,0-52.99,0h0Z"/>
  <path class="cls-1" d="M437.16,246.73c17.83,0,35.66-.03,53.48.02,5.99.02,9.6,3.42,9.24,8.47-.33,4.47-3.61,7.33-8.88,7.37-12.06.08-24.1.03-36.16.03-23.45,0-46.88.09-70.32-.12-2.74-.02-6.29-.88-7.94-2.72-1.61-1.79-2.52-6.03-1.47-7.94,1.3-2.37,4.86-4.68,7.58-4.87,8.87-.6,17.82-.24,26.73-.24h27.73Z"/>
</svg>