<svg width="26" height="28" viewBox="0 0 26 28" fill="none" xmlns="http://www.w3.org/2000/svg">
<path fill-rule="evenodd" clip-rule="evenodd" d="M14.816 5.03565C14.3529 2.98812 11.6471 2.98812 11.184 5.03565C11.1149 5.34332 10.9792 5.62907 10.7882 5.86964C10.5971 6.11021 10.356 6.29879 10.0845 6.42006C9.81294 6.54132 9.51866 6.59183 9.22558 6.56748C8.9325 6.54313 8.6489 6.4446 8.39786 6.27992C6.72568 5.18265 4.81218 7.24331 5.83109 9.04409C6.48923 10.207 5.90543 11.7243 4.6769 12.0458C2.77437 12.5433 2.77437 15.4584 4.6769 15.9545C4.96268 16.0291 5.22806 16.1753 5.45145 16.3812C5.67484 16.5871 5.8499 16.8469 5.9624 17.1395C6.0749 17.432 6.12164 17.7491 6.09882 18.0648C6.076 18.3805 5.98427 18.6859 5.83109 18.9562C4.81218 20.757 6.72568 22.8177 8.39786 21.7204C8.64885 21.5554 8.93248 21.4567 9.22564 21.4321C9.5188 21.4075 9.8132 21.4579 10.0849 21.579C10.3566 21.7001 10.5978 21.8887 10.789 22.1292C10.9802 22.3698 11.116 22.6556 11.1852 22.9634C11.6471 25.0122 14.3541 25.0122 14.8148 22.9634C14.8842 22.6558 15.0201 22.3702 15.2114 22.1298C15.4026 21.8894 15.6439 21.701 15.9154 21.5798C16.187 21.4587 16.4813 21.4083 16.7744 21.4328C17.0675 21.4572 17.3511 21.5557 17.6021 21.7204C19.2743 22.8177 21.1878 20.757 20.1689 18.9562C20.016 18.6859 19.9245 18.3805 19.9018 18.0649C19.8791 17.7492 19.9259 17.4323 20.0384 17.1398C20.1508 16.8473 20.3258 16.5876 20.549 16.3816C20.7723 16.1756 21.0375 16.0293 21.3231 15.9545C23.2256 15.4571 23.2256 12.542 21.3231 12.0458C21.0373 11.9713 20.7719 11.8251 20.5486 11.6192C20.3252 11.4132 20.1501 11.1534 20.0376 10.8609C19.9251 10.5683 19.8784 10.2512 19.9012 9.93553C19.924 9.61982 20.0157 9.31439 20.1689 9.04409C21.1878 7.24331 19.2743 5.18265 17.6021 6.27992C17.3511 6.44488 17.0675 6.54367 16.7744 6.56824C16.4812 6.59281 16.1868 6.54248 15.9151 6.42133C15.6434 6.30018 15.4022 6.11165 15.211 5.87108C15.0198 5.63052 14.884 5.34472 14.8148 5.03696L14.816 5.03565Z" stroke="black" stroke-width="2"/>
<path d="M15.1667 14C15.1667 15.2887 14.1966 16.3333 13 16.3333C11.8034 16.3333 10.8333 15.2887 10.8333 14C10.8333 12.7113 11.8034 11.6667 13 11.6667C14.1966 11.6667 15.1667 12.7113 15.1667 14Z" stroke="black" stroke-width="2"/>
</svg>
