<svg width="38" height="38" viewBox="0 0 38 38" fill="none" xmlns="http://www.w3.org/2000/svg">
<circle cx="19" cy="19" r="18.5" fill="white" stroke="#DDD7D7"/>
<path d="M21.206 24.946C21.206 25.4574 21.026 25.8954 20.6662 26.2599C20.3063 26.6198 19.8707 26.7973 19.3594 26.7926C18.8575 26.7973 18.429 26.6198 18.0739 26.2599C17.714 25.8954 17.5341 25.4574 17.5341 24.946C17.5341 24.4631 17.714 24.0369 18.0739 23.6676C18.429 23.2936 18.8575 23.1042 19.3594 23.0994C19.7003 23.1042 20.0104 23.1941 20.2898 23.3693C20.5691 23.5398 20.7917 23.7647 20.9574 24.044C21.1231 24.3187 21.206 24.6193 21.206 24.946ZM21.206 18.8523C21.206 19.3636 21.026 19.8016 20.6662 20.1662C20.3063 20.526 19.8707 20.7036 19.3594 20.6989C18.8575 20.7036 18.429 20.526 18.0739 20.1662C17.714 19.8016 17.5341 19.3636 17.5341 18.8523C17.5341 18.3693 17.714 17.9432 18.0739 17.5739C18.429 17.1998 18.8575 17.0104 19.3594 17.0057C19.7003 17.0104 20.0104 17.1004 20.2898 17.2756C20.5691 17.446 20.7917 17.6709 20.9574 17.9503C21.1231 18.2249 21.206 18.5256 21.206 18.8523ZM21.206 12.7585C21.206 13.2699 21.026 13.7079 20.6662 14.0724C20.3063 14.4323 19.8707 14.6098 19.3594 14.6051C18.8575 14.6098 18.429 14.4323 18.0739 14.0724C17.714 13.7079 17.5341 13.2699 17.5341 12.7585C17.5341 12.2756 17.714 11.8494 18.0739 11.4801C18.429 11.1061 18.8575 10.9167 19.3594 10.9119C19.7003 10.9167 20.0104 11.0066 20.2898 11.1818C20.5691 11.3523 20.7917 11.5772 20.9574 11.8565C21.1231 12.1312 21.206 12.4318 21.206 12.7585Z" fill="#938E8E"/>
</svg>
