<svg width="643" height="643" viewBox="0 0 643 643" fill="none" xmlns="http://www.w3.org/2000/svg">
<g clip-path="url(#clip0_256_73)">
<path d="M435.053 224.214H438.14V222.156H437.111V221.128H435.053V224.214Z" fill="#EBEBEB"/>
<path d="M550.587 224.214H553.674V221.128H551.616V222.156H550.587V224.214Z" fill="#EBEBEB"/>
<path d="M517.676 132.953H519.733V129.867H516.647V131.925H517.676V132.953Z" fill="#EBEBEB"/>
<path d="M435.053 108.68H437.111V107.651H438.14V105.593H435.053V108.68Z" fill="#EBEBEB"/>
<path d="M545.379 215.932H559.911V230.464H545.379V215.932Z" fill="white"/>
<path d="M510.423 197.472H527V180.883H510.423V197.472ZM524.942 195.414H512.481V182.94H524.942V195.414Z" fill="#EBEBEB"/>
<path d="M510.423 139.19H527V122.601H510.423V139.19ZM524.942 137.133H512.481V124.658H524.942V137.133Z" fill="#EBEBEB"/>
<path d="M428.817 215.932H443.349V230.464H428.817V215.932Z" fill="white"/>
<path d="M427.788 231.48H444.377V214.903H427.788V231.48ZM442.319 229.422H429.845V216.961H442.319V229.422Z" fill="#EBEBEB"/>
<path d="M427.788 173.198H444.377V156.609H427.788V173.198ZM442.319 171.141H429.845V158.667H442.319V171.141Z" fill="#EBEBEB"/>
<path d="M428.817 99.3563H443.349V113.888H428.817V99.3563Z" fill="white"/>
<path d="M487.098 99.3563H501.63V113.888H487.098V99.3563Z" fill="white"/>
<path d="M487.098 215.932H501.63V230.464H487.098V215.932Z" fill="white"/>
<path d="M523.929 397.412H557.982V411.803H523.929V397.412Z" fill="#EBEBEB"/>
<path d="M345.998 285.055H380.052V299.445H345.998V285.055Z" fill="#EBEBEB"/>
<path d="M542.923 415.558H576.977V429.948H542.923V415.558Z" fill="#EBEBEB"/>
<path d="M66.0229 415.558H100.076V429.948H66.0229V415.558Z" fill="#EBEBEB"/>
<path d="M85.017 73.7263H119.07V88.1167H85.017V73.7263Z" fill="#EBEBEB"/>
<path d="M66.0229 91.8718H100.076V106.262H66.0229V91.8718Z" fill="#EBEBEB"/>
<path d="M489.989 97.9998H524.042V112.39H489.989V97.9998Z" fill="#EBEBEB"/>
<path d="M66.0364 182.689H313.244V193.299H66.0364V182.689Z" fill="#EBEBEB"/>
<path d="M277.3 235.094H286.919L290.79 193.312H277.3V235.094Z" fill="#EBEBEB"/>
<path d="M101.967 235.094H92.3346L88.4766 193.312H101.967V235.094Z" fill="#EBEBEB"/>
<path d="M290.79 193.312H277.3V207.702H289.465L290.79 193.312Z" fill="#DBDBDB"/>
<path d="M88.4766 193.312L89.8012 207.702H101.967V193.312H88.4766Z" fill="#DBDBDB"/>
<path d="M223.764 119.019C234.734 133.873 246.179 151.169 248.957 169.739C248.957 170.022 248.546 170.112 248.481 169.842C247.223 164.76 245.603 159.775 243.633 154.924C236.419 152.931 229.333 151.311 225.552 144.148C221.694 136.792 222.183 127.198 222.916 119.174C222.916 118.749 223.494 118.724 223.764 119.019Z" fill="#EBEBEB"/>
<path d="M243.465 154.783C238.54 143.723 232.213 132.612 224.175 123.52C224.175 123.52 224.034 123.52 224.085 123.61C229.103 130.091 233.512 137.022 237.254 144.315C233.627 140.637 229.641 137.332 226.207 133.422C226.2 133.415 226.192 133.409 226.183 133.404C226.174 133.4 226.164 133.397 226.154 133.397C226.144 133.396 226.134 133.397 226.124 133.401C226.114 133.404 226.105 133.409 226.098 133.416C226.09 133.423 226.084 133.431 226.08 133.44C226.075 133.449 226.073 133.459 226.072 133.469C226.071 133.479 226.073 133.49 226.076 133.499C226.079 133.509 226.085 133.518 226.091 133.525C229.512 137.628 233.242 142.077 237.665 145.099C238.861 147.311 240.057 149.51 241.279 151.722C240.983 151.555 240.675 151.414 240.366 151.259C240.366 151.259 240.263 151.259 240.366 151.336C240.713 151.504 241.048 151.684 241.395 151.838C241.974 152.88 242.552 153.934 243.144 154.976C243.247 155.22 243.568 155.014 243.465 154.783Z" fill="#A6A6A6"/>
<path d="M239.801 150.925C236.851 149.274 234.034 147.395 231.377 145.305C231.313 145.305 231.21 145.305 231.274 145.408C233.85 147.631 236.672 149.551 239.685 151.131C239.813 151.195 239.942 151.002 239.801 150.925Z" fill="#A6A6A6"/>
<path d="M250.114 169.572C250.114 169.803 249.702 169.791 249.715 169.572C249.651 163.425 249.715 157.265 249.612 151.105C248.043 147.929 244.661 146.18 242.321 143.633C240.63 141.779 239.163 139.733 237.948 137.538C235.118 132.302 233.389 126.543 232.868 120.614C232.225 114.055 234.707 92.399 237.472 93.1449C238.913 93.5436 243.555 104.269 244.79 107.805C246.788 113.661 248.247 119.688 249.149 125.809C251.4 140.174 251.207 155.04 250.114 169.572Z" fill="#EBEBEB"/>
<path d="M250.152 143.106C249.818 135.39 248.069 127.507 246.436 119.958C244.661 111.843 242.578 104.217 238.437 96.9772C238.417 96.957 238.392 96.9437 238.364 96.9393C238.337 96.9348 238.308 96.9395 238.284 96.9526C238.259 96.9657 238.239 96.9864 238.227 97.0118C238.215 97.0371 238.212 97.0656 238.218 97.093C241.001 102.721 243.157 108.638 244.648 114.737C244.365 114.3 244.031 113.888 243.735 113.451C243.619 113.284 243.362 113.451 243.465 113.605C243.83 114.26 244.261 114.876 244.751 115.444C246.191 121.244 247.22 127.173 248.107 133.088L247.902 132.857C247.902 132.857 247.786 132.857 247.812 132.934C247.837 133.011 248.043 133.32 248.172 133.512C248.609 136.522 249.02 139.518 249.458 142.514C243.976 138.113 239.684 132.41 236.971 125.925C236.971 125.925 236.906 125.925 236.971 125.925C239.543 132.805 243.465 138.927 249.586 143.106C249.702 143.903 249.818 144.701 249.921 145.498C249.921 145.665 250.216 145.627 250.216 145.498C250.216 144.791 250.216 144.083 250.152 143.376C250.173 143.361 250.191 143.34 250.203 143.317C250.214 143.293 250.221 143.267 250.221 143.241C250.221 143.215 250.214 143.189 250.203 143.165C250.191 143.142 250.173 143.122 250.152 143.106Z" fill="#A6A6A6"/>
<path d="M247.632 131.854C243.462 125.928 239.817 119.65 236.74 113.091C236.74 113.091 236.585 113.091 236.611 113.091C239.054 119.974 242.718 126.36 247.426 131.944C247.529 132.124 247.722 131.982 247.632 131.854Z" fill="#A6A6A6"/>
<path d="M242.205 111.586C240.52 108.59 238.733 105.683 237.138 102.584C237.138 102.507 236.971 102.584 237.01 102.661C238.317 105.836 239.973 108.855 241.948 111.663C241.968 111.682 241.992 111.696 242.019 111.702C242.045 111.708 242.073 111.708 242.099 111.7C242.125 111.692 242.149 111.677 242.167 111.657C242.186 111.637 242.199 111.613 242.205 111.586Z" fill="#A6A6A6"/>
<path d="M253.11 153.844C253.195 157.911 253.677 161.96 254.551 165.932L254.358 167.218C253.102 162.833 252.376 158.312 252.197 153.754C252.159 153.69 252.138 153.617 252.138 153.542C252.138 153.467 252.159 153.394 252.197 153.33C252.022 147.216 252.478 141.101 253.56 135.081C255.451 123.803 259.605 112.975 267.475 104.526C267.539 104.47 267.616 104.43 267.698 104.409C267.781 104.387 267.867 104.385 267.95 104.402C268.034 104.42 268.112 104.456 268.179 104.509C268.246 104.562 268.3 104.629 268.337 104.706C271.513 112.769 270.407 122.401 267.706 130.426C266.23 134.816 264.12 138.966 261.444 142.746C258.743 146.501 255.309 149.703 253.11 153.844Z" fill="#EBEBEB"/>
<path d="M266.51 108.333C259.064 120.421 253.882 134.76 253.239 149.047C253.239 149.305 253.663 149.369 253.689 149.047C253.869 147.761 254.062 146.475 254.267 145.189C257.507 142.324 260.352 139.042 262.729 135.429C262.729 135.429 262.729 135.287 262.626 135.339C260.069 138.5 257.325 141.506 254.409 144.341C254.94 141.194 255.579 138.086 256.325 135.017L256.917 134.323C257.045 134.168 256.827 133.95 256.685 134.104L256.518 134.297C257.553 130.099 258.841 125.968 260.376 121.926C262.266 119.662 264.388 117.708 265.764 114.981H265.674C264.555 116.537 263.488 118.106 262.228 119.546C261.726 120.125 261.173 120.665 260.646 121.231C262.367 116.847 264.409 112.596 266.754 108.513C266.761 108.481 266.758 108.449 266.747 108.419C266.735 108.389 266.716 108.363 266.69 108.344C266.664 108.326 266.634 108.314 266.602 108.312C266.57 108.31 266.538 108.317 266.51 108.333Z" fill="#A6A6A6"/>
<path d="M265.006 123.25C262.601 126.491 259.862 129.59 257.611 132.934C257.547 133.037 257.689 133.127 257.766 133.05C260.632 130.136 263.121 126.874 265.173 123.34C265.237 123.237 265.083 123.16 265.006 123.25Z" fill="#A6A6A6"/>
<path d="M257.277 133.744L257.174 133.847C257.11 133.924 257.174 134.04 257.29 133.963L257.393 133.86C257.457 133.744 257.354 133.615 257.277 133.744Z" fill="#A6A6A6"/>
<path d="M279.345 128.523C278.465 135.28 275.742 141.665 271.475 146.977C269.706 149.07 267.515 150.766 265.045 151.954C262.292 153.317 259.399 154.899 256.544 156.017C255.183 159.474 254.171 163.059 253.522 166.717L253.252 165.765C255.078 150.012 265.276 136.547 278.316 127.905C278.416 127.818 278.542 127.764 278.675 127.752C278.808 127.74 278.941 127.771 279.055 127.839C279.17 127.908 279.259 128.011 279.311 128.134C279.363 128.257 279.375 128.393 279.345 128.523Z" fill="#EBEBEB"/>
<path d="M274.831 133.178C274.934 133.101 274.831 132.934 274.702 133.011C267.54 138.34 261.828 145.379 258.087 153.484C257.997 153.703 258.293 153.896 258.409 153.677C259.013 152.61 259.631 151.581 260.261 150.565C263.231 150.012 266.061 147.916 268.26 145.922C268.324 145.922 268.26 145.781 268.182 145.832C267.043 146.871 265.777 147.761 264.414 148.482C263.193 149.099 261.842 149.485 260.634 149.973C261.727 148.224 262.884 146.553 264.08 144.919C267.312 143.696 270.346 142.002 273.082 139.891C273.159 139.891 273.082 139.685 272.992 139.75C270.302 141.372 267.529 142.853 264.685 144.186C266.498 141.788 268.456 139.503 270.549 137.345C271.565 136.818 272.593 136.277 273.571 135.699C273.648 135.699 273.571 135.519 273.506 135.557C272.692 135.84 271.915 136.22 271.192 136.689C272.323 135.506 273.545 134.323 274.831 133.178Z" fill="#A6A6A6"/>
<path d="M274.56 138.618C274.383 138.723 274.215 138.844 274.059 138.978C274.059 138.978 274.059 139.081 274.123 139.055C274.306 138.977 274.478 138.877 274.638 138.759C274.728 138.708 274.65 138.566 274.56 138.618Z" fill="#A6A6A6"/>
<path d="M237.266 182.689H264.118L262.806 165.097L262.292 159.348H239.337L238.835 165.097L237.266 182.689Z" fill="#DBDBDB"/>
<path d="M238.836 165.097H262.807L262.292 159.348H239.337L238.836 165.097Z" fill="#C7C7C7"/>
<path d="M237.498 154.641H264.118V160.531H237.498V154.641Z" fill="#DBDBDB"/>
<path d="M172.002 182.651V118.736H188.103V182.651H172.002Z" fill="#C7C7C7"/>
<path d="M172.016 122.337V115.316H188.116V122.337H172.016Z" fill="#DBDBDB"/>
<path d="M172.016 133.963V131.352H188.116V133.963H172.016Z" fill="#DBDBDB"/>
<path d="M172.016 174.266V167.244H188.116V174.266H172.016Z" fill="#DBDBDB"/>
<path d="M160.763 182.65V108.101H172.015V182.65H160.763Z" fill="#DBDBDB"/>
<path d="M163.064 143.788V115.11H169.816V143.788H163.064Z" fill="#EBEBEB"/>
<path d="M80.6694 174.581L133.687 122.171L141.597 130.173L88.5801 182.583L80.6694 174.581Z" fill="#C7C7C7"/>
<path d="M94.6785 163.866L115.073 143.704L119.82 148.506L99.425 168.667L94.6785 163.866Z" fill="#DBDBDB"/>
<path d="M141.679 182.676V126.041H160.776V182.676H141.679Z" fill="#A6A6A6"/>
<path d="M141.666 176.658V171.385H160.763V176.658H141.666Z" fill="#C7C7C7"/>
<path d="M141.666 167.913V165.868H160.763V167.913H141.666Z" fill="#C7C7C7"/>
<path d="M208.965 182.707L187.976 133.807L200.1 128.603L221.089 177.503L208.965 182.707Z" fill="#A6A6A6"/>
<path d="M206.756 177.52L204.798 172.958L216.923 167.754L218.88 172.316L206.756 177.52Z" fill="#C7C7C7"/>
<path d="M194.273 148.437L192.315 143.875L204.44 138.671L206.398 143.233L194.273 148.437Z" fill="#C7C7C7"/>
<path d="M196.388 153.332L195.627 151.559L207.752 146.355L208.512 148.128L196.388 153.332Z" fill="#C7C7C7"/>
<path d="M159.567 329.46L233.975 348.917L258.962 253.393L203.702 238.939L184.541 233.936L179.783 252.133L159.567 329.46Z" fill="#EBEBEB"/>
<path d="M246.861 269.929L186.244 254.083L186.885 251.632L247.502 267.478L246.861 269.929Z" fill="#DBDBDB"/>
<path d="M245.222 276.131L184.605 260.285L185.246 257.834L245.863 273.68L245.222 276.131Z" fill="#DBDBDB"/>
<path d="M243.613 282.311L182.996 266.464L183.637 264.013L244.254 279.859L243.613 282.311Z" fill="#DBDBDB"/>
<path d="M241.987 288.503L181.37 272.657L182.011 270.206L242.628 286.052L241.987 288.503Z" fill="#DBDBDB"/>
<path d="M240.377 294.695L179.76 278.849L180.401 276.398L241.017 292.244L240.377 294.695Z" fill="#DBDBDB"/>
<path d="M238.751 300.887L178.134 285.041L178.775 282.59L239.391 298.436L238.751 300.887Z" fill="#DBDBDB"/>
<path d="M237.137 307.08L176.521 291.234L177.161 288.782L237.778 304.629L237.137 307.08Z" fill="#DBDBDB"/>
<path d="M235.514 313.272L174.897 297.426L175.538 294.975L236.155 310.821L235.514 313.272Z" fill="#DBDBDB"/>
<path d="M233.901 319.464L173.284 303.618L173.925 301.167L234.542 317.013L233.901 319.464Z" fill="#DBDBDB"/>
<path d="M232.278 325.644L171.661 309.798L172.302 307.347L232.919 323.193L232.278 325.644Z" fill="#DBDBDB"/>
<path d="M230.918 329.662L170.144 313.998L170.777 311.541L231.551 327.204L230.918 329.662Z" fill="#DBDBDB"/>
<path d="M229.03 338.025L168.413 322.179L169.054 319.728L229.671 335.574L229.03 338.025Z" fill="#DBDBDB"/>
<path d="M139.801 357.019L216.601 361.314L222.118 262.73L165.097 259.54L144.264 277.223L139.801 357.019Z" fill="#EBEBEB"/>
<path d="M165.097 259.54L144.263 277.223L164.042 278.329L165.097 259.54Z" fill="#DBDBDB"/>
<path d="M213.54 281.363L170.848 278.976L170.989 276.447L213.682 278.834L213.54 281.363Z" fill="#DBDBDB"/>
<path d="M213.188 287.759L170.495 285.372L170.637 282.842L213.329 285.229L213.188 287.759Z" fill="#DBDBDB"/>
<path d="M212.812 294.141L170.119 291.754L170.261 289.225L212.953 291.611L212.812 294.141Z" fill="#DBDBDB"/>
<path d="M212.462 300.527L149.906 297.029L150.048 294.5L212.604 297.997L212.462 300.527Z" fill="#DBDBDB"/>
<path d="M212.112 306.91L149.556 303.412L149.697 300.883L212.253 304.38L212.112 306.91Z" fill="#DBDBDB"/>
<path d="M211.76 313.305L149.204 309.808L149.346 307.279L211.902 310.776L211.76 313.305Z" fill="#DBDBDB"/>
<path d="M211.383 319.701L148.827 316.203L148.969 313.674L211.525 317.171L211.383 319.701Z" fill="#DBDBDB"/>
<path d="M211.032 326.083L148.476 322.586L148.617 320.056L211.173 323.554L211.032 326.083Z" fill="#DBDBDB"/>
<path d="M210.681 332.479L148.125 328.982L148.266 326.452L210.823 329.95L210.681 332.479Z" fill="#DBDBDB"/>
<path d="M210.317 338.862L147.761 335.365L147.902 332.835L210.458 336.333L210.317 338.862Z" fill="#DBDBDB"/>
<path d="M209.966 345.245L147.41 341.748L147.552 339.218L210.108 342.716L209.966 345.245Z" fill="#DBDBDB"/>
<path d="M209.602 351.64L147.046 348.143L147.187 345.613L209.744 349.111L209.602 351.64Z" fill="#DBDBDB"/>
<path d="M581.876 537.239L516.779 536.931L451.681 536.815L321.5 536.609L191.318 536.815L126.22 536.931L61.1231 537.239L126.22 537.561L191.318 537.677L321.5 537.882L451.681 537.677L516.779 537.561L581.876 537.239Z" fill="#263238"/>
<path d="M436.403 245.626C444.325 227.853 461.519 216.189 478.044 220.613C513.499 230.091 508.677 283.692 534.139 318.349C564.901 360.221 565.274 395.419 538.499 400.525C508.51 406.235 480.488 374.072 483.677 306.711C485.67 264.582 476.784 249.664 465.377 246.423C456.992 244.044 447.63 254.139 447.63 254.139L436.403 245.626Z" fill="#263238"/>
<path d="M484.179 283.396C484.346 290.096 483.754 296.783 483.407 303.457C483.06 310.132 482.558 316.78 482.352 323.429C482.108 330.065 482.198 336.709 482.622 343.336C482.984 349.926 484.013 356.463 485.696 362.845C487.271 369.211 490.057 375.214 493.901 380.527C497.992 385.756 502.956 390.237 508.574 393.773C514.241 397.377 520.661 399.629 527.337 400.358C530.7 400.729 534.097 400.668 537.445 400.177C539.124 399.941 540.783 399.58 542.409 399.097C544.057 398.681 545.638 398.031 547.103 397.168C544.23 399.078 541.002 400.39 537.612 401.026C534.204 401.756 530.716 402.05 527.234 401.901C523.744 401.711 520.29 401.102 516.946 400.087C513.595 399.042 510.372 397.623 507.339 395.857C504.317 394.111 501.466 392.083 498.826 389.799L496.897 388.05L495.032 386.237C493.784 385.005 492.619 383.691 491.547 382.302C487.413 376.725 484.403 370.395 482.687 363.668C479.189 350.384 479.099 336.662 479.948 323.352C480.372 316.652 481.105 309.99 481.915 303.342C482.725 296.693 483.638 290.057 484.179 283.396Z" fill="#263238"/>
<path d="M444.171 235.338C446.976 231.632 450.238 228.296 453.881 225.41C457.48 222.623 461.666 220.691 466.122 219.76C470.577 218.829 475.187 218.923 479.601 220.035C481.806 220.605 483.958 221.367 486.031 222.311C488.082 223.21 490.038 224.313 491.869 225.603C495.414 228.33 498.459 231.649 500.871 235.415C503.282 239.274 505.286 243.372 506.851 247.645C510.156 256.21 512.445 265.263 515.12 274.227C517.667 283.301 520.909 292.167 524.816 300.744C529.058 309.149 533.946 317.21 539.438 324.856C544.737 332.572 550.241 340.07 554.446 348.3C556.657 352.358 558.346 356.679 559.474 361.16L560.22 364.542C560.374 365.687 560.452 366.844 560.567 367.989L560.696 369.661V371.41L560.619 374.895C562.149 365.635 560.066 355.952 556.053 347.451C552.041 338.951 546.781 331.094 541.779 323.236C536.776 315.379 531.787 307.56 527.941 299.201C524.201 290.748 521.089 282.031 518.631 273.121C515.904 264.234 513.603 255.117 510.066 246.333C508.341 241.87 506.156 237.599 503.546 233.589C500.839 229.558 497.402 226.069 493.412 223.301C491.388 221.971 489.234 220.85 486.982 219.957C484.764 219.025 482.466 218.298 480.115 217.784C475.416 216.713 470.529 216.778 465.859 217.972C461.19 219.166 456.872 221.456 453.263 224.651C449.74 227.763 446.678 231.361 444.171 235.338Z" fill="#263238"/>
<path d="M429.523 248.931C429.523 245.549 432.095 241.215 434.243 240.713C436.391 240.212 452.491 247.504 453.777 251.696C455.063 255.888 447.785 259.412 447.785 259.412L429.523 248.931Z" fill="#FFC100"/>
<path d="M445.445 382.431C436.134 438.179 422.207 482.674 407.469 494.171C395.574 503.456 378.406 510.683 360.595 516.213C341.534 521.881 322.12 526.289 302.48 529.408C296.436 530.411 291.395 531.131 287.82 531.684C278.972 532.97 259.618 475.421 265.341 467.744C266.627 465.982 272.414 464.246 280.554 462.523C307.959 456.8 365.327 452.312 368.324 448.943C371.32 445.573 399.007 404.936 421.268 373.66C436.854 351.772 450.602 351.515 445.445 382.431Z" fill="#AD6359"/>
<path d="M305.181 524.302C304.113 524.907 288.964 533.008 279.525 536.198C272.478 538.59 252.004 544.917 248.661 537.419C246.333 532.275 257.933 527.131 266.06 523.351C270.33 521.344 275.5 516.535 274.098 513.796C271.629 508.999 260.621 514.413 253.432 519.03C239.53 527.954 221.179 543.734 212.138 536.879C208.731 534.307 212.331 529.163 217.72 524.019C208.885 530.115 199.407 535.22 195.498 532.494C193.26 530.938 193.054 528.636 194.147 526.064C191.382 527.106 188.9 527.041 187.087 525.28C184.001 522.322 185.235 517.705 188.257 512.883C187.7 512.845 187.158 512.677 186.678 512.391C186.197 512.105 185.791 511.709 185.493 511.236C178.818 501.99 208.898 473.222 219.61 470.174C251.117 461.172 285.119 462.458 285.119 462.458C298.018 471.846 305.206 524.277 305.181 524.302Z" fill="#AD6359"/>
<path d="M257.045 496.692C249.495 498.158 242.363 501.276 236.161 505.822C228.959 511.249 223.365 518.49 216.755 524.559C216.575 524.727 216.845 524.997 217.025 524.829C220.111 521.704 223.545 518.875 226.773 515.827C230.001 512.78 232.984 509.848 236.328 507.134C242.366 502.153 249.46 498.613 257.071 496.782C257.199 496.808 257.122 496.679 257.045 496.692Z" fill="#263238"/>
<path d="M250.499 483.446C242.243 486.108 233.781 488.809 226.168 493.104C217.861 497.811 211.521 505.179 205.284 512.265C201.546 516.552 197.898 520.89 194.34 525.28C194.185 525.46 194.443 525.73 194.597 525.55C200.924 518.228 207.465 511.104 214.221 504.176C220.438 497.721 227.867 492.556 236.083 488.976C240.79 486.931 245.638 485.259 250.486 483.6C250.497 483.601 250.507 483.6 250.516 483.597C250.526 483.594 250.535 483.589 250.543 483.582C250.551 483.576 250.557 483.568 250.562 483.559C250.566 483.55 250.569 483.54 250.57 483.53C250.571 483.519 250.57 483.509 250.567 483.5C250.564 483.49 250.559 483.481 250.552 483.473C250.545 483.465 250.537 483.459 250.528 483.454C250.519 483.45 250.509 483.447 250.499 483.446Z" fill="#263238"/>
<path d="M241.035 472.026C232.984 474.058 225.95 475.807 218.941 480.475C209.669 486.674 200.937 496.795 197.825 500.395C194.43 504.356 191.164 508.433 187.961 512.548C187.833 512.715 188.129 512.947 188.257 512.78C195.599 503.724 203.52 495.154 211.971 487.124C215.937 483.23 220.484 479.977 225.448 477.479C230.489 475.24 235.712 473.437 241.06 472.091C241.06 472.091 241.073 472.026 241.035 472.026Z" fill="#263238"/>
<path d="M436.584 440.802L388.101 412.214C388.101 412.214 408.793 378.778 426.476 362.999C444.158 347.22 451.295 359.604 448.608 382.534C445.92 405.463 436.584 440.802 436.584 440.802Z" fill="#FFC100"/>
<path d="M420.676 426.258C420.98 428.187 421.56 430.062 422.399 431.826C422.541 432.109 422.669 432.405 422.811 432.688L424.804 433.858C424.508 432.958 424.148 432.07 423.762 431.196C422.976 429.41 421.936 427.747 420.676 426.258ZM440.416 400.705C442.178 399.86 444.054 399.28 445.984 398.981C442.963 401.478 439.341 403.141 435.478 403.804C436.97 402.544 438.632 401.501 440.416 400.705ZM423.788 372.413C423.136 374.249 422.222 375.982 421.075 377.557C421.442 373.653 422.83 369.914 425.1 366.716C424.934 368.675 424.492 370.602 423.788 372.438V372.413ZM401.502 395.432C403.114 395.65 404.697 396.047 406.221 396.615C408.056 397.276 409.788 398.194 411.365 399.342C409.415 399.186 407.496 398.753 405.668 398.056C404.15 397.504 402.697 396.788 401.334 395.921C401.374 395.761 401.43 395.606 401.502 395.458V395.432Z" fill="white"/>
<path d="M395.741 404.949C403.457 408.922 424.251 420.381 436.713 429.601C436.79 429.601 436.597 429.974 436.52 429.936C424.946 423.878 402.839 410.093 395.458 405.437C395.316 405.347 395.586 404.871 395.741 404.949Z" fill="#263238"/>
<path d="M392.088 414.581L436.571 440.802C436.571 440.802 445.92 405.476 448.608 382.534C450.331 367.732 447.978 357.328 441.329 356.055L392.088 414.581Z" fill="#263238"/>
<path d="M389.748 537.201H550.035C550.035 537.201 515.223 402.75 482.996 364.877C482.276 364.002 481.53 363.192 480.784 362.421C480.63 362.241 480.501 362.112 480.347 361.958C477.853 359.292 474.949 357.043 471.743 355.296C471.178 354.987 470.612 354.705 470.02 354.447C457.61 348.737 444.506 353.47 435.041 361.572C432.045 364.144 398.069 408.344 395.059 425.19C392.487 440.069 402.518 456.054 402.518 456.054L389.748 537.201Z" fill="#FFC100"/>
<path d="M460.568 373.197C460.876 375.131 461.461 377.011 462.304 378.778C463.09 380.567 464.135 382.231 465.403 383.717C465.097 381.786 464.512 379.911 463.667 378.148C462.876 376.358 461.833 374.691 460.568 373.197ZM484.693 448.454C485.527 450.22 486.107 452.094 486.417 454.022C483.92 451.001 482.257 447.379 481.594 443.516C482.854 445.008 483.897 446.67 484.693 448.454ZM504.498 526.99C505.344 528.755 505.925 530.636 506.221 532.571C503.74 529.535 502.08 525.913 501.399 522.052C502.659 523.544 503.702 525.206 504.498 526.99ZM423.763 431.196C424.606 432.963 425.19 434.843 425.499 436.777C424.227 435.289 423.183 433.62 422.4 431.826C421.561 430.062 420.98 428.187 420.676 426.258C421.937 427.747 422.976 429.41 423.763 431.196ZM398.364 482.507C399.185 484.253 399.757 486.106 400.062 488.011C399.263 487.091 398.561 486.091 397.966 485.028L398.364 482.507ZM459.411 518.991C460.244 520.761 460.824 522.64 461.134 524.572C459.862 523.084 458.818 521.415 458.035 519.621C457.201 517.855 456.621 515.981 456.311 514.053C457.571 515.545 458.615 517.207 459.411 518.991ZM440.416 400.679C442.178 399.835 444.054 399.254 445.985 398.956C442.964 401.453 439.341 403.115 435.478 403.778C436.972 402.527 438.634 401.493 440.416 400.705V400.679ZM429.82 464.503C431.586 463.67 433.46 463.09 435.388 462.78C433.899 464.044 432.236 465.088 430.45 465.879C428.684 466.712 426.809 467.292 424.882 467.602C426.375 466.351 428.038 465.317 429.82 464.529V464.503ZM425.962 534.294C427.732 533.461 429.611 532.881 431.543 532.571C428.515 535.065 424.889 536.727 421.024 537.394C422.517 536.143 424.18 535.108 425.962 534.32V534.294ZM503.495 475.55C505.265 474.717 507.144 474.137 509.076 473.827C507.584 475.094 505.917 476.138 504.125 476.926C502.359 477.759 500.484 478.339 498.556 478.649C500.05 477.398 501.713 476.364 503.495 475.576V475.55ZM399.264 444.094C399.163 445.403 398.917 446.697 398.531 447.952C398.313 447.412 398.081 446.846 397.863 446.268C398.273 445.516 398.742 444.798 399.264 444.12V444.094ZM402.377 518.554C401.719 520.388 400.805 522.12 399.663 523.698C399.817 521.751 400.25 519.837 400.949 518.014C401.611 516.179 402.529 514.447 403.675 512.87C403.511 514.824 403.074 516.746 402.377 518.579V518.554ZM485.439 410.646C484.787 412.482 483.873 414.215 482.726 415.79C482.883 413.843 483.316 411.929 484.012 410.105C484.679 408.273 485.596 406.542 486.738 404.961C486.583 406.917 486.145 408.84 485.439 410.671V410.646ZM459.989 476.617C459.332 478.451 458.418 480.183 457.276 481.761C457.424 479.814 457.857 477.899 458.562 476.077C459.214 474.241 460.128 472.508 461.275 470.933C461.121 472.888 460.688 474.811 459.989 476.643V476.617ZM529.112 503.533C528.455 505.368 527.542 507.1 526.398 508.677C526.554 506.727 526.987 504.808 527.684 502.98C528.352 501.148 529.269 499.417 530.411 497.836C530.254 499.788 529.816 501.707 529.112 503.533ZM430.398 500.575C428.563 499.916 426.831 498.998 425.254 497.849C427.202 497.997 429.117 498.43 430.939 499.135C432.775 499.787 434.508 500.701 436.083 501.849C434.137 501.696 432.223 501.267 430.398 500.575ZM523.312 449.74C523.518 450.344 523.736 450.936 523.942 451.54L523.106 451.257C521.267 450.606 519.534 449.687 517.962 448.531C519.793 448.683 521.594 449.09 523.312 449.74ZM408.652 397.695C409.616 398.165 410.533 398.725 411.391 399.367C410.233 399.296 409.086 399.097 407.971 398.776C408.202 398.416 408.434 398.056 408.652 397.695ZM484.616 500.575C482.784 499.908 481.053 498.991 479.472 497.849C481.42 497.997 483.335 498.43 485.156 499.135C486.991 499.792 488.723 500.705 490.3 501.849C488.355 501.696 486.441 501.267 484.616 500.575ZM545.753 529.562C546.614 529.896 547.463 530.244 548.325 530.655C548.445 531.118 548.56 531.547 548.672 531.941C547.515 531.689 546.376 531.359 545.264 530.951C543.429 530.294 541.698 529.381 540.12 528.237C542.051 528.408 543.948 528.854 545.753 529.562ZM458.305 428.984C456.472 428.317 454.741 427.399 453.161 426.258C455.108 426.405 457.023 426.839 458.845 427.544C460.679 428.2 462.411 429.114 463.989 430.257C462.048 430.098 460.14 429.669 458.318 428.984H458.305Z" fill="white"/>
<path d="M426.566 450.319C433.396 450.985 440.166 452.159 446.821 453.829C450.113 454.704 453.341 455.72 456.569 456.813C458.176 457.366 459.797 457.855 461.43 458.33C463.116 458.89 464.866 459.235 466.638 459.359C466.664 459.368 466.686 459.384 466.702 459.406C466.718 459.428 466.727 459.454 466.727 459.481C466.727 459.508 466.718 459.535 466.702 459.557C466.686 459.579 466.664 459.595 466.638 459.604C464.961 459.677 463.281 459.634 461.61 459.475C459.992 459.261 458.39 458.943 456.813 458.523C453.469 457.675 450.164 456.659 446.821 455.771C440.069 453.971 433.331 452.183 426.476 450.872C426.168 450.82 426.245 450.28 426.566 450.319Z" fill="#263238"/>
<path d="M409.642 456.208C415.271 455.675 420.926 455.456 426.579 455.553C429.421 455.553 432.225 455.836 435.041 456.131C436.327 456.273 437.729 456.44 439.066 456.62C440.404 456.8 441.985 457.212 443.464 457.392C443.619 457.392 443.606 457.662 443.464 457.636C442.075 457.507 440.648 457.636 439.246 457.572L435.015 457.417C432.199 457.327 429.383 457.263 426.553 457.147C420.908 456.903 415.288 456.723 409.642 456.684C409.321 456.671 409.347 456.247 409.642 456.208Z" fill="#263238"/>
<path d="M487.008 367.179C512.432 394.403 569.312 492.229 549.752 511.069C530.192 529.909 407.263 530.269 385.363 530.269C375.396 530.269 395.818 464.683 406.504 463.397C415.404 462.304 480.102 460.208 481.414 457.585C482.906 454.627 474.457 430.759 466.985 390.442C458.973 347.22 475.82 355.155 487.008 367.179Z" fill="#AD6359"/>
<path d="M371.036 449.894C348.943 446.808 342.744 449.418 325.525 436.919C314.195 428.714 304.1 432.43 310.556 445.458C321.139 466.779 348.814 476.733 359.424 477.428L371.036 449.894Z" fill="#AD6359"/>
<path d="M429.729 471.165C429.729 471.165 404.897 457.379 381.685 451.759C365.622 447.901 328.071 441.792 295.42 478.765C285.132 490.416 284.579 506.89 300.358 497.052C312.613 489.413 319.211 481.787 327.441 479.485C327.441 479.485 322.927 502.903 331.659 510.735C339.291 517.579 347.4 523.87 355.926 529.562C357.33 528.24 358.644 526.827 359.861 525.331C359.861 525.331 368.709 531.877 385.362 530.295L429.729 471.165Z" fill="#AD6359"/>
<path d="M365.764 450.512C358.048 454.511 341.96 463.269 331.248 475.023C319.365 488.076 299.985 516.432 309.707 525.112C316.844 531.465 325.139 521.254 325.139 521.254C325.139 521.254 319.596 534.667 327.3 539.001C334.321 542.949 340.301 534.693 340.301 534.693C340.301 534.693 338.346 543.412 345.831 545.92C354.833 548.929 357.482 530.179 369.249 525.344C371.937 524.289 365.764 450.512 365.764 450.512Z" fill="#AD6359"/>
<path d="M347.503 485.465C340.893 490.416 328.779 505.501 325.435 521.126C325.358 521.486 325.577 521.73 325.718 521.422C331.527 508.634 338.868 496.598 347.58 485.581C347.683 485.504 347.567 485.401 347.503 485.465Z" fill="#263238"/>
<path d="M359.965 497.682C354.718 502.543 342.925 518.644 340.07 534.603C340.006 534.95 340.25 535.182 340.379 534.873C345.517 521.799 352.127 509.352 360.08 497.772C360.157 497.682 360.08 497.605 359.965 497.682Z" fill="#263238"/>
<path d="M380.476 530.514C377.858 530.482 375.246 530.275 372.657 529.896C370.064 529.591 367.533 528.897 365.146 527.839H365.082C362.534 530.171 360.229 532.757 358.202 535.555C357.182 536.959 356.254 538.428 355.424 539.953C354.646 541.467 353.621 542.841 352.389 544.017C351.172 545.173 349.589 545.869 347.914 545.984C346.242 546.005 344.627 545.373 343.413 544.222C342.239 543.036 341.442 541.528 341.124 539.888C340.761 538.239 340.639 536.545 340.764 534.86L340.841 533.754L340.147 534.616C338.475 536.861 336.147 538.533 333.485 539.4C332.158 539.753 330.761 539.753 329.434 539.4C328.111 539.065 326.908 538.366 325.962 537.381C324.162 535.323 323.866 532.314 324.046 529.562C324.266 526.748 324.858 523.976 325.808 521.319L326.566 519.12L325.088 520.92C323.327 523.17 321.027 524.94 318.4 526.064C317.106 526.592 315.701 526.791 314.311 526.643C312.937 526.454 311.633 525.923 310.517 525.099C309.435 524.246 308.637 523.085 308.228 521.769C307.826 520.418 307.661 519.009 307.739 517.602C307.92 514.732 308.532 511.906 309.553 509.217C311.621 503.787 314.301 498.61 317.539 493.785C320.73 488.917 324.199 484.237 327.93 479.768L329.087 478.392L327.299 478.932C325.29 479.601 323.358 480.484 321.538 481.568C319.738 482.606 317.985 483.72 316.278 484.912C312.858 487.265 309.681 489.94 306.389 492.371C303.192 494.905 299.714 497.062 296.024 498.801C294.224 499.521 292.166 500.087 290.597 499.161C289.028 498.235 288.552 496.203 288.681 494.274C288.824 492.283 289.289 490.329 290.057 488.487C290.874 486.639 291.874 484.877 293.04 483.227C295.417 479.894 298.094 476.786 301.039 473.942C303.972 471.074 307.068 468.378 310.311 465.866C313.533 463.332 316.933 461.033 320.484 458.986L321.05 458.665L320.587 458.202C316.835 454.609 313.656 450.463 311.16 445.908C309.924 443.668 309.253 441.161 309.205 438.603C309.203 437.362 309.527 436.143 310.144 435.067C310.455 434.55 310.865 434.099 311.35 433.742C311.836 433.384 312.388 433.126 312.973 432.983C315.487 432.608 318.053 433.098 320.252 434.372C322.572 435.541 324.83 436.829 327.017 438.23C331.376 441.034 335.646 444.313 340.764 445.946C343.288 446.678 345.869 447.198 348.48 447.502C351.052 447.862 353.688 448.171 356.286 448.492C361.43 449.123 366.677 449.778 371.847 450.627C382.217 452.146 392.395 454.767 402.209 458.446C392.43 454.642 382.273 451.892 371.911 450.241C366.767 449.341 361.559 448.608 356.363 447.914L348.647 446.846C346.06 446.547 343.504 446.022 341.008 445.277C336.044 443.709 331.865 440.468 327.467 437.561C325.255 436.134 323.004 434.784 320.651 433.575C318.268 432.186 315.479 431.664 312.755 432.096C311.365 432.444 310.165 433.321 309.411 434.539C308.714 435.743 308.346 437.109 308.344 438.5C308.369 441.2 309.063 443.85 310.363 446.216C312.878 450.881 316.101 455.128 319.918 458.806L320.008 458.035C316.419 460.089 312.981 462.397 309.72 464.94C306.434 467.468 303.295 470.182 300.319 473.068C297.307 475.941 294.569 479.088 292.14 482.469C290.921 484.178 289.874 486.005 289.015 487.921C288.186 489.889 287.683 491.978 287.523 494.107C287.438 495.218 287.564 496.335 287.896 497.399C288.249 498.532 289.004 499.497 290.018 500.113C291.043 500.682 292.23 500.891 293.388 500.704C294.466 500.567 295.522 500.286 296.525 499.868C300.332 498.132 303.912 495.938 307.186 493.335C310.517 490.84 313.616 488.191 317.011 485.851C318.683 484.68 320.407 483.562 322.155 482.546C323.869 481.491 325.693 480.629 327.595 479.974L327.017 479.048C323.282 483.561 319.808 488.284 316.613 493.194C313.354 498.097 310.666 503.357 308.601 508.87C307.557 511.655 306.937 514.581 306.762 517.551C306.689 519.067 306.876 520.585 307.315 522.039C307.773 523.525 308.67 524.839 309.887 525.807C311.133 526.729 312.594 527.318 314.131 527.517C315.661 527.668 317.205 527.447 318.632 526.874C321.399 525.678 323.818 523.803 325.666 521.422L324.946 521.023C323.984 523.757 323.388 526.607 323.171 529.498C323.065 530.96 323.152 532.43 323.429 533.87C323.698 535.348 324.355 536.728 325.332 537.869C326.388 538.941 327.713 539.71 329.167 540.094C330.622 540.479 332.153 540.465 333.601 540.056C336.408 539.131 338.86 537.361 340.622 534.989L340.005 534.744C339.884 536.508 340.023 538.281 340.417 540.004C340.774 541.78 341.672 543.402 342.989 544.647C344.321 545.881 346.086 546.541 347.901 546.486C349.699 546.347 351.392 545.582 352.685 544.325C353.935 543.098 354.973 541.672 355.759 540.107C356.562 538.591 357.46 537.126 358.446 535.722C360.425 532.904 362.683 530.293 365.185 527.929H365.082C367.498 528.964 370.056 529.631 372.67 529.909C375.256 530.276 377.863 530.478 380.476 530.514Z" fill="#263238"/>
<path d="M526.861 414.838L473.917 433.909C473.917 433.909 461.391 396.615 460.529 372.953C459.668 349.29 473.737 351.682 489.683 368.388C505.629 385.093 526.861 414.838 526.861 414.838Z" fill="#FFC100"/>
<path d="M460.568 373.197C460.877 375.131 461.461 377.011 462.304 378.778C463.09 380.567 464.135 382.231 465.403 383.717C465.097 381.786 464.512 379.911 463.667 378.148C462.877 376.358 461.833 374.691 460.568 373.197ZM518.772 417.757L517.371 418.259C516.595 416.598 516.059 414.836 515.776 413.025C517.001 414.447 518.01 416.042 518.772 417.757ZM485.439 410.671C484.787 412.508 483.873 414.24 482.726 415.815C482.883 413.869 483.316 411.955 484.012 410.131C484.679 408.299 485.597 406.568 486.738 404.987C486.58 406.934 486.143 408.849 485.439 410.671ZM501.334 384.167C502.484 384.597 503.601 385.109 504.678 385.697L505.54 386.777C503.917 386.554 502.325 386.149 500.794 385.569C498.955 384.917 497.222 383.998 495.65 382.842C497.598 383.011 499.512 383.457 501.334 384.167Z" fill="white"/>
<path d="M473.248 423.39C481.26 419.943 503.289 411.263 518.374 407.585C518.464 407.585 518.593 407.906 518.515 407.945C506.466 412.986 481.736 421.216 473.505 423.917C473.248 423.968 473.042 423.454 473.248 423.39Z" fill="#263238"/>
<path d="M462.96 403.328C462.96 403.251 463.05 403.212 463.088 403.328C464.04 405.154 464.889 407.006 465.66 408.897C464.734 404.756 463.907 400.606 463.178 396.448C463.178 396.417 463.191 396.388 463.212 396.366C463.234 396.345 463.263 396.332 463.294 396.332C463.325 396.332 463.354 396.345 463.376 396.366C463.398 396.388 463.41 396.417 463.41 396.448C466.959 408.652 470.817 420.805 474.109 433.086C475.46 433.022 476.823 432.932 478.16 432.752C478.203 432.749 478.245 432.762 478.28 432.788C478.314 432.813 478.338 432.851 478.347 432.892C478.357 432.934 478.351 432.978 478.33 433.016C478.31 433.054 478.277 433.083 478.237 433.099C476.771 433.459 475.331 433.922 473.904 434.385C473.741 434.462 473.555 434.472 473.385 434.415C473.215 434.357 473.073 434.236 472.991 434.076C470.414 427.098 468.266 419.969 466.561 412.729C466.008 411.623 465.467 410.517 464.992 409.372C464.162 407.412 463.483 405.391 462.96 403.328Z" fill="#263238"/>
<path d="M460.04 357.508C459.783 360.376 449.122 380.27 436.365 381.492C432.211 381.891 429.061 359.296 429.061 359.296L428.443 357.675L419.879 335.067L444.788 313.527L448.415 310.633C448.415 310.633 450.357 316.973 452.684 324.895C452.8 325.255 452.916 325.628 453.019 326.014C453.122 326.4 453.315 326.888 453.418 327.3C453.79 328.483 454.151 329.692 454.498 330.901C454.755 331.814 455.012 332.701 455.256 333.678C455.501 334.656 455.758 335.595 456.028 336.572C458.446 346.191 460.118 356.222 460.04 357.508Z" fill="#AD6359"/>
<path d="M452.672 324.882C451.255 331.779 448.353 338.285 444.167 343.946C439.98 349.607 434.61 354.288 428.431 357.662L419.866 335.054L444.776 313.514L448.402 310.62C448.402 310.62 450.357 316.96 452.672 324.882Z" fill="#263238"/>
<path d="M382.727 302.287C384.913 344.725 410.543 348.146 419.673 347.657C427.968 347.22 456.157 344.687 458.369 302.3C460.581 259.913 440.172 247.542 421.152 247.542C402.132 247.542 380.54 259.913 382.727 302.287Z" fill="#AD6359"/>
<path d="M388.372 294.661C389.325 294.444 390.266 294.173 391.189 293.851C392.22 293.703 393.173 293.219 393.902 292.475C394.083 292.196 394.169 291.866 394.146 291.534C394.122 291.202 393.992 290.887 393.773 290.636C393.257 290.212 392.637 289.933 391.977 289.827C391.318 289.721 390.642 289.792 390.018 290.032C388.688 290.334 387.515 291.117 386.726 292.231C386.556 292.493 386.467 292.8 386.471 293.113C386.474 293.426 386.569 293.731 386.745 293.991C386.92 294.25 387.168 294.451 387.458 294.571C387.747 294.69 388.065 294.721 388.372 294.661Z" fill="#263238"/>
<path d="M415.378 292.861C414.388 292.861 413.462 292.604 412.485 292.462C411.44 292.47 410.422 292.13 409.591 291.498C409.369 291.249 409.236 290.933 409.212 290.6C409.189 290.267 409.277 289.936 409.463 289.659C409.908 289.162 410.478 288.794 411.113 288.593C411.749 288.392 412.427 288.364 413.076 288.514C414.438 288.617 415.715 289.216 416.664 290.199C416.865 290.438 416.993 290.73 417.031 291.04C417.07 291.35 417.018 291.665 416.883 291.946C416.747 292.227 416.532 292.463 416.266 292.625C415.999 292.788 415.69 292.87 415.378 292.861Z" fill="#263238"/>
<path d="M411.121 303.342C411.121 303.226 411.365 303.47 411.365 303.586C411.365 306.48 411.957 309.772 414.619 310.608C414.709 310.608 414.709 310.775 414.619 310.762C411.404 310.479 410.71 306.068 411.121 303.342Z" fill="#263238"/>
<path d="M413.552 300.204C418.181 299.612 419.004 308.897 414.722 309.45C410.44 310.003 409.681 300.693 413.552 300.204Z" fill="#263238"/>
<path d="M415.378 300.525C416.239 300.975 417.114 301.811 418.104 301.811C419.094 301.811 420.02 300.77 420.676 299.767C420.676 299.664 420.83 299.767 420.843 299.857C421.023 301.631 420.509 303.522 418.619 303.959C416.728 304.396 415.506 302.892 414.902 301.143C414.825 300.924 415.069 300.345 415.378 300.525Z" fill="#263238"/>
<path d="M395.342 304.139C395.342 304.036 395.136 304.293 395.149 304.422C395.522 307.277 395.471 310.633 392.95 311.842C392.873 311.842 392.95 312.022 392.95 311.996C396.088 311.212 396.088 306.801 395.342 304.139Z" fill="#263238"/>
<path d="M392.487 301.387C387.832 301.49 388.372 310.8 392.68 310.71C396.988 310.62 396.396 301.31 392.487 301.387Z" fill="#263238"/>
<path d="M390.584 302.107C389.877 302.647 389.195 303.586 388.32 303.702C387.446 303.817 386.494 302.866 385.748 301.927C385.671 301.837 385.607 301.927 385.607 302.043C385.671 303.817 386.366 305.644 388.089 305.901C389.812 306.158 390.725 304.525 391.047 302.724C391.15 302.377 390.867 301.901 390.584 302.107Z" fill="#263238"/>
<path d="M413.269 325.525C412.677 326.284 412.112 327.3 411.083 327.531C410.018 327.654 408.94 327.549 407.919 327.223C407.897 327.212 407.872 327.21 407.848 327.216C407.824 327.222 407.804 327.237 407.79 327.257C407.776 327.277 407.769 327.301 407.772 327.326C407.774 327.35 407.786 327.373 407.803 327.39C408.289 327.901 408.905 328.27 409.585 328.456C410.265 328.642 410.983 328.638 411.661 328.444C412.226 328.217 412.71 327.826 413.051 327.322C413.392 326.818 413.576 326.224 413.578 325.615C413.59 325.435 413.359 325.358 413.269 325.525Z" fill="#263238"/>
<path d="M400.987 317.436C400.987 317.436 400.73 321.783 400.884 323.866C400.884 324.046 408.42 324.998 411.263 319.751C411.297 319.708 411.312 319.654 411.306 319.6C411.3 319.545 411.273 319.496 411.23 319.462C411.188 319.428 411.133 319.412 411.079 319.418C411.025 319.424 410.975 319.451 410.941 319.494C408.489 321.464 405.468 322.591 402.325 322.709C402.145 322.156 403.019 315.276 402.698 315.276C401.132 315.535 399.609 316.007 398.171 316.678C398.454 307.598 400.177 298.674 400.319 289.607C400.313 289.545 400.287 289.486 400.244 289.44C400.202 289.394 400.145 289.364 400.083 289.353C400.022 289.343 399.958 289.354 399.903 289.383C399.848 289.413 399.804 289.46 399.779 289.517C397.309 298.776 396.756 309.206 396.229 318.568C396.088 319.687 400.203 317.835 400.987 317.436Z" fill="#263238"/>
<path d="M457.893 301.387C454.984 300.766 452.286 299.4 450.063 297.423C447.84 295.446 446.169 292.925 445.213 290.109C408.896 289.221 396.885 266.691 396.885 266.691C389.915 285.659 383.691 288.913 382.675 291.768C382.675 291.768 379.653 275.32 385.144 262.781C390.005 251.683 402.479 239.8 422.103 242.321C433.227 243.748 442.589 253.381 442.589 253.381C442.589 253.381 454.613 254.667 459.539 264.337C467.795 280.592 457.893 301.387 457.893 301.387Z" fill="#263238"/>
<path d="M396.333 265.25C397.654 269.98 400.139 274.304 403.56 277.827C406.982 281.372 411.062 284.215 415.571 286.199L419.018 287.485C420.188 287.884 421.384 288.128 422.567 288.45C424.934 289.07 427.346 289.5 429.782 289.736C432.212 289.954 434.655 289.916 437.086 290.006C439.504 289.787 441.921 289.62 444.326 289.363C441.896 289.286 439.491 289.363 437.086 289.286C434.694 289.041 432.289 288.951 429.923 288.617C425.189 287.988 420.56 286.725 416.163 284.862C411.785 283.001 407.788 280.351 404.37 277.043C400.888 273.724 398.149 269.705 396.333 265.25Z" fill="#263238"/>
<path d="M420.599 317.282C423.067 316.758 425.338 315.551 427.154 313.799C428.971 312.048 430.258 309.821 430.871 307.374C431.485 304.926 431.398 302.356 430.622 299.955C429.847 297.554 428.412 295.419 426.483 293.793C424.553 292.167 422.206 291.115 419.709 290.758C417.211 290.4 414.663 290.751 412.355 291.77C410.046 292.789 408.071 294.435 406.652 296.522C405.234 298.609 404.43 301.052 404.331 303.573C404.195 307.143 405.481 310.621 407.907 313.244C410.332 315.867 413.699 317.421 417.268 317.565C418.386 317.602 419.504 317.507 420.599 317.282ZM415.378 292.681C416.329 292.482 417.3 292.4 418.271 292.436C421.233 292.557 424.037 293.802 426.113 295.918C428.19 298.033 429.381 300.861 429.446 303.824C429.51 306.788 428.443 309.664 426.461 311.868C424.479 314.073 421.731 315.438 418.778 315.688C415.824 315.937 412.886 315.051 410.563 313.211C408.239 311.37 406.705 308.713 406.271 305.781C405.838 302.849 406.539 299.862 408.23 297.428C409.922 294.994 412.478 293.296 415.378 292.681Z" fill="#455A64"/>
<path d="M389.799 319.995C394.841 318.915 398.313 312.781 397.657 305.785C397.408 302.433 396.112 299.244 393.953 296.667C393.098 295.503 391.956 294.579 390.639 293.984C389.322 293.39 387.873 293.146 386.434 293.275C384.995 293.404 383.613 293.903 382.423 294.723C381.233 295.542 380.274 296.655 379.64 297.953C377.994 300.884 377.311 304.258 377.685 307.598C378.38 314.993 383.421 320.6 388.925 320.085C389.221 320.098 389.516 320.06 389.799 319.995ZM385.941 295.201C386.161 295.147 386.385 295.113 386.61 295.098C387.761 295.04 388.908 295.26 389.956 295.739C391.003 296.218 391.92 296.942 392.629 297.85C394.534 300.145 395.676 302.977 395.895 305.952C396.499 312.382 393.323 317.912 388.783 318.336C384.244 318.761 380.103 313.887 379.511 307.483C379.174 304.519 379.772 301.525 381.222 298.918C381.703 298.006 382.369 297.205 383.177 296.565C383.985 295.925 384.918 295.461 385.916 295.201H385.941Z" fill="#455A64"/>
<path d="M404.922 305.078L405.951 303.599C403.752 302.081 398.84 300.23 395.882 304.036L397.309 305.142C399.946 301.721 404.717 304.949 404.922 305.078Z" fill="#455A64"/>
<path d="M465.018 302.943L466.535 301.966C466.085 301.258 461.983 295.047 457.919 294.777C454.061 294.533 430.296 299.034 429.28 299.226L429.614 300.988C436.443 299.702 454.871 296.372 457.803 296.577C460.478 296.757 463.925 301.233 465.018 302.943Z" fill="#455A64"/>
<path d="M451.489 302.75C451.489 302.75 458.844 288.36 465.249 290.803C471.653 293.247 467.396 313.218 460.773 316.793C459.955 317.31 459.041 317.656 458.085 317.811C457.129 317.965 456.152 317.924 455.213 317.691C454.273 317.458 453.391 317.038 452.618 316.454C451.845 315.871 451.199 315.138 450.717 314.298L451.489 302.75Z" fill="#AD6359"/>
<path d="M463.886 296.5C464.002 296.5 464.04 296.629 463.95 296.68C459.321 299.342 457.379 304.242 456.234 309.206C457.443 307.187 459.282 305.927 461.957 307.315C461.985 307.334 462.006 307.361 462.017 307.393C462.028 307.424 462.029 307.459 462.019 307.491C462.009 307.523 461.988 307.551 461.961 307.57C461.933 307.589 461.9 307.599 461.867 307.598C460.966 307.443 460.04 307.571 459.215 307.965C458.39 308.359 457.708 308.999 457.263 309.797C456.529 311.133 455.938 312.543 455.501 314.003C455.334 314.478 454.511 314.35 454.601 313.823C454.607 313.784 454.607 313.745 454.601 313.707C453.624 307.47 457.263 298.056 463.886 296.5Z" fill="#263238"/>
<path d="M282.097 537.226C286.271 536.837 290.419 536.206 294.52 535.336C298.638 534.528 302.705 533.476 306.698 532.185C298.347 533.02 290.103 534.709 282.097 537.226Z" fill="#263238"/>
<path d="M246.321 526.257C246.822 521.332 246.938 516.406 246.964 511.481C247 506.543 246.785 501.607 246.321 496.692C245.856 501.607 245.642 506.543 245.678 511.481C245.704 516.406 245.819 521.332 246.321 526.257Z" fill="#263238"/>
<path d="M258.885 526.463C261.677 522.742 264.274 518.879 266.666 514.889C269.106 510.92 271.334 506.825 273.34 502.62C267.791 510.115 262.952 518.11 258.885 526.501V526.463Z" fill="#263238"/>
<path d="M303.946 503.726C301.091 505.925 298.326 508.227 295.574 510.542C292.822 512.857 290.135 515.223 287.447 517.615C284.759 520.007 282.11 522.425 279.512 524.907L275.654 528.623C274.368 529.909 273.082 531.195 271.796 532.481C273.224 531.388 274.613 530.244 276.014 529.125L280.155 525.665C282.907 523.363 285.595 520.984 288.283 518.592C290.971 516.2 293.62 513.783 296.217 511.301C298.815 508.819 301.439 506.324 303.946 503.726Z" fill="#263238"/>
<path d="M222.967 534.976C218.976 533.693 214.914 532.641 210.801 531.825C206.697 530.949 202.545 530.318 198.366 529.935C206.373 532.449 214.616 534.138 222.967 534.976Z" fill="#263238"/>
<path d="M203.188 501.206C205.683 503.778 208.332 506.285 210.904 508.754C213.476 511.224 216.177 513.641 218.839 516.046C221.501 518.451 224.214 520.817 226.979 523.119L231.107 526.578C232.522 527.697 233.898 528.842 235.338 529.935C234.052 528.649 232.766 527.363 231.48 526.077L227.622 522.36C225.05 519.878 222.349 517.473 219.687 515.069C217.025 512.664 214.312 510.298 211.547 507.996C208.782 505.694 206.03 503.405 203.188 501.206Z" fill="#263238"/>
<path d="M86.2524 524.791L82.6002 524.302L88.5158 381.492L130.941 321.731L134.104 324.329L91.9108 383.82L86.2524 524.791Z" fill="#263238"/>
<path d="M85.0303 382.662C85.0303 383.68 85.332 384.674 85.8973 385.52C86.4625 386.366 87.2659 387.025 88.2058 387.415C89.1458 387.804 90.1801 387.906 91.1779 387.707C92.1757 387.509 93.0923 387.019 93.8117 386.3C94.5311 385.58 95.021 384.664 95.2195 383.666C95.418 382.668 95.3161 381.634 94.9268 380.694C94.5374 379.754 93.8781 378.95 93.0322 378.385C92.1863 377.82 91.1917 377.518 90.1743 377.518C88.8101 377.518 87.5017 378.06 86.537 379.025C85.5723 379.99 85.0303 381.298 85.0303 382.662Z" fill="#FFC100"/>
<path d="M126.915 323.558C126.915 324.575 127.217 325.57 127.782 326.415C128.347 327.261 129.151 327.921 130.091 328.31C131.031 328.699 132.065 328.801 133.063 328.603C134.061 328.404 134.977 327.914 135.696 327.195C136.416 326.476 136.906 325.559 137.104 324.561C137.303 323.563 137.201 322.529 136.812 321.589C136.422 320.649 135.763 319.846 134.917 319.281C134.071 318.715 133.077 318.414 132.059 318.414C130.695 318.414 129.386 318.956 128.422 319.92C127.457 320.885 126.915 322.193 126.915 323.558Z" fill="#FFC100"/>
<path d="M167.321 325.577L147.324 356.145L134.104 344.095L126.054 336.752L141.061 313.861L151.015 318.298L167.321 325.577Z" fill="#FFC100"/>
<path opacity="0.1" d="M167.321 325.577L147.324 356.145L134.104 344.095L151.015 318.298L167.321 325.577Z" fill="black"/>
<path d="M204.281 333.537L169.392 386.829L136.072 355.476L162.216 315.533L204.281 333.537Z" fill="#FFC100"/>
<path d="M117.798 537.239H54.8996L58.7705 517.486H113.94L117.798 537.239Z" fill="#FFC100"/>
<path d="M322.992 201.362C323.741 208.536 326.47 215.361 330.872 221.075C335.275 226.79 341.179 231.168 347.925 233.722C354.671 236.276 361.994 236.906 369.077 235.54C376.16 234.175 382.724 230.868 388.038 225.989L407.521 228.908L397.773 212.061C400.206 206.135 401.126 199.695 400.448 193.324C399.948 188.213 398.442 183.25 396.017 178.723C393.592 174.196 390.295 170.193 386.316 166.945C382.337 163.697 377.755 161.269 372.834 159.799C367.913 158.329 362.749 157.848 357.641 158.382C352.533 158.917 347.581 160.456 343.07 162.912C338.559 165.368 334.579 168.693 331.359 172.694C328.138 176.694 325.741 181.293 324.305 186.224C322.869 191.155 322.423 196.322 322.992 201.426V201.362Z" fill="white"/>
<path d="M322.992 201.362C323.743 208.536 326.462 215.363 330.85 221.089C332.993 223.983 335.57 226.529 338.488 228.638C344.273 232.993 351.149 235.663 358.357 236.354C360.157 236.51 361.966 236.545 363.771 236.457C365.58 236.415 367.382 236.226 369.16 235.891C376.349 234.582 383.03 231.29 388.45 226.387L387.987 226.529L407.444 229.512L408.858 229.731L408.151 228.445L398.455 211.573V212.241C400.741 206.657 401.714 200.621 401.297 194.6C400.88 188.58 399.085 182.736 396.05 177.519C393.018 172.326 388.85 167.885 383.859 164.531C377.65 160.403 370.396 158.126 362.942 157.963C355.488 157.801 348.142 159.761 341.76 163.615C335.377 167.469 330.222 173.057 326.894 179.729C323.567 186.401 322.205 193.881 322.966 201.298L322.992 201.362ZM322.992 201.362C322.382 195.501 323.122 189.578 325.156 184.048C327.19 178.518 330.463 173.527 334.726 169.458C338.988 165.389 344.126 162.351 349.745 160.576C355.364 158.802 361.314 158.337 367.141 159.22C372.918 160.08 378.422 162.253 383.228 165.573C387.989 168.911 391.965 173.247 394.88 178.278C397.744 183.328 399.432 188.959 399.818 194.752C400.178 200.539 399.242 206.334 397.079 211.714L396.937 212.061L397.117 212.383L406.929 229.191L407.624 228.162L388.128 225.436H387.858L387.665 225.616C382.464 230.488 376.006 233.811 369.018 235.209C367.277 235.571 365.509 235.786 363.733 235.852C361.96 235.981 360.181 235.981 358.409 235.852C354.852 235.574 351.35 234.804 348.005 233.563C344.644 232.344 341.481 230.637 338.617 228.496C337.176 227.438 335.802 226.291 334.502 225.063C333.239 223.798 332.058 222.453 330.965 221.038C326.541 215.342 323.781 208.531 322.992 201.362Z" fill="#263238"/>
<path d="M340.006 198.494C340.006 199.428 340.283 200.34 340.801 201.116C341.32 201.892 342.057 202.497 342.92 202.854C343.782 203.212 344.731 203.305 345.646 203.123C346.562 202.941 347.403 202.491 348.063 201.831C348.723 201.171 349.173 200.33 349.355 199.415C349.537 198.499 349.443 197.55 349.086 196.688C348.729 195.826 348.124 195.088 347.348 194.57C346.572 194.051 345.659 193.774 344.726 193.774C344.105 193.773 343.491 193.894 342.918 194.13C342.344 194.367 341.823 194.714 341.385 195.153C340.946 195.592 340.598 196.113 340.362 196.686C340.125 197.259 340.004 197.874 340.006 198.494Z" fill="#263238"/>
<path d="M356.904 198.494C356.904 199.428 357.181 200.341 357.7 201.117C358.219 201.894 358.957 202.499 359.82 202.856C360.683 203.212 361.633 203.305 362.549 203.122C363.465 202.939 364.305 202.488 364.965 201.827C365.625 201.165 366.073 200.323 366.254 199.407C366.434 198.491 366.339 197.541 365.98 196.679C365.621 195.817 365.014 195.081 364.236 194.564C363.458 194.047 362.544 193.772 361.61 193.774C360.991 193.774 360.378 193.897 359.806 194.134C359.234 194.371 358.715 194.719 358.278 195.158C357.84 195.596 357.494 196.116 357.258 196.689C357.022 197.261 356.902 197.875 356.904 198.494Z" fill="#263238"/>
<path d="M373.789 198.494C373.789 199.428 374.066 200.34 374.585 201.116C375.103 201.892 375.84 202.497 376.703 202.854C377.565 203.212 378.514 203.305 379.43 203.123C380.345 202.941 381.186 202.491 381.846 201.831C382.506 201.171 382.956 200.33 383.138 199.415C383.32 198.499 383.226 197.55 382.869 196.688C382.512 195.826 381.907 195.088 381.131 194.57C380.355 194.051 379.442 193.774 378.509 193.774C377.889 193.773 377.274 193.894 376.701 194.13C376.127 194.367 375.606 194.714 375.168 195.153C374.729 195.592 374.382 196.113 374.145 196.686C373.908 197.259 373.788 197.874 373.789 198.494Z" fill="#263238"/>
<path d="M257.509 253.728H362.369V311.559H257.509V253.728Z" fill="#455A64"/>
<path d="M277.725 311.559H257.509V326.181L277.725 311.559Z" fill="#455A64"/>
<path d="M302.069 264.402H349.612V265.7H302.069V264.402Z" fill="white"/>
<path d="M269.765 271.436H349.612V272.735H269.765V271.436Z" fill="white"/>
<path d="M269.765 278.47H349.612V279.769H269.765V278.47Z" fill="white"/>
<path d="M285.068 285.505H349.612V286.804H285.068V285.505Z" fill="white"/>
<path d="M269.765 292.539H349.612V293.838H269.765V292.539Z" fill="white"/>
<path d="M320.24 299.574H349.612V300.873H320.24V299.574Z" fill="white"/>
<path d="M222.427 332.598H326.58V375.499H222.427V332.598Z" fill="#FFC100"/>
<path d="M222.427 389.272V375.486H243.337L222.427 389.272Z" fill="#FFC100"/>
<path d="M234.94 343.272H313.913V344.571H234.94V343.272Z" fill="white"/>
<path d="M268.852 350.306H313.913V351.605H268.852V350.306Z" fill="white"/>
<path d="M253.008 357.341H313.913V358.64H253.008V357.341Z" fill="white"/>
<path d="M292.694 364.375H313.913V365.674H292.694V364.375Z" fill="white"/>
<path d="M297.079 542.126H307.534V548.955H297.079V542.126Z" fill="#EBEBEB"/>
<path d="M283.524 541.676H293.979V548.505H283.524V541.676Z" fill="#EBEBEB"/>
<path d="M269.957 541.226H280.412V548.055H269.957V541.226Z" fill="#EBEBEB"/>
<path d="M256.402 540.776H266.857V547.605H256.402V540.776Z" fill="#EBEBEB"/>
<path d="M242.835 540.326H253.29V547.154H242.835V540.326Z" fill="#EBEBEB"/>
<path d="M229.281 539.876H239.736V546.704H229.281V539.876Z" fill="#EBEBEB"/>
<path d="M215.726 539.426H226.182V546.254H215.726V539.426Z" fill="#EBEBEB"/>
<path d="M202.159 538.975H212.614V545.804H202.159V538.975Z" fill="#EBEBEB"/>
<path d="M188.604 538.525H199.06V545.354H188.604V538.525Z" fill="#EBEBEB"/>
<path d="M186.045 552.89H310.093V544.57L186.045 541.11V552.89Z" fill="#DBDBDB"/>
<path d="M93.5307 524.122H266.369L238.887 395.445H66.0489L93.5307 524.122Z" fill="#EBEBEB"/>
<path d="M87.1391 524.122H259.978L232.496 395.445H59.6573L87.1391 524.122Z" fill="#DBDBDB"/>
<path d="M148.858 459.55C144.169 455.216 143.368 448.456 147.07 444.45C150.772 440.444 157.574 440.709 162.264 445.042C166.953 449.376 167.754 456.136 164.052 460.142C160.35 464.148 153.548 463.883 148.858 459.55Z" fill="white"/>
<path d="M136.02 557.725H221.024V551.115L136.02 548.376V557.725Z" fill="#EBEBEB"/>
<path d="M112.911 557.712H158.551L186.046 485.606H140.406L112.911 557.712Z" fill="#EBEBEB"/>
<path d="M105.4 557.712H151.041L178.522 485.606H132.882L105.4 557.712Z" fill="#A6A6A6"/>
<path d="M321.5 559.474H409.089C416.561 559.474 405.746 538.178 378.444 530.012C351.142 521.846 312.832 551.488 321.5 559.474Z" fill="#DBDBDB"/>
<path d="M355.836 559.474C355.766 557.047 355.363 554.642 354.64 552.324C353.929 549.987 352.936 547.746 351.682 545.65C350.433 543.541 348.867 541.637 347.04 540.004C345.232 538.363 343.146 537.057 340.88 536.146C341.819 536.918 342.886 537.432 343.748 538.294L345.034 539.438L346.32 540.724C347.945 542.42 349.369 544.297 350.563 546.319C351.777 548.341 352.818 550.461 353.675 552.658C354.548 554.879 355.27 557.156 355.836 559.474Z" fill="#263238"/>
<path d="M345.445 539.207C342.851 540.044 340.323 541.076 337.884 542.293C335.429 543.506 333.073 544.907 330.836 546.486C328.567 548.054 326.513 549.913 324.728 552.016C323.851 553.093 323.093 554.262 322.465 555.501C321.863 556.744 321.517 558.095 321.449 559.474C321.756 558.167 322.287 556.923 323.017 555.796C323.726 554.672 324.549 553.625 325.474 552.671C327.347 550.773 329.392 549.051 331.582 547.527C333.756 545.958 336.058 544.557 338.359 543.168C339.517 542.473 340.687 541.805 341.883 541.162C343.079 540.519 344.249 539.863 345.445 539.207Z" fill="#263238"/>
<path opacity="0.6" d="M484.051 516.47C484.051 516.47 452.801 502.067 452.801 482.764C452.801 463.462 493.336 451.039 493.336 435.954C493.336 420.869 475.653 411.983 475.653 411.983C475.653 411.983 503.585 421.525 503.585 440.609C503.585 459.694 476.862 472.618 474.303 484.771C470.753 501.63 484.051 516.47 484.051 516.47Z" fill="#DBDBDB"/>
<path opacity="0.6" d="M482.508 516.47C482.508 516.47 513.771 505.154 513.771 489.979C513.771 474.804 473.249 465.03 473.249 453.161C473.249 441.291 490.918 434.321 490.918 434.321C490.918 434.321 462.961 441.818 462.961 456.826C462.961 471.833 493.645 482.147 495.844 494.338C498.017 506.285 482.508 516.47 482.508 516.47Z" fill="#DBDBDB"/>
<path d="M468.863 565.017H498.596V569.659H468.863V565.017Z" fill="#455A64"/>
<path d="M468.863 565.017H498.596V568.078H468.863V565.017Z" fill="#263238"/>
<path d="M533.883 552.53C532.078 555.203 529.542 557.3 526.578 558.57C523.613 559.84 520.345 560.23 517.165 559.693C516.136 559.504 515.129 559.215 514.156 558.831C512.676 558.252 511.266 557.51 509.951 556.619L513.731 551.012C514.428 551.514 515.174 551.945 515.956 552.298C523.042 555.513 527.53 549.919 528.405 548.646C532.404 542.911 533.909 529.832 529.832 524.791C529.562 524.418 528.366 523.826 523.582 524.855C522.695 525.048 521.692 525.267 520.56 525.588C519.681 525.887 518.771 526.081 517.847 526.167L517.718 522.81L517.397 519.454C517.705 519.454 518.181 519.261 518.811 519.081C521.025 518.432 523.287 517.964 525.576 517.679C529.099 517.306 532.79 517.679 535.053 520.521C541.715 528.739 538.988 545.354 533.883 552.53Z" fill="#455A64"/>
<path d="M513.706 551.012C514.403 551.514 515.148 551.945 515.931 552.298L514.13 558.844C512.651 558.265 511.24 557.523 509.925 556.632L513.706 551.012Z" fill="#263238"/>
<path d="M525.524 517.679L523.531 524.855C522.644 525.048 521.641 525.267 520.509 525.588C519.63 525.887 518.72 526.081 517.796 526.167L517.667 522.81L517.345 519.454C517.654 519.454 518.13 519.261 518.76 519.081C520.973 518.432 523.236 517.964 525.524 517.679Z" fill="#263238"/>
<path d="M444.172 508.909C444.172 508.909 447.747 539.207 453.907 551.977C460.067 564.747 468.657 566.123 474.007 566.123H493.451C498.788 566.123 507.391 564.695 513.551 551.977C519.711 539.258 523.273 508.909 523.273 508.909H444.172Z" fill="#455A64"/>
<path d="M510.362 517.563C510.362 518.258 510.568 518.937 510.954 519.514C511.34 520.091 511.888 520.541 512.529 520.807C513.171 521.073 513.877 521.142 514.558 521.007C515.239 520.871 515.865 520.537 516.355 520.046C516.846 519.555 517.181 518.929 517.316 518.248C517.452 517.567 517.382 516.862 517.117 516.22C516.851 515.578 516.401 515.03 515.823 514.644C515.246 514.259 514.567 514.053 513.873 514.053C513.412 514.053 512.955 514.144 512.529 514.32C512.104 514.496 511.717 514.755 511.391 515.081C511.065 515.407 510.806 515.794 510.629 516.22C510.453 516.646 510.362 517.102 510.362 517.563ZM482.88 513.32C483.575 513.32 484.254 513.526 484.831 513.911C485.408 514.297 485.858 514.845 486.124 515.487C486.39 516.128 486.459 516.834 486.324 517.515C486.188 518.196 485.854 518.822 485.363 519.313C484.872 519.804 484.246 520.138 483.565 520.274C482.884 520.409 482.178 520.34 481.537 520.074C480.895 519.808 480.347 519.358 479.961 518.781C479.576 518.204 479.37 517.525 479.37 516.83C479.37 515.899 479.74 515.006 480.398 514.348C481.056 513.69 481.949 513.32 482.88 513.32ZM482.88 557.417C483.575 557.417 484.254 557.623 484.831 558.008C485.408 558.394 485.858 558.942 486.124 559.584C486.39 560.225 486.459 560.931 486.324 561.612C486.188 562.293 485.854 562.919 485.363 563.41C484.872 563.901 484.246 564.235 483.565 564.371C482.884 564.506 482.178 564.437 481.537 564.171C480.895 563.905 480.347 563.455 479.961 562.878C479.576 562.301 479.37 561.622 479.37 560.927C479.37 559.996 479.74 559.103 480.398 558.445C481.056 557.787 481.949 557.417 482.88 557.417ZM457.418 537.548C458.112 537.548 458.791 537.754 459.368 538.14C459.945 538.525 460.395 539.074 460.661 539.715C460.927 540.357 460.996 541.063 460.861 541.744C460.725 542.425 460.391 543.05 459.9 543.541C459.409 544.032 458.784 544.367 458.103 544.502C457.421 544.637 456.716 544.568 456.074 544.302C455.433 544.037 454.884 543.587 454.499 543.009C454.113 542.432 453.907 541.753 453.907 541.059C453.907 540.128 454.277 539.235 454.935 538.576C455.594 537.918 456.486 537.548 457.418 537.548ZM496.396 547.9C497.091 547.9 497.769 548.106 498.347 548.492C498.924 548.878 499.374 549.426 499.64 550.067C499.906 550.709 499.975 551.415 499.84 552.096C499.704 552.777 499.37 553.403 498.879 553.893C498.388 554.384 497.762 554.719 497.081 554.854C496.4 554.99 495.694 554.92 495.053 554.655C494.411 554.389 493.863 553.939 493.477 553.361C493.091 552.784 492.885 552.105 492.885 551.411C492.885 550.48 493.255 549.587 493.914 548.929C494.572 548.27 495.465 547.9 496.396 547.9ZM455.244 513.32C455.939 513.32 456.617 513.526 457.195 513.911C457.772 514.297 458.222 514.845 458.488 515.487C458.754 516.128 458.823 516.834 458.688 517.515C458.552 518.196 458.218 518.822 457.727 519.313C457.236 519.804 456.61 520.138 455.929 520.274C455.248 520.409 454.542 520.34 453.901 520.074C453.259 519.808 452.711 519.358 452.325 518.781C451.939 518.204 451.733 517.525 451.733 516.83C451.733 515.899 452.103 515.006 452.762 514.348C453.42 513.69 454.313 513.32 455.244 513.32ZM483.343 536.982C484.038 536.982 484.717 537.188 485.294 537.574C485.871 537.96 486.321 538.508 486.587 539.149C486.853 539.791 486.922 540.497 486.787 541.178C486.651 541.859 486.317 542.484 485.826 542.975C485.335 543.466 484.709 543.801 484.028 543.936C483.347 544.072 482.641 544.002 482 543.736C481.358 543.471 480.81 543.021 480.424 542.443C480.038 541.866 479.833 541.187 479.833 540.493C479.833 539.568 480.197 538.681 480.847 538.024C481.497 537.367 482.38 536.992 483.305 536.982H483.343ZM509.964 537.535C510.658 537.535 511.337 537.741 511.914 538.127C512.491 538.513 512.941 539.061 513.207 539.702C513.473 540.344 513.542 541.05 513.407 541.731C513.271 542.412 512.937 543.037 512.446 543.528C511.955 544.019 511.33 544.354 510.648 544.489C509.967 544.625 509.262 544.555 508.62 544.289C507.979 544.024 507.43 543.574 507.044 542.996C506.659 542.419 506.453 541.74 506.453 541.046C506.456 540.124 506.822 539.24 507.472 538.585C508.122 537.931 509.003 537.558 509.925 537.548L509.964 537.535ZM468.902 525.781C469.596 525.781 470.275 525.987 470.852 526.373C471.429 526.758 471.879 527.307 472.145 527.948C472.411 528.59 472.48 529.296 472.345 529.977C472.209 530.658 471.875 531.283 471.384 531.774C470.893 532.265 470.268 532.6 469.587 532.735C468.905 532.871 468.2 532.801 467.558 532.535C466.917 532.27 466.368 531.82 465.982 531.242C465.597 530.665 465.391 529.986 465.391 529.292C465.391 528.367 465.755 527.48 466.405 526.823C467.055 526.166 467.939 525.791 468.863 525.781H468.902ZM469.853 548.479C470.548 548.476 471.228 548.68 471.807 549.064C472.386 549.449 472.838 549.996 473.106 550.637C473.374 551.279 473.445 551.985 473.311 552.667C473.177 553.349 472.844 553.975 472.353 554.468C471.863 554.96 471.237 555.296 470.556 555.432C469.874 555.569 469.168 555.5 468.526 555.234C467.883 554.969 467.334 554.519 466.948 553.942C466.562 553.364 466.355 552.685 466.355 551.99C466.355 551.067 466.718 550.182 467.365 549.525C468.013 548.868 468.892 548.492 469.815 548.479H469.853ZM498.145 525.781C498.84 525.778 499.52 525.982 500.099 526.366C500.678 526.751 501.13 527.298 501.398 527.939C501.666 528.581 501.737 529.287 501.603 529.969C501.469 530.651 501.136 531.277 500.645 531.77C500.155 532.262 499.529 532.598 498.848 532.734C498.166 532.871 497.46 532.802 496.818 532.537C496.175 532.271 495.626 531.821 495.24 531.244C494.854 530.666 494.647 529.987 494.647 529.292C494.647 528.372 495.008 527.488 495.653 526.832C496.297 526.175 497.174 525.798 498.094 525.781H498.145Z" fill="#37474F"/>
</g>
<defs>
<clipPath id="clip0_256_73">
<rect width="643" height="643" fill="white" transform="matrix(-1 0 0 1 643 0)"/>
</clipPath>
</defs>
</svg>
