<svg width="123" height="123" viewBox="0 0 123 123" fill="none" xmlns="http://www.w3.org/2000/svg">
<path d="M123 61.4934C123 72.5337 120.085 82.9013 114.98 91.8708C111.393 98.1758 106.71 103.795 101.196 108.451C95.353 113.397 88.5732 117.275 81.1602 119.782C74.9871 121.852 68.3788 122.987 61.5066 122.987C43.2907 122.987 26.9083 115.059 15.6569 102.476C14.9842 101.737 14.3379 100.972 13.7048 100.194C11.8845 97.9515 10.2225 95.5772 8.732 93.0975C3.19206 83.851 0 73.0481 0 61.4934C0 27.5282 27.5415 0 61.5066 0C95.4586 0 123 27.5282 123 61.4934Z" fill="#E8E1EF"/>
<path d="M45.5884 49.1713C45.5884 49.1713 31.517 59.7842 30.4697 72.6738C28.8842 92.181 51.0743 83.6469 53.5132 71.211C55.9521 58.7739 45.5884 49.1713 45.5884 49.1713Z" fill="black"/>
<path d="M44.3254 47.8427C44.3254 47.8427 39.2471 42.2316 40.71 33.5365C41.7019 27.6417 44.3254 25.7331 44.3254 25.7331C44.3254 25.7331 40.3301 17.6856 52.2251 18.1737C64.1202 18.6617 71.119 24.5011 71.119 24.5011C71.119 24.5011 76.556 21.8314 78.9949 28.1707C81.4338 34.5099 78.9949 43.8632 78.9949 43.8632L44.3254 47.8427Z" fill="black"/>
<path d="M101.191 108.454C95.3475 113.4 88.5677 117.278 81.1547 119.784C74.9816 121.855 68.3732 122.99 61.501 122.99C49.234 122.99 37.798 119.389 28.1954 113.189C27.6678 112.859 27.1534 112.517 26.6522 112.16C22.6027 109.39 18.9094 106.132 15.6514 102.479C14.9787 101.74 14.3324 100.975 13.6992 100.197L52.6239 71.9958C52.6503 71.9826 54.1276 70.901 54.1276 70.901L69.4152 72.1409L75.7598 72.6553L101.191 108.454Z" fill="#F7B369"/>
<path d="M54.1355 71.8877L15.6593 102.476C14.9866 101.737 14.3403 100.972 13.7071 100.194C11.8869 97.9518 10.2249 95.5775 8.73438 93.0978C9.92151 92.0293 11.1614 90.9609 12.4409 89.8925C30.0764 75.1853 47.514 72.4812 52.6319 71.9932C53.6211 71.9009 54.1355 71.8877 54.1355 71.8877Z" fill="#F7B369"/>
<path d="M70.4346 57.6442L70.1431 73.1614C70.1431 73.1614 67.4391 77.5392 58.9274 78.0061C52.5854 78.3544 50.6465 74.818 50.6465 74.818L52.4351 61.2874L67.8493 58.1692L70.4346 57.6442Z" fill="#F48462"/>
<path d="M114.979 91.8707C111.392 98.1757 106.709 103.795 101.196 108.451C95.3522 113.397 88.5724 117.275 81.1594 119.781L91.1049 107.66L69.42 72.1379L69.2617 71.8873C69.2617 71.8873 71.7547 71.9796 75.7646 72.6524C84.8923 74.1692 101.855 78.6672 114.979 91.8707Z" fill="#F7B369"/>
<path d="M70.4403 56.758C70.3941 57.1537 70.2306 57.618 69.9826 58.1482C66.5518 65.3198 55.0419 68.0516 51.3789 68.2877L52.4288 61.1385L70.4403 56.758Z" fill="black"/>
<path d="M50.006 27.9596C50.006 27.9596 41.9282 45.9736 44.6784 56.1645C47.4286 66.3554 56.7041 64.8438 62.2625 62.9325C67.8209 61.0212 70.426 57.6484 70.426 57.6484C70.426 57.6484 75.5847 59.4529 79.092 54.674C82.5993 49.8951 80.5219 44.3486 77.5791 43.0533C74.6363 41.758 71.1013 43.8579 71.1013 43.8579L73.9056 38.6266C73.9056 38.6266 62.5751 11.7975 50.006 27.9596Z" fill="#F48462"/>
<path d="M71.1281 43.857C71.1281 43.857 63.3484 45.4266 57.9443 36.7698C52.5402 28.1129 53.0362 24.5569 53.0362 24.5569L47.6519 33.4946C47.6519 33.4946 46.4476 27.2978 48.9261 23.3473C51.4045 19.3968 53.978 20.2159 53.978 20.2159L71.1307 24.5014L75.6471 38.2497L71.1281 43.857Z" fill="black"/>
<path d="M50.6321 51.0363C50.3498 51.0363 50.0887 50.8529 50.0016 50.5707C48.8039 46.6597 51.566 42.7 51.6821 42.5338C51.8931 42.2357 52.302 42.1684 52.6001 42.3768C52.8982 42.5865 52.9681 42.9994 52.7584 43.2962C52.7346 43.3305 50.2562 46.8998 51.2626 50.1842C51.3681 50.5324 51.1729 50.9017 50.8247 51.0086C50.7614 51.027 50.6954 51.0363 50.6321 51.0363Z" fill="black"/>
<path d="M71.8611 52.4276C71.6975 52.4276 71.5353 52.3669 71.4073 52.2456C71.1422 51.995 71.1317 51.5782 71.3823 51.3144L76.3102 46.12C76.5608 45.8536 76.979 45.8457 77.2414 46.0963C77.5066 46.3456 77.5171 46.7637 77.2652 47.0275L72.3372 52.2219C72.2106 52.3591 72.0352 52.4276 71.8611 52.4276Z" fill="black"/>
<path d="M77.0728 51.0464C77.0399 51.0464 77.0043 51.0438 76.9713 51.0385L73.5748 50.5149C73.2147 50.4595 72.968 50.1218 73.0234 49.763C73.0788 49.4029 73.4257 49.1615 73.7753 49.2117L77.1718 49.7353C77.5319 49.7907 77.7785 50.1284 77.7231 50.4872C77.673 50.813 77.3921 51.0464 77.0728 51.0464Z" fill="black"/>
<path d="M57.1514 56.2119C55.4379 56.2119 53.4937 55.0551 53.2127 54.8809C53.0109 54.7556 52.8909 54.5327 52.8988 54.2966C52.908 54.0592 53.0426 53.8442 53.2523 53.7347L58.7276 50.875C58.9004 50.784 59.1049 50.7735 59.2895 50.8513C59.4702 50.9278 59.6074 51.0808 59.6641 51.2681C59.7011 51.3934 60.5624 54.3335 58.7356 55.7317C58.2831 56.0799 57.7304 56.2119 57.1514 56.2119ZM54.9855 54.3164C56.0289 54.7794 57.3308 55.1461 57.9336 54.6857C58.5984 54.1752 58.6287 53.1702 58.5509 52.4553L54.9855 54.3164Z" fill="black"/>
<path d="M47.1538 36.2208C46.8399 36.2208 46.5616 35.9953 46.5062 35.6747C46.4429 35.316 46.6843 34.9743 47.0417 34.9123L50.2549 34.3544C50.6163 34.2792 50.9553 34.5311 51.0173 34.8899C51.0806 35.2487 50.8392 35.5903 50.4818 35.6523L47.2686 36.2103C47.2303 36.2182 47.1921 36.2208 47.1538 36.2208Z" fill="black"/>
<path d="M60.5093 38.3297C60.409 38.3297 60.3075 38.3059 60.2112 38.2585L54.9429 35.5914C54.6171 35.4265 54.4866 35.0295 54.6514 34.705C54.8163 34.3792 55.216 34.2512 55.5379 34.4135L60.8061 37.0819C61.1319 37.2468 61.2625 37.6438 61.0976 37.9683C60.9828 38.1978 60.7493 38.3297 60.5093 38.3297Z" fill="black"/>
<path d="M80.9418 49.1708C80.9418 49.1708 92.1602 58.896 90.5761 74.7456C88.9906 90.5951 73.2743 88.5611 69.9727 82.7771C64.9723 74.0148 70.4397 57.6482 70.4397 57.6482C70.4397 57.6482 80.0766 59.2614 80.9418 49.1708Z" fill="black"/>
<path d="M47.1547 43.6455C47.0901 43.6455 47.0255 43.6362 46.9622 43.6164C46.6126 43.5096 46.4187 43.1416 46.5256 42.7934L47.4251 39.8651L46.6456 38.9101C46.4147 38.6279 46.4556 38.2137 46.7379 37.9829C47.0189 37.752 47.4357 37.7929 47.6652 38.0752L48.669 39.3032C48.8088 39.4747 48.855 39.7042 48.789 39.9139L47.7852 43.1799C47.6995 43.4648 47.437 43.6455 47.1547 43.6455Z" fill="black"/>
<path d="M56.9877 44.5238C56.9231 44.5238 56.8584 44.5145 56.7938 44.4947C56.4443 44.3892 56.2504 44.0199 56.3572 43.6716L57.2529 40.7526L56.104 39.4112C55.8666 39.1342 55.8995 38.7187 56.1765 38.4812C56.4522 38.2451 56.8703 38.2768 57.1065 38.5538L58.4914 40.1709C58.6378 40.3424 58.6866 40.5785 58.6207 40.7935L57.6182 44.0594C57.5311 44.3404 57.2687 44.5238 56.9877 44.5238Z" fill="black"/>
<path d="M58.8362 78.3204C53.2223 78.3204 49.8971 75.2589 49.8483 75.2141C49.5844 74.9648 49.5726 74.5479 49.8232 74.2828C50.0725 74.019 50.4893 74.0072 50.7544 74.2538C51.0196 74.5031 57.3193 80.2356 67.5484 74.4939C67.8689 74.3132 68.2699 74.4279 68.4467 74.7445C68.626 75.0624 68.5126 75.4647 68.196 75.6428C64.636 77.6398 61.4821 78.3204 58.8362 78.3204Z" fill="white"/>
<path d="M33.7829 91.8078C33.3872 92.1375 25.064 99.5637 28.2033 113.189C27.6757 112.86 27.1613 112.517 26.6601 112.16C24.1935 98.5216 32.82 90.8844 32.9255 90.8053C33.2025 90.5678 33.6114 90.5943 33.8488 90.8712C34.0876 91.1482 34.0599 91.5703 33.7829 91.8078Z" fill="white"/>
</svg>
