<svg width="123" height="123" viewBox="0 0 123 123" fill="none" xmlns="http://www.w3.org/2000/svg">
<path d="M123 61.5C123 73.2407 119.702 84.2162 114.003 93.556C103.199 111.22 83.7281 123 61.5 123C42.9656 123 26.3439 114.795 15.0782 101.827C5.68564 91.0364 0 76.9212 0 61.5C0 27.5312 27.5312 0 61.5 0C95.4688 0 123 27.5312 123 61.5Z" fill="#E8E1EF"/>
<path d="M68.2695 45.3585C68.2695 45.3585 78.0262 40.7388 79.096 48.3913C80.336 57.2562 69.7022 57.7509 69.7022 57.7509L68.2695 45.3585Z" fill="#F48462"/>
<path d="M73.4883 53.2539C73.3841 53.2539 73.2773 53.2289 73.1796 53.1761C72.8578 53.0046 72.7364 52.6049 72.9079 52.283L75.9987 46.4813C76.1702 46.1607 76.5699 46.0367 76.8905 46.2095C77.2124 46.381 77.3337 46.7808 77.1622 47.1026L74.0714 52.9044C73.9527 53.1273 73.7245 53.2539 73.4883 53.2539Z" fill="black"/>
<path d="M74.439 51.465C74.0815 51.465 73.7874 51.1787 73.7795 50.8199C73.7715 50.4571 74.0604 50.1537 74.4245 50.1458L77.2568 50.0825C77.6816 50.0468 77.923 50.3634 77.9309 50.7275C77.9388 51.0903 77.6499 51.3937 77.2858 51.4016L74.4536 51.465C74.4496 51.465 74.4443 51.465 74.439 51.465Z" fill="black"/>
<path d="M114.001 93.5559C110.11 99.9143 105.097 105.508 99.2396 110.046C98.8571 110.362 98.4745 110.652 98.0787 110.929C87.8551 118.528 75.2042 123 61.498 123C53.2795 123 45.4304 121.39 38.2673 118.462C37.8583 118.29 37.4494 118.119 37.0405 117.934C28.545 114.254 21.052 108.713 15.0762 101.827C17.543 94.1627 22.147 86.8808 30.3522 82.2637C51.3008 70.4835 82.6708 70.4835 96.6277 77.1057C105.201 81.1688 110.862 88.4507 114.001 93.5559Z" fill="#A37B90"/>
<path d="M72.2581 36.5596C72.2581 36.5596 78.7062 26.1592 77.4042 21.7189C76.1022 17.2786 70.2952 21.6305 70.2952 21.6305C70.2952 21.6305 68.9747 12.0665 61.8511 13.9239C52.3689 16.396 42.9513 33.0942 42.9513 33.0942C42.9513 33.0942 38.1231 31.8818 36.4886 36.1151C34.5877 41.0422 36.2551 46.5709 39.3011 51.4888C42.3471 56.4067 50.5946 52.3502 50.5946 52.3502L72.2581 36.5596Z" fill="black"/>
<path d="M52.2363 66.6657L52.5806 78.0568C52.5806 78.0568 56.7994 80.2598 61.9626 80.1477C68.9345 79.996 71.1784 76.9289 71.1784 76.9289L70.5623 62.1515L52.2363 66.6657Z" fill="#F48462"/>
<path d="M52.2363 66.3995C52.2363 66.3995 56.6437 74.9609 64.5073 73.4716C70.8459 72.2711 70.5874 63.2941 70.5874 63.2941L52.2363 66.3995Z" fill="black"/>
<path d="M72.2715 36.56C72.2715 36.56 75.7594 56.3701 72.2293 64.1123C68.2691 72.7991 58.13 71.6369 54.4943 69.0593C49.5909 65.5832 47.4763 59.9622 47.4763 59.9622C47.4763 59.9622 40.982 61.5201 38.5916 56.2672C36.0826 50.7491 39.982 46.0673 43.2457 45.6729C46.5093 45.2784 46.9143 45.8602 46.9143 45.8602L45.7218 39.9094C45.7218 39.9094 64.7654 17.0177 72.2715 36.56Z" fill="#F48462"/>
<path d="M46.9025 45.8599C46.9025 45.8599 51.145 46.0103 55.9362 42.2005C61.5559 37.7311 60.6681 30.353 60.6681 30.353C60.6681 30.353 70.897 36.2181 73.4391 43.9484C75.9811 51.6788 75.9455 25.4457 64.6296 26.3955C53.3164 27.3453 38.2184 34.7353 46.9025 45.8599Z" fill="black"/>
<path d="M46.1394 54.6125C45.9956 54.6125 45.8518 54.5664 45.7304 54.4701L40.5118 50.3331C40.2268 50.1076 40.178 49.6933 40.4036 49.4071C40.6318 49.1208 41.046 49.0733 41.331 49.3002L46.5509 53.4372C46.8359 53.6627 46.8847 54.0769 46.6578 54.3632C46.5272 54.5281 46.3346 54.6125 46.1394 54.6125Z" fill="black"/>
<path d="M41.5113 55.5915C41.3187 55.5915 41.1287 55.5084 40.9995 55.3475C40.7699 55.0652 40.8121 54.6509 41.0944 54.4201L43.9887 52.0627C44.2723 51.8345 44.6879 51.8741 44.9174 52.1577C45.1469 52.44 45.1047 52.8542 44.8224 53.0851L41.9281 55.4424C41.8055 55.5427 41.6577 55.5915 41.5113 55.5915Z" fill="black"/>
<path d="M56.9637 48.8081C56.6286 48.8081 56.341 48.5536 56.308 48.2132L55.9954 45.0129C55.9598 44.6501 56.2249 44.3269 56.5877 44.2913C56.9584 44.2702 57.2737 44.5221 57.308 44.8836L57.6206 48.0839C57.6562 48.4467 57.3911 48.7699 57.0283 48.8055C57.0072 48.8068 56.9861 48.8081 56.9637 48.8081Z" fill="black"/>
<path d="M69.4324 48.3398C69.0973 48.3398 68.8098 48.0852 68.7768 47.7449L68.4641 44.5446C68.4285 44.1818 68.6937 43.8586 69.0564 43.823C69.4205 43.8045 69.7424 44.0552 69.7767 44.4153L70.0894 47.6156C70.125 47.9784 69.8598 48.3016 69.497 48.3372C69.4746 48.3385 69.4535 48.3398 69.4324 48.3398Z" fill="black"/>
<path d="M64.8577 56.2693C64.8234 56.2693 64.7891 56.2667 64.7548 56.2614C64.3947 56.2047 64.1493 55.867 64.2047 55.5068C64.9501 50.7697 63.2694 46.9361 63.251 46.8979C63.1019 46.5655 63.2523 46.175 63.5847 46.0272C63.9185 45.8742 64.3076 46.0286 64.4567 46.3597C64.5332 46.5298 66.3141 50.5929 65.5094 55.7139C65.4566 56.0371 65.177 56.2693 64.8577 56.2693Z" fill="black"/>
<path d="M70.5233 41.6438C70.3782 41.6438 70.2331 41.5963 70.1104 41.4987C69.0537 40.6492 67.1449 40.735 67.1251 40.7363C66.7663 40.789 66.4523 40.4764 66.4325 40.1123C66.414 39.7495 66.6924 39.4382 67.0552 39.4197C67.1554 39.4118 69.4838 39.3049 70.9362 40.4711C71.2198 40.6993 71.2646 41.1135 71.0377 41.3985C70.9072 41.5607 70.7159 41.6438 70.5233 41.6438Z" fill="black"/>
<path d="M55.9086 42.1305C55.712 42.1305 55.5168 42.0434 55.3862 41.8759C55.1632 41.587 55.216 41.1741 55.5023 40.9498C56.9758 39.8087 59.3028 39.9604 59.4017 39.9657C59.7645 39.9921 60.0376 40.3074 60.0125 40.6688C59.9875 41.0316 59.6814 41.3126 59.3094 41.2823C59.2896 41.2823 57.3834 41.1622 56.3109 41.9933C56.1922 42.0856 56.0497 42.1305 55.9086 42.1305Z" fill="black"/>
<path d="M45.3982 45.9509C45.3982 45.9509 47.683 51.75 48.4362 51.4809C49.1882 51.2118 47.5471 41.9894 45.3164 41.7005C43.0856 41.4116 45.3982 45.9509 45.3982 45.9509Z" fill="black"/>
<path d="M62.5017 61.2641C60.5849 61.2641 59.5507 60.0861 59.238 59.3197C59.1008 58.982 59.2644 58.5968 59.6008 58.4609C59.9332 58.3224 60.3171 58.4847 60.4569 58.8171C60.5348 58.9912 61.2511 60.4489 63.6784 59.7682C64.0266 59.6746 64.3934 59.8751 64.491 60.226C64.5886 60.5769 64.3841 60.9409 64.0332 61.0386C63.4726 61.1955 62.9621 61.2641 62.5017 61.2641Z" fill="black"/>
<path d="M39.7566 110.639L38.2659 118.462C37.857 118.291 37.448 118.119 37.0391 117.934L38.477 110.389C38.5429 110.033 38.8859 109.795 39.2553 109.861C39.6115 109.94 39.8357 110.27 39.7566 110.639Z" fill="#F7B369"/>
<path d="M71.0595 74.7141C71.0595 74.7141 77.8995 88.5259 76.2465 88.3175C74.5936 88.109 64.4491 80.6596 64.4491 80.6596C64.4491 80.6596 56.4365 89.6037 54.1108 89.7725C51.785 89.9414 52.4051 74.1759 52.4051 74.1759C52.4051 74.1759 54.1147 79.2877 62.8186 79.1993C71.7363 79.1096 71.0595 74.7141 71.0595 74.7141Z" fill="#F7B369"/>
</svg>
