<svg width="52" height="52" viewBox="0 0 52 52" fill="none" xmlns="http://www.w3.org/2000/svg">
<path d="M25.87 41.6C26.78 41.6 27.5492 41.2858 28.1775 40.6575C28.8058 40.0292 29.12 39.26 29.12 38.35C29.12 37.44 28.8058 36.6708 28.1775 36.0425C27.5492 35.4142 26.78 35.1 25.87 35.1C24.96 35.1 24.1908 35.4142 23.5625 36.0425C22.9342 36.6708 22.62 37.44 22.62 38.35C22.62 39.26 22.9342 40.0292 23.5625 40.6575C24.1908 41.2858 24.96 41.6 25.87 41.6ZM23.53 31.59H28.34C28.34 30.16 28.5025 29.0333 28.8275 28.21C29.1525 27.3867 30.0733 26.26 31.59 24.83C32.7167 23.7033 33.605 22.6308 34.255 21.6125C34.905 20.5942 35.23 19.37 35.23 17.94C35.23 15.5133 34.3417 13.65 32.565 12.35C30.7883 11.05 28.6867 10.4 26.26 10.4C23.79 10.4 21.7858 11.05 20.2475 12.35C18.7092 13.65 17.6367 15.21 17.03 17.03L21.32 18.72C21.5367 17.94 22.0242 17.095 22.7825 16.185C23.5408 15.275 24.7 14.82 26.26 14.82C27.6467 14.82 28.6867 15.1992 29.38 15.9575C30.0733 16.7158 30.42 17.55 30.42 18.46C30.42 19.3267 30.16 20.1392 29.64 20.8975C29.12 21.6558 28.47 22.36 27.69 23.01C25.7833 24.7 24.6133 25.9783 24.18 26.845C23.7467 27.7117 23.53 29.2933 23.53 31.59ZM26 52C22.4033 52 19.0233 51.3175 15.86 49.9525C12.6967 48.5875 9.945 46.735 7.605 44.395C5.265 42.055 3.4125 39.3033 2.0475 36.14C0.6825 32.9767 0 29.5967 0 26C0 22.4033 0.6825 19.0233 2.0475 15.86C3.4125 12.6967 5.265 9.945 7.605 7.605C9.945 5.265 12.6967 3.4125 15.86 2.0475C19.0233 0.6825 22.4033 0 26 0C29.5967 0 32.9767 0.6825 36.14 2.0475C39.3033 3.4125 42.055 5.265 44.395 7.605C46.735 9.945 48.5875 12.6967 49.9525 15.86C51.3175 19.0233 52 22.4033 52 26C52 29.5967 51.3175 32.9767 49.9525 36.14C48.5875 39.3033 46.735 42.055 44.395 44.395C42.055 46.735 39.3033 48.5875 36.14 49.9525C32.9767 51.3175 29.5967 52 26 52Z" fill="#25A6CE"/>
</svg>
