<svg width="415" height="466" viewBox="0 0 415 466" fill="none" xmlns="http://www.w3.org/2000/svg">
<g filter="url(#filter0_d_239_239)">
<path d="M47.23 345.93H20.75V357.12H47.23V345.93Z" fill="#EBEBEB"/>
<path d="M32.4605 360.04H5.98047V371.23H32.4605V360.04Z" fill="#EBEBEB"/>
<path d="M62.0005 360.04H35.5205V371.23H62.0005V360.04Z" fill="#EBEBEB"/>
<path d="M393.291 46.84H366.811V58.03H393.291V46.84Z" fill="#EBEBEB"/>
<path d="M408.06 60.95H381.58V72.14H408.06V60.95Z" fill="#EBEBEB"/>
<path d="M32.4605 46.86H5.98047V58.05H32.4605V46.86Z" fill="#EBEBEB"/>
<path d="M381.59 357.03H408.07V345.84H381.59V357.03Z" fill="#EBEBEB"/>
<path d="M318.361 228.1H344.841V216.91H318.361V228.1Z" fill="#EBEBEB"/>
<path d="M333.13 213.99H359.61V202.8H333.13V213.99Z" fill="#EBEBEB"/>
<path d="M50 0H49V110H50V0Z" fill="#C7C7C7"/>
<path d="M86.86 145.83L83.87 152.4H15.52L12.54 145.83L41.64 125.69H57.76L86.86 145.83Z" fill="#EBEBEB"/>
<path d="M59.7801 106.29L57.7601 125.69H41.6401L39.6201 106.29H59.7801Z" fill="#DBDBDB"/>
<path d="M86.85 145.84L83.86 152.41H15.51L12.54 145.84H86.85Z" fill="#DBDBDB"/>
<path d="M121 0H120V88H121V0Z" fill="#C7C7C7"/>
<path d="M157.98 124.64L154.99 131.21H86.6402L83.6602 124.64L112.76 104.5H128.88L157.98 124.64Z" fill="#EBEBEB"/>
<path d="M130.9 85.09L128.88 104.5H112.76L110.74 85.09H130.9Z" fill="#DBDBDB"/>
<path d="M157.98 124.64L154.99 131.21H86.6402L83.6602 124.64H157.98Z" fill="#DBDBDB"/>
<path d="M405.329 434.08C405.329 447.22 316.549 457.86 207.019 457.86C97.489 457.86 8.70898 447.22 8.70898 434.08C8.70898 420.94 97.489 410.3 207.019 410.3C316.549 410.3 405.329 420.94 405.329 434.08Z" fill="#EBEBEB"/>
<path d="M363.239 300.73C363.97 305.785 363.708 310.935 362.469 315.89C361.888 318.185 361.112 320.427 360.149 322.59C358.939 325.37 357.679 328.07 357.989 331.11C358.279 331.3 357.279 331.27 357.239 330.98C349.129 326.36 338.729 325.51 332.489 317.98C329.677 314.3 327.899 309.937 327.339 305.34C326.569 300.4 326.339 294.94 327.629 290.08C328.699 286 331.109 282 335.019 280C338.929 278 344.239 278.1 348.439 279.4C357.449 282.19 361.959 292 363.239 300.73Z" fill="#F6CF00"/>
<path d="M367.398 360.76C366.298 357.073 365.182 353.39 364.048 349.71C361.828 342.5 359.518 335.32 356.948 328.22C355.415 323.973 353.798 319.763 352.098 315.59C352.298 312.961 352.632 310.345 353.098 307.75C353.778 304.61 354.758 301.57 355.678 298.5C355.738 298.31 355.428 298.21 355.348 298.39C353.528 302.63 351.148 308.05 351.098 313.07C349.098 308.35 346.972 303.7 344.718 299.12C344.439 295.246 344.539 291.354 345.018 287.5C345.018 287.468 345.006 287.436 344.985 287.412C344.965 287.387 344.936 287.37 344.904 287.364C344.872 287.358 344.839 287.364 344.811 287.379C344.782 287.395 344.76 287.42 344.748 287.45C344.056 290.82 343.787 294.263 343.948 297.7C342.208 294.26 340.365 290.863 338.418 287.51C338.238 287.21 337.828 287.51 337.978 287.82C341.028 293.69 343.848 299.68 346.508 305.75C342.774 302.511 338.457 300.013 333.788 298.39C333.588 298.31 333.438 298.61 333.638 298.69C338.734 300.878 343.395 303.963 347.398 307.8C349.298 312.24 351.115 316.72 352.848 321.24C347.768 316.24 340.848 312.99 334.108 311.24C333.878 311.18 333.818 311.53 334.038 311.59C341.818 313.93 347.848 318.34 353.768 323.59C354.448 325.42 355.128 327.25 355.768 329.08C358.268 336.027 360.652 343.027 362.918 350.08C364.012 353.413 365.085 356.787 366.138 360.2C367.268 363.84 368.138 367.68 369.638 371.2C369.778 371.53 370.378 371.46 370.298 371.05C369.509 367.572 368.541 364.138 367.398 360.76Z" fill="#263238"/>
<path d="M353.948 293.63C352.511 295.844 351.519 298.317 351.028 300.91C351.028 300.98 351.118 301.02 351.148 300.91C352.051 298.466 353.107 296.081 354.308 293.77C354.438 293.57 354.088 293.42 353.948 293.63Z" fill="#263238"/>
<path d="M339.479 310.53C337.224 309.28 334.761 308.449 332.209 308.08C332.139 308.08 332.099 308.17 332.209 308.2C333.379 308.68 334.609 309.02 335.789 309.48C336.969 309.94 338.139 310.48 339.339 310.91C339.385 310.914 339.431 310.903 339.469 310.878C339.508 310.853 339.538 310.816 339.554 310.773C339.57 310.73 339.571 310.683 339.557 310.639C339.544 310.595 339.516 310.557 339.479 310.53Z" fill="#263238"/>
<path d="M335.409 290.21C334.677 289.652 333.894 289.166 333.069 288.76C333.041 288.75 333.011 288.75 332.984 288.759C332.956 288.768 332.933 288.786 332.916 288.81C332.9 288.834 332.893 288.863 332.895 288.892C332.897 288.921 332.909 288.949 332.929 288.97C333.65 289.538 334.424 290.037 335.239 290.46C335.389 290.55 335.559 290.3 335.409 290.21Z" fill="#263238"/>
<path d="M390.579 328.28C384.739 330.01 378.869 331.61 373.029 333.33C372.519 333.48 362.649 314.56 366.219 304.81C367.918 300.394 370.581 296.414 374.016 293.159C377.45 289.905 381.568 287.459 386.069 286C390.239 284.58 395.359 283.39 399.769 284.36C403.689 285.23 406.449 288.43 407.769 292.12C409.499 297.12 408.919 303.12 407.979 308.21C407.23 313.01 405.249 317.534 402.229 321.34C399.089 325 395.129 326.93 390.579 328.28Z" fill="#F6CF00"/>
<path d="M399.019 310.29C395.326 312.098 391.494 313.606 387.559 314.8C384.939 315.507 382.383 316.433 379.919 317.57C382.389 312.07 385.089 306.69 387.969 301.35C391.739 300.26 395.709 298.56 398.549 295.89C398.565 295.876 398.579 295.859 398.589 295.84C398.599 295.821 398.605 295.8 398.607 295.779C398.609 295.758 398.606 295.736 398.6 295.716C398.593 295.695 398.583 295.676 398.569 295.66C398.555 295.644 398.538 295.63 398.519 295.62C398.5 295.61 398.48 295.604 398.458 295.602C398.437 295.6 398.415 295.603 398.395 295.609C398.374 295.616 398.355 295.626 398.339 295.64C395.229 297.84 391.789 299.16 388.339 300.64C389.119 299.2 389.899 297.77 390.699 296.34C390.919 295.94 390.379 295.55 390.109 295.93C387.039 300.389 384.266 305.046 381.809 309.87C381.179 305.644 380.978 301.366 381.209 297.1C381.209 296.99 381.059 296.98 381.039 297.1C380.314 301.742 380.361 306.473 381.179 311.1C379.179 315.19 377.269 319.38 375.589 323.62C374.929 321.07 374.059 318.56 373.479 315.99C372.596 312.313 372.313 308.517 372.639 304.75C372.639 304.64 372.489 304.63 372.469 304.75C371.466 311.741 372.346 318.873 375.019 325.41C374.019 327.96 373.109 330.52 372.259 333.09C367.855 346.184 365.244 359.815 364.499 373.61C364.499 373.676 364.525 373.74 364.572 373.787C364.619 373.834 364.683 373.86 364.749 373.86C364.815 373.86 364.879 373.834 364.926 373.787C364.973 373.74 364.999 373.676 364.999 373.61C366.529 360.015 369.444 346.612 373.699 333.61C375.389 328.52 377.339 323.61 379.479 318.72C382.929 317.72 386.369 316.32 389.759 315.15C393.149 314.128 396.348 312.557 399.229 310.5C399.257 310.472 399.272 310.434 399.272 310.395C399.272 310.356 399.257 310.318 399.229 310.29C399.201 310.262 399.163 310.246 399.124 310.246C399.085 310.246 399.047 310.262 399.019 310.29Z" fill="#263238"/>
<path d="M404.488 304.8C400.918 306.07 397.488 307.85 393.968 309.14C393.798 309.2 393.898 309.46 394.058 309.43C397.838 308.65 401.578 307.48 404.628 305C404.738 304.91 404.618 304.75 404.488 304.8Z" fill="#263238"/>
<path d="M375.318 297.09C375.368 296.9 375.089 296.79 375.029 296.99C374.029 300.28 373.379 303.78 374.329 307.14C374.329 307.27 374.579 307.28 374.579 307.14C374.749 303.73 374.558 300.43 375.318 297.09Z" fill="#263238"/>
<path d="M390.079 289.49C388.941 291.127 388.395 293.101 388.529 295.09C388.529 295.21 388.739 295.28 388.769 295.14C389.209 293.25 389.939 291.54 390.519 289.71C390.535 289.654 390.531 289.594 390.508 289.54C390.484 289.486 390.443 289.443 390.39 289.416C390.338 289.39 390.278 289.383 390.221 289.397C390.164 289.41 390.114 289.443 390.079 289.49Z" fill="#263238"/>
<path d="M321.109 336.62C322.819 342.06 326.889 349.57 333.329 349.62C337.509 349.62 341.709 349.16 345.899 349.1C350.379 349.03 354.899 349.04 359.349 349.31C359.719 349.31 358.809 335.88 348.039 329.31C345.039 327.47 341.329 326.89 337.899 326.15C333.969 325.218 329.936 324.798 325.899 324.9C323.419 325 321.359 325.52 320.479 328.06C319.599 330.6 320.279 334 321.109 336.62Z" fill="#F6CF00"/>
<path d="M325.739 329.82C328.359 330.49 330.999 331.27 333.629 332.1C332.943 331.356 332.218 330.648 331.459 329.98C330.329 329.05 329.089 328.3 327.879 327.47C327.779 327.41 327.879 327.21 327.969 327.26C330.518 328.318 332.718 330.072 334.319 332.32C337.599 333.37 340.839 334.54 343.959 335.82C346.116 336.706 348.186 337.794 350.139 339.07C349.51 337.712 348.76 336.413 347.899 335.19C346.469 333.33 344.539 332.3 342.669 330.99C342.637 330.964 342.616 330.928 342.608 330.888C342.601 330.848 342.608 330.807 342.629 330.772C342.649 330.737 342.682 330.71 342.72 330.697C342.759 330.684 342.801 330.685 342.839 330.7C344.795 331.551 346.553 332.8 347.999 334.369C349.446 335.938 350.549 337.791 351.239 339.81C353.48 341.421 355.53 343.283 357.349 345.36C364.479 353.46 370.099 364.24 370.119 375.23C370.119 375.49 369.699 375.57 369.649 375.29C367.813 364.514 363.116 354.429 356.049 346.09C355.539 345.49 355.049 344.93 354.479 344.38C352.526 344.113 350.559 343.966 348.589 343.94C346.299 343.94 344.019 344.28 341.739 344.46C337.979 344.77 333.819 344.81 330.419 342.92C330.269 342.84 330.419 342.58 330.539 342.64C338.109 345.39 346.039 341.9 353.619 343.54C350.381 340.452 346.587 338.005 342.439 336.33L341.739 336.05C336.889 336.63 331.739 337.9 327.039 336.32C327.024 336.316 327.011 336.309 326.999 336.3C326.987 336.291 326.977 336.28 326.97 336.267C326.962 336.254 326.957 336.239 326.955 336.224C326.954 336.209 326.955 336.194 326.959 336.18C326.963 336.166 326.969 336.152 326.978 336.14C326.988 336.128 326.999 336.118 327.012 336.111C327.025 336.104 327.039 336.099 327.054 336.097C327.069 336.095 327.084 336.096 327.099 336.1C331.669 337.24 336.049 335.8 340.559 335.57C335.649 333.66 330.639 332.14 325.719 330.24C325.299 330.08 325.289 329.7 325.739 329.82Z" fill="#263238"/>
<path d="M323.599 334.6C325.944 334.905 328.304 335.085 330.669 335.14C330.719 335.14 330.739 335.22 330.669 335.23C328.292 335.672 325.842 335.517 323.539 334.78C323.429 334.75 323.489 334.58 323.599 334.6Z" fill="#263238"/>
<path d="M339.559 329.94C340.866 330.526 342.053 331.35 343.059 332.37C343.179 332.48 343.059 332.7 342.879 332.6C342.289 332.17 341.679 331.76 341.059 331.37C340.474 331.039 339.906 330.679 339.359 330.29C339.327 330.257 339.307 330.215 339.301 330.17C339.296 330.125 339.305 330.079 339.327 330.04C339.35 330.001 339.385 329.97 339.426 329.952C339.468 329.933 339.514 329.929 339.559 329.94Z" fill="#263238"/>
<path d="M377.609 347.44C377.529 347.61 377.789 347.78 377.889 347.59C377.908 347.619 377.933 347.643 377.963 347.662C377.992 347.681 378.025 347.694 378.059 347.7C382.394 348.735 386.789 349.503 391.219 350C394.779 350.32 398.889 350.51 402.009 348.45C406.239 345.64 409.009 338.15 406.729 333.39C404.029 327.74 395.879 330.81 391.789 332.82C385.502 335.891 380.486 341.062 377.609 347.44Z" fill="#F6CF00"/>
<path d="M374.449 350.05C376.822 347.746 379.46 345.732 382.309 344.05C384.366 340.801 387.094 338.029 390.309 335.92C390.469 335.81 390.599 336.06 390.459 336.17C387.911 338.21 385.65 340.585 383.739 343.23C386.911 341.497 390.207 339.999 393.599 338.75C394.812 336.503 396.654 334.658 398.899 333.44C398.899 333.44 398.999 333.44 398.959 333.51C397.105 334.91 395.488 336.598 394.169 338.51C396.169 337.77 398.169 337.07 400.219 336.4C400.399 336.34 400.469 336.62 400.299 336.68C396.699 338.09 393.019 339.57 389.449 341.28C393.801 341.975 398.236 341.975 402.589 341.28C402.709 341.28 402.759 341.43 402.589 341.46C398.049 342.804 393.227 342.876 388.649 341.67C386.376 342.775 384.169 344.01 382.039 345.37C383.831 345.223 385.635 345.372 387.379 345.81C390.457 346.526 393.608 346.882 396.769 346.87C396.889 346.87 396.919 347.07 396.769 347.09C391.319 348.02 386.169 345.55 380.769 346.19C378.764 347.555 376.883 349.095 375.149 350.79C371.779 354.154 369.006 358.066 366.949 362.36C364.669 366.99 363.439 371.89 361.599 376.67C361.587 376.714 361.558 376.751 361.519 376.773C361.479 376.796 361.432 376.802 361.389 376.79C361.345 376.778 361.308 376.749 361.285 376.71C361.263 376.67 361.257 376.624 361.269 376.58C362.889 367.16 367.579 356.77 374.449 350.05Z" fill="#263238"/>
<path d="M390.878 337.12C391.243 336.479 391.717 335.907 392.278 335.43C392.733 334.93 393.28 334.523 393.888 334.23C393.938 334.23 393.968 334.23 393.938 334.32C393.488 334.82 392.868 335.2 392.388 335.68C391.908 336.16 391.498 336.74 391.008 337.22C390.995 337.237 390.976 337.248 390.954 337.251C390.932 337.254 390.911 337.248 390.893 337.235C390.876 337.222 390.865 337.202 390.862 337.181C390.859 337.159 390.865 337.137 390.878 337.12Z" fill="#263238"/>
<path d="M399.869 340.05C400.679 339.85 401.529 339.86 402.349 339.69C403.165 339.496 403.97 339.255 404.759 338.97C404.781 338.964 404.806 338.967 404.827 338.977C404.848 338.987 404.865 339.005 404.874 339.026C404.884 339.048 404.885 339.072 404.879 339.095C404.872 339.117 404.858 339.137 404.839 339.15C403.343 340.072 401.586 340.476 399.839 340.3C399.739 340.28 399.749 340.08 399.869 340.05Z" fill="#263238"/>
<path d="M351.999 364.97L352.709 373.09L355.139 400.51H376.619L379.649 373.09L380.539 364.97H351.999Z" fill="#455A64"/>
<path d="M351.999 364.97L352.709 373.09H379.649L380.539 364.97H351.999Z" fill="#263238"/>
<path d="M349.879 369.34H382.679V362.75H349.879V369.34Z" fill="#455A64"/>
<path d="M4 400.44L54.76 400.2L105.51 400.11L207.02 399.95L308.53 400.11L359.28 400.2L410.03 400.44L359.28 400.69L308.53 400.78L207.02 400.94L105.51 400.78L54.76 400.69L4 400.44Z" fill="#263238"/>
<path d="M342.385 77.8005V401.86C342.385 411.02 335.525 418.43 327.065 418.43H175.825C167.345 418.43 160.485 411.02 160.485 401.86V77.8005C160.485 59.1405 167.345 58.2305 175.825 58.2305H206.155C207.915 58.2305 209.355 60.2305 209.355 62.7105V63.7805C209.355 69.5905 212.535 69.6105 216.435 69.6105H286.495C290.435 69.6105 293.595 69.6105 293.595 63.7805V62.7105C293.595 60.2305 295.015 58.2305 296.805 58.2305H327.095C335.525 58.2305 342.385 60.7105 342.385 77.8005Z" fill="white"/>
<path d="M342.386 77.8005L342.636 346.4V379.97V400.97C342.662 402.39 342.558 403.81 342.326 405.21C341.805 408.023 340.607 410.665 338.836 412.91C337.941 414.034 336.91 415.042 335.766 415.91C334.601 416.738 333.334 417.411 331.996 417.91C330.649 418.402 329.237 418.688 327.806 418.76C326.376 418.85 324.996 418.76 323.596 418.81H306.856H273.276L206.136 418.88H176.756C175.319 418.923 173.882 418.795 172.476 418.5C169.649 417.839 167.07 416.381 165.046 414.3C163.011 412.247 161.522 409.717 160.716 406.94C160.325 405.555 160.097 404.129 160.036 402.69C159.956 401.25 160.036 399.88 160.036 398.47V390.08L160.286 121.48V87.9105V79.5005C160.242 76.6954 160.369 73.8902 160.666 71.1005L160.986 69.0105L161.466 66.9505C161.666 66.2805 161.916 65.6105 162.146 64.9505C162.444 64.3029 162.778 63.6719 163.146 63.0605C163.883 61.8341 164.876 60.7804 166.056 59.9705C167.283 59.2185 168.639 58.6998 170.056 58.4405C172.841 58.0582 175.656 57.9243 178.466 58.0405H205.656C206.018 58.0133 206.382 58.0403 206.736 58.1205C207.097 58.2134 207.437 58.3765 207.736 58.6005C208.29 59.0858 208.732 59.6861 209.031 60.3596C209.33 61.0332 209.478 61.7638 209.466 62.5005C209.38 63.8846 209.505 65.2737 209.836 66.6205C210.007 67.2708 210.353 67.862 210.836 68.3305C211.342 68.7796 211.955 69.0927 212.616 69.2405C213.984 69.4865 215.376 69.5771 216.766 69.5105H229.356H262.926H279.716C282.516 69.5105 285.316 69.5105 288.106 69.5105C289.496 69.5886 290.872 69.19 292.006 68.3805C292.539 67.9235 292.937 67.3285 293.156 66.6605C293.358 66.0117 293.476 65.3395 293.506 64.6605C293.506 63.9705 293.506 63.2705 293.506 62.5705C293.523 61.8602 293.669 61.1589 293.936 60.5005C294.194 59.8356 294.621 59.2496 295.176 58.8005C295.455 58.5792 295.774 58.4129 296.116 58.3105C296.463 58.2343 296.82 58.2074 297.176 58.2305H305.566H322.356H326.556C327.956 58.2121 329.356 58.2889 330.746 58.4605C333.551 58.6858 336.182 59.9141 338.156 61.9205C339.99 64.0817 341.2 66.7024 341.656 69.5005C342.151 72.2392 342.395 75.0174 342.386 77.8005ZM342.386 77.8005C342.391 75.0001 342.14 72.205 341.636 69.4505C341.173 66.6795 339.971 64.0848 338.156 61.9405C336.176 59.9393 333.542 58.7181 330.736 58.5005C329.349 58.3355 327.952 58.2654 326.556 58.2905H322.356H305.566H297.156C296.82 58.2775 296.484 58.3077 296.156 58.3805C295.827 58.4823 295.519 58.6414 295.246 58.8505C294.71 59.2875 294.296 59.856 294.046 60.5005C293.466 61.7905 293.686 63.2205 293.596 64.6205C293.565 65.3264 293.444 66.0254 293.236 66.7005C293.042 67.3859 292.669 68.0073 292.156 68.5005C290.997 69.3404 289.584 69.7537 288.156 69.6705C285.346 69.6705 282.556 69.6705 279.756 69.6705H262.956H229.386H216.796C215.386 69.7321 213.974 69.6382 212.586 69.3905C211.871 69.2251 211.211 68.881 210.666 68.3905C210.136 67.8926 209.752 67.26 209.556 66.5605C209.233 65.2325 209.098 63.8659 209.156 62.5005C209.157 61.8212 209.013 61.1496 208.733 60.5305C208.454 59.9113 208.046 59.359 207.536 58.9105C207.265 58.7178 206.964 58.5724 206.646 58.4805C206.316 58.416 205.981 58.3925 205.646 58.4105H178.376C175.589 58.3057 172.798 58.4429 170.036 58.8205C168.684 59.0822 167.391 59.5835 166.216 60.3005C165.082 61.0895 164.13 62.1125 163.426 63.3005C163.066 63.8805 162.806 64.5305 162.496 65.1405C162.186 65.7505 162.036 66.4505 161.846 67.1405L161.366 69.1405L161.066 71.2005C160.767 73.9733 160.644 76.7621 160.696 79.5505V87.9505V121.52L160.946 390.12V398.5C160.946 399.891 160.946 401.32 160.946 402.68C161.005 404.034 161.22 405.376 161.586 406.68C162.332 409.319 163.732 411.726 165.656 413.68C167.558 415.656 169.987 417.045 172.656 417.68C173.99 417.961 175.352 418.085 176.716 418.05H206.156L273.296 418.12H306.876H323.666C325.056 418.12 326.476 418.12 327.836 418.12C329.202 418.051 330.55 417.778 331.836 417.31C333.123 416.841 334.341 416.198 335.456 415.4C336.553 414.576 337.544 413.619 338.406 412.55C340.121 410.389 341.285 407.842 341.796 405.13C342.016 403.765 342.117 402.383 342.096 401V396.81V380.02V346.451L342.386 77.8005Z" fill="#263238"/>
<path d="M342.385 77.8005V116.65H160.485V77.8005C160.485 59.1405 167.345 58.2305 175.825 58.2305H206.155C207.915 58.2305 209.355 60.2305 209.355 62.7105V63.7805C209.355 69.5905 212.535 69.6105 216.435 69.6105H286.495C290.435 69.6105 293.595 69.6105 293.595 63.7805V62.7105C293.595 60.2305 295.015 58.2305 296.805 58.2305H327.095C335.525 58.2305 342.385 60.7105 342.385 77.8005Z" fill="#F6CF00"/>
<path d="M172.346 66.3905C172.346 66.1512 172.417 65.9172 172.55 65.7182C172.683 65.5193 172.872 65.3642 173.093 65.2726C173.314 65.181 173.557 65.157 173.792 65.2037C174.026 65.2504 174.242 65.3657 174.411 65.5349C174.581 65.7041 174.696 65.9197 174.742 66.1544C174.789 66.3891 174.765 66.6324 174.674 66.8535C174.582 67.0746 174.427 67.2636 174.228 67.3966C174.029 67.5295 173.795 67.6005 173.556 67.6005C173.235 67.6005 172.927 67.473 172.7 67.2461C172.473 67.0192 172.346 66.7114 172.346 66.3905Z" fill="white"/>
<path d="M176.155 66.3905C176.155 66.1507 176.227 65.9164 176.36 65.7172C176.493 65.518 176.683 65.3629 176.905 65.2717C177.126 65.1804 177.37 65.157 177.605 65.2045C177.84 65.252 178.056 65.3683 178.224 65.5385C178.393 65.7087 178.508 65.9252 178.553 66.1606C178.599 66.396 178.573 66.6396 178.48 66.8605C178.387 67.0814 178.231 67.2697 178.03 67.4014C177.83 67.5332 177.595 67.6025 177.355 67.6005C177.197 67.6005 177.04 67.5691 176.894 67.5082C176.748 67.4473 176.615 67.358 176.503 67.2455C176.392 67.133 176.303 66.9995 176.244 66.8528C176.184 66.706 176.154 66.5489 176.155 66.3905Z" fill="white"/>
<path d="M179.945 66.3905C179.945 66.1512 180.016 65.9172 180.149 65.7182C180.282 65.5193 180.471 65.3642 180.692 65.2726C180.913 65.181 181.157 65.157 181.391 65.2037C181.626 65.2504 181.842 65.3657 182.011 65.5349C182.18 65.7041 182.295 65.9197 182.342 66.1544C182.389 66.3891 182.365 66.6324 182.273 66.8535C182.182 67.0746 182.027 67.2636 181.828 67.3966C181.629 67.5295 181.395 67.6005 181.155 67.6005C180.996 67.6018 180.838 67.5714 180.691 67.5111C180.543 67.4508 180.409 67.3617 180.297 67.2491C180.184 67.1364 180.095 67.0025 180.035 66.8551C179.974 66.7077 179.944 66.5498 179.945 66.3905Z" fill="white"/>
<path d="M183.735 66.3905C183.735 66.1512 183.806 65.9172 183.939 65.7182C184.072 65.5193 184.261 65.3642 184.482 65.2726C184.703 65.181 184.947 65.157 185.181 65.2037C185.416 65.2504 185.632 65.3657 185.801 65.5349C185.97 65.7041 186.085 65.9197 186.132 66.1544C186.179 66.3891 186.155 66.6324 186.063 66.8535C185.972 67.0746 185.817 67.2636 185.618 67.3966C185.419 67.5295 185.185 67.6005 184.945 67.6005C184.786 67.6005 184.629 67.5692 184.482 67.5084C184.335 67.4476 184.202 67.3584 184.09 67.2461C183.977 67.1337 183.888 67.0003 183.827 66.8535C183.767 66.7067 183.735 66.5494 183.735 66.3905Z" fill="white"/>
<path d="M187.535 66.3905C187.535 66.1512 187.606 65.9172 187.739 65.7182C187.872 65.5193 188.061 65.3642 188.282 65.2726C188.503 65.181 188.746 65.157 188.981 65.2037C189.216 65.2504 189.432 65.3657 189.601 65.5349C189.77 65.7041 189.885 65.9197 189.932 66.1544C189.979 66.3891 189.955 66.6324 189.863 66.8535C189.771 67.0746 189.616 67.2636 189.417 67.3966C189.218 67.5295 188.984 67.6005 188.745 67.6005C188.424 67.6005 188.116 67.473 187.89 67.2461C187.663 67.0192 187.535 66.7114 187.535 66.3905Z" fill="white"/>
<path d="M177.065 105.97L171.695 100.94L177.065 95.9105L177.895 96.7905L173.475 100.94L177.895 105.09L177.065 105.97Z" fill="white"/>
<path d="M185.865 274.501V270.37C185.864 270.319 185.873 270.268 185.892 270.22C185.911 270.172 185.94 270.128 185.977 270.092C186.013 270.055 186.057 270.027 186.105 270.007C186.152 269.988 186.204 269.979 186.255 269.981H188.545C188.647 269.983 188.744 270.025 188.815 270.098C188.886 270.171 188.925 270.269 188.925 270.37C188.923 270.471 188.882 270.568 188.812 270.64C188.741 270.712 188.646 270.755 188.545 270.761H186.645V272.041H188.275C188.327 272.041 188.377 272.051 188.425 272.07C188.472 272.09 188.515 272.119 188.551 272.155C188.587 272.191 188.616 272.234 188.636 272.281C188.655 272.329 188.665 272.379 188.665 272.43C188.665 272.482 188.655 272.532 188.636 272.58C188.616 272.627 188.587 272.67 188.551 272.706C188.515 272.742 188.472 272.771 188.425 272.791C188.377 272.81 188.327 272.821 188.275 272.821H186.645V274.11H188.545C188.637 274.125 188.72 274.172 188.78 274.243C188.84 274.313 188.873 274.403 188.873 274.495C188.873 274.588 188.84 274.678 188.78 274.748C188.72 274.819 188.637 274.866 188.545 274.881H186.255C186.205 274.882 186.154 274.873 186.107 274.855C186.06 274.836 186.017 274.808 185.98 274.773C185.944 274.737 185.915 274.695 185.895 274.648C185.875 274.601 185.865 274.551 185.865 274.501Z" fill="#263238"/>
<path d="M192.876 272.87V274.55C192.876 274.6 192.866 274.649 192.847 274.694C192.827 274.74 192.799 274.781 192.764 274.816C192.728 274.85 192.686 274.877 192.64 274.895C192.594 274.913 192.545 274.922 192.496 274.92C192.398 274.918 192.306 274.878 192.237 274.809C192.168 274.74 192.128 274.648 192.126 274.55V272.87C192.118 272.682 192.038 272.504 191.902 272.374C191.766 272.243 191.584 272.17 191.396 272.17C191.302 272.172 191.21 272.191 191.125 272.228C191.039 272.265 190.962 272.319 190.897 272.385C190.832 272.452 190.78 272.531 190.746 272.618C190.711 272.705 190.694 272.797 190.696 272.89V274.55C190.697 274.567 190.697 274.584 190.696 274.6V274.65C190.664 274.716 190.614 274.772 190.552 274.811C190.49 274.85 190.419 274.87 190.346 274.87H190.276C190.191 274.852 190.115 274.806 190.061 274.738C190.006 274.671 189.976 274.587 189.976 274.5V272.84V271.8C189.974 271.751 189.983 271.702 190.001 271.656C190.019 271.61 190.046 271.568 190.08 271.532C190.115 271.497 190.156 271.469 190.202 271.45C190.247 271.43 190.296 271.42 190.346 271.42C190.416 271.417 190.485 271.436 190.544 271.473C190.603 271.511 190.649 271.566 190.676 271.63C190.904 271.497 191.162 271.425 191.426 271.42C191.634 271.416 191.84 271.457 192.031 271.542C192.221 271.627 192.39 271.753 192.526 271.91C192.662 271.753 192.831 271.628 193.021 271.543C193.211 271.458 193.418 271.417 193.626 271.42C193.818 271.42 194.009 271.459 194.187 271.533C194.365 271.607 194.526 271.715 194.662 271.852C194.797 271.988 194.905 272.15 194.977 272.329C195.05 272.507 195.087 272.698 195.086 272.89V274.55C195.086 274.599 195.076 274.647 195.058 274.692C195.039 274.737 195.012 274.778 194.977 274.812C194.943 274.846 194.902 274.874 194.857 274.892C194.812 274.911 194.764 274.92 194.716 274.92C194.617 274.921 194.521 274.882 194.45 274.813C194.379 274.744 194.338 274.65 194.336 274.55V272.89C194.315 272.715 194.231 272.554 194.099 272.437C193.967 272.32 193.797 272.255 193.621 272.255C193.444 272.255 193.274 272.32 193.142 272.437C193.011 272.554 192.926 272.715 192.906 272.89L192.876 272.87Z" fill="#263238"/>
<path d="M199.566 273.18V274.55C199.566 274.649 199.527 274.743 199.457 274.812C199.388 274.881 199.294 274.921 199.196 274.921C199.109 274.92 199.025 274.89 198.958 274.836C198.891 274.781 198.844 274.705 198.826 274.62C198.507 274.848 198.116 274.952 197.726 274.913C197.337 274.874 196.974 274.696 196.706 274.41C196.394 274.077 196.222 273.637 196.226 273.18C196.221 272.724 196.393 272.283 196.706 271.951C196.857 271.785 197.04 271.652 197.245 271.561C197.45 271.469 197.671 271.422 197.896 271.421C198.23 271.424 198.556 271.532 198.826 271.73C198.844 271.645 198.89 271.568 198.957 271.511C199.024 271.455 199.108 271.423 199.196 271.421C199.295 271.423 199.389 271.464 199.458 271.535C199.527 271.606 199.566 271.701 199.566 271.8V273.18ZM198.816 273.18C198.82 273.049 198.799 272.917 198.753 272.793C198.706 272.67 198.636 272.557 198.546 272.46C198.464 272.369 198.364 272.295 198.252 272.245C198.14 272.195 198.018 272.17 197.896 272.171C197.773 272.168 197.651 272.193 197.538 272.243C197.426 272.293 197.326 272.368 197.246 272.46C197.155 272.557 197.085 272.67 197.039 272.793C196.992 272.917 196.971 273.049 196.976 273.18C196.971 273.312 196.992 273.444 197.039 273.567C197.085 273.691 197.155 273.804 197.246 273.9C197.328 273.99 197.429 274.061 197.541 274.11C197.653 274.158 197.774 274.182 197.896 274.18C198.017 274.181 198.138 274.157 198.25 274.109C198.362 274.061 198.463 273.99 198.546 273.9C198.636 273.804 198.706 273.691 198.753 273.567C198.799 273.444 198.82 273.312 198.816 273.18Z" fill="#263238"/>
<path d="M201.696 270.55C201.697 270.601 201.688 270.651 201.67 270.697C201.651 270.744 201.623 270.787 201.587 270.822C201.552 270.858 201.509 270.886 201.463 270.904C201.416 270.923 201.366 270.932 201.316 270.93C201.215 270.93 201.118 270.89 201.047 270.819C200.976 270.748 200.936 270.651 200.936 270.55V270.4C200.936 270.3 200.976 270.203 201.047 270.132C201.118 270.06 201.215 270.02 201.316 270.02C201.366 270.019 201.416 270.028 201.463 270.047C201.509 270.065 201.552 270.093 201.587 270.129C201.623 270.164 201.651 270.207 201.67 270.253C201.688 270.3 201.697 270.35 201.696 270.4V270.55ZM201.696 271.81V274.55C201.696 274.6 201.686 274.649 201.667 274.694C201.647 274.74 201.619 274.781 201.584 274.816C201.548 274.85 201.506 274.877 201.46 274.895C201.414 274.913 201.365 274.922 201.316 274.92C201.266 274.922 201.217 274.913 201.171 274.895C201.125 274.877 201.083 274.85 201.048 274.816C201.012 274.781 200.984 274.74 200.965 274.694C200.946 274.649 200.936 274.6 200.936 274.55V271.81C200.934 271.76 200.943 271.71 200.962 271.663C200.98 271.617 201.008 271.574 201.044 271.539C201.079 271.503 201.122 271.475 201.169 271.457C201.215 271.438 201.265 271.429 201.316 271.43C201.366 271.429 201.416 271.438 201.463 271.457C201.509 271.475 201.552 271.503 201.587 271.539C201.623 271.574 201.651 271.617 201.67 271.663C201.688 271.71 201.697 271.76 201.696 271.81Z" fill="#263238"/>
<path d="M203.155 270.02C203.259 270.02 203.358 270.062 203.431 270.135C203.504 270.208 203.545 270.307 203.545 270.41V274.5C203.531 274.592 203.484 274.675 203.413 274.735C203.343 274.795 203.253 274.828 203.16 274.828C203.068 274.828 202.978 274.795 202.908 274.735C202.837 274.675 202.79 274.592 202.775 274.5V270.37C202.785 270.276 202.829 270.188 202.899 270.124C202.969 270.059 203.06 270.022 203.155 270.02Z" fill="#263238"/>
<path d="M317.726 279.91H185.146V291.65H317.726V279.91Z" fill="#EBEBEB"/>
<path d="M191.146 242.04L206.215 241.92L221.286 241.88L251.436 241.79L281.576 241.88L296.645 241.92L311.715 242.04L296.645 242.16L281.576 242.21L251.436 242.29L221.286 242.21L206.215 242.16L191.146 242.04Z" fill="#263238"/>
<path d="M202.275 248.72L214.565 248.6L226.855 248.56L251.435 248.47L276.015 248.56L288.295 248.6L300.585 248.72L288.295 248.84L276.015 248.89L251.435 248.97L226.855 248.89L214.565 248.84L202.275 248.72Z" fill="#263238"/>
<path d="M185.146 313.84L201.715 313.71L218.286 313.671L251.436 313.59L284.576 313.671L301.156 313.71L317.726 313.84L301.156 313.96L284.576 314L251.436 314.08L218.286 314L201.715 313.96L185.146 313.84Z" fill="#EBEBEB"/>
<path d="M303.306 331.21H199.556V347.32H303.306V331.21Z" fill="#F6CF00"/>
<path d="M278.556 188.39C291.352 188.39 301.726 178.017 301.726 165.22C301.726 152.424 291.352 142.05 278.556 142.05C265.759 142.05 255.386 152.424 255.386 165.22C255.386 178.017 265.759 188.39 278.556 188.39Z" fill="#455A64"/>
<path d="M216.966 214.47C225.708 214.47 232.796 207.383 232.796 198.64C232.796 189.898 225.708 182.81 216.966 182.81C208.223 182.81 201.136 189.898 201.136 198.64C201.136 207.383 208.223 214.47 216.966 214.47Z" fill="#EBEBEB"/>
<path d="M264.426 160.9V177.5H259.726V160.9C259.726 154.58 254.926 149.44 249.026 149.44C243.126 149.44 238.326 154.58 238.326 160.9V177.5H233.626V160.9C233.626 151.85 240.536 144.49 249.026 144.49C257.516 144.49 264.426 151.85 264.426 160.9Z" fill="#C7C7C7"/>
<path d="M233.626 165.22L238.326 165.41V177.52H233.626V165.22Z" fill="#A6A6A6"/>
<path d="M264.426 166.48V177.52H259.726V166.28L264.426 166.48Z" fill="#A6A6A6"/>
<path d="M270.445 168.06H227.605V206.92H270.445V168.06Z" fill="#F6CF00"/>
<path opacity="0.1" d="M270.445 168.06H249.025V206.92H270.445V168.06Z" fill="black"/>
<path d="M250.836 188.91L252.636 197.42H245.016L246.816 188.91C246.11 188.475 245.566 187.822 245.265 187.049C244.964 186.276 244.924 185.426 245.15 184.628C245.377 183.83 245.857 183.128 246.518 182.628C247.18 182.128 247.987 181.858 248.816 181.858C249.645 181.858 250.452 182.128 251.113 182.628C251.775 183.128 252.255 183.83 252.481 184.628C252.708 185.426 252.667 186.276 252.367 187.049C252.066 187.822 251.522 188.475 250.816 188.91H250.836Z" fill="#263238"/>
<path d="M239.845 384.91C239.843 385.41 239.693 385.899 239.414 386.313C239.135 386.728 238.739 387.051 238.276 387.241C237.814 387.431 237.306 387.479 236.815 387.381C236.325 387.282 235.875 387.04 235.523 386.686C235.17 386.332 234.93 385.881 234.833 385.39C234.736 384.9 234.787 384.392 234.979 383.93C235.17 383.468 235.495 383.074 235.911 382.796C236.326 382.519 236.815 382.37 237.315 382.37C237.648 382.37 237.978 382.436 238.286 382.564C238.593 382.692 238.873 382.879 239.108 383.115C239.343 383.351 239.529 383.631 239.655 383.939C239.782 384.247 239.846 384.577 239.845 384.91Z" fill="#DBDBDB"/>
<path d="M255.265 384.91C255.263 385.668 255.037 386.407 254.615 387.036C254.193 387.664 253.594 388.153 252.894 388.442C252.194 388.73 251.424 388.805 250.682 388.656C249.94 388.507 249.258 388.141 248.724 387.605C248.189 387.069 247.825 386.387 247.678 385.644C247.531 384.901 247.608 384.132 247.898 383.433C248.188 382.733 248.679 382.136 249.309 381.715C249.938 381.295 250.678 381.07 251.435 381.07C252.452 381.073 253.426 381.479 254.144 382.199C254.862 382.919 255.265 383.894 255.265 384.91Z" fill="#C7C7C7"/>
<path d="M268.086 384.91C268.086 385.413 267.937 385.904 267.658 386.322C267.379 386.739 266.982 387.065 266.518 387.257C266.054 387.449 265.543 387.5 265.05 387.402C264.558 387.304 264.105 387.062 263.75 386.707C263.395 386.351 263.153 385.899 263.055 385.406C262.957 384.913 263.007 384.403 263.199 383.938C263.391 383.474 263.717 383.078 264.135 382.799C264.552 382.519 265.044 382.37 265.546 382.37C266.22 382.37 266.866 382.638 267.342 383.114C267.818 383.591 268.086 384.237 268.086 384.91Z" fill="#DBDBDB"/>
<path d="M106.499 332.51L108.869 346.74L124.949 433.56H127.539L115.849 346.74L114.119 332.51H106.499Z" fill="#DBDBDB"/>
<path d="M114.119 332.51H106.499L108.869 346.74H115.849L114.119 332.51Z" fill="#A6A6A6"/>
<path d="M56.0088 433.56H58.5988L74.6788 346.74L77.0488 332.51H69.4288L67.6988 346.74L56.0088 433.56Z" fill="#DBDBDB"/>
<path d="M69.4292 332.51L67.6992 346.74H74.6792L77.0492 332.51H69.4292Z" fill="#A6A6A6"/>
<path d="M7.78906 433.56H10.3791L26.4591 346.74L28.8291 332.51H21.2091L19.4791 346.74L7.78906 433.56Z" fill="#DBDBDB"/>
<path d="M19.4795 346.74H26.4595L28.8295 332.51H21.2095L19.4795 346.74Z" fill="#A6A6A6"/>
<path d="M11.8994 339.19H129.699V326.78H85.5994L70.7794 262.14H16.3894L11.8994 339.19Z" fill="#DBDBDB"/>
<path d="M11.8994 339.19H18.3194L22.5094 262.14H16.3894L11.8994 339.19Z" fill="#A6A6A6"/>
<path d="M128.799 444.55C126.579 444.83 65.9293 430.68 63.9593 428.77C63.7193 428.56 65.8493 416.82 65.8493 416.82C66.8493 412.03 83.3293 373 83.3293 373L123.019 382.78L106.179 419C106.179 419 113.739 424.12 120.239 429C123.109 431.027 125.854 433.224 128.459 435.58C130.389 437.94 131.019 444.29 128.799 444.55Z" fill="#C95F50"/>
<path d="M63.9494 428.77C65.9494 430.68 126.579 444.83 128.799 444.55C131.019 444.27 130.389 437.94 128.469 435.63C125.863 433.278 123.118 431.084 120.249 429.06C113.759 424.18 106.199 419.06 106.199 419.06L109.919 411L71.4994 401.64C68.5894 408.89 66.1994 415.13 65.8494 416.87C65.8494 416.83 63.7094 428.56 63.9494 428.77Z" fill="#EBEBEB"/>
<path d="M129.019 444.72C126.729 444.96 65.5795 431.26 63.5895 429.26C62.8195 428.51 64.2995 419.5 66.3995 408.66C66.3995 408.55 66.3995 408.43 66.4695 408.32L106.009 416.72L105.849 417.39C105.849 417.39 126.899 433.09 128.849 435.52C130.799 437.95 131.269 444.49 129.019 444.72Z" fill="#F6CF00"/>
<path d="M128.809 442.2C118.559 439.64 76.9788 430.27 66.6488 428.51C66.5688 428.51 66.5588 428.51 66.6488 428.57C76.7488 431.34 118.409 440.37 128.789 442.37C129.019 442.41 129.019 442.25 128.809 442.2Z" fill="#263238"/>
<path d="M110.329 417.82C106.439 416.15 101.329 415.66 97.599 417.82C97.449 417.91 97.599 418.11 97.719 418.1C101.874 417.722 106.058 417.789 110.199 418.3C110.252 418.293 110.301 418.27 110.341 418.235C110.381 418.2 110.409 418.154 110.423 418.103C110.437 418.052 110.435 417.998 110.419 417.947C110.402 417.897 110.371 417.853 110.329 417.82Z" fill="#263238"/>
<path d="M112.859 420.24C108.979 418.57 103.859 418.08 100.129 420.24C99.9793 420.33 100.129 420.53 100.249 420.52C104.404 420.143 108.588 420.207 112.729 420.71C112.782 420.706 112.833 420.685 112.873 420.651C112.914 420.617 112.944 420.571 112.958 420.52C112.972 420.469 112.97 420.415 112.953 420.365C112.935 420.315 112.902 420.271 112.859 420.24Z" fill="#263238"/>
<path d="M115.389 422.65C111.509 420.99 106.389 420.5 102.659 422.65C102.509 422.74 102.659 422.94 102.779 422.93C106.933 422.548 111.117 422.612 115.259 423.12C115.309 423.111 115.356 423.088 115.393 423.054C115.431 423.02 115.458 422.975 115.472 422.926C115.486 422.877 115.485 422.825 115.47 422.776C115.456 422.727 115.427 422.683 115.389 422.65Z" fill="#263238"/>
<path d="M117.589 410.17C116.489 407.62 113.299 407.94 111.289 408.98C107.868 410.829 104.995 413.547 102.959 416.86C102.948 416.874 102.941 416.89 102.939 416.907C102.936 416.923 102.938 416.941 102.944 416.957C102.95 416.973 102.96 416.987 102.973 416.998C102.986 417.009 103.002 417.017 103.019 417.02C102.996 417.098 102.993 417.181 103.009 417.261C103.025 417.341 103.06 417.416 103.111 417.48C103.162 417.543 103.227 417.594 103.302 417.627C103.376 417.66 103.457 417.675 103.539 417.67C107.169 417.19 111.109 417.11 114.479 415.53C116.439 414.6 118.629 412.58 117.589 410.17ZM108.889 415.81C107.109 416.09 105.329 416.29 103.559 416.64C105.148 415.056 106.817 413.554 108.559 412.14C109.407 411.471 110.299 410.86 111.229 410.31C112.679 409.48 117.979 408.22 116.229 412.5C115.299 414.86 111.019 415.47 108.889 415.81Z" fill="#263238"/>
<path d="M92.8792 413.49C95.8792 415.66 99.7692 416.49 103.239 417.59C103.318 417.609 103.401 417.609 103.48 417.59C103.56 417.572 103.633 417.534 103.696 417.482C103.758 417.429 103.807 417.363 103.839 417.288C103.871 417.213 103.885 417.131 103.879 417.05C103.939 417.05 103.999 416.98 103.969 416.9C102.571 413.271 100.244 410.074 97.2192 407.63C95.4292 406.24 92.3492 405.35 90.7992 407.63C89.2492 409.91 91.1192 412.22 92.8792 413.49ZM91.6992 410.19C90.7992 405.67 95.7792 407.87 97.0592 408.95C97.8742 409.663 98.6393 410.432 99.3492 411.25C100.792 412.953 102.147 414.729 103.409 416.57C101.739 415.9 100.019 415.39 98.3292 414.79C96.2992 414.07 92.1992 412.69 91.6992 410.19Z" fill="#263238"/>
<path opacity="0.2" d="M111.139 441.21C120.749 443.31 128.199 444.81 128.969 444.73C131.269 444.5 130.759 437.94 128.809 435.52C126.278 433.13 123.606 430.892 120.809 428.82L111.139 441.21Z" fill="black"/>
<path d="M108.829 417.7L66.7394 407.78C66.7394 407.78 101.859 327.27 98.7394 323.18C97.1894 321.13 57.9994 320.53 45.5394 309.97C29.3494 296.25 40.2094 275.29 40.2094 275.29L84.0194 274C84.0194 274 83.4894 283.14 85.1994 284.51C86.3194 285.43 138.469 289.82 144.199 307.39C151.219 328.94 108.829 417.7 108.829 417.7Z" fill="#37474F"/>
<path d="M108.809 411.19C107.709 410.67 96.8088 407.47 94.3588 406.85C89.4388 405.59 84.4988 404.35 79.5488 403.22C76.9588 402.63 71.4188 401.35 71.0788 401.41C70.9188 401.41 70.8888 401.71 71.0788 401.76C75.8788 403.34 80.7488 404.68 85.6188 406.04C90.4888 407.4 107.259 411.43 108.729 411.53C108.839 411.54 109.019 411.26 108.809 411.19Z" fill="#263238"/>
<path d="M106.259 319.55C105.264 318.937 104.127 318.592 102.959 318.55L83.9587 315.38C78.0487 314.38 72.0987 313.51 66.2187 312.38C61.3487 311.44 56.3887 310.17 52.2187 307.53C48.0921 304.934 45.0362 300.941 43.6087 296.28C42.2771 291.596 41.8996 286.693 42.4987 281.86C42.6087 280.68 42.8287 279.51 43.0487 278.35C43.0487 278.26 42.9187 278.23 42.9087 278.35C41.2987 287.35 41.1587 297.71 47.9087 304.86C51.1887 308.34 55.6887 310.38 60.2787 311.71C65.5215 313.045 70.837 314.077 76.1987 314.8L95.1987 317.96C98.1987 318.47 101.329 318.86 104.349 319.49C104.955 319.569 105.524 319.823 105.989 320.22C106.211 320.534 106.352 320.899 106.399 321.281C106.446 321.663 106.398 322.051 106.259 322.41C105.959 323.9 105.549 325.41 105.129 326.83C101.679 338.6 76.2187 398.63 75.5387 399.92C75.5295 399.947 75.5304 399.977 75.541 400.003C75.5516 400.03 75.5714 400.051 75.5967 400.065C75.622 400.078 75.6512 400.082 75.6791 400.075C75.707 400.069 75.7316 400.053 75.7487 400.03C81.5487 389.71 100.599 342.46 104.429 331.33C105.437 328.499 106.266 325.606 106.909 322.67C107.019 321.53 107.189 320.34 106.259 319.55Z" fill="#263238"/>
<path d="M191.399 447.2C189.279 447.91 128.579 447.06 126.269 445.58C123.739 443.17 122.659 385.9 122.659 385.9L161.709 385.58L164.149 426.7C164.149 426.7 172.579 430.21 179.919 433.7C183.132 435.116 186.258 436.722 189.279 438.51C191.649 440.4 193.519 446.5 191.399 447.2Z" fill="#C95F50"/>
<path d="M123.719 419.78C124.299 432.65 125.129 444.52 126.259 445.58C128.569 447.06 189.259 447.92 191.399 447.2C193.539 446.48 191.649 440.41 189.299 438.53C186.275 436.74 183.146 435.134 179.929 433.72C172.589 430.23 164.159 426.72 164.159 426.72L163.749 419.8L123.719 419.78Z" fill="#EBEBEB"/>
<path d="M192.649 447.24C190.449 447.97 127.789 447.67 125.419 446.14C124.499 445.58 124.009 436.46 123.739 425.42V425.07L164.159 424.82V425.5C164.159 425.5 188.089 436.33 190.529 438.28C192.969 440.23 194.839 446.53 192.649 447.24Z" fill="#F6CF00"/>
<path d="M191.949 444.81C181.389 444.5 138.759 444.25 128.299 444.74C128.209 444.74 128.209 444.81 128.299 444.81C138.759 445.35 181.389 445.25 191.949 444.99C192.169 445 192.169 444.82 191.949 444.81Z" fill="#263238"/>
<path d="M168.659 425C164.509 424.21 159.419 424.82 156.229 427.76C156.109 427.88 156.229 428.05 156.409 428.01C160.389 426.749 164.492 425.918 168.649 425.53C168.711 425.519 168.767 425.487 168.808 425.44C168.848 425.392 168.871 425.332 168.872 425.269C168.874 425.207 168.853 425.145 168.814 425.096C168.775 425.047 168.72 425.013 168.659 425Z" fill="#263238"/>
<path d="M171.659 426.77C167.499 425.98 162.419 426.59 159.229 429.53C159.099 429.65 159.229 429.82 159.399 429.78C163.379 428.519 167.482 427.688 171.639 427.3C171.701 427.291 171.758 427.26 171.799 427.213C171.841 427.166 171.865 427.106 171.868 427.043C171.87 426.981 171.851 426.919 171.812 426.869C171.774 426.819 171.72 426.784 171.659 426.77Z" fill="#263238"/>
<path d="M174.649 428.59C170.489 427.8 165.409 428.41 162.219 431.35C162.089 431.47 162.219 431.64 162.389 431.6C166.369 430.339 170.472 429.508 174.629 429.12C174.691 429.111 174.748 429.08 174.79 429.033C174.831 428.986 174.856 428.926 174.858 428.863C174.86 428.801 174.841 428.739 174.803 428.689C174.764 428.639 174.71 428.604 174.649 428.59Z" fill="#263238"/>
<path d="M174.109 415.93C172.489 413.67 169.439 414.67 167.699 416.12C164.755 418.656 162.531 421.922 161.249 425.59C161.242 425.607 161.24 425.624 161.242 425.642C161.244 425.66 161.25 425.676 161.26 425.691C161.27 425.706 161.283 425.718 161.298 425.727C161.314 425.735 161.331 425.74 161.349 425.74C161.344 425.821 161.359 425.903 161.392 425.977C161.425 426.052 161.476 426.117 161.539 426.168C161.603 426.219 161.678 426.254 161.758 426.27C161.838 426.286 161.92 426.283 161.999 426.26C165.439 425.01 169.269 424.1 172.219 421.83C173.939 420.5 175.649 418.06 174.109 415.93ZM166.829 423.3C165.149 423.96 163.449 424.53 161.829 425.25C163.028 423.366 164.327 421.547 165.719 419.8C166.4 418.96 167.139 418.168 167.929 417.43C169.169 416.31 174.079 413.94 173.329 418.49C172.879 421 168.819 422.52 166.829 423.3Z" fill="#263238"/>
<path d="M150.699 424.46C154.109 425.93 158.049 425.88 161.699 426.25C162.079 426.25 162.269 425.89 162.209 425.58C162.222 425.57 162.232 425.557 162.239 425.542C162.246 425.527 162.25 425.511 162.25 425.495C162.25 425.479 162.246 425.463 162.239 425.448C162.232 425.433 162.222 425.42 162.209 425.41C160.065 422.168 157.106 419.547 153.629 417.81C151.579 416.81 148.389 416.62 147.369 419.2C146.349 421.78 148.699 423.6 150.699 424.46ZM148.829 421.46C146.979 417.23 152.319 418.32 153.829 419.1C154.777 419.622 155.689 420.207 156.559 420.85C158.335 422.206 160.04 423.651 161.669 425.18C159.889 424.89 158.109 424.76 156.319 424.53C154.159 424.29 149.849 423.82 148.829 421.49V421.46Z" fill="#263238"/>
<path d="M166.319 425.29H122.319C122.319 425.29 122.869 345.82 119.419 341.42C114.819 335.54 50.419 335.67 36.609 316.51C24.209 299.29 34.679 274.93 34.679 274.93L83.449 273.48C82.3473 278.704 80.836 283.833 78.929 288.82C78.929 288.82 137.669 299.65 154.129 317.64C165.189 329.8 166.319 425.29 166.319 425.29Z" fill="#37474F"/>
<path d="M87.4592 285.49C86.0454 285.804 84.6631 286.246 83.3292 286.81C81.9292 287.35 80.5492 287.95 79.1992 288.61C76.5529 289.924 73.9792 291.38 71.4892 292.97C71.4092 292.97 71.4892 293.12 71.5692 293.08C74.1992 291.71 76.9292 290.48 79.6592 289.31L83.5992 287.61C84.9633 287.096 86.2986 286.508 87.5992 285.85C87.6346 285.824 87.6605 285.787 87.6728 285.745C87.6851 285.703 87.6831 285.657 87.6672 285.616C87.6512 285.575 87.6222 285.541 87.5846 285.518C87.547 285.495 87.5029 285.485 87.4592 285.49Z" fill="#263238"/>
<path d="M84.5394 273.47C83.9794 275.69 83.5394 277.93 82.8494 280.14C82.5594 281.14 82.2694 282.14 81.8494 283.14C81.5294 283.96 81.0394 284.91 80.0794 285.09C79.1194 285.27 78.6594 284.36 78.7494 283.45C78.8394 282.54 79.1094 281.45 79.3094 280.45C79.5394 279.3 79.7794 278.14 79.9894 276.99C80.0894 276.41 80.1994 275.83 80.2994 275.25C80.2994 275.1 80.4294 273.99 80.5094 273.67C80.5094 273.67 80.5094 273.73 80.5694 273.72C80.5694 273.72 80.6394 273.72 80.6394 273.66C80.6394 273.6 80.6394 273.55 80.5794 273.49C80.5194 273.43 80.5194 273.49 80.4794 273.49C80.2694 273.61 80.2594 273.9 80.1894 274.11C80.0094 274.67 79.8294 275.24 79.6594 275.8C79.3494 276.86 79.0494 277.93 78.7794 279C78.5094 280.07 78.2494 281.14 77.9894 282.21C77.7098 283.002 77.6341 283.851 77.7694 284.68C77.8695 285.074 78.0936 285.426 78.4086 285.684C78.7237 285.941 79.113 286.09 79.5194 286.11L79.3994 286.32C79.2994 286.54 79.2294 286.77 79.1494 287C79.0694 287.23 78.9894 287.46 78.9194 287.69C78.8897 287.805 78.8696 287.922 78.8594 288.04C78.8594 288.17 78.8594 288.29 78.8594 288.42C78.8594 288.55 79.1094 288.74 79.2094 288.55C79.2735 288.44 79.3436 288.333 79.4194 288.23C79.4847 288.112 79.5383 287.988 79.5794 287.86C79.6494 287.64 79.7194 287.42 79.7694 287.19C79.8194 286.96 79.8994 286.74 79.9394 286.51C79.9497 286.374 79.9497 286.237 79.9394 286.1C80.4068 286.061 80.8539 285.891 81.2294 285.61C81.8537 285.083 82.315 284.389 82.5594 283.61C82.8894 282.69 83.1494 281.73 83.4094 280.78C84.0963 278.441 84.5715 276.044 84.8294 273.62C84.9594 273.3 84.5994 273.21 84.5394 273.47Z" fill="#263238"/>
<path d="M55.5387 278.91C55.3387 280.01 55.2087 281.13 54.9487 282.22C54.6887 283.31 54.4087 284.36 54.0587 285.4C53.743 286.416 53.2852 287.382 52.6987 288.27C52.0885 289.104 51.361 289.845 50.5387 290.47C48.9656 291.716 47.1988 292.696 45.3087 293.37C44.3608 293.714 43.3922 293.998 42.4087 294.22C41.8987 294.34 41.4087 294.43 40.8587 294.5C40.4277 294.51 40.0028 294.605 39.6087 294.78C39.5716 294.803 39.5409 294.836 39.5197 294.874C39.4984 294.913 39.4873 294.956 39.4873 295C39.4873 295.044 39.4984 295.087 39.5197 295.126C39.5409 295.164 39.5716 295.197 39.6087 295.22C40.3604 295.438 41.1552 295.462 41.9187 295.29C42.7509 295.203 43.5761 295.059 44.3887 294.86C46.0321 294.417 47.6045 293.744 49.0587 292.86C50.5525 292.045 51.8926 290.976 53.0187 289.7C54.0587 288.358 54.774 286.794 55.1087 285.13C55.6241 283.105 55.853 281.018 55.7887 278.93C55.7387 278.81 55.5587 278.79 55.5387 278.91Z" fill="#263238"/>
<path d="M128.609 370.17C128.175 363.25 127.602 356.347 126.889 349.46C126.709 347.76 126.539 346.05 126.329 344.36C126.208 343.035 125.919 341.732 125.469 340.48C124.469 337.89 122.299 336.58 119.689 335.93C116.609 335.15 113.419 334.68 110.289 334.18C107.159 333.68 103.869 333.18 100.649 332.75C94.1388 331.84 87.6488 331 81.1388 329.91C74.6708 328.884 68.2746 327.448 61.9888 325.61C56.2288 323.87 50.3188 321.72 45.7088 317.73C35.7788 309.14 35.4188 294.73 36.6288 282.73C36.7988 281.03 37.0088 279.34 37.2188 277.64C37.2188 277.55 37.0888 277.52 37.0788 277.64C36.2988 284.42 35.3788 291.25 36.0788 298.08C36.5127 303.734 38.3779 309.185 41.4988 313.92C44.8588 318.73 49.8388 321.84 55.2088 324.01C61.1328 326.293 67.2464 328.05 73.4788 329.26C86.3488 331.96 99.4788 333.1 112.429 335.31C114.029 335.58 115.619 335.87 117.209 336.18C118.687 336.405 120.136 336.794 121.529 337.34C124.469 338.65 125.279 341.51 125.639 344.47C126.489 351.33 127.059 358.23 127.559 365.13C128.559 379.02 129.089 392.99 129.069 406.92C129.069 408.64 129.069 414.43 129.069 416.15C129.069 416.3 129.299 416.28 129.299 416.15C129.669 402.11 129.489 384.1 128.609 370.17Z" fill="#263238"/>
<path d="M164.259 418.38C154.259 417.7 125.599 417.98 125.259 418.12C125.109 418.19 125.149 418.46 125.309 418.47C130.309 418.83 162.759 419 164.209 418.74C164.369 418.71 164.429 418.39 164.259 418.38Z" fill="#263238"/>
<path d="M79.1892 289C88.1912 290.079 97.0883 291.902 105.789 294.45C114.562 296.915 123.141 300.02 131.459 303.74C136.129 305.83 140.649 308.17 145.119 310.63C145.209 310.68 145.119 310.81 145.039 310.77C136.955 306.592 128.604 302.954 120.039 299.88C111.551 296.789 102.864 294.27 94.0392 292.34C89.0392 291.26 84.0392 290.42 79.0392 289.59C78.7592 289.48 78.8492 288.91 79.1892 289Z" fill="#263238"/>
<path d="M122.089 359.19C121.779 354.41 121.279 349.63 120.499 344.89C120.179 342.98 120.099 340.51 118.089 339.56C117.159 339.11 98.4994 335.87 95.8194 335.92C95.792 335.922 95.7659 335.932 95.7448 335.95C95.7237 335.968 95.7088 335.992 95.7021 336.018C95.6955 336.045 95.6974 336.073 95.7077 336.098C95.718 336.124 95.7361 336.146 95.7594 336.16C96.0094 336.27 113.759 339.62 115.999 340.16C116.481 340.195 116.951 340.329 117.379 340.553C117.807 340.776 118.185 341.085 118.489 341.46C118.917 342.432 119.17 343.471 119.239 344.53C120.736 353.822 121.564 363.21 121.719 372.62C121.793 375.233 121.836 377.837 121.849 380.43C121.849 383.11 121.759 385.82 121.959 388.48C121.959 388.538 121.983 388.594 122.024 388.636C122.065 388.677 122.121 388.7 122.179 388.7C122.238 388.7 122.294 388.677 122.335 388.636C122.376 388.594 122.399 388.538 122.399 388.48C122.599 386.06 122.529 383.59 122.539 381.16C122.549 378.73 122.539 376.28 122.539 373.83C122.529 368.94 122.419 364.06 122.089 359.19Z" fill="#263238"/>
<path d="M81.1789 229.53C93.7889 246.3 123.739 269.88 130.769 264.39C139.409 257.65 137.769 232.85 137.989 229.66C138.179 226.25 109.849 227.11 110.989 230.59C111.659 232.65 111.989 234.86 111.439 234.65C109.769 233.99 106.059 230.65 89.9689 221.65C81.0189 216.62 72.8289 218.43 81.1789 229.53Z" fill="#C95F50"/>
<path d="M107.019 230.49L100.389 237L92.0686 245.16C92.0686 245.16 82.5986 235.98 78.4986 228.41C75.4986 222.84 75.3986 218.14 78.3786 217.12C79.863 216.747 81.4304 216.896 82.8186 217.54C93.5486 221.55 107.019 230.49 107.019 230.49Z" fill="#F6CF00"/>
<path d="M103.149 228.79C100.499 231.21 90.8994 240.18 90.1494 241.79C90.1494 241.79 90.2194 241.91 90.2594 241.9C91.8194 241.14 100.879 231.63 103.309 229C103.349 228.9 103.199 228.75 103.149 228.79Z" fill="#263238"/>
<path d="M100.389 237L92.0686 245.16C92.0686 245.16 82.5986 235.98 78.4986 228.41C75.4986 222.84 75.3986 218.14 78.3786 217.12L100.389 237Z" fill="#263238"/>
<path d="M138.019 214.49C139.619 219.92 138.549 232.31 137.149 235.2C135.749 238.09 114.609 236.98 112.729 234.26C110.849 231.54 106.869 212.84 109.059 207.49C111.249 202.14 136.339 208.86 138.019 214.49Z" fill="#C95F50"/>
<path d="M113.769 195.32C112.859 192.86 108.419 185.81 106.279 186.63C104.139 187.45 106.049 193.03 106.889 195.27C108.639 199.88 108.579 206.69 108.499 209.99C108.419 213.29 116.129 209.99 116.129 209.99C116.129 209.99 116.149 201.71 113.769 195.32Z" fill="#C95F50"/>
<path d="M110.659 214.65C110.659 214.65 110.359 220.46 113.449 221.65C116.539 222.84 117.619 218.19 117.709 217.87C117.709 218.17 117.559 223.52 120.799 224.41C124.039 225.3 124.559 220.51 124.579 220.2C124.659 220.49 125.769 224.37 128.369 224.49C132.859 224.69 130.299 214.7 132.279 211.65C132.279 211.65 137.829 214.42 137.999 214.47C137.999 214.47 135.759 204.91 131.509 202.47C130.896 202.104 130.175 201.959 129.467 202.059C128.76 202.159 128.107 202.498 127.619 203.02C127.619 203.02 127.239 199.86 124.709 199.08C123.419 198.68 121.629 200.4 121.629 200.4C121.505 199.689 121.188 199.027 120.711 198.485C120.235 197.944 119.618 197.544 118.929 197.33C117.109 196.88 115.349 198.64 114.929 199.42C111.439 205.43 110.659 214.65 110.659 214.65Z" fill="#C95F50"/>
<path d="M121.629 200.33C121.629 200.28 121.559 200.23 121.519 200.33C118.111 205.565 116.692 211.848 117.519 218.04C117.519 218.26 117.809 218.41 117.779 218.16C117.409 213.9 119.459 205.07 121.629 200.33Z" fill="#263238"/>
<path d="M124.799 220.63C124.059 214.57 125.329 208.88 127.479 203.23C127.479 203.15 127.399 203.12 127.359 203.17C125.559 205.66 124.559 209.4 124.039 212.39C123.493 215.147 123.683 218 124.589 220.66C124.629 220.76 124.819 220.76 124.799 220.63Z" fill="#263238"/>
<path d="M110.659 214.65C110.704 215.768 110.852 216.879 111.099 217.97C111.299 219.042 111.778 220.043 112.489 220.87C112.834 221.23 113.301 221.447 113.799 221.48C114.302 221.512 114.806 221.412 115.259 221.19C115.693 220.935 116.068 220.591 116.359 220.181C116.65 219.771 116.851 219.304 116.949 218.81L117.539 216.41L117.819 218.86C117.931 219.951 118.225 221.016 118.689 222.01C118.876 222.481 119.159 222.908 119.521 223.262C119.882 223.617 120.314 223.892 120.789 224.07C121.233 224.227 121.717 224.227 122.161 224.071C122.605 223.914 122.982 223.611 123.229 223.21C123.767 222.3 124.063 221.267 124.089 220.21L124.269 217.3L125.049 220.09C125.268 220.87 125.583 221.619 125.989 222.32C126.349 222.996 126.903 223.55 127.579 223.91C127.888 224.063 128.234 224.125 128.578 224.09C128.921 224.055 129.247 223.923 129.519 223.71C130.057 223.159 130.425 222.465 130.579 221.71C130.939 220.064 131.166 218.392 131.259 216.71C131.339 215.86 131.419 215.01 131.539 214.16C131.606 213.3 131.859 212.464 132.279 211.71C131.949 212.496 131.776 213.338 131.769 214.19C131.719 215.03 131.709 215.88 131.699 216.74C131.713 218.466 131.569 220.19 131.269 221.89C131.117 222.816 130.701 223.677 130.069 224.37C129.682 224.707 129.206 224.925 128.698 224.996C128.19 225.067 127.673 224.988 127.209 224.77C126.365 224.34 125.669 223.668 125.209 222.84C124.742 222.071 124.379 221.244 124.129 220.38L125.129 220.27C125.108 221.52 124.764 222.743 124.129 223.82C123.759 224.408 123.197 224.85 122.539 225.07C121.887 225.272 121.19 225.272 120.539 225.07C119.935 224.85 119.385 224.505 118.925 224.057C118.464 223.608 118.105 223.068 117.869 222.47C117.386 221.365 117.083 220.19 116.969 218.99L117.839 219.05C117.695 219.658 117.421 220.228 117.034 220.718C116.647 221.209 116.157 221.609 115.599 221.89C115.021 222.132 114.392 222.225 113.769 222.16C113.136 222.081 112.554 221.775 112.129 221.3C111.409 220.371 110.962 219.259 110.839 218.09C110.65 216.954 110.589 215.8 110.659 214.65Z" fill="#263238"/>
<path d="M111.469 231.2C111.469 231.2 96.1488 212.68 106.319 210.2C109.319 209.47 122.619 210.1 122.549 212.77C122.449 216.21 116.859 216.99 113.269 216.91C113.269 216.91 119.369 222.48 116.759 227.91C116.263 228.89 115.507 229.715 114.574 230.295C113.641 230.876 112.567 231.188 111.469 231.2Z" fill="#C95F50"/>
<path d="M105.489 210.49C106.639 210.066 107.846 209.813 109.069 209.74C110.293 209.633 111.522 209.607 112.749 209.66C115.21 209.74 117.659 210.035 120.069 210.54C120.71 210.669 121.327 210.895 121.899 211.21C122.234 211.387 122.524 211.636 122.749 211.94C122.87 212.108 122.965 212.293 123.029 212.49C123.081 212.686 123.105 212.888 123.099 213.09C123.069 213.834 122.775 214.543 122.269 215.09C121.797 215.573 121.246 215.972 120.639 216.27C119.485 216.809 118.247 217.147 116.979 217.27C115.748 217.406 114.508 217.453 113.269 217.41L113.549 216.66C114.223 217.32 114.833 218.044 115.369 218.82C115.905 219.586 116.364 220.404 116.739 221.26C117.101 222.122 117.336 223.031 117.439 223.96C117.539 224.883 117.461 225.817 117.209 226.71C117.34 225.813 117.319 224.9 117.149 224.01C116.969 223.132 116.666 222.284 116.249 221.49C115.847 220.69 115.364 219.933 114.809 219.23C114.26 218.535 113.651 217.889 112.989 217.3L112.159 216.59H113.279C114.474 216.587 115.666 216.504 116.849 216.34C118.005 216.205 119.133 215.888 120.189 215.4C121.189 214.9 122.069 214.08 122.079 213.14C122.089 212.2 120.929 211.82 119.829 211.53C118.666 211.238 117.487 211.007 116.299 210.84C115.109 210.65 113.909 210.47 112.709 210.36C110.31 210.028 107.875 210.072 105.489 210.49Z" fill="#263238"/>
<path d="M111.439 234.65L112.269 237.02L113.069 239.4L114.689 244.13C115.229 245.71 115.779 247.28 116.359 248.84C116.649 249.62 116.939 250.4 117.259 251.17C117.579 251.94 117.909 252.71 118.259 253.49C117.341 252.082 116.535 250.604 115.849 249.07C115.149 247.54 114.559 245.96 113.999 244.38C113.439 242.8 112.999 241.19 112.549 239.57C112.099 237.95 111.699 236.31 111.439 234.65Z" fill="#263238"/>
<path d="M89.9595 286.82C88.4595 288.02 29.0695 288.69 28.8195 288.27C28.1395 287.13 44.2495 232.95 69.5695 216.11C74.0295 213.11 80.8295 215.2 83.7695 217.5C85.2495 218.66 89.5395 227.43 90.1295 234.6C90.7195 241.77 90.9095 286.05 89.9595 286.82Z" fill="#F6CF00"/>
<path d="M90.6191 264.56V265C90.3391 264.83 90.0491 264.64 89.7791 264.44C87.6266 262.758 85.768 260.73 84.2791 258.44C82.7191 256.23 81.2791 253.92 79.8991 251.64C77.9767 248.385 75.7608 245.312 73.2791 242.46L72.9691 242.13C71.9841 241.098 70.9136 240.151 69.7691 239.3C67.6206 237.725 65.1369 236.668 62.5123 236.212C59.8877 235.756 57.1931 235.912 54.6391 236.67C52.4109 237.402 50.3651 238.602 48.6391 240.19L49.3691 238.97C50.894 237.752 52.6246 236.818 54.4791 236.21C57.1044 235.421 59.8767 235.25 62.5791 235.71C65.2836 236.206 67.8327 237.333 70.0191 239C71.2735 239.937 72.4384 240.988 73.4991 242.14C73.6091 242.26 73.7191 242.37 73.8191 242.49C76.219 245.296 78.3673 248.307 80.2391 251.49C81.6591 253.78 83.0491 256.08 84.5891 258.28C86.0538 260.517 87.8745 262.5 89.9791 264.15C90.2091 264.29 90.4091 264.43 90.6191 264.56ZM85.0191 267.12C82.1933 267.025 79.4181 266.343 76.8691 265.12C71.7191 262.67 67.5791 258.62 63.4491 254.71C61.9491 253.29 60.4491 251.87 58.8791 250.53L58.6291 250.31C58.1091 249.87 57.6291 249.44 57.0291 249.02C54.7977 247.178 52.1899 245.847 49.3891 245.12C48.2977 244.87 47.1776 244.77 46.0591 244.82L45.8291 245.22C46.9965 245.143 48.169 245.238 49.3091 245.5C52.0491 246.226 54.5982 247.54 56.7791 249.35C57.2991 249.75 57.7791 250.16 58.2991 250.58C58.3902 250.648 58.4771 250.721 58.5591 250.8C60.1391 252.14 61.6491 253.59 63.1591 255.02C67.2691 258.94 71.4291 263.02 76.6591 265.54C79.2656 266.812 82.1106 267.52 85.0091 267.62C86.8968 267.669 88.7829 267.471 90.6191 267.03C90.6191 266.86 90.6191 266.7 90.6191 266.53C88.7863 266.971 86.9035 267.169 85.0191 267.12ZM90.5791 253.12C89.9691 252.12 89.3391 251.12 88.6691 250.12C87.1658 247.846 85.2615 245.863 83.0491 244.27C80.7608 242.737 78.0523 241.954 75.2991 242.03C74.7091 242.03 74.1291 242.03 73.5391 242.13L72.9791 242.2C72.3973 242.277 71.8199 242.384 71.2491 242.52C69.934 242.867 68.6575 243.346 67.4391 243.95C64.2644 245.711 61.3075 247.839 58.6291 250.29C58.5191 250.38 58.4091 250.48 58.2991 250.56C57.0591 251.63 55.8091 252.68 54.5291 253.67C52.4316 255.348 50.1382 256.765 47.6991 257.89C45.2431 258.975 42.6104 259.606 39.9291 259.75C39.5091 259.75 39.0991 259.75 38.6891 259.75C38.6891 259.84 38.6091 259.93 38.5791 260.02L39.9491 259.97C42.6599 259.83 45.3229 259.2 47.8091 258.11C50.2722 256.979 52.5919 255.559 54.7191 253.88C56.0291 252.88 57.2991 251.81 58.5591 250.74L58.8791 250.47C61.5272 248.051 64.4545 245.956 67.5991 244.23C68.7945 243.639 70.0478 243.173 71.3391 242.84C71.9976 242.681 72.6657 242.564 73.3391 242.49H73.9091C74.3891 242.44 74.9091 242.42 75.3491 242.41C78.0258 242.35 80.6555 243.119 82.8791 244.61C85.0476 246.179 86.9115 248.131 88.3791 250.37C89.1791 251.52 89.9191 252.7 90.6391 253.91C90.5791 253.63 90.5791 253.35 90.5691 253.08L90.5791 253.12Z" fill="white"/>
<path d="M83.359 227.79C79.879 227.64 75.689 221.06 74.619 216.4C74.549 216.08 78.839 205.33 79.469 203.11C79.599 202.66 92.469 210.45 92.469 210.45C90.8874 212.996 89.6246 215.726 88.709 218.58C88.589 218.9 86.729 227.94 83.359 227.79Z" fill="#C95F50"/>
<path d="M79.9088 203.23C79.5988 207 79.5188 217.02 87.0388 219.35C87.4932 219.488 87.958 219.588 88.4288 219.65C88.5788 219.04 88.6688 218.65 88.6788 218.57C89.5957 215.72 90.8585 212.993 92.4388 210.45C92.3744 210.398 92.3039 210.355 92.2288 210.32C92.1388 210.25 92.0188 210.19 91.8788 210.1L91.7288 210.01C91.6488 209.95 91.5488 209.9 91.4488 209.84L91.0888 209.62L90.4888 209.27L90.2688 209.13L89.8088 208.85L87.9888 207.77L87.2988 207.36C86.9988 207.19 86.6988 207.02 86.4088 206.83L85.5188 206.32L85.4088 206.26L83.8988 205.38L83.3988 205.09L82.3988 204.55L81.7488 204.19L80.4688 203.51L80.1788 203.37L79.9088 203.23Z" fill="#263238"/>
<path d="M83.9489 186.4C80.6689 190.64 77.9489 205.4 80.1989 209.83C83.4489 216.18 91.3889 219.68 97.4489 215.18C103.329 210.82 106.529 191.46 103.779 187.18C99.7289 181 88.7989 180.14 83.9489 186.4Z" fill="#C95F50"/>
<path d="M93.8089 200.58C93.8089 200.58 93.7189 200.58 93.7189 200.65C93.4989 201.65 93.0789 202.79 92.0889 202.9V202.96C93.2289 203.08 93.7689 201.58 93.8089 200.58Z" fill="#263238"/>
<path d="M93.1789 199.31C91.5889 198.79 90.6589 202 92.1789 202.49C93.6989 202.98 94.5089 199.75 93.1789 199.31Z" fill="#263238"/>
<path d="M99.5092 201.78C99.5092 201.78 99.5792 201.85 99.5092 201.89C99.1892 202.89 98.9792 204.05 99.7792 204.65C98.7492 204.22 99.0192 202.66 99.5092 201.78Z" fill="#263238"/>
<path d="M100.709 201C102.339 201.36 101.509 204.6 99.9994 204.27C98.4894 203.94 99.3394 200.71 100.709 201Z" fill="#263238"/>
<path d="M91.0192 208.76C91.1792 209.07 91.3092 209.46 91.6492 209.61C92.0163 209.731 92.4057 209.769 92.7892 209.72C92.7892 209.72 92.8492 209.77 92.7892 209.79C92.5824 209.935 92.3407 210.021 92.0892 210.04C91.8377 210.06 91.5856 210.011 91.3591 209.9C91.1769 209.78 91.0341 209.608 90.9487 209.407C90.8633 209.206 90.8391 208.985 90.8792 208.77C90.8785 208.761 90.8797 208.752 90.8826 208.743C90.8855 208.734 90.8901 208.726 90.8961 208.719C90.9022 208.712 90.9095 208.706 90.9177 208.702C90.926 208.698 90.935 208.696 90.9442 208.695C90.9533 208.694 90.9626 208.696 90.9713 208.698C90.9801 208.701 90.9882 208.706 90.9951 208.712C91.0021 208.718 91.0078 208.725 91.0119 208.734C91.016 208.742 91.0185 208.751 91.0192 208.76Z" fill="#263238"/>
<path d="M96.7188 206C96.7188 206 96.5088 207.55 96.3188 208.25C94.9392 207.883 93.5163 207.705 92.0888 207.72C91.7488 207.72 91.8188 207.48 92.2288 207.37C93.4279 207.036 94.6999 207.07 95.8788 207.47C95.9888 207.29 96.1588 205.08 96.2688 205.11C96.8027 205.308 97.3073 205.577 97.7688 205.91C98.2888 202.7 98.2988 199.42 98.8688 196.23C98.8754 196.21 98.8881 196.193 98.9052 196.18C98.9222 196.168 98.9427 196.161 98.9638 196.161C98.9849 196.161 99.0054 196.168 99.0224 196.18C99.0395 196.193 99.0522 196.21 99.0588 196.23C99.1645 199.736 98.9166 203.244 98.3188 206.7C98.2688 207.13 97.0188 206.2 96.7188 206Z" fill="#263238"/>
<path d="M92.019 196.64C92.479 196.57 92.909 196.57 93.369 196.54C93.8418 196.444 94.3328 196.504 94.769 196.71C94.8922 196.802 94.9815 196.933 95.0231 197.081C95.0646 197.229 95.0562 197.387 94.999 197.53C94.8418 197.794 94.6174 198.012 94.3487 198.161C94.0799 198.311 93.7764 198.386 93.469 198.38C92.8442 198.464 92.2104 198.314 91.689 197.96C91.5736 197.872 91.4865 197.753 91.4384 197.616C91.3903 197.48 91.3834 197.332 91.4186 197.191C91.4537 197.051 91.5293 196.923 91.6361 196.825C91.7428 196.728 91.876 196.663 92.019 196.64Z" fill="#263238"/>
<path d="M103.519 197.5C103.178 197.201 102.821 196.92 102.449 196.66C102.119 196.313 101.683 196.084 101.209 196.01C101.056 196.014 100.908 196.069 100.79 196.167C100.672 196.265 100.591 196.4 100.559 196.55C100.537 196.858 100.597 197.166 100.734 197.442C100.872 197.718 101.081 197.952 101.339 198.12C101.808 198.543 102.418 198.775 103.049 198.77C103.193 198.761 103.33 198.711 103.445 198.626C103.561 198.54 103.649 198.423 103.698 198.288C103.748 198.154 103.758 198.007 103.726 197.868C103.694 197.728 103.622 197.6 103.519 197.5Z" fill="#263238"/>
<path d="M87.3793 199C88.6093 199.47 88.8393 196.9 88.8993 196C89.0487 195.075 89.2796 194.165 89.5893 193.28C89.2276 194.146 88.7856 194.976 88.2693 195.76C87.6993 196.45 86.1493 198.51 87.3793 199Z" fill="white"/>
<path d="M79.0894 200.6C79.0894 200.6 76.7394 190.18 78.8994 185.33C79.8994 183.14 83.4694 182.65 83.4694 182.65C83.5416 181.647 83.8925 180.684 84.4826 179.869C85.0727 179.055 85.8786 178.421 86.8094 178.04C90.3294 176.41 96.6294 179.15 96.6294 179.15C96.6294 179.15 102.859 174.48 107.999 178.87C113.139 183.26 106.999 188.72 106.999 188.72C106.999 188.72 108.149 192.54 101.999 193.18C95.9994 193.81 86.1794 187.94 86.1794 187.94C85.453 191.758 84.1586 195.446 82.3394 198.88C82.008 199.438 81.5294 199.893 80.9561 200.197C80.3827 200.5 79.7369 200.64 79.0894 200.6Z" fill="#263238"/>
<path d="M97.6294 179.57C96.4817 178.588 95.1439 177.853 93.6994 177.41C92.4153 176.956 91.0616 176.729 89.6994 176.74C88.5009 176.68 87.3087 176.948 86.2513 177.515C85.1939 178.082 84.3116 178.928 83.6994 179.96C83.4192 180.507 83.2509 181.105 83.2046 181.718C83.1582 182.331 83.2347 182.947 83.4294 183.53C83.4294 183.58 83.5194 183.53 83.4994 183.53C82.6994 181.36 84.3094 178.96 86.1994 178.01C88.428 177.086 90.9172 177.008 93.1994 177.79C94.6819 178.257 96.1023 178.901 97.4294 179.71C97.4386 179.723 97.4503 179.734 97.4638 179.743C97.4774 179.752 97.4924 179.757 97.5082 179.76C97.524 179.763 97.5402 179.763 97.5558 179.759C97.5715 179.756 97.5863 179.749 97.5994 179.74C97.6126 179.731 97.6238 179.719 97.6324 179.706C97.641 179.692 97.6469 179.677 97.6496 179.661C97.6524 179.645 97.6521 179.629 97.6486 179.614C97.6451 179.598 97.6386 179.583 97.6294 179.57Z" fill="#263238"/>
<path d="M111.299 183.17C111.286 182.288 111.056 181.423 110.631 180.651C110.205 179.879 109.597 179.223 108.859 178.74C107.199 177.56 105.193 176.969 103.159 177.06C101.113 177.158 99.1301 177.804 97.4189 178.93C97.4189 178.93 97.4189 179.02 97.4189 179C98.9516 178.017 100.721 177.465 102.541 177.404C104.361 177.342 106.163 177.773 107.759 178.65C108.515 178.989 109.175 179.511 109.679 180.168C110.184 180.826 110.517 181.598 110.649 182.416C110.781 183.234 110.707 184.073 110.435 184.855C110.163 185.638 109.7 186.34 109.089 186.9C107.658 188.212 105.887 189.095 103.979 189.45C103.979 189.45 103.979 189.53 103.979 189.52C105.756 189.282 107.443 188.594 108.879 187.52C109.57 187.01 110.144 186.358 110.561 185.608C110.979 184.857 111.23 184.026 111.299 183.17Z" fill="#263238"/>
<path d="M103.219 193.9C100.526 194.061 97.8302 193.649 95.3089 192.69C92.6751 191.73 90.1536 190.486 87.7889 188.98C86.4089 188.12 85.0589 187.2 83.7289 186.26C83.7289 186.26 83.6489 186.26 83.7289 186.33C85.9477 188.305 88.3676 190.041 90.9489 191.51C93.361 192.848 96.0102 193.703 98.7489 194.03C100.253 194.197 101.771 194.173 103.269 193.96C103.269 193.96 103.259 193.89 103.219 193.9Z" fill="#263238"/>
<path d="M82.6395 198.81C82.6395 198.81 81.0895 193.17 78.6395 193.57C76.1895 193.97 76.2295 201.35 78.3195 203.1C78.5673 203.34 78.8603 203.528 79.1816 203.653C79.5029 203.778 79.8459 203.837 80.1905 203.828C80.5351 203.819 80.8744 203.741 81.1885 203.598C81.5025 203.456 81.7851 203.253 82.0195 203L82.6395 198.81Z" fill="#C95F50"/>
<path d="M78.6991 195.68V195.74C80.1391 197.03 80.4691 198.9 80.5191 200.74C80.4807 200.535 80.3983 200.342 80.2777 200.172C80.1571 200.002 80.0011 199.861 79.8205 199.757C79.6399 199.653 79.4389 199.59 79.2315 199.572C79.0241 199.553 78.8152 199.58 78.6191 199.65V199.75C78.9495 199.763 79.2678 199.878 79.5308 200.078C79.7938 200.279 79.9888 200.555 80.0891 200.87C80.2514 201.398 80.3586 201.94 80.4091 202.49C80.4091 202.67 80.7291 202.69 80.7391 202.49C81.5291 200.32 80.9291 196.72 78.6991 195.68Z" fill="#263238"/>
<path d="M64.5391 226.67C61.6091 243.03 63.3691 277.33 70.8191 283.08C79.4491 289.73 117.229 291.08 125.629 288.62C128.979 287.62 121.009 265.49 117.289 265.52C101.659 265.63 88.4991 263.83 87.1591 261.98C85.0991 259.15 79.7091 239.2 76.0291 226.7C71.4191 211 65.8491 219.33 64.5391 226.67Z" fill="#C95F50"/>
<path d="M159.259 242.54L135.259 258.22C135.11 258.297 134.983 258.411 134.889 258.551C134.796 258.69 134.739 258.851 134.724 259.019C134.709 259.186 134.736 259.355 134.804 259.509C134.871 259.663 134.976 259.797 135.109 259.9L146.269 268.28C146.63 268.509 147.048 268.63 147.474 268.63C147.901 268.63 148.319 268.509 148.679 268.28L172.679 252.6C172.831 252.523 172.96 252.409 173.055 252.269C173.15 252.128 173.208 251.966 173.223 251.797C173.238 251.628 173.21 251.458 173.141 251.302C173.072 251.147 172.965 251.012 172.829 250.91L161.669 242.54C161.309 242.312 160.891 242.19 160.464 242.19C160.038 242.19 159.62 242.312 159.259 242.54Z" fill="#263238"/>
<path d="M158.229 241.84L134.229 257.52C134.08 257.597 133.953 257.711 133.859 257.851C133.765 257.99 133.708 258.151 133.693 258.319C133.678 258.486 133.706 258.655 133.773 258.809C133.841 258.963 133.946 259.097 134.079 259.2L145.239 267.58C145.6 267.809 146.017 267.93 146.444 267.93C146.871 267.93 147.289 267.809 147.649 267.58L171.649 251.9C171.801 251.823 171.93 251.709 172.025 251.569C172.12 251.428 172.178 251.266 172.193 251.097C172.208 250.928 172.18 250.758 172.111 250.602C172.042 250.447 171.935 250.312 171.799 250.21L160.639 241.84C160.279 241.612 159.861 241.49 159.434 241.49C159.007 241.49 158.59 241.612 158.229 241.84Z" fill="#37474F"/>
<path d="M157.729 243.15L135.729 257.53C135.049 257.97 134.959 258.67 135.519 259.09L145.519 266.58C145.856 266.788 146.243 266.898 146.639 266.898C147.035 266.898 147.423 266.788 147.759 266.58L169.759 252.19C171.139 251.3 170.989 250.76 170.429 250.34L168.429 248.84C168.342 248.799 168.246 248.783 168.151 248.794C168.055 248.805 167.965 248.841 167.889 248.9H167.809C167.679 249.007 167.513 249.06 167.345 249.047C167.177 249.034 167.021 248.956 166.909 248.83L162.279 245.36C162.019 245.16 161.819 245 162.279 244.72L162.349 244.67C162.539 244.55 162.589 244.39 162.469 244.3L160.469 242.8C159.859 242.4 159.019 242.33 157.729 243.15Z" fill="white"/>
<path d="M164.479 246.29L165.739 247.29C165.765 247.305 165.794 247.313 165.824 247.313C165.854 247.313 165.883 247.305 165.909 247.29C165.918 247.283 165.925 247.273 165.929 247.263C165.934 247.253 165.936 247.241 165.936 247.23C165.936 247.219 165.934 247.207 165.929 247.197C165.925 247.187 165.918 247.178 165.909 247.17L164.639 246.23C164.616 246.212 164.588 246.203 164.559 246.203C164.53 246.203 164.502 246.212 164.479 246.23C164.439 246.21 164.439 246.26 164.479 246.29Z" fill="white"/>
<path d="M146.509 252.95L154.989 259.31L164.449 253.15L155.959 246.78L146.509 252.95Z" fill="#F6CF00"/>
<path d="M148.489 256.61L153.439 260.33L153.999 259.96L149.049 256.25L148.489 256.61Z" fill="#A6A6A6"/>
<path d="M146.669 256.52L152.529 260.92L152.809 260.74L146.939 256.34L146.669 256.52Z" fill="#A6A6A6"/>
<path d="M146.159 256.85L152.019 261.25L152.299 261.07L146.429 256.67L146.159 256.85Z" fill="#A6A6A6"/>
<path d="M145.649 257.19L151.509 261.58L151.789 261.4L145.929 257L145.649 257.19Z" fill="#A6A6A6"/>
<path d="M166.27 250.48L167.33 251.27L167.55 251.12L166.5 250.33L166.27 250.48Z" fill="#A6A6A6"/>
<path d="M165.849 250.75L166.899 251.54L167.129 251.39L166.079 250.6L165.849 250.75Z" fill="#A6A6A6"/>
<path d="M165.429 251.02L166.489 251.82L166.709 251.67L165.659 250.87L165.429 251.02Z" fill="#A6A6A6"/>
<path d="M145.209 253.93C145.175 254.058 145.175 254.192 145.209 254.32C145.398 254.349 145.59 254.349 145.779 254.32C146.149 254.32 146.429 254.08 146.229 253.92C146.029 253.76 145.759 253.92 145.759 253.92C145.759 253.92 145.989 253.73 145.819 253.61C145.649 253.49 145.279 253.67 145.209 253.93Z" fill="#F6CF00"/>
<path d="M139.249 258.83L146.089 263.97L148.279 262.55L141.429 257.41L139.249 258.83Z" fill="#F6CF00"/>
<path d="M124.429 288.69C126.269 288.69 141.749 284.85 146.429 282.22C151.443 279.546 155.989 276.074 159.889 271.94C166.009 265.38 169.619 260.26 169.739 257.43C169.869 254.14 169.739 253.56 157.369 263.65C150.369 269.35 145.869 268.65 142.269 267.29C127.469 261.65 113.209 265.5 113.209 265.5C113.209 265.5 117.349 288.67 124.429 288.69Z" fill="#C95F50"/>
<path d="M144.099 267.88C140.329 266.59 155.269 263.37 156.989 259.16C158.709 254.95 154.019 254.8 149.919 256C135.519 260.27 127.069 256.77 118.419 262.69C117.499 263.31 114.789 264.69 114.739 265.13C114.329 269.27 144.099 267.88 144.099 267.88Z" fill="#C95F50"/>
<path d="M134.629 258.59C131.963 258.327 129.275 258.405 126.629 258.82C124.203 259.35 121.901 260.341 119.849 261.74C119.759 261.79 119.849 261.94 119.929 261.89C124.369 259.22 129.599 258.96 134.629 258.71C134.645 258.71 134.66 258.704 134.671 258.692C134.683 258.681 134.689 258.666 134.689 258.65C134.689 258.634 134.683 258.619 134.671 258.608C134.66 258.596 134.645 258.59 134.629 258.59Z" fill="#263238"/>
<path d="M61.5488 248.6L70.6488 246.89L82.1088 244.74C82.1088 244.74 79.4188 231.98 76.1088 224.02C72.7288 215.84 67.1088 213.17 64.0188 224.41C61.0188 235.46 61.5488 248.6 61.5488 248.6Z" fill="#F6CF00"/>
<path d="M62.3595 244.47C65.8595 243.68 78.7095 240.94 80.4195 241.21C80.4195 241.21 80.4795 241.34 80.4195 241.36C78.9095 242.21 65.9195 244.2 62.3695 244.68C62.3295 244.69 62.2895 244.49 62.3595 244.47Z" fill="#263238"/>
<path d="M63.1995 248.29C62.6595 248.45 62.1195 248.59 61.5795 248.73H61.4295V248.56C61.2895 247.13 61.2695 245.69 61.2695 244.26C61.2695 242.83 61.3395 241.39 61.4395 239.96C61.5395 238.53 61.6695 237.1 61.8695 235.68C62.0695 234.26 62.2795 232.85 62.5795 231.44C62.5795 232.88 62.4795 234.3 62.4095 235.73C62.3395 237.16 62.2495 238.58 62.1695 240.01C62.0195 242.85 61.8195 245.7 61.6995 248.55L61.5395 248.43C62.0795 248.4 62.6395 248.33 63.1995 248.29Z" fill="#263238"/>
<path d="M60.7993 234.65C61.0843 235.518 61.2984 236.407 61.4393 237.31C61.5093 237.76 61.5793 238.21 61.6193 238.66C61.6678 239.118 61.6912 239.579 61.6893 240.04C61.3305 239.192 61.0818 238.301 60.9493 237.39C60.789 236.486 60.7386 235.566 60.7993 234.65Z" fill="#263238"/>
<path d="M81.3491 244.88L82.0891 244.66L82.0291 244.76C81.6391 243.57 81.3291 242.37 80.9791 241.18L80.0491 237.58C79.4491 235.18 78.8891 232.78 78.3691 230.34C78.8923 231.47 79.3432 232.633 79.7191 233.82C80.1291 235 80.4491 236.2 80.7191 237.4C80.9891 238.6 81.2991 239.82 81.5391 241.04C81.7791 242.26 81.9891 243.48 82.1391 244.72V244.81H82.0591C81.8691 244.85 81.6091 244.86 81.3491 244.88Z" fill="#263238"/>
<path d="M80.2388 232.75C80.4601 233.421 80.5749 234.123 80.5788 234.83C80.5854 235.185 80.5619 235.539 80.5088 235.89C80.4657 236.234 80.3748 236.571 80.2388 236.89C80.1365 236.201 80.0831 235.506 80.0788 234.81C80.0602 234.12 80.1139 233.429 80.2388 232.75Z" fill="#263238"/>
<path d="M133.319 168.45C133.424 169.666 133.165 170.886 132.576 171.955C131.987 173.024 131.095 173.894 130.011 174.456C128.927 175.017 127.701 175.245 126.488 175.11C125.275 174.975 124.13 174.483 123.196 173.696C122.263 172.91 121.584 171.864 121.245 170.692C120.906 169.519 120.922 168.272 121.292 167.109C121.661 165.946 122.368 164.919 123.321 164.157C124.275 163.395 125.433 162.933 126.649 162.83C127.457 162.76 128.27 162.85 129.042 163.095C129.814 163.339 130.531 163.734 131.15 164.256C131.77 164.778 132.28 165.417 132.653 166.137C133.025 166.857 133.251 167.643 133.319 168.45Z" fill="white"/>
<path d="M133.319 168.45C133.459 170.102 132.956 171.743 131.914 173.033C130.873 174.322 129.373 175.159 127.729 175.37C126.881 175.458 126.024 175.377 125.208 175.131C124.392 174.884 123.633 174.478 122.976 173.935C122.319 173.393 121.776 172.724 121.38 171.97C120.983 171.215 120.741 170.389 120.668 169.54C120.594 168.69 120.69 167.835 120.95 167.023C121.211 166.212 121.63 165.46 122.184 164.812C122.738 164.164 123.416 163.633 124.177 163.25C124.939 162.867 125.769 162.639 126.619 162.58C128.278 162.504 129.902 163.073 131.15 164.167C132.399 165.261 133.176 166.796 133.319 168.45ZM133.319 168.45C133.253 167.654 133.026 166.879 132.652 166.173C132.278 165.467 131.764 164.845 131.143 164.343C130.521 163.841 129.804 163.47 129.035 163.253C128.266 163.036 127.462 162.977 126.669 163.08C125.162 163.294 123.792 164.073 122.837 165.26C121.883 166.446 121.415 167.951 121.529 169.47C121.662 170.991 122.376 172.403 123.524 173.411C124.671 174.419 126.163 174.945 127.689 174.88C128.487 174.845 129.27 174.649 129.99 174.303C130.71 173.958 131.353 173.47 131.879 172.869C132.405 172.268 132.804 171.566 133.052 170.807C133.299 170.047 133.39 169.246 133.319 168.45Z" fill="#263238"/>
<path d="M120.019 179.82C120.076 180.495 119.931 181.172 119.603 181.766C119.275 182.359 118.779 182.842 118.177 183.153C117.575 183.464 116.895 183.591 116.221 183.516C115.547 183.44 114.911 183.168 114.393 182.731C113.874 182.295 113.496 181.715 113.307 181.064C113.118 180.413 113.126 179.721 113.33 179.074C113.534 178.428 113.925 177.857 114.453 177.432C114.982 177.008 115.624 176.75 116.299 176.69C117.207 176.612 118.109 176.898 118.807 177.485C119.504 178.072 119.94 178.912 120.019 179.82Z" fill="white"/>
<path d="M120.019 179.82C120.105 180.757 119.831 181.691 119.253 182.434C118.676 183.176 117.838 183.672 116.909 183.82C116.179 183.933 115.432 183.824 114.764 183.507C114.097 183.19 113.54 182.68 113.165 182.044C112.791 181.407 112.616 180.672 112.664 179.935C112.712 179.197 112.98 178.491 113.433 177.908C113.887 177.325 114.505 176.891 115.208 176.663C115.91 176.435 116.665 176.423 117.375 176.629C118.084 176.835 118.716 177.25 119.187 177.818C119.659 178.387 119.949 179.085 120.019 179.82ZM120.019 179.82C119.977 179.374 119.843 178.941 119.626 178.549C119.409 178.157 119.114 177.813 118.759 177.54C118.267 177.171 117.678 176.952 117.063 176.91C116.449 176.869 115.836 177.006 115.298 177.305C114.759 177.604 114.319 178.052 114.03 178.595C113.741 179.139 113.616 179.755 113.669 180.368C113.722 180.981 113.951 181.566 114.329 182.052C114.707 182.538 115.218 182.904 115.8 183.106C116.381 183.308 117.009 183.338 117.607 183.191C118.205 183.045 118.747 182.728 119.169 182.28C119.472 181.95 119.703 181.561 119.85 181.138C119.996 180.715 120.054 180.266 120.019 179.82Z" fill="#263238"/>
<path d="M179.459 139.76C179.844 142.894 179.397 146.075 178.164 148.982C176.931 151.889 174.954 154.42 172.434 156.322C169.913 158.224 166.936 159.429 163.802 159.817C160.668 160.204 157.487 159.76 154.579 158.53C153.164 160.37 151.345 161.86 149.262 162.884C147.179 163.908 144.888 164.438 142.566 164.433C140.245 164.428 137.957 163.888 135.878 162.856C133.799 161.824 131.986 160.326 130.579 158.48C129.926 158.68 129.257 158.821 128.579 158.9C126.225 159.194 123.836 158.798 121.702 157.761C119.568 156.725 117.781 155.091 116.557 153.058C115.333 151.026 114.725 148.682 114.807 146.311C114.889 143.939 115.658 141.643 117.019 139.7C114.331 136.327 112.944 132.101 113.11 127.792C113.276 123.482 114.983 119.375 117.922 116.218C120.861 113.062 124.835 111.065 129.122 110.592C133.408 110.119 137.722 111.2 141.279 113.64C142.946 111.557 145.135 109.952 147.624 108.989C150.112 108.026 152.811 107.739 155.447 108.158C158.082 108.576 160.56 109.685 162.627 111.372C164.695 113.058 166.279 115.262 167.219 117.76C167.849 117.546 168.499 117.399 169.159 117.32C171.163 117.074 173.194 117.447 174.979 118.39C176.765 119.333 178.218 120.801 179.144 122.595C180.07 124.389 180.424 126.424 180.159 128.426C179.893 130.427 179.021 132.299 177.659 133.79C178.61 135.657 179.219 137.679 179.459 139.76Z" fill="white"/>
<path d="M179.459 139.76C179.832 142.893 179.388 146.069 178.169 148.98C177.549 150.429 176.753 151.795 175.799 153.05C174.826 154.284 173.7 155.389 172.449 156.34C169.923 158.258 166.939 159.482 163.794 159.89C160.649 160.299 157.452 159.878 154.519 158.67H154.689C153.259 160.549 151.415 162.073 149.3 163.124C147.186 164.176 144.858 164.726 142.497 164.733C140.135 164.74 137.804 164.203 135.684 163.163C133.563 162.124 131.711 160.611 130.269 158.74L130.629 158.86C129.385 159.236 128.089 159.415 126.789 159.39C125.486 159.388 124.192 159.172 122.959 158.75C120.464 157.915 118.291 156.325 116.739 154.2C115.985 153.131 115.389 151.959 114.969 150.72C114.567 149.475 114.352 148.178 114.329 146.87C114.305 144.228 115.105 141.645 116.619 139.48V140C113.889 136.541 112.489 132.218 112.672 127.815C112.856 123.412 114.611 119.22 117.619 116C120.635 112.796 124.688 110.762 129.059 110.26C133.421 109.792 137.806 110.903 141.419 113.39L140.979 113.46C142.692 111.348 144.936 109.73 147.48 108.77C150.025 107.811 152.778 107.545 155.459 108C158.118 108.442 160.613 109.578 162.692 111.294C164.771 113.009 166.36 115.243 167.299 117.77L167.169 117.71C169.267 117.031 171.529 117.059 173.609 117.79C175.155 118.338 176.541 119.261 177.644 120.475C178.746 121.69 179.53 123.159 179.926 124.75C180.323 126.342 180.318 128.007 179.914 129.597C179.51 131.186 178.718 132.651 177.609 133.86C178.57 135.702 179.196 137.699 179.459 139.76ZM179.459 139.76C179.213 137.667 178.593 135.635 177.629 133.76C178.723 132.556 179.5 131.099 179.892 129.52C180.284 127.941 180.278 126.29 179.875 124.714C179.471 123.138 178.683 121.687 177.581 120.491C176.479 119.295 175.097 118.391 173.559 117.86C171.512 117.155 169.287 117.155 167.239 117.86H167.139V117.76C166.185 115.298 164.599 113.132 162.539 111.48C160.492 109.82 158.037 108.739 155.429 108.35C152.839 107.95 150.188 108.245 147.749 109.207C145.31 110.168 143.171 111.76 141.549 113.82L141.369 114.06L141.109 113.88C137.615 111.553 133.406 110.545 129.237 111.036C125.067 111.527 121.208 113.485 118.349 116.56C115.523 119.64 113.878 123.622 113.708 127.8C113.538 131.977 114.853 136.08 117.419 139.38L117.629 139.65L117.429 139.94C116.015 141.939 115.263 144.331 115.279 146.78C115.288 147.998 115.48 149.209 115.849 150.37C116.232 151.527 116.781 152.622 117.479 153.62C118.92 155.61 120.932 157.113 123.249 157.93C124.406 158.341 125.622 158.561 126.849 158.58C128.076 158.625 129.301 158.473 130.479 158.13L130.699 158.06L130.849 158.25C132.221 160.063 133.985 161.544 136.009 162.58C139.095 164.14 142.628 164.578 146.001 163.819C149.374 163.06 152.379 161.151 154.499 158.42L154.569 158.33H154.669C157.552 159.577 160.715 160.035 163.834 159.659C166.952 159.283 169.915 158.086 172.419 156.19C173.67 155.247 174.799 154.152 175.779 152.93C176.733 151.699 177.532 150.355 178.159 148.93C179.375 146.036 179.823 142.878 179.459 139.76Z" fill="#263238"/>
<path d="M156.16 139.27L155.59 142C155.547 142.276 155.447 142.541 155.295 142.776C155.144 143.011 154.945 143.212 154.712 143.366C154.478 143.519 154.215 143.622 153.939 143.668C153.663 143.713 153.38 143.7 153.11 143.63C152.839 143.574 152.582 143.465 152.353 143.31C152.125 143.154 151.929 142.955 151.777 142.724C151.626 142.492 151.522 142.233 151.471 141.961C151.419 141.69 151.423 141.411 151.48 141.14L152.39 136.77C152.39 136.77 152.39 136.77 152.45 136.7C152.51 136.63 152.45 136.7 152.45 136.6C152.579 136.063 152.909 135.595 153.372 135.294C153.835 134.993 154.396 134.88 154.94 134.98C156.189 135.245 157.492 135.003 158.563 134.308C159.634 133.612 160.384 132.519 160.65 131.27C160.915 130.021 160.673 128.717 159.977 127.647C159.281 126.576 158.189 125.825 156.94 125.56C156.123 125.391 155.275 125.438 154.482 125.698C153.69 125.958 152.978 126.42 152.42 127.04C152.24 127.264 152.017 127.449 151.764 127.583C151.511 127.718 151.233 127.8 150.947 127.823C150.661 127.847 150.374 127.812 150.102 127.721C149.83 127.63 149.58 127.484 149.366 127.293C149.152 127.102 148.98 126.869 148.859 126.609C148.738 126.349 148.672 126.067 148.664 125.78C148.656 125.493 148.706 125.208 148.812 124.942C148.918 124.675 149.077 124.433 149.28 124.23C150.274 123.119 151.529 122.273 152.931 121.767C154.333 121.261 155.839 121.112 157.314 121.332C158.788 121.552 160.185 122.135 161.378 123.028C162.571 123.921 163.524 125.097 164.151 126.45C164.778 127.802 165.059 129.289 164.968 130.777C164.878 132.265 164.42 133.708 163.635 134.975C162.849 136.242 161.762 137.294 160.469 138.037C159.177 138.779 157.72 139.189 156.23 139.23L156.16 139.27ZM154.25 148.47L154.09 149.23C154.039 149.503 153.933 149.764 153.779 149.995C153.625 150.226 153.425 150.424 153.193 150.577C152.96 150.729 152.699 150.833 152.425 150.881C152.151 150.93 151.871 150.923 151.6 150.86C151.055 150.742 150.579 150.415 150.274 149.949C149.969 149.483 149.86 148.916 149.97 148.37L150.13 147.61C150.254 147.071 150.584 146.601 151.048 146.301C151.513 146 152.077 145.892 152.62 146C153.162 146.113 153.638 146.436 153.944 146.899C154.249 147.362 154.359 147.926 154.25 148.47Z" fill="#F6CF00"/>
<path d="M134.309 133.72L134.019 131C133.969 130.723 133.978 130.439 134.045 130.167C134.113 129.894 134.237 129.638 134.409 129.416C134.582 129.195 134.799 129.012 135.048 128.88C135.296 128.748 135.569 128.669 135.849 128.65C136.402 128.585 136.957 128.741 137.396 129.083C137.834 129.426 138.119 129.928 138.189 130.48L138.739 134.91C138.739 134.91 138.739 134.91 138.739 135C138.739 135.09 138.739 135 138.789 135.08C138.844 135.631 138.684 136.181 138.343 136.617C138.002 137.053 137.507 137.34 136.959 137.42C136.314 137.474 135.686 137.658 135.114 137.961C134.542 138.264 134.036 138.679 133.628 139.182C133.22 139.684 132.918 140.264 132.74 140.887C132.561 141.509 132.51 142.161 132.589 142.803C132.669 143.446 132.877 144.066 133.202 144.626C133.527 145.186 133.961 145.675 134.48 146.063C134.998 146.451 135.589 146.73 136.218 146.885C136.847 147.039 137.5 147.064 138.139 146.96C138.967 146.864 139.754 146.551 140.422 146.052C141.089 145.553 141.613 144.887 141.939 144.12C142.047 143.861 142.206 143.625 142.405 143.428C142.605 143.23 142.842 143.074 143.103 142.969C143.363 142.864 143.642 142.812 143.923 142.815C144.204 142.819 144.481 142.878 144.739 142.99C144.992 143.1 145.22 143.258 145.411 143.457C145.602 143.655 145.753 143.889 145.853 144.145C145.953 144.402 146.002 144.676 145.996 144.951C145.99 145.226 145.93 145.498 145.819 145.75C145.228 147.114 144.309 148.31 143.143 149.232C141.977 150.154 140.601 150.773 139.138 151.033C137.674 151.294 136.169 151.188 134.757 150.725C133.345 150.262 132.069 149.456 131.044 148.38C130.019 147.304 129.276 145.99 128.882 144.557C128.488 143.124 128.456 141.615 128.787 140.166C129.118 138.717 129.803 137.373 130.781 136.253C131.758 135.134 132.998 134.274 134.389 133.75L134.309 133.72ZM133.159 124.4L133.059 123.63C133.011 123.354 133.021 123.071 133.089 122.8C133.157 122.528 133.281 122.274 133.454 122.053C133.626 121.832 133.843 121.65 134.09 121.519C134.338 121.388 134.61 121.31 134.889 121.29C135.163 121.255 135.441 121.275 135.708 121.348C135.974 121.421 136.223 121.547 136.441 121.717C136.658 121.887 136.84 122.099 136.975 122.339C137.111 122.58 137.197 122.846 137.229 123.12L137.329 123.88C137.389 124.433 137.232 124.987 136.89 125.426C136.548 125.864 136.05 126.153 135.499 126.23C135.225 126.266 134.946 126.247 134.679 126.175C134.412 126.102 134.163 125.977 133.945 125.806C133.727 125.636 133.545 125.424 133.41 125.182C133.275 124.941 133.19 124.675 133.159 124.4Z" fill="#F6CF00"/>
</g>
<defs>
<filter id="filter0_d_239_239" x="0" y="0" width="414.03" height="465.86" filterUnits="userSpaceOnUse" color-interpolation-filters="sRGB">
<feFlood flood-opacity="0" result="BackgroundImageFix"/>
<feColorMatrix in="SourceAlpha" type="matrix" values="0 0 0 0 0 0 0 0 0 0 0 0 0 0 0 0 0 0 127 0" result="hardAlpha"/>
<feOffset dy="4"/>
<feGaussianBlur stdDeviation="2"/>
<feComposite in2="hardAlpha" operator="out"/>
<feColorMatrix type="matrix" values="0 0 0 0 0 0 0 0 0 0 0 0 0 0 0 0 0 0 0.25 0"/>
<feBlend mode="normal" in2="BackgroundImageFix" result="effect1_dropShadow_239_239"/>
<feBlend mode="normal" in="SourceGraphic" in2="effect1_dropShadow_239_239" result="shape"/>
</filter>
</defs>
</svg>
