<svg width="502" height="566" viewBox="0 0 502 566" fill="none" xmlns="http://www.w3.org/2000/svg">
<path d="M53.4488 427.634H20.71V441.467H53.4488V427.634Z" fill="#EBEBEB"/>
<path d="M35.1881 445.076H2.44922V458.909H35.1881V445.076Z" fill="#EBEBEB"/>
<path d="M71.7105 445.076H38.9717V458.909H71.7105V445.076Z" fill="#EBEBEB"/>
<path d="M481.305 57.9029H448.566V71.7358H481.305V57.9029Z" fill="#EBEBEB"/>
<path d="M499.564 75.3455H466.825V89.1784H499.564V75.3455Z" fill="#EBEBEB"/>
<path d="M35.1881 57.9277H2.44922V71.7606H35.1881V57.9277Z" fill="#EBEBEB"/>
<path d="M466.838 441.355H499.577V427.522H466.838V441.355Z" fill="#EBEBEB"/>
<path d="M388.664 281.974H421.403V268.141H388.664V281.974Z" fill="#EBEBEB"/>
<path d="M406.924 264.531H439.663V250.698H406.924V264.531Z" fill="#EBEBEB"/>
<path d="M56.8732 0H55.6367V135.98H56.8732V0Z" fill="#C7C7C7"/>
<path d="M102.445 180.273L98.7483 188.395H14.243L10.5586 180.273L46.5367 155.376H66.4669L102.445 180.273Z" fill="#EBEBEB"/>
<path d="M68.9651 131.394L66.4676 155.376H46.5375L44.04 131.394H68.9651Z" fill="#DBDBDB"/>
<path d="M102.433 180.285L98.7359 188.407H14.2306L10.5586 180.285H102.433Z" fill="#DBDBDB"/>
<path d="M144.654 0H143.418V108.784H144.654V0Z" fill="#C7C7C7"/>
<path d="M190.376 154.078L186.679 162.2H102.174L98.4893 154.078L134.467 129.181H154.398L190.376 154.078Z" fill="#EBEBEB"/>
<path d="M156.895 105.187L154.397 129.181H134.467L131.97 105.187H156.895Z" fill="#DBDBDB"/>
<path d="M190.376 154.078L186.679 162.2H102.174L98.4893 154.078H190.376Z" fill="#DBDBDB"/>
<path d="M496.187 536.604C496.187 552.847 386.423 566 251.004 566C115.585 566 5.82129 552.847 5.82129 536.604C5.82129 520.36 115.585 507.207 251.004 507.207C386.423 507.207 496.187 520.36 496.187 536.604Z" fill="#EBEBEB"/>
<path d="M444.15 371.758C445.053 378.007 444.73 384.373 443.198 390.499C442.48 393.336 441.52 396.107 440.329 398.781C438.833 402.218 437.276 405.555 437.659 409.313C438.017 409.548 436.781 409.511 436.732 409.153C426.705 403.442 413.846 402.391 406.132 393.082C402.655 388.534 400.457 383.139 399.764 377.457C398.812 371.35 398.528 364.601 400.123 358.593C401.446 353.549 404.425 348.604 409.26 346.132C414.094 343.66 420.659 343.783 425.852 345.39C436.991 348.839 442.567 360.966 444.15 371.758Z" fill="#F6CF00"/>
<path d="M449.292 445.966C447.932 441.409 446.551 436.856 445.15 432.306C442.405 423.394 439.549 414.518 436.372 405.741C434.476 400.491 432.477 395.287 430.376 390.128C430.622 386.878 431.035 383.643 431.612 380.436C432.453 376.554 433.664 372.796 434.802 369.001C434.876 368.766 434.493 368.643 434.394 368.865C432.144 374.107 429.201 380.807 429.139 387.013C426.666 381.178 424.037 375.429 421.251 369.768C420.906 364.979 421.03 360.168 421.622 355.403C421.622 355.363 421.607 355.325 421.581 355.294C421.556 355.263 421.52 355.243 421.481 355.235C421.441 355.228 421.401 355.235 421.365 355.254C421.33 355.273 421.303 355.304 421.288 355.342C420.432 359.507 420.1 363.764 420.299 368.012C418.148 363.76 415.869 359.561 413.462 355.416C413.24 355.045 412.733 355.416 412.918 355.799C416.689 363.055 420.176 370.46 423.464 377.964C418.848 373.96 413.51 370.872 407.738 368.865C407.49 368.766 407.305 369.137 407.552 369.236C413.852 371.94 419.615 375.755 424.565 380.498C426.914 385.987 429.16 391.525 431.303 397.112C425.022 390.931 416.466 386.914 408.133 384.75C407.849 384.676 407.775 385.109 408.047 385.183C417.666 388.076 425.121 393.527 432.44 400.017C433.281 402.279 434.122 404.542 434.913 406.804C438.004 415.391 440.951 424.045 443.753 432.764C445.105 436.884 446.432 441.054 447.734 445.274C449.131 449.774 450.207 454.521 452.061 458.872C452.234 459.28 452.976 459.193 452.877 458.687C451.901 454.388 450.704 450.142 449.292 445.966Z" fill="#263238"/>
<path d="M432.663 362.981C430.886 365.718 429.66 368.775 429.053 371.981C429.053 372.067 429.164 372.117 429.201 371.981C430.317 368.96 431.622 366.012 433.108 363.154C433.269 362.907 432.836 362.722 432.663 362.981Z" fill="#263238"/>
<path d="M414.774 383.873C411.986 382.327 408.94 381.301 405.785 380.844C405.698 380.844 405.649 380.955 405.785 380.992C407.231 381.586 408.752 382.006 410.211 382.575C411.67 383.144 413.117 383.811 414.6 384.343C414.657 384.348 414.714 384.334 414.762 384.303C414.81 384.273 414.846 384.228 414.866 384.174C414.886 384.121 414.887 384.062 414.871 384.008C414.854 383.954 414.82 383.906 414.774 383.873Z" fill="#263238"/>
<path d="M409.741 358.754C408.837 358.064 407.868 357.464 406.848 356.961C406.814 356.949 406.777 356.948 406.743 356.96C406.709 356.971 406.68 356.993 406.66 357.023C406.64 357.053 406.631 357.089 406.633 357.124C406.636 357.16 406.651 357.194 406.675 357.221C407.567 357.923 408.524 358.539 409.531 359.063C409.717 359.174 409.927 358.865 409.741 358.754Z" fill="#263238"/>
<path d="M477.952 405.815C470.731 407.954 463.474 409.931 456.254 412.058C455.623 412.243 443.42 388.855 447.834 376.802C449.934 371.343 453.228 366.422 457.474 362.399C461.72 358.376 466.811 355.352 472.376 353.549C477.531 351.794 483.862 350.323 489.314 351.522C494.16 352.597 497.573 356.553 499.205 361.115C501.344 367.295 500.627 374.713 499.464 381.005C498.538 386.939 496.089 392.531 492.355 397.236C488.473 401.76 483.577 404.146 477.952 405.815Z" fill="#F6CF00"/>
<path d="M488.386 383.576C483.82 385.811 479.082 387.675 474.218 389.151C470.978 390.025 467.818 391.17 464.772 392.575C467.826 385.776 471.164 379.126 474.724 372.525C479.386 371.177 484.294 369.076 487.805 365.775C487.825 365.758 487.842 365.737 487.854 365.714C487.867 365.69 487.874 365.664 487.876 365.638C487.879 365.612 487.876 365.585 487.868 365.56C487.86 365.534 487.847 365.511 487.83 365.491C487.813 365.47 487.792 365.454 487.768 365.441C487.745 365.429 487.719 365.422 487.693 365.419C487.666 365.417 487.64 365.42 487.615 365.428C487.589 365.436 487.566 365.449 487.546 365.466C483.7 368.186 479.447 369.817 475.182 371.647C476.146 369.867 477.111 368.099 478.1 366.331C478.372 365.837 477.704 365.355 477.37 365.824C473.575 371.337 470.147 377.093 467.108 383.057C466.329 377.833 466.081 372.544 466.367 367.271C466.367 367.135 466.181 367.122 466.156 367.271C465.26 373.01 465.318 378.857 466.33 384.577C463.857 389.633 461.495 394.813 459.418 400.054C458.602 396.902 457.527 393.799 456.81 390.622C455.718 386.077 455.367 381.385 455.771 376.728C455.771 376.592 455.586 376.579 455.561 376.728C454.32 385.37 455.409 394.186 458.714 402.267C457.477 405.419 456.352 408.584 455.301 411.761C449.856 427.948 446.629 444.798 445.707 461.851C445.707 461.933 445.74 462.012 445.798 462.07C445.856 462.128 445.934 462.16 446.016 462.16C446.098 462.16 446.177 462.128 446.235 462.07C446.293 462.012 446.325 461.933 446.325 461.851C448.217 445.046 451.821 428.477 457.082 412.404C459.171 406.112 461.582 400.042 464.228 393.997C468.493 392.761 472.746 391.03 476.938 389.584C481.128 388.321 485.084 386.379 488.646 383.836C488.68 383.801 488.7 383.754 488.7 383.706C488.7 383.657 488.68 383.61 488.646 383.576C488.611 383.542 488.565 383.522 488.516 383.522C488.467 383.522 488.421 383.542 488.386 383.576Z" fill="#263238"/>
<path d="M495.15 376.789C490.736 378.359 486.495 380.56 482.143 382.154C481.932 382.229 482.056 382.55 482.254 382.513C486.928 381.549 491.552 380.102 495.323 377.037C495.459 376.925 495.311 376.728 495.15 376.789Z" fill="#263238"/>
<path d="M459.084 367.258C459.146 367.023 458.8 366.887 458.725 367.135C457.489 371.202 456.685 375.528 457.86 379.682C457.86 379.843 458.169 379.855 458.169 379.682C458.379 375.467 458.144 371.387 459.084 367.258Z" fill="#263238"/>
<path d="M477.333 357.863C475.926 359.887 475.251 362.328 475.416 364.786C475.416 364.934 475.676 365.021 475.713 364.848C476.257 362.511 477.159 360.398 477.877 358.135C477.897 358.066 477.892 357.991 477.863 357.925C477.834 357.859 477.783 357.805 477.718 357.772C477.653 357.74 477.579 357.731 477.509 357.748C477.438 357.765 477.376 357.805 477.333 357.863Z" fill="#263238"/>
<path d="M392.061 416.125C394.175 422.85 399.207 432.133 407.169 432.195C412.337 432.195 417.53 431.627 422.71 431.552C428.249 431.466 433.838 431.478 439.34 431.812C439.797 431.812 438.672 415.21 425.356 407.088C421.647 404.814 417.06 404.097 412.82 403.182C407.961 402.03 402.975 401.511 397.983 401.637C394.917 401.76 392.37 402.403 391.282 405.543C390.194 408.683 391.035 412.886 392.061 416.125Z" fill="#F6CF00"/>
<path d="M397.786 407.719C401.025 408.547 404.289 409.511 407.541 410.537C406.693 409.617 405.797 408.743 404.858 407.916C403.461 406.767 401.928 405.84 400.432 404.814C400.308 404.739 400.432 404.492 400.543 404.554C403.694 405.863 406.415 408.03 408.394 410.809C412.449 412.107 416.455 413.554 420.312 415.136C422.98 416.231 425.539 417.576 427.953 419.153C427.176 417.475 426.249 415.869 425.184 414.357C423.416 412.058 421.029 410.784 418.717 409.165C418.678 409.133 418.652 409.089 418.643 409.039C418.634 408.99 418.643 408.939 418.668 408.895C418.694 408.852 418.734 408.819 418.782 408.803C418.829 408.787 418.881 408.788 418.928 408.807C421.347 409.858 423.52 411.403 425.308 413.342C427.097 415.281 428.461 417.572 429.313 420.068C432.084 422.06 434.619 424.362 436.867 426.929C445.682 436.942 452.631 450.268 452.656 463.854C452.656 464.175 452.136 464.274 452.075 463.928C449.806 450.607 443.998 438.14 435.26 427.831C434.629 427.09 434.024 426.397 433.319 425.718C430.905 425.388 428.473 425.206 426.037 425.174C423.205 425.174 420.387 425.594 417.568 425.816C412.919 426.2 407.776 426.249 403.572 423.913C403.387 423.814 403.572 423.492 403.72 423.567C413.08 426.966 422.884 422.652 432.256 424.679C428.253 420.861 423.563 417.837 418.433 415.766L417.568 415.42C411.571 416.137 405.204 417.707 399.393 415.754C399.375 415.749 399.359 415.741 399.344 415.729C399.329 415.718 399.317 415.704 399.308 415.688C399.299 415.672 399.293 415.654 399.29 415.636C399.288 415.617 399.289 415.599 399.294 415.581C399.299 415.563 399.307 415.546 399.319 415.532C399.33 415.517 399.344 415.505 399.36 415.496C399.376 415.486 399.394 415.48 399.412 415.478C399.431 415.476 399.449 415.477 399.467 415.482C405.117 416.891 410.533 415.111 416.109 414.827C410.038 412.466 403.844 410.587 397.761 408.238C397.242 408.04 397.229 407.57 397.786 407.719Z" fill="#263238"/>
<path d="M395.14 413.628C398.04 414.005 400.957 414.228 403.881 414.295C403.943 414.295 403.968 414.394 403.881 414.407C400.942 414.953 397.913 414.762 395.065 413.85C394.929 413.813 395.004 413.603 395.14 413.628Z" fill="#263238"/>
<path d="M414.872 407.867C416.488 408.591 417.956 409.61 419.199 410.872C419.348 411.008 419.199 411.28 418.977 411.156C418.247 410.624 417.493 410.117 416.726 409.635C416.003 409.226 415.302 408.781 414.624 408.3C414.585 408.259 414.561 408.207 414.554 408.152C414.547 408.096 414.558 408.04 414.586 407.991C414.614 407.942 414.657 407.904 414.708 407.881C414.76 407.859 414.817 407.854 414.872 407.867Z" fill="#263238"/>
<path d="M461.916 429.5C461.817 429.71 462.139 429.921 462.262 429.686C462.286 429.721 462.317 429.752 462.354 429.775C462.39 429.798 462.43 429.814 462.472 429.822C467.833 431.101 473.266 432.05 478.743 432.665C483.144 433.061 488.226 433.295 492.083 430.749C497.313 427.275 500.738 418.016 497.919 412.132C494.581 405.147 484.504 408.943 479.448 411.427C471.675 415.223 465.473 421.616 461.916 429.5Z" fill="#F6CF00"/>
<path d="M458.009 432.727C460.943 429.878 464.205 427.388 467.727 425.31C470.27 421.294 473.642 417.867 477.617 415.259C477.815 415.123 477.976 415.433 477.803 415.569C474.653 418.09 471.858 421.026 469.495 424.296C473.417 422.153 477.491 420.302 481.685 418.758C483.185 415.98 485.462 413.699 488.238 412.194C488.238 412.194 488.361 412.194 488.312 412.28C486.02 414.011 484.02 416.097 482.39 418.461C484.863 417.546 487.335 416.681 489.87 415.853C490.092 415.779 490.179 416.125 489.969 416.199C485.518 417.942 480.968 419.772 476.554 421.885C481.935 422.744 487.419 422.744 492.8 421.885C492.948 421.885 493.01 422.071 492.8 422.108C487.187 423.769 481.226 423.859 475.565 422.368C472.755 423.733 470.026 425.26 467.393 426.941C469.608 426.76 471.839 426.944 473.995 427.485C477.801 428.371 481.697 428.811 485.604 428.796C485.753 428.796 485.79 429.043 485.604 429.068C478.866 430.217 472.499 427.164 465.823 427.955C463.344 429.643 461.019 431.546 458.874 433.642C454.708 437.8 451.28 442.637 448.736 447.944C445.917 453.668 444.396 459.725 442.121 465.634C442.107 465.688 442.071 465.734 442.022 465.762C441.974 465.79 441.916 465.797 441.862 465.782C441.808 465.768 441.762 465.732 441.734 465.683C441.706 465.635 441.699 465.577 441.714 465.523C443.716 453.878 449.515 441.034 458.009 432.727Z" fill="#263238"/>
<path d="M478.322 416.744C478.773 415.951 479.358 415.244 480.053 414.654C480.615 414.036 481.291 413.532 482.043 413.17C482.105 413.17 482.142 413.17 482.105 413.282C481.549 413.9 480.782 414.37 480.189 414.963C479.595 415.557 479.088 416.274 478.483 416.867C478.466 416.889 478.442 416.902 478.415 416.906C478.389 416.909 478.362 416.902 478.34 416.886C478.319 416.869 478.305 416.845 478.302 416.819C478.298 416.792 478.305 416.765 478.322 416.744Z" fill="#263238"/>
<path d="M489.437 420.365C490.438 420.118 491.489 420.13 492.503 419.92C493.512 419.68 494.507 419.382 495.483 419.03C495.511 419.023 495.541 419.026 495.567 419.039C495.593 419.051 495.614 419.073 495.626 419.1C495.638 419.126 495.64 419.156 495.632 419.184C495.624 419.212 495.606 419.236 495.582 419.252C493.733 420.392 491.561 420.892 489.4 420.674C489.276 420.65 489.288 420.402 489.437 420.365Z" fill="#263238"/>
<path d="M430.253 451.171L431.131 461.208L434.135 495.105H460.692L464.438 461.208L465.539 451.171H430.253Z" fill="#455A64"/>
<path d="M430.253 451.171L431.131 461.208H464.438L465.539 451.171H430.253Z" fill="#263238"/>
<path d="M427.631 456.573H468.184V448.426H427.631V456.573Z" fill="#455A64"/>
<path d="M0 495.018L62.7577 494.721L125.503 494.61L251.006 494.412L376.509 494.61L439.255 494.721L502 495.018L439.255 495.327L376.509 495.439L251.006 495.636L125.503 495.439L62.7577 495.327L0 495.018Z" fill="#263238"/>
<path d="M418.367 96.1759V496.774C418.367 508.098 409.885 517.258 399.426 517.258H212.438C201.954 517.258 193.473 508.098 193.473 496.774V96.1759C193.473 73.1087 201.954 71.9837 212.438 71.9837H249.937C252.113 71.9837 253.894 74.4561 253.894 77.5219V78.8446C253.894 86.0268 257.825 86.0515 262.647 86.0515H349.267C354.138 86.0515 358.045 86.0515 358.045 78.8446V77.5219C358.045 74.4561 359.8 71.9837 362.013 71.9837H399.463C409.885 71.9837 418.367 75.0495 418.367 96.1759Z" fill="white"/>
<path d="M418.367 96.1758L418.676 428.215V469.714V495.674C418.708 497.429 418.58 499.184 418.292 500.915C417.649 504.392 416.168 507.659 413.978 510.434C412.871 511.823 411.596 513.069 410.182 514.143C408.742 515.166 407.175 515.997 405.521 516.615C403.856 517.222 402.11 517.576 400.34 517.666C398.572 517.777 396.866 517.666 395.135 517.728H374.439H332.922L249.912 517.814H213.588C211.812 517.866 210.036 517.708 208.296 517.344C204.801 516.526 201.613 514.725 199.11 512.152C196.594 509.614 194.754 506.486 193.757 503.054C193.274 501.341 192.992 499.578 192.916 497.8C192.817 496.02 192.916 494.327 192.916 492.584V482.212L193.225 150.172V108.674V98.2774C193.172 94.8097 193.329 91.342 193.695 87.8934L194.091 85.3098L194.684 82.7632C194.931 81.935 195.24 81.1067 195.525 80.2909C195.894 79.4903 196.307 78.7103 196.761 77.9545C197.673 76.4384 198.9 75.1358 200.359 74.1346C201.877 73.2051 203.553 72.5639 205.304 72.2433C208.749 71.7707 212.228 71.6053 215.702 71.7488H249.319C249.766 71.7152 250.216 71.7485 250.654 71.8477C251.101 71.9626 251.521 72.1642 251.89 72.4411C252.576 73.041 253.122 73.7831 253.492 74.6157C253.861 75.4483 254.045 76.3515 254.029 77.2622C253.924 78.9732 254.078 80.6904 254.487 82.3553C254.699 83.1592 255.127 83.89 255.723 84.4692C256.35 85.0243 257.107 85.4114 257.924 85.5941C259.616 85.8982 261.337 86.0102 263.055 85.9279H278.621H320.125H340.884C344.346 85.9279 347.807 85.9279 351.257 85.9279C352.976 86.0244 354.677 85.5317 356.079 84.531C356.739 83.9661 357.231 83.2305 357.501 82.4047C357.751 81.6028 357.897 80.7717 357.933 79.9324C357.933 79.0794 357.933 78.2141 357.933 77.3487C357.955 76.4707 358.135 75.6038 358.465 74.7898C358.784 73.9679 359.313 73.2435 359.998 72.6883C360.344 72.4148 360.738 72.2092 361.16 72.0826C361.59 71.9884 362.031 71.9551 362.471 71.9837H372.844H393.602H398.795C400.526 71.9609 402.257 72.0559 403.975 72.268C407.444 72.5466 410.696 74.065 413.137 76.5452C415.405 79.2168 416.901 82.4566 417.464 85.9155C418.076 89.3011 418.378 92.7354 418.367 96.1758ZM418.367 96.1758C418.374 92.714 418.063 89.2588 417.439 85.8537C416.867 82.4282 415.381 79.2207 413.137 76.5699C410.689 74.0961 407.433 72.5864 403.963 72.3175C402.248 72.1136 400.522 72.0268 398.795 72.0579H393.602H372.844H362.446C362.031 72.0418 361.615 72.0792 361.21 72.1691C360.803 72.295 360.422 72.4917 360.085 72.7501C359.422 73.2904 358.911 73.9931 358.601 74.7898C357.884 76.3845 358.156 78.1523 358.045 79.8829C358.007 80.7555 357.857 81.6197 357.599 82.4542C357.36 83.3015 356.899 84.0697 356.264 84.6793C354.832 85.7175 353.085 86.2285 351.319 86.1256C347.845 86.1256 344.395 86.1256 340.933 86.1256H320.162H278.658H263.092C261.349 86.2018 259.604 86.0857 257.887 85.7795C257.004 85.5751 256.187 85.1497 255.513 84.5433C254.859 83.9279 254.384 83.1458 254.141 82.2811C253.742 80.6395 253.575 78.9501 253.646 77.2622C253.648 76.4225 253.47 75.5923 253.124 74.8269C252.779 74.0616 252.274 73.3788 251.643 72.8243C251.309 72.5861 250.937 72.4063 250.543 72.2927C250.136 72.2131 249.721 72.184 249.306 72.2062H215.591C212.146 72.0767 208.696 72.2463 205.28 72.713C203.609 73.0366 202.009 73.6562 200.557 74.5426C199.155 75.518 197.979 76.7826 197.107 78.2511C196.662 78.9681 196.341 79.7717 195.957 80.5257C195.574 81.2798 195.389 82.1451 195.154 82.9981L194.56 85.4705L194.189 88.017C193.821 91.4447 193.668 94.8923 193.732 98.3392V108.723V150.222L194.041 482.261V492.621C194.041 494.339 194.041 496.107 194.041 497.788C194.115 499.461 194.381 501.12 194.832 502.733C195.756 505.994 197.486 508.97 199.864 511.386C202.216 513.828 205.22 515.544 208.519 516.331C210.169 516.678 211.853 516.831 213.539 516.788H249.937L332.946 516.875H374.463H395.222C396.94 516.875 398.696 516.875 400.378 516.875C402.067 516.789 403.733 516.451 405.323 515.873C406.915 515.293 408.421 514.498 409.799 513.512C411.155 512.493 412.381 511.31 413.446 509.989C415.567 507.317 417.005 504.169 417.637 500.817C417.91 499.129 418.034 497.42 418.008 495.711V490.531V469.776V428.277L418.367 96.1758Z" fill="#263238"/>
<path d="M418.367 96.1759V144.202H193.473V96.1759C193.473 73.1087 201.954 71.9837 212.438 71.9837H249.937C252.113 71.9837 253.894 74.4561 253.894 77.5219V78.8446C253.894 86.0268 257.825 86.0515 262.647 86.0515H349.267C354.138 86.0515 358.045 86.0515 358.045 78.8446V77.5219C358.045 74.4561 359.8 71.9837 362.013 71.9837H399.463C409.885 71.9837 418.367 75.0495 418.367 96.1759Z" fill="#F6CF00"/>
<path d="M208.136 82.0713C208.136 81.7754 208.223 81.4861 208.388 81.2401C208.552 80.994 208.786 80.8023 209.059 80.6891C209.333 80.5758 209.633 80.5462 209.924 80.6039C210.214 80.6617 210.48 80.8041 210.69 81.0134C210.899 81.2226 211.041 81.4892 211.099 81.7794C211.157 82.0696 211.127 82.3704 211.014 82.6438C210.901 82.9172 210.709 83.1508 210.463 83.3152C210.217 83.4796 209.928 83.5673 209.632 83.5673C209.235 83.5673 208.855 83.4097 208.574 83.1292C208.293 82.8486 208.136 82.468 208.136 82.0713Z" fill="white"/>
<path d="M212.847 82.0713C212.847 81.7748 212.935 81.4851 213.1 81.2388C213.265 80.9925 213.499 80.8008 213.773 80.6879C214.047 80.575 214.349 80.5462 214.639 80.6049C214.93 80.6636 215.196 80.8073 215.405 81.0178C215.614 81.2283 215.755 81.496 215.812 81.787C215.868 82.0781 215.837 82.3793 215.721 82.6524C215.606 82.9256 215.413 83.1583 215.165 83.3212C214.917 83.4841 214.627 83.5698 214.33 83.5673C214.135 83.5674 213.941 83.5286 213.76 83.4532C213.579 83.3779 213.415 83.2675 213.277 83.1284C213.139 82.9893 213.03 82.8243 212.956 82.6429C212.882 82.4614 212.845 82.2671 212.847 82.0713Z" fill="white"/>
<path d="M217.532 82.0713C217.532 81.7754 217.62 81.4861 217.784 81.2401C217.949 80.994 218.182 80.8023 218.456 80.6891C218.729 80.5758 219.03 80.5462 219.32 80.6039C219.61 80.6617 219.877 80.8041 220.086 81.0134C220.296 81.2226 220.438 81.4892 220.496 81.7794C220.553 82.0696 220.524 82.3704 220.411 82.6438C220.297 82.9172 220.106 83.1508 219.86 83.3152C219.614 83.4796 219.324 83.5673 219.028 83.5673C218.831 83.569 218.636 83.5314 218.454 83.4568C218.272 83.3822 218.106 83.2721 217.967 83.1328C217.828 82.9936 217.717 82.828 217.643 82.6457C217.568 82.4635 217.531 82.2682 217.532 82.0713Z" fill="white"/>
<path d="M222.218 82.0713C222.218 81.7754 222.306 81.4861 222.47 81.2401C222.634 80.994 222.868 80.8023 223.141 80.6891C223.415 80.5758 223.716 80.5462 224.006 80.6039C224.296 80.6617 224.563 80.8041 224.772 81.0134C224.981 81.2226 225.123 81.4892 225.181 81.7794C225.239 82.0696 225.209 82.3704 225.096 82.6438C224.983 82.9172 224.791 83.1508 224.545 83.3152C224.299 83.4796 224.01 83.5673 223.714 83.5673C223.517 83.5673 223.323 83.5287 223.141 83.4535C222.96 83.3783 222.795 83.2681 222.656 83.1292C222.517 82.9902 222.407 82.8253 222.332 82.6438C222.256 82.4623 222.218 82.2677 222.218 82.0713Z" fill="white"/>
<path d="M226.916 82.0713C226.916 81.7754 227.004 81.4861 227.168 81.2401C227.333 80.994 227.566 80.8023 227.84 80.6891C228.113 80.5758 228.414 80.5462 228.704 80.6039C228.994 80.6617 229.261 80.8041 229.47 81.0134C229.679 81.2226 229.822 81.4892 229.879 81.7794C229.937 82.0696 229.908 82.3704 229.794 82.6438C229.681 82.9172 229.489 83.1508 229.243 83.3152C228.997 83.4796 228.708 83.5673 228.412 83.5673C228.015 83.5673 227.635 83.4097 227.354 83.1292C227.074 82.8486 226.916 82.468 226.916 82.0713Z" fill="white"/>
<path d="M213.972 130.999L207.332 124.781L213.972 118.563L214.998 119.651L209.533 124.781L214.998 129.911L213.972 130.999Z" fill="white"/>
<path d="M224.851 339.334V334.228C224.849 334.164 224.86 334.101 224.884 334.042C224.908 333.982 224.943 333.928 224.988 333.883C225.033 333.838 225.087 333.803 225.146 333.779C225.206 333.756 225.269 333.744 225.333 333.746H228.164C228.29 333.749 228.41 333.801 228.497 333.891C228.585 333.982 228.634 334.102 228.634 334.228C228.631 334.353 228.581 334.472 228.494 334.561C228.407 334.651 228.289 334.704 228.164 334.71H225.815V336.293H227.831C227.894 336.293 227.957 336.305 228.015 336.329C228.074 336.353 228.127 336.389 228.172 336.434C228.216 336.479 228.252 336.532 228.276 336.59C228.3 336.649 228.313 336.711 228.313 336.775C228.313 336.838 228.3 336.901 228.276 336.959C228.252 337.018 228.216 337.071 228.172 337.116C228.127 337.16 228.074 337.196 228.015 337.22C227.957 337.244 227.894 337.257 227.831 337.257H225.815V338.851H228.164C228.277 338.87 228.38 338.928 228.455 339.015C228.529 339.102 228.57 339.213 228.57 339.327C228.57 339.442 228.529 339.553 228.455 339.64C228.38 339.727 228.277 339.785 228.164 339.803H225.333C225.27 339.805 225.208 339.794 225.149 339.771C225.091 339.748 225.038 339.714 224.993 339.67C224.948 339.626 224.912 339.574 224.888 339.516C224.863 339.458 224.851 339.396 224.851 339.334Z" fill="#263238"/>
<path d="M233.519 337.319V339.396C233.519 339.457 233.507 339.518 233.483 339.574C233.46 339.63 233.425 339.681 233.381 339.724C233.337 339.767 233.285 339.8 233.228 339.822C233.171 339.845 233.111 339.855 233.05 339.854C232.929 339.851 232.815 339.801 232.73 339.716C232.644 339.631 232.595 339.517 232.592 339.396V337.319C232.583 337.086 232.483 336.866 232.315 336.705C232.147 336.543 231.923 336.453 231.689 336.453C231.574 336.455 231.46 336.479 231.354 336.525C231.249 336.571 231.153 336.637 231.072 336.719C230.992 336.802 230.929 336.9 230.886 337.007C230.843 337.114 230.822 337.228 230.824 337.344V339.396C230.825 339.417 230.825 339.437 230.824 339.458V339.52C230.785 339.601 230.723 339.67 230.647 339.718C230.57 339.766 230.482 339.792 230.391 339.792H230.305C230.2 339.769 230.106 339.712 230.039 339.628C229.971 339.545 229.934 339.441 229.934 339.334V337.282V335.996C229.932 335.935 229.943 335.874 229.965 335.817C229.987 335.76 230.021 335.708 230.063 335.664C230.106 335.621 230.157 335.586 230.213 335.562C230.27 335.538 230.33 335.526 230.391 335.526C230.478 335.522 230.563 335.545 230.636 335.591C230.709 335.638 230.766 335.706 230.799 335.786C231.081 335.621 231.4 335.532 231.727 335.526C231.984 335.52 232.239 335.572 232.475 335.677C232.71 335.781 232.919 335.937 233.087 336.132C233.255 335.938 233.464 335.782 233.699 335.678C233.934 335.573 234.189 335.521 234.447 335.526C234.685 335.526 234.921 335.573 235.14 335.665C235.36 335.756 235.56 335.89 235.728 336.059C235.895 336.228 236.028 336.429 236.118 336.649C236.208 336.87 236.254 337.106 236.252 337.344V339.396C236.252 339.456 236.24 339.516 236.217 339.571C236.194 339.627 236.16 339.677 236.118 339.72C236.075 339.762 236.025 339.796 235.97 339.819C235.914 339.842 235.855 339.854 235.794 339.854C235.672 339.854 235.554 339.806 235.467 339.72C235.379 339.635 235.328 339.519 235.325 339.396V337.344C235.299 337.127 235.195 336.928 235.032 336.783C234.869 336.638 234.659 336.558 234.441 336.558C234.223 336.558 234.012 336.638 233.849 336.783C233.686 336.928 233.582 337.127 233.557 337.344L233.519 337.319Z" fill="#263238"/>
<path d="M241.79 337.702V339.396C241.79 339.517 241.742 339.634 241.656 339.72C241.57 339.805 241.454 339.854 241.332 339.854C241.225 339.853 241.122 339.816 241.038 339.749C240.955 339.681 240.898 339.587 240.875 339.483C240.481 339.764 239.998 339.892 239.516 339.844C239.034 339.797 238.585 339.576 238.254 339.223C237.868 338.811 237.656 338.267 237.66 337.702C237.655 337.138 237.867 336.593 238.254 336.181C238.44 335.976 238.667 335.812 238.921 335.699C239.174 335.587 239.448 335.528 239.725 335.526C240.139 335.53 240.541 335.664 240.875 335.909C240.897 335.803 240.954 335.708 241.037 335.638C241.12 335.569 241.224 335.529 241.332 335.526C241.455 335.529 241.571 335.58 241.657 335.668C241.742 335.756 241.79 335.873 241.79 335.996V337.702ZM240.863 337.702C240.868 337.539 240.842 337.377 240.785 337.224C240.727 337.071 240.64 336.931 240.529 336.812C240.428 336.698 240.304 336.608 240.166 336.546C240.027 336.484 239.877 336.452 239.725 336.453C239.573 336.451 239.422 336.481 239.283 336.543C239.145 336.605 239.021 336.697 238.921 336.812C238.81 336.931 238.723 337.071 238.666 337.224C238.608 337.377 238.582 337.539 238.588 337.702C238.582 337.865 238.608 338.028 238.666 338.181C238.723 338.334 238.81 338.473 238.921 338.592C239.024 338.703 239.148 338.791 239.286 338.851C239.425 338.911 239.574 338.94 239.725 338.939C239.876 338.94 240.025 338.91 240.163 338.85C240.302 338.79 240.426 338.703 240.529 338.592C240.64 338.473 240.727 338.334 240.785 338.181C240.842 338.028 240.868 337.865 240.863 337.702Z" fill="#263238"/>
<path d="M244.423 334.451C244.425 334.513 244.414 334.575 244.391 334.632C244.368 334.69 244.333 334.743 244.289 334.787C244.245 334.831 244.193 334.865 244.135 334.888C244.077 334.911 244.016 334.922 243.953 334.92C243.829 334.92 243.709 334.871 243.621 334.783C243.533 334.695 243.484 334.575 243.484 334.451V334.265C243.484 334.141 243.533 334.021 243.621 333.933C243.709 333.845 243.829 333.795 243.953 333.795C244.016 333.794 244.077 333.805 244.135 333.828C244.193 333.851 244.245 333.885 244.289 333.929C244.333 333.973 244.368 334.026 244.391 334.083C244.414 334.141 244.425 334.203 244.423 334.265V334.451ZM244.423 336.008V339.395C244.423 339.456 244.411 339.517 244.387 339.573C244.364 339.63 244.329 339.681 244.285 339.723C244.241 339.766 244.189 339.799 244.132 339.822C244.075 339.844 244.015 339.854 243.953 339.853C243.892 339.854 243.831 339.844 243.775 339.822C243.718 339.799 243.666 339.766 243.622 339.723C243.578 339.681 243.543 339.63 243.52 339.573C243.496 339.517 243.484 339.456 243.484 339.395V336.008C243.482 335.946 243.493 335.884 243.516 335.826C243.539 335.769 243.573 335.716 243.617 335.672C243.661 335.628 243.714 335.594 243.772 335.571C243.829 335.548 243.891 335.537 243.953 335.538C244.016 335.537 244.077 335.548 244.135 335.571C244.193 335.594 244.245 335.628 244.289 335.672C244.333 335.716 244.368 335.769 244.391 335.826C244.414 335.884 244.425 335.946 244.423 336.008Z" fill="#263238"/>
<path d="M246.229 333.795C246.357 333.795 246.479 333.846 246.57 333.937C246.66 334.027 246.711 334.15 246.711 334.278V339.334C246.693 339.447 246.635 339.549 246.547 339.624C246.46 339.698 246.349 339.739 246.235 339.739C246.12 339.739 246.009 339.698 245.922 339.624C245.835 339.549 245.777 339.447 245.759 339.334V334.228C245.771 334.111 245.825 334.003 245.912 333.923C245.998 333.843 246.111 333.798 246.229 333.795Z" fill="#263238"/>
<path d="M387.878 346.021H223.961V360.534H387.878V346.021Z" fill="#EBEBEB"/>
<path d="M231.38 299.207L250.012 299.059L268.644 299.009L305.92 298.898L343.184 299.009L361.816 299.059L380.448 299.207L361.816 299.355L343.184 299.417L305.92 299.516L268.644 299.417L250.012 299.355L231.38 299.207Z" fill="#263238"/>
<path d="M245.14 307.465L260.335 307.316L275.529 307.267L305.919 307.156L336.309 307.267L351.492 307.316L366.686 307.465L351.492 307.613L336.309 307.675L305.919 307.774L275.529 307.675L260.335 307.613L245.14 307.465Z" fill="#263238"/>
<path d="M223.961 387.965L244.447 387.804L264.934 387.755L305.919 387.656L346.892 387.755L367.391 387.804L387.878 387.965L367.391 388.114L346.892 388.163L305.919 388.262L264.934 388.163L244.447 388.114L223.961 387.965Z" fill="#EBEBEB"/>
<path d="M370.05 409.438H241.777V429.353H370.05V409.438Z" fill="#F6CF00"/>
<path d="M339.45 232.886C355.271 232.886 368.097 220.062 368.097 204.243C368.097 188.424 355.271 175.601 339.45 175.601C323.629 175.601 310.804 188.424 310.804 204.243C310.804 220.062 323.629 232.886 339.45 232.886Z" fill="#455A64"/>
<path d="M263.303 265.125C274.112 265.125 282.875 256.364 282.875 245.557C282.875 234.749 274.112 225.988 263.303 225.988C252.494 225.988 243.731 234.749 243.731 245.557C243.731 256.364 252.494 265.125 263.303 265.125Z" fill="#EBEBEB"/>
<path d="M321.981 198.903V219.424H316.17V198.903C316.17 191.09 310.236 184.736 302.941 184.736C295.647 184.736 289.712 191.09 289.712 198.903V219.424H283.901V198.903C283.901 187.715 292.445 178.617 302.941 178.617C313.438 178.617 321.981 187.715 321.981 198.903Z" fill="#C7C7C7"/>
<path d="M283.901 204.243L289.713 204.478V219.448H283.901V204.243Z" fill="#A6A6A6"/>
<path d="M321.981 205.801V219.448H316.17V205.554L321.981 205.801Z" fill="#A6A6A6"/>
<path d="M329.423 207.754H276.457V255.792H329.423V207.754Z" fill="#F6CF00"/>
<path opacity="0.1" d="M329.422 207.754H302.939V255.792H329.422V207.754Z" fill="black"/>
<path d="M305.179 233.528L307.405 244.048H297.983L300.209 233.528C299.336 232.99 298.663 232.182 298.291 231.227C297.919 230.271 297.87 229.221 298.149 228.235C298.429 227.249 299.023 226.38 299.841 225.762C300.659 225.144 301.656 224.81 302.682 224.81C303.707 224.81 304.704 225.144 305.522 225.762C306.34 226.38 306.934 227.249 307.214 228.235C307.493 229.221 307.444 230.271 307.072 231.227C306.7 232.182 306.027 232.99 305.154 233.528H305.179Z" fill="#263238"/>
<path d="M291.59 475.821C291.588 476.439 291.402 477.042 291.057 477.555C290.712 478.068 290.223 478.467 289.651 478.701C289.079 478.936 288.45 478.996 287.844 478.874C287.238 478.752 286.682 478.454 286.246 478.016C285.81 477.578 285.513 477.02 285.393 476.414C285.273 475.808 285.336 475.18 285.573 474.609C285.81 474.038 286.211 473.55 286.726 473.207C287.24 472.864 287.844 472.681 288.462 472.681C288.874 472.681 289.282 472.762 289.662 472.92C290.042 473.078 290.388 473.31 290.678 473.601C290.969 473.893 291.199 474.239 291.356 474.62C291.512 475.001 291.592 475.409 291.59 475.821Z" fill="#DBDBDB"/>
<path d="M310.656 475.821C310.653 476.757 310.373 477.671 309.852 478.448C309.33 479.225 308.589 479.83 307.724 480.186C306.858 480.543 305.906 480.635 304.989 480.451C304.071 480.266 303.228 479.815 302.567 479.152C301.906 478.489 301.456 477.646 301.275 476.728C301.093 475.81 301.187 474.858 301.546 473.994C301.905 473.129 302.512 472.391 303.29 471.871C304.069 471.351 304.984 471.074 305.92 471.074C307.177 471.077 308.382 471.579 309.269 472.469C310.157 473.358 310.656 474.564 310.656 475.821Z" fill="#C7C7C7"/>
<path d="M326.506 475.821C326.506 476.442 326.322 477.049 325.976 477.565C325.631 478.082 325.141 478.484 324.567 478.722C323.993 478.959 323.362 479.022 322.752 478.9C322.143 478.779 321.584 478.48 321.144 478.041C320.705 477.602 320.406 477.042 320.285 476.433C320.164 475.824 320.226 475.193 320.464 474.619C320.701 474.045 321.104 473.555 321.62 473.21C322.137 472.865 322.744 472.681 323.365 472.681C324.198 472.681 324.997 473.012 325.586 473.601C326.175 474.189 326.506 474.988 326.506 475.821Z" fill="#DBDBDB"/>
<path d="M126.727 411.044L129.657 428.635L149.537 535.961H152.74L138.287 428.635L136.148 411.044H126.727Z" fill="#DBDBDB"/>
<path d="M136.148 411.044H126.727L129.657 428.635H138.287L136.148 411.044Z" fill="#A6A6A6"/>
<path d="M64.3008 535.961H67.503L87.3837 428.635L90.3138 411.044H80.8928L78.7539 428.635L64.3008 535.961Z" fill="#DBDBDB"/>
<path d="M80.8939 411.044L78.7549 428.635H87.3852L90.3156 411.044H80.8939Z" fill="#A6A6A6"/>
<path d="M4.68457 535.961H7.88675L27.7674 428.635L30.6976 411.044H21.2765L19.1376 428.635L4.68457 535.961Z" fill="#DBDBDB"/>
<path d="M19.1377 428.635H27.768L30.6984 411.044H21.2767L19.1377 428.635Z" fill="#A6A6A6"/>
<path d="M9.7666 419.302H155.41V403.961H100.886L82.5636 324.054H15.3179L9.7666 419.302Z" fill="#DBDBDB"/>
<path d="M9.7666 419.302H17.7045L22.8852 324.054H15.3182L9.7666 419.302Z" fill="#A6A6A6"/>
<path d="M154.297 549.546C151.553 549.893 76.5673 532.401 74.1317 530.039C73.835 529.78 76.4684 515.267 76.4684 515.267C77.7048 509.346 98.08 461.097 98.08 461.097L147.151 473.187L126.331 517.962C126.331 517.962 135.678 524.291 143.714 530.324C147.262 532.829 150.655 535.545 153.877 538.458C156.263 541.375 157.042 549.225 154.297 549.546Z" fill="#C95F50"/>
<path d="M74.1189 530.039C76.5916 532.401 151.552 549.893 154.297 549.546C157.042 549.2 156.263 541.375 153.889 538.52C150.666 535.613 147.272 532.901 143.726 530.398C135.702 524.365 126.355 518.036 126.355 518.036L130.954 508.072L83.4535 496.502C79.8556 505.464 76.9007 513.178 76.468 515.329C76.468 515.279 73.8222 529.78 74.1189 530.039Z" fill="#EBEBEB"/>
<path d="M154.57 549.757C151.738 550.053 76.1348 533.118 73.6745 530.645C72.7225 529.718 74.5523 518.58 77.1486 505.18C77.1486 505.044 77.1486 504.895 77.2352 504.759L126.121 515.143L125.923 515.972C125.923 515.972 151.949 535.38 154.359 538.384C156.77 541.388 157.351 549.472 154.57 549.757Z" fill="#F6CF00"/>
<path d="M154.309 546.641C141.636 543.477 90.2284 531.894 77.4568 529.718C77.3579 529.718 77.3455 529.718 77.4568 529.792C89.9441 533.216 141.451 544.379 154.284 546.852C154.569 546.901 154.569 546.703 154.309 546.641Z" fill="#263238"/>
<path d="M131.462 516.504C126.652 514.439 120.334 513.833 115.722 516.504C115.537 516.615 115.722 516.862 115.871 516.85C121.008 516.382 126.181 516.465 131.301 517.097C131.366 517.088 131.427 517.06 131.477 517.017C131.526 516.974 131.561 516.917 131.578 516.854C131.596 516.79 131.594 516.723 131.573 516.661C131.552 516.599 131.514 516.544 131.462 516.504Z" fill="#263238"/>
<path d="M134.59 519.495C129.793 517.43 123.462 516.824 118.85 519.495C118.665 519.606 118.85 519.854 118.999 519.841C124.136 519.375 129.308 519.454 134.429 520.076C134.495 520.071 134.557 520.045 134.607 520.003C134.658 519.961 134.694 519.905 134.712 519.842C134.729 519.778 134.727 519.711 134.705 519.649C134.684 519.587 134.643 519.533 134.59 519.495Z" fill="#263238"/>
<path d="M137.718 522.474C132.921 520.422 126.59 519.816 121.978 522.474C121.793 522.586 121.978 522.833 122.127 522.821C127.264 522.348 132.437 522.427 137.557 523.055C137.619 523.044 137.677 523.016 137.724 522.974C137.771 522.931 137.804 522.876 137.821 522.816C137.838 522.755 137.837 522.69 137.819 522.63C137.801 522.57 137.766 522.516 137.718 522.474Z" fill="#263238"/>
<path d="M140.437 507.046C139.077 503.894 135.133 504.29 132.648 505.575C128.418 507.861 124.866 511.221 122.349 515.316C122.336 515.333 122.327 515.353 122.324 515.374C122.32 515.395 122.323 515.416 122.33 515.436C122.338 515.456 122.35 515.474 122.366 515.487C122.382 515.501 122.402 515.51 122.423 515.514C122.395 515.611 122.391 515.713 122.411 515.812C122.43 515.911 122.474 516.003 122.536 516.082C122.599 516.161 122.68 516.223 122.772 516.264C122.865 516.305 122.965 516.324 123.066 516.318C127.554 515.724 132.425 515.625 136.592 513.672C139.015 512.523 141.722 510.026 140.437 507.046ZM129.68 514.018C127.48 514.365 125.279 514.612 123.09 515.044C125.055 513.087 127.119 511.23 129.272 509.482C130.321 508.655 131.424 507.899 132.573 507.219C134.366 506.193 140.919 504.636 138.755 509.927C137.605 512.844 132.314 513.598 129.68 514.018Z" fill="#263238"/>
<path d="M109.887 511.15C113.596 513.833 118.406 514.859 122.696 516.219C122.794 516.242 122.896 516.242 122.994 516.219C123.092 516.196 123.183 516.15 123.26 516.085C123.337 516.02 123.398 515.938 123.437 515.845C123.477 515.752 123.494 515.652 123.487 515.551C123.561 515.551 123.636 515.465 123.598 515.366C121.87 510.88 118.992 506.928 115.253 503.906C113.04 502.188 109.232 501.088 107.316 503.906C105.399 506.725 107.711 509.581 109.887 511.15ZM108.428 507.071C107.316 501.484 113.473 504.203 115.055 505.538C116.063 506.42 117.009 507.37 117.886 508.381C119.671 510.487 121.346 512.682 122.906 514.958C120.841 514.13 118.715 513.499 116.625 512.758C114.116 511.867 109.046 510.162 108.428 507.071Z" fill="#263238"/>
<path opacity="0.2" d="M132.462 545.418C144.343 548.014 153.554 549.868 154.506 549.769C157.35 549.485 156.719 541.375 154.308 538.384C151.179 535.429 147.876 532.663 144.418 530.101L132.462 545.418Z" fill="black"/>
<path d="M129.607 516.355L77.5685 504.092C77.5685 504.092 120.99 404.567 117.132 399.511C115.216 396.976 66.7627 396.235 51.3576 383.181C31.3409 366.22 44.7678 340.31 44.7678 340.31L98.9328 338.715C98.9328 338.715 98.2775 350.014 100.392 351.707C101.776 352.845 166.253 358.271 173.337 379.991C182.016 406.631 129.607 516.355 129.607 516.355Z" fill="#37474F"/>
<path d="M129.581 508.307C128.221 507.664 114.745 503.709 111.716 502.942C105.633 501.385 99.5251 499.852 93.4051 498.455C90.2029 497.726 83.3534 496.143 82.9331 496.217C82.7353 496.217 82.6982 496.588 82.9331 496.65C88.8676 498.603 94.8887 500.26 100.91 501.941C106.931 503.622 127.665 508.604 129.482 508.728C129.618 508.74 129.841 508.394 129.581 508.307Z" fill="#263238"/>
<path d="M126.428 395.023C125.198 394.265 123.792 393.839 122.348 393.787L98.8572 389.868C91.5503 388.632 84.1939 387.557 76.9241 386.16C70.903 384.998 64.7707 383.428 59.6151 380.164C54.5131 376.955 50.7349 372.02 48.97 366.257C47.3236 360.467 46.857 354.405 47.5976 348.431C47.7336 346.973 48.0056 345.526 48.2776 344.092C48.2776 343.981 48.1169 343.944 48.1045 344.092C46.114 355.218 45.9409 368.025 54.2863 376.864C58.3416 381.166 63.9052 383.687 69.5801 385.331C76.0622 386.982 82.6341 388.257 89.263 389.151L112.754 393.058C116.463 393.688 120.333 394.17 124.067 394.949C124.816 395.047 125.52 395.36 126.094 395.851C126.369 396.24 126.544 396.691 126.602 397.163C126.66 397.635 126.6 398.115 126.428 398.559C126.057 400.401 125.55 402.267 125.031 404.023C120.766 418.572 89.2877 492.781 88.447 494.375C88.4357 494.409 88.4367 494.445 88.4498 494.478C88.463 494.511 88.4874 494.538 88.5187 494.554C88.55 494.571 88.5862 494.575 88.6206 494.568C88.6551 494.56 88.6856 494.54 88.7066 494.511C95.8775 481.754 119.43 423.344 124.166 409.585C125.413 406.085 126.437 402.51 127.232 398.88C127.368 397.471 127.578 396 126.428 395.023Z" fill="#263238"/>
<path d="M231.693 552.822C229.072 553.7 154.024 552.649 151.168 550.82C148.04 547.84 146.705 477.044 146.705 477.044L194.985 476.648L198.002 527.48C198.002 527.48 208.424 531.819 217.499 536.134C221.471 537.884 225.336 539.869 229.071 542.08C232.002 544.416 234.314 551.957 231.693 552.822Z" fill="#C95F50"/>
<path d="M148.016 518.926C148.733 534.836 149.759 549.509 151.156 550.82C154.012 552.649 229.047 553.712 231.693 552.822C234.338 551.932 232.002 544.429 229.096 542.105C225.357 539.892 221.489 537.907 217.512 536.158C208.437 531.844 198.014 527.505 198.014 527.505L197.507 518.951L148.016 518.926Z" fill="#EBEBEB"/>
<path d="M233.239 552.872C230.519 553.774 153.048 553.403 150.118 551.512C148.981 550.82 148.375 539.546 148.041 525.898V525.466L198.015 525.156V525.997C198.015 525.997 227.601 539.385 230.618 541.796C233.634 544.206 235.946 551.994 233.239 552.872Z" fill="#F6CF00"/>
<path d="M232.373 549.868C219.317 549.485 166.611 549.175 153.678 549.781C153.567 549.781 153.567 549.868 153.678 549.868C166.611 550.536 219.317 550.412 232.373 550.09C232.645 550.103 232.645 549.88 232.373 549.868Z" fill="#263238"/>
<path d="M203.579 525.379C198.448 524.402 192.154 525.157 188.21 528.792C188.062 528.94 188.21 529.15 188.433 529.101C193.354 527.542 198.427 526.514 203.567 526.034C203.643 526.021 203.712 525.982 203.763 525.923C203.813 525.864 203.842 525.789 203.843 525.712C203.844 525.634 203.819 525.559 203.771 525.498C203.723 525.437 203.655 525.395 203.579 525.379Z" fill="#263238"/>
<path d="M207.288 527.567C202.144 526.59 195.863 527.345 191.919 530.98C191.758 531.128 191.919 531.338 192.129 531.289C197.05 529.73 202.124 528.702 207.263 528.222C207.34 528.211 207.41 528.173 207.462 528.115C207.514 528.057 207.543 527.983 207.546 527.905C207.549 527.827 207.525 527.751 207.478 527.689C207.431 527.628 207.363 527.585 207.288 527.567Z" fill="#263238"/>
<path d="M210.984 529.817C205.841 528.84 199.559 529.594 195.615 533.23C195.454 533.378 195.615 533.588 195.825 533.539C200.746 531.98 205.82 530.952 210.959 530.472C211.036 530.461 211.106 530.422 211.158 530.365C211.21 530.307 211.24 530.232 211.243 530.155C211.246 530.077 211.221 530.001 211.174 529.939C211.127 529.878 211.06 529.834 210.984 529.817Z" fill="#263238"/>
<path d="M210.316 514.167C208.313 511.373 204.542 512.609 202.391 514.402C198.751 517.537 196 521.574 194.416 526.108C194.408 526.129 194.405 526.151 194.407 526.172C194.409 526.194 194.417 526.215 194.429 526.233C194.441 526.251 194.458 526.267 194.477 526.277C194.496 526.288 194.517 526.293 194.539 526.294C194.533 526.394 194.552 526.495 194.593 526.587C194.634 526.679 194.696 526.76 194.775 526.823C194.854 526.886 194.946 526.929 195.045 526.949C195.144 526.969 195.246 526.964 195.343 526.937C199.596 525.391 204.332 524.266 207.979 521.46C210.106 519.816 212.22 516.8 210.316 514.167ZM201.315 523.277C199.238 524.093 197.136 524.798 195.133 525.688C196.616 523.359 198.222 521.11 199.942 518.951C200.785 517.913 201.698 516.934 202.675 516.021C204.208 514.637 210.279 511.707 209.352 517.331C208.795 520.434 203.775 522.313 201.315 523.277Z" fill="#263238"/>
<path d="M181.373 524.711C185.589 526.529 190.46 526.467 194.973 526.924C195.443 526.924 195.678 526.479 195.603 526.096C195.619 526.083 195.631 526.067 195.64 526.049C195.649 526.031 195.653 526.011 195.653 525.991C195.653 525.971 195.649 525.951 195.64 525.933C195.631 525.915 195.619 525.899 195.603 525.886C192.953 521.878 189.294 518.638 184.995 516.491C182.461 515.255 178.517 515.02 177.256 518.209C175.995 521.398 178.9 523.648 181.373 524.711ZM179.061 521.003C176.774 515.774 183.376 517.121 185.243 518.085C186.415 518.731 187.542 519.453 188.618 520.249C190.813 521.925 192.922 523.711 194.936 525.601C192.735 525.243 190.534 525.082 188.321 524.798C185.651 524.501 180.322 523.92 179.061 521.04V521.003Z" fill="#263238"/>
<path d="M200.684 525.737H146.284C146.284 525.737 146.964 427.498 142.699 422.059C137.012 414.79 57.39 414.951 40.3158 391.265C24.9849 369.978 37.9296 339.865 37.9296 339.865L98.227 338.072C96.8649 344.53 94.9964 350.871 92.6387 357.035C92.6387 357.035 165.263 370.423 185.613 392.662C199.287 407.694 200.684 525.737 200.684 525.737Z" fill="#37474F"/>
<path d="M103.185 352.919C101.437 353.307 99.728 353.853 98.0789 354.551C96.348 355.218 94.6418 355.96 92.9727 356.776C89.7009 358.4 86.5189 360.199 83.4404 362.165C83.3415 362.165 83.4404 362.351 83.5393 362.301C86.7909 360.608 90.1662 359.087 93.5415 357.641L98.4127 355.539C100.099 354.904 101.75 354.178 103.358 353.364C103.402 353.332 103.434 353.286 103.449 353.234C103.464 353.181 103.462 353.126 103.442 353.075C103.423 353.024 103.387 352.981 103.34 352.953C103.294 352.925 103.239 352.913 103.185 352.919Z" fill="#263238"/>
<path d="M99.5764 338.06C98.884 340.804 98.3399 343.573 97.4868 346.305C97.1282 347.541 96.7697 348.777 96.2504 350.014C95.8547 351.027 95.2488 352.202 94.0619 352.424C92.8749 352.647 92.3061 351.522 92.4174 350.397C92.5287 349.272 92.8625 347.925 93.1098 346.688C93.3942 345.267 93.6909 343.833 93.9506 342.411C94.0742 341.694 94.2102 340.977 94.3339 340.26C94.3339 340.075 94.4946 338.703 94.5935 338.307C94.5935 338.307 94.5935 338.381 94.6677 338.369C94.6677 338.369 94.7543 338.369 94.7543 338.295C94.7543 338.22 94.7543 338.159 94.6801 338.084C94.6059 338.01 94.6059 338.084 94.5564 338.084C94.2968 338.233 94.2844 338.591 94.1979 338.851C93.9753 339.543 93.7528 340.248 93.5426 340.94C93.1593 342.25 92.7883 343.573 92.4545 344.896C92.1207 346.219 91.7992 347.541 91.4777 348.864C91.132 349.843 91.0385 350.893 91.2057 351.917C91.3296 352.405 91.6066 352.84 91.9961 353.158C92.3856 353.476 92.867 353.661 93.3695 353.685L93.2211 353.945C93.0974 354.217 93.0109 354.501 92.912 354.785C92.8131 355.07 92.7142 355.354 92.6276 355.638C92.5909 355.78 92.5661 355.925 92.5534 356.071C92.5534 356.232 92.5534 356.38 92.5534 356.541C92.5534 356.701 92.8625 356.936 92.9862 356.701C93.0655 356.565 93.1522 356.433 93.2458 356.306C93.3266 356.16 93.3928 356.007 93.4437 355.848C93.5302 355.576 93.6168 355.305 93.6786 355.02C93.7404 354.736 93.8393 354.464 93.8888 354.18C93.9016 354.011 93.9016 353.841 93.8888 353.673C94.4667 353.624 95.0195 353.415 95.4838 353.067C96.2557 352.416 96.8261 351.558 97.1282 350.595C97.5363 349.457 97.8577 348.271 98.1792 347.096C99.0285 344.204 99.6161 341.242 99.9349 338.245C100.096 337.85 99.6506 337.738 99.5764 338.06Z" fill="#263238"/>
<path d="M63.7204 344.785C63.4731 346.144 63.3124 347.529 62.9909 348.876C62.6695 350.224 62.3233 351.522 61.8906 352.807C61.5002 354.063 60.9341 355.258 60.2091 356.355C59.4546 357.386 58.5552 358.302 57.5386 359.075C55.5936 360.615 53.4093 361.826 51.0724 362.66C49.9004 363.085 48.7029 363.436 47.4869 363.711C46.8564 363.859 46.2506 363.97 45.5706 364.057C45.0376 364.069 44.5123 364.186 44.0251 364.403C43.9792 364.432 43.9413 364.472 43.915 364.519C43.8888 364.567 43.875 364.62 43.875 364.675C43.875 364.729 43.8888 364.783 43.915 364.83C43.9413 364.878 43.9792 364.918 44.0251 364.947C44.9545 365.217 45.9371 365.246 46.8811 365.033C47.9099 364.925 48.9302 364.748 49.9349 364.502C51.9668 363.955 53.9107 363.122 55.7088 362.029C57.5555 361.022 59.2124 359.7 60.6047 358.123C61.8905 356.464 62.7749 354.531 63.1887 352.474C63.8259 349.971 64.1089 347.391 64.0295 344.809C63.9676 344.661 63.7451 344.636 63.7204 344.785Z" fill="#263238"/>
<path d="M154.062 457.599C153.526 449.045 152.817 440.511 151.935 431.997C151.713 429.896 151.502 427.782 151.243 425.693C151.093 424.055 150.736 422.444 150.179 420.897C148.943 417.695 146.26 416.075 143.033 415.272C139.225 414.308 135.281 413.727 131.411 413.109C127.542 412.49 123.474 411.872 119.493 411.341C111.444 410.216 103.42 409.178 95.3715 407.83C87.3747 406.562 79.4667 404.786 71.6952 402.514C64.5738 400.363 57.2669 397.706 51.5672 392.773C39.2902 382.155 38.8451 364.341 40.3411 349.507C40.5512 347.405 40.8109 345.316 41.0705 343.215C41.0705 343.103 40.9098 343.066 40.8974 343.215C39.9331 351.596 38.7956 360.039 39.6611 368.482C40.1975 375.472 42.5036 382.21 46.3621 388.063C50.5163 394.01 56.6734 397.854 63.3127 400.537C70.6368 403.359 78.1955 405.531 85.901 407.027C101.813 410.364 118.046 411.773 134.057 414.505C136.035 414.839 138.001 415.198 139.967 415.581C141.795 415.859 143.587 416.34 145.308 417.015C148.943 418.634 149.945 422.17 150.39 425.829C151.441 434.309 152.145 442.839 152.763 451.369C154 468.539 154.655 485.809 154.63 503.029C154.63 505.155 154.63 512.312 154.63 514.439C154.63 514.624 154.915 514.599 154.915 514.439C155.372 497.083 155.15 474.819 154.062 457.599Z" fill="#263238"/>
<path d="M198.138 517.196C185.774 516.355 150.34 516.701 149.92 516.874C149.734 516.961 149.784 517.294 149.981 517.307C156.163 517.752 196.283 517.962 198.076 517.641C198.274 517.604 198.348 517.208 198.138 517.196Z" fill="#263238"/>
<path d="M92.9611 357.258C104.091 358.591 115.091 360.845 125.848 363.995C136.694 367.042 147.302 370.88 157.586 375.479C163.36 378.063 168.948 380.955 174.474 383.996C174.586 384.058 174.474 384.219 174.376 384.17C164.381 379.005 154.055 374.508 143.467 370.707C132.972 366.886 122.232 363.773 111.321 361.387C105.139 360.052 98.9575 359.013 92.7757 357.987C92.4295 357.851 92.5408 357.147 92.9611 357.258Z" fill="#263238"/>
<path d="M146.001 444.026C145.618 438.117 145 432.208 144.035 426.348C143.64 423.987 143.541 420.934 141.056 419.759C139.906 419.203 116.835 415.198 113.522 415.26C113.488 415.262 113.456 415.275 113.43 415.297C113.404 415.318 113.385 415.348 113.377 415.381C113.369 415.414 113.371 415.449 113.384 415.48C113.397 415.512 113.419 415.538 113.448 415.556C113.757 415.692 135.702 419.833 138.472 420.501C139.067 420.545 139.648 420.71 140.177 420.986C140.707 421.262 141.174 421.644 141.55 422.108C142.078 423.309 142.392 424.594 142.478 425.903C144.327 437.39 145.352 448.994 145.544 460.628C145.634 463.858 145.688 467.076 145.704 470.282C145.704 473.595 145.593 476.945 145.84 480.233C145.84 480.306 145.869 480.375 145.92 480.426C145.971 480.477 146.04 480.505 146.112 480.505C146.185 480.505 146.254 480.477 146.305 480.426C146.356 480.375 146.384 480.306 146.384 480.233C146.632 477.242 146.545 474.189 146.557 471.185C146.57 468.181 146.557 465.152 146.557 462.123C146.545 456.078 146.409 450.046 146.001 444.026Z" fill="#263238"/>
<path d="M95.4216 283.742C111.012 304.473 148.041 333.622 156.733 326.835C167.415 318.503 165.387 287.846 165.659 283.902C165.894 279.687 130.868 280.75 132.278 285.052C133.106 287.599 133.514 290.331 132.834 290.071C130.769 289.255 126.182 285.126 106.289 274.001C95.2238 267.783 85.098 270.02 95.4216 283.742Z" fill="#C95F50"/>
<path d="M127.368 284.929L119.171 292.976L108.885 303.063C108.885 303.063 97.1765 291.715 92.1074 282.357C88.3983 275.472 88.2747 269.662 91.9591 268.401C93.7943 267.94 95.7322 268.123 97.4485 268.92C110.715 273.877 127.368 284.929 127.368 284.929Z" fill="#F6CF00"/>
<path d="M122.585 282.827C119.309 285.819 107.439 296.907 106.512 298.897C106.512 298.897 106.598 299.046 106.648 299.033C108.577 298.094 119.779 286.338 122.783 283.087C122.833 282.963 122.647 282.778 122.585 282.827Z" fill="#263238"/>
<path d="M119.171 292.976L108.885 303.063C108.885 303.063 97.1765 291.715 92.1074 282.357C88.3983 275.472 88.2747 269.662 91.9591 268.401L119.171 292.976Z" fill="#263238"/>
<path d="M165.696 265.15C167.674 271.862 166.351 287.178 164.621 290.751C162.89 294.324 136.753 292.951 134.429 289.589C132.104 286.227 127.184 263.11 129.891 256.496C132.599 249.883 163.619 258.19 165.696 265.15Z" fill="#C95F50"/>
<path d="M135.715 241.452C134.59 238.411 129.1 229.696 126.454 230.709C123.808 231.723 126.17 238.621 127.209 241.39C129.372 247.089 129.298 255.507 129.199 259.587C129.1 263.666 138.633 259.587 138.633 259.587C138.633 259.587 138.658 249.351 135.715 241.452Z" fill="#C95F50"/>
<path d="M131.869 265.347C131.869 265.347 131.498 272.53 135.319 274.001C139.139 275.472 140.474 269.723 140.586 269.328C140.586 269.699 140.4 276.312 144.406 277.412C148.412 278.513 149.055 272.591 149.079 272.208C149.178 272.567 150.551 277.363 153.765 277.511C159.316 277.759 156.151 265.409 158.599 261.639C158.599 261.639 165.461 265.063 165.671 265.125C165.671 265.125 162.902 253.307 157.647 250.291C156.889 249.838 155.998 249.658 155.123 249.782C154.248 249.906 153.441 250.325 152.838 250.97C152.838 250.97 152.368 247.064 149.24 246.1C147.645 245.605 145.432 247.732 145.432 247.732C145.279 246.853 144.886 246.034 144.297 245.365C143.708 244.695 142.946 244.201 142.094 243.937C139.844 243.38 137.668 245.556 137.148 246.52C132.834 253.95 131.869 265.347 131.869 265.347Z" fill="#C95F50"/>
<path d="M145.432 247.645C145.432 247.583 145.346 247.522 145.296 247.645C141.083 254.117 139.329 261.884 140.35 269.538C140.35 269.81 140.709 269.995 140.672 269.686C140.214 264.42 142.749 253.505 145.432 247.645Z" fill="#263238"/>
<path d="M149.352 272.74C148.437 265.248 150.007 258.215 152.666 251.23C152.666 251.131 152.567 251.094 152.517 251.156C150.292 254.234 149.055 258.857 148.412 262.554C147.737 265.962 147.972 269.488 149.092 272.777C149.142 272.9 149.377 272.9 149.352 272.74Z" fill="#263238"/>
<path d="M131.869 265.347C131.925 266.729 132.107 268.103 132.413 269.451C132.659 270.777 133.252 272.014 134.131 273.036C134.558 273.481 135.136 273.75 135.751 273.79C136.373 273.83 136.996 273.706 137.556 273.432C138.092 273.117 138.556 272.692 138.916 272.185C139.276 271.678 139.525 271.1 139.645 270.49L140.375 267.523L140.721 270.552C140.86 271.9 141.224 273.217 141.796 274.446C142.028 275.028 142.378 275.555 142.825 275.994C143.272 276.432 143.806 276.772 144.393 276.992C144.942 277.186 145.54 277.187 146.089 276.993C146.638 276.8 147.104 276.424 147.41 275.929C148.074 274.804 148.44 273.527 148.473 272.22L148.695 268.623L149.66 272.072C149.93 273.036 150.321 273.962 150.822 274.829C151.268 275.665 151.952 276.349 152.788 276.794C153.17 276.983 153.598 277.061 154.023 277.017C154.447 276.973 154.85 276.81 155.186 276.547C155.852 275.866 156.307 275.008 156.497 274.075C156.942 272.04 157.223 269.973 157.338 267.894C157.436 266.843 157.535 265.792 157.684 264.742C157.767 263.678 158.079 262.645 158.599 261.713C158.191 262.684 157.977 263.725 157.968 264.779C157.906 265.817 157.894 266.868 157.882 267.931C157.9 270.065 157.722 272.196 157.35 274.297C157.163 275.441 156.647 276.506 155.866 277.363C155.389 277.78 154.8 278.049 154.172 278.137C153.544 278.224 152.904 278.127 152.33 277.858C151.287 277.325 150.427 276.495 149.858 275.472C149.281 274.521 148.832 273.499 148.522 272.431L149.759 272.295C149.733 273.84 149.307 275.352 148.522 276.683C148.066 277.41 147.371 277.956 146.556 278.228C145.751 278.479 144.889 278.479 144.084 278.228C143.337 277.957 142.657 277.53 142.088 276.976C141.519 276.422 141.074 275.753 140.783 275.014C140.186 273.648 139.811 272.196 139.67 270.712L140.746 270.787C140.568 271.538 140.228 272.242 139.75 272.849C139.272 273.455 138.666 273.95 137.976 274.297C137.262 274.597 136.484 274.712 135.714 274.631C134.932 274.533 134.211 274.155 133.686 273.568C132.796 272.419 132.244 271.045 132.091 269.6C131.857 268.195 131.783 266.769 131.869 265.347Z" fill="#263238"/>
<path d="M132.87 285.806C132.87 285.806 113.929 262.912 126.503 259.846C130.212 258.944 146.656 259.723 146.569 263.023C146.446 267.276 139.534 268.24 135.096 268.141C135.096 268.141 142.638 275.027 139.411 281.739C138.797 282.951 137.863 283.971 136.71 284.688C135.556 285.405 134.228 285.792 132.87 285.806Z" fill="#C95F50"/>
<path d="M125.478 260.205C126.899 259.68 128.391 259.368 129.904 259.278C131.417 259.146 132.936 259.113 134.454 259.179C137.496 259.278 140.524 259.642 143.504 260.267C144.295 260.427 145.058 260.706 145.766 261.095C146.18 261.313 146.539 261.622 146.817 261.997C146.967 262.205 147.084 262.434 147.163 262.677C147.227 262.919 147.256 263.169 147.25 263.419C147.213 264.339 146.849 265.215 146.224 265.891C145.64 266.489 144.958 266.982 144.208 267.35C142.781 268.016 141.251 268.434 139.683 268.586C138.161 268.755 136.628 268.812 135.096 268.759L135.443 267.832C136.276 268.648 137.03 269.542 137.693 270.502C138.355 271.45 138.922 272.46 139.387 273.519C139.833 274.584 140.125 275.708 140.252 276.856C140.376 277.997 140.279 279.151 139.968 280.256C140.129 279.147 140.104 278.019 139.894 276.918C139.67 275.833 139.296 274.784 138.781 273.803C138.283 272.814 137.686 271.878 137 271.009C136.322 270.15 135.569 269.351 134.75 268.623L133.724 267.746H135.109C136.585 267.742 138.06 267.639 139.523 267.436C140.952 267.27 142.346 266.878 143.652 266.274C144.888 265.656 145.976 264.643 145.989 263.481C146.001 262.319 144.567 261.849 143.207 261.49C141.768 261.129 140.311 260.844 138.843 260.637C137.371 260.403 135.888 260.18 134.404 260.044C131.438 259.634 128.427 259.688 125.478 260.205Z" fill="#263238"/>
<path d="M132.834 290.071L133.86 293.001L134.849 295.943L136.852 301.79C137.52 303.743 138.2 305.684 138.917 307.612C139.276 308.577 139.634 309.541 140.03 310.493C140.426 311.445 140.834 312.397 141.266 313.361C140.131 311.62 139.135 309.794 138.287 307.897C137.421 306.005 136.692 304.052 135.999 302.099C135.307 300.146 134.763 298.156 134.206 296.153C133.65 294.15 133.155 292.123 132.834 290.071Z" fill="#263238"/>
<path d="M106.277 354.563C104.422 356.046 30.9949 356.874 30.6858 356.355C29.845 354.946 49.7628 287.97 81.0675 267.152C86.5817 263.444 94.9889 266.027 98.6238 268.87C100.454 270.304 105.758 281.146 106.487 290.009C107.217 298.873 107.451 353.611 106.277 354.563Z" fill="#F6CF00"/>
<path d="M107.093 327.045V327.589C106.747 327.379 106.388 327.144 106.055 326.897C103.393 324.818 101.096 322.311 99.2547 319.48C97.3259 316.748 95.5456 313.892 93.8394 311.074C91.4626 307.05 88.7229 303.251 85.6547 299.726L85.2714 299.318C84.0536 298.042 82.7301 296.872 81.3151 295.819C78.6587 293.872 75.588 292.566 72.343 292.002C69.098 291.438 65.7666 291.632 62.6089 292.568C59.8541 293.473 57.3247 294.957 55.1907 296.92L56.0933 295.411C57.9786 293.906 60.1183 292.75 62.4111 291.999C65.6569 291.024 69.0844 290.812 72.4256 291.381C75.7693 291.994 78.921 293.388 81.6241 295.448C83.175 296.607 84.6153 297.906 85.9267 299.33C86.0627 299.478 86.1987 299.614 86.3223 299.763C89.2895 303.231 91.9456 306.954 94.2598 310.888C96.0154 313.719 97.7339 316.562 99.6379 319.282C101.449 322.048 103.7 324.499 106.302 326.539C106.586 326.712 106.834 326.885 107.093 327.045ZM100.17 330.21C96.6759 330.092 93.2447 329.25 90.0932 327.738C83.726 324.709 78.6074 319.702 73.5013 314.869C71.6467 313.114 69.7922 311.358 67.8511 309.702L67.542 309.43C66.8991 308.886 66.3056 308.354 65.5638 307.835C62.8049 305.558 59.5808 303.912 56.118 303.014C54.7686 302.705 53.3837 302.581 52.0009 302.643L51.7166 303.138C53.1599 303.043 54.6095 303.159 56.0191 303.484C59.4067 304.381 62.5583 306.005 65.2547 308.243C65.8976 308.737 66.4911 309.244 67.134 309.763C67.2467 309.847 67.354 309.938 67.4554 310.035C69.4089 311.692 71.2758 313.484 73.1427 315.252C78.2242 320.098 83.3674 325.142 89.8336 328.257C93.0562 329.829 96.5737 330.705 100.157 330.828C102.491 330.889 104.823 330.644 107.093 330.099C107.093 329.889 107.093 329.691 107.093 329.481C104.827 330.025 102.499 330.271 100.17 330.21ZM107.044 312.903C106.29 311.667 105.511 310.431 104.682 309.195C102.824 306.383 100.469 303.933 97.7339 301.963C94.9048 300.068 91.5561 299.101 88.1521 299.194C87.4227 299.194 86.7056 299.194 85.9761 299.318L85.2838 299.404C84.5645 299.499 83.8505 299.631 83.1449 299.8C81.519 300.228 79.9407 300.821 78.4343 301.568C74.5092 303.745 70.8534 306.375 67.542 309.405C67.406 309.516 67.27 309.64 67.134 309.739C65.6009 311.061 64.0555 312.359 62.4729 313.583C59.8797 315.658 57.0441 317.409 54.0286 318.8C50.9921 320.142 47.737 320.921 44.422 321.099C43.9028 321.099 43.3958 321.099 42.8889 321.099C42.8889 321.211 42.79 321.322 42.7529 321.433L44.4467 321.371C47.7983 321.198 51.0907 320.419 54.1646 319.072C57.2099 317.674 60.0778 315.919 62.7078 313.843C64.3274 312.607 65.8976 311.284 67.4554 309.961L67.8511 309.627C71.125 306.637 74.7443 304.047 78.6322 301.914C80.1101 301.183 81.6597 300.607 83.2561 300.195C84.0703 299.999 84.8963 299.854 85.7289 299.763H86.4336C87.0271 299.701 87.67 299.676 88.214 299.664C91.5233 299.59 94.7746 300.54 97.5238 302.383C100.205 304.324 102.509 306.737 104.324 309.504C105.313 310.925 106.228 312.384 107.118 313.88C107.044 313.534 107.044 313.188 107.031 312.854L107.044 312.903Z" fill="white"/>
<path d="M98.1164 281.591C93.8139 281.405 88.6335 273.271 87.3106 267.511C87.2241 267.115 92.5281 253.826 93.307 251.082C93.4677 250.525 109.38 260.155 109.38 260.155C107.424 263.302 105.863 266.678 104.731 270.206C104.583 270.601 102.283 281.776 98.1164 281.591Z" fill="#C95F50"/>
<path d="M93.8509 251.23C93.4676 255.89 93.3687 268.277 102.667 271.157C103.228 271.328 103.803 271.452 104.385 271.528C104.571 270.774 104.682 270.292 104.694 270.193C105.828 266.67 107.389 263.299 109.343 260.155C109.264 260.091 109.177 260.037 109.084 259.995C108.973 259.908 108.824 259.834 108.651 259.723L108.466 259.611C108.367 259.537 108.243 259.475 108.119 259.401L107.674 259.129L106.932 258.697L106.66 258.524L106.092 258.177L103.841 256.842L102.988 256.336C102.617 256.125 102.246 255.915 101.888 255.68L100.787 255.05L100.651 254.976L98.7843 253.888L98.166 253.529L96.9296 252.862L96.1259 252.417L94.5433 251.576L94.1847 251.403L93.8509 251.23Z" fill="#263238"/>
<path d="M98.8456 230.425C94.7904 235.666 91.4275 253.913 94.2093 259.389C98.2274 267.239 108.044 271.565 115.537 266.002C122.806 260.613 126.763 236.68 123.363 231.389C118.355 223.75 104.842 222.687 98.8456 230.425Z" fill="#C95F50"/>
<path d="M111.037 247.954C111.037 247.954 110.926 247.954 110.926 248.041C110.654 249.277 110.134 250.687 108.91 250.823V250.897C110.32 251.045 110.987 249.191 111.037 247.954Z" fill="#263238"/>
<path d="M110.258 246.384C108.292 245.741 107.142 249.71 109.022 250.316C110.901 250.922 111.903 246.928 110.258 246.384Z" fill="#263238"/>
<path d="M118.084 249.438C118.084 249.438 118.17 249.524 118.084 249.574C117.688 250.81 117.428 252.244 118.418 252.986C117.144 252.454 117.478 250.526 118.084 249.438Z" fill="#263238"/>
<path d="M119.567 248.473C121.583 248.918 120.557 252.925 118.69 252.517C116.823 252.108 117.873 248.115 119.567 248.473Z" fill="#263238"/>
<path d="M107.587 258.066C107.785 258.449 107.946 258.932 108.366 259.117C108.82 259.267 109.301 259.313 109.775 259.253C109.775 259.253 109.85 259.315 109.775 259.34C109.52 259.518 109.221 259.625 108.91 259.649C108.599 259.673 108.287 259.613 108.007 259.476C107.782 259.327 107.605 259.115 107.5 258.867C107.394 258.618 107.364 258.344 107.414 258.079C107.413 258.067 107.414 258.056 107.418 258.045C107.422 258.034 107.427 258.024 107.435 258.016C107.442 258.007 107.451 258 107.462 257.995C107.472 257.99 107.483 257.987 107.494 257.986C107.506 257.985 107.517 257.986 107.528 257.99C107.539 257.994 107.549 257.999 107.557 258.007C107.566 258.014 107.573 258.023 107.578 258.034C107.583 258.044 107.586 258.055 107.587 258.066Z" fill="#263238"/>
<path d="M114.634 254.654C114.634 254.654 114.375 256.57 114.14 257.436C112.434 256.982 110.675 256.762 108.91 256.781C108.489 256.781 108.576 256.484 109.083 256.348C110.565 255.934 112.138 255.978 113.596 256.471C113.732 256.249 113.942 253.517 114.078 253.554C114.738 253.798 115.362 254.131 115.933 254.543C116.575 250.575 116.588 246.52 117.293 242.577C117.301 242.552 117.316 242.53 117.338 242.515C117.359 242.5 117.384 242.492 117.41 242.492C117.436 242.492 117.461 242.5 117.483 242.515C117.504 242.53 117.519 242.552 117.528 242.577C117.658 246.911 117.352 251.247 116.613 255.52C116.551 256.051 115.005 254.902 114.634 254.654Z" fill="#263238"/>
<path d="M108.823 243.084C109.392 242.997 109.924 242.997 110.493 242.96C111.077 242.842 111.684 242.916 112.224 243.17C112.376 243.284 112.486 243.446 112.538 243.629C112.589 243.812 112.579 244.007 112.508 244.184C112.314 244.511 112.036 244.78 111.704 244.965C111.372 245.149 110.996 245.243 110.616 245.235C109.844 245.339 109.06 245.154 108.415 244.716C108.273 244.607 108.165 244.46 108.106 244.291C108.046 244.122 108.038 243.939 108.081 243.765C108.124 243.591 108.218 243.434 108.35 243.313C108.482 243.192 108.647 243.112 108.823 243.084Z" fill="#263238"/>
<path d="M123.043 244.147C122.621 243.777 122.179 243.43 121.72 243.109C121.311 242.679 120.772 242.397 120.186 242.305C119.997 242.309 119.814 242.377 119.668 242.499C119.522 242.62 119.422 242.787 119.383 242.972C119.355 243.353 119.429 243.734 119.599 244.075C119.769 244.417 120.027 244.706 120.347 244.914C120.926 245.437 121.681 245.724 122.461 245.717C122.639 245.707 122.809 245.645 122.951 245.539C123.094 245.433 123.202 245.288 123.264 245.122C123.325 244.955 123.337 244.775 123.298 244.602C123.259 244.428 123.17 244.271 123.043 244.147Z" fill="#263238"/>
<path d="M103.087 246.001C104.608 246.582 104.892 243.405 104.967 242.292C105.151 241.149 105.437 240.024 105.82 238.93C105.372 240.001 104.826 241.027 104.188 241.996C103.483 242.849 101.566 245.395 103.087 246.001Z" fill="white"/>
<path d="M92.8375 247.979C92.8375 247.979 89.932 235.098 92.6026 229.102C93.8389 226.395 98.2527 225.789 98.2527 225.789C98.3419 224.549 98.7758 223.359 99.5054 222.352C100.235 221.345 101.231 220.562 102.382 220.091C106.734 218.076 114.523 221.463 114.523 221.463C114.523 221.463 122.226 215.69 128.581 221.117C134.936 226.543 127.344 233.293 127.344 233.293C127.344 233.293 128.766 238.015 121.163 238.806C113.744 239.585 101.603 232.329 101.603 232.329C100.705 237.049 99.1048 241.607 96.8556 245.853C96.4459 246.542 95.8541 247.105 95.1453 247.48C94.4365 247.855 93.638 248.028 92.8375 247.979Z" fill="#263238"/>
<path d="M115.76 221.982C114.341 220.768 112.687 219.859 110.901 219.312C109.313 218.75 107.64 218.47 105.955 218.484C104.474 218.409 103 218.74 101.692 219.442C100.385 220.143 99.2941 221.188 98.5373 222.464C98.1908 223.14 97.9828 223.879 97.9254 224.637C97.8681 225.395 97.9627 226.156 98.2035 226.877C98.2035 226.939 98.3147 226.877 98.29 226.877C97.3009 224.195 99.2915 221.228 101.628 220.053C104.384 218.912 107.461 218.815 110.283 219.781C112.116 220.358 113.872 221.155 115.513 222.155C115.524 222.171 115.538 222.185 115.555 222.196C115.572 222.206 115.59 222.214 115.61 222.217C115.629 222.22 115.649 222.22 115.669 222.216C115.688 222.211 115.706 222.203 115.723 222.192C115.739 222.181 115.753 222.166 115.763 222.15C115.774 222.133 115.781 222.114 115.785 222.095C115.788 222.075 115.788 222.055 115.784 222.036C115.779 222.016 115.771 221.998 115.76 221.982Z" fill="#263238"/>
<path d="M132.66 226.432C132.643 225.342 132.36 224.273 131.834 223.318C131.308 222.364 130.555 221.552 129.643 220.956C127.591 219.497 125.111 218.766 122.596 218.879C120.066 219 117.615 219.798 115.499 221.191C115.499 221.191 115.499 221.302 115.499 221.277C117.394 220.062 119.582 219.38 121.832 219.304C124.081 219.228 126.31 219.76 128.283 220.845C129.218 221.264 130.034 221.909 130.657 222.722C131.281 223.534 131.693 224.489 131.856 225.501C132.019 226.512 131.928 227.548 131.592 228.515C131.255 229.483 130.683 230.352 129.927 231.043C128.158 232.665 125.969 233.757 123.61 234.196C123.61 234.196 123.61 234.294 123.61 234.282C125.807 233.988 127.892 233.137 129.668 231.81C130.522 231.18 131.232 230.374 131.748 229.446C132.264 228.518 132.575 227.49 132.66 226.432Z" fill="#263238"/>
<path d="M122.67 239.696C119.341 239.896 116.008 239.386 112.89 238.201C109.634 237.014 106.517 235.476 103.593 233.614C101.887 232.551 100.218 231.414 98.5733 230.252C98.5733 230.252 98.4743 230.252 98.5733 230.339C101.316 232.779 104.308 234.926 107.5 236.742C110.482 238.395 113.757 239.453 117.143 239.857C119.002 240.063 120.88 240.034 122.732 239.771C122.732 239.771 122.719 239.684 122.67 239.696Z" fill="#263238"/>
<path d="M97.2272 245.766C97.2272 245.766 95.3107 238.794 92.2814 239.289C89.2522 239.783 89.3016 248.906 91.8858 251.069C92.1921 251.366 92.5545 251.598 92.9517 251.752C93.349 251.907 93.7731 251.981 94.1992 251.969C94.6252 251.958 95.0447 251.861 95.4331 251.685C95.8214 251.51 96.1707 251.258 96.4606 250.946L97.2272 245.766Z" fill="#C95F50"/>
<path d="M92.3558 241.897V241.971C94.1362 243.566 94.5442 245.877 94.6061 248.152C94.5585 247.899 94.4567 247.659 94.3075 247.45C94.1584 247.24 93.9655 247.065 93.7422 246.937C93.5189 246.809 93.2705 246.73 93.014 246.708C92.7576 246.685 92.4993 246.718 92.2568 246.805V246.928C92.6653 246.944 93.0589 247.086 93.3841 247.334C93.7093 247.581 93.9503 247.923 94.0744 248.313C94.275 248.965 94.4076 249.636 94.4701 250.315C94.4701 250.538 94.8657 250.563 94.8781 250.315C95.8549 247.633 95.113 243.183 92.3558 241.897Z" fill="#263238"/>
<path d="M74.8479 280.206C71.2254 300.43 73.4014 342.831 82.6123 349.939C93.2821 358.16 139.992 359.829 150.377 356.788C154.519 355.552 144.665 328.195 140.066 328.232C120.742 328.368 104.471 326.143 102.814 323.856C100.268 320.358 93.6036 295.696 89.0538 280.243C83.3541 260.835 76.4676 271.133 74.8479 280.206Z" fill="#C95F50"/>
<path d="M191.956 299.825L162.284 319.208C162.099 319.304 161.942 319.444 161.826 319.617C161.71 319.789 161.64 319.988 161.621 320.195C161.603 320.402 161.637 320.611 161.72 320.801C161.803 320.992 161.933 321.158 162.098 321.285L175.896 331.644C176.341 331.926 176.858 332.076 177.386 332.076C177.913 332.076 178.43 331.926 178.876 331.644L208.548 312.261C208.735 312.166 208.895 312.025 209.013 311.851C209.13 311.677 209.202 311.476 209.22 311.267C209.239 311.058 209.204 310.848 209.119 310.656C209.034 310.465 208.901 310.298 208.734 310.171L194.936 299.825C194.49 299.542 193.974 299.392 193.446 299.392C192.918 299.392 192.402 299.542 191.956 299.825Z" fill="#263238"/>
<path d="M190.683 298.959L161.01 318.343C160.826 318.438 160.668 318.579 160.552 318.751C160.437 318.924 160.366 319.123 160.348 319.33C160.329 319.537 160.363 319.745 160.447 319.936C160.53 320.126 160.66 320.293 160.825 320.419L174.622 330.779C175.068 331.061 175.585 331.211 176.112 331.211C176.64 331.211 177.157 331.061 177.602 330.779L207.275 311.395C207.462 311.3 207.622 311.159 207.739 310.986C207.857 310.812 207.928 310.611 207.947 310.402C207.965 310.193 207.931 309.983 207.845 309.791C207.76 309.599 207.628 309.432 207.46 309.306L193.662 298.959C193.217 298.677 192.7 298.527 192.173 298.527C191.645 298.527 191.128 298.677 190.683 298.959Z" fill="#37474F"/>
<path d="M190.064 300.579L162.864 318.355C162.024 318.899 161.912 319.764 162.605 320.283L174.968 329.542C175.385 329.8 175.864 329.936 176.353 329.936C176.842 329.936 177.322 329.8 177.738 329.542L204.938 311.754C206.644 310.654 206.459 309.986 205.766 309.467L203.294 307.613C203.186 307.562 203.067 307.542 202.949 307.555C202.831 307.569 202.72 307.614 202.626 307.687H202.527C202.366 307.819 202.161 307.884 201.953 307.868C201.746 307.852 201.552 307.756 201.414 307.6L195.69 303.311C195.368 303.063 195.121 302.866 195.69 302.519L195.776 302.458C196.011 302.309 196.073 302.112 195.925 302L193.452 300.146C192.698 299.651 191.659 299.565 190.064 300.579Z" fill="white"/>
<path d="M198.41 304.46L199.968 305.697C200 305.715 200.036 305.725 200.073 305.725C200.11 305.725 200.146 305.715 200.178 305.697C200.189 305.687 200.197 305.676 200.203 305.663C200.209 305.65 200.212 305.636 200.212 305.622C200.212 305.608 200.209 305.595 200.203 305.582C200.197 305.569 200.189 305.558 200.178 305.548L198.608 304.386C198.58 304.364 198.545 304.352 198.509 304.352C198.473 304.352 198.438 304.364 198.41 304.386C198.361 304.361 198.361 304.423 198.41 304.46Z" fill="white"/>
<path d="M176.191 312.693L186.676 320.555L198.372 312.94L187.875 305.066L176.191 312.693Z" fill="#F6CF00"/>
<path d="M178.641 317.218L184.761 321.816L185.453 321.359L179.333 316.773L178.641 317.218Z" fill="#A6A6A6"/>
<path d="M176.39 317.106L183.635 322.546L183.981 322.323L176.723 316.884L176.39 317.106Z" fill="#A6A6A6"/>
<path d="M175.761 317.514L183.006 322.954L183.352 322.731L176.095 317.292L175.761 317.514Z" fill="#A6A6A6"/>
<path d="M175.13 317.935L182.375 323.362L182.722 323.139L175.476 317.7L175.13 317.935Z" fill="#A6A6A6"/>
<path d="M200.624 309.64L201.935 310.617L202.207 310.431L200.908 309.454L200.624 309.64Z" fill="#A6A6A6"/>
<path d="M200.104 309.974L201.402 310.95L201.686 310.765L200.388 309.788L200.104 309.974Z" fill="#A6A6A6"/>
<path d="M199.584 310.307L200.895 311.297L201.167 311.111L199.868 310.122L199.584 310.307Z" fill="#A6A6A6"/>
<path d="M174.586 313.905C174.544 314.063 174.544 314.229 174.586 314.387C174.819 314.423 175.057 314.423 175.29 314.387C175.748 314.387 176.094 314.09 175.847 313.892C175.6 313.695 175.266 313.892 175.266 313.892C175.266 313.892 175.55 313.657 175.34 313.509C175.13 313.361 174.672 313.583 174.586 313.905Z" fill="#F6CF00"/>
<path d="M167.217 319.962L175.674 326.316L178.382 324.561L169.912 318.207L167.217 319.962Z" fill="#F6CF00"/>
<path d="M148.893 356.874C151.168 356.874 170.307 352.128 176.093 348.876C182.293 345.57 187.913 341.278 192.735 336.168C200.301 328.059 204.765 321.73 204.913 318.231C205.074 314.164 204.913 313.447 189.619 325.92C180.965 332.967 175.401 332.101 170.95 330.42C152.652 323.448 135.021 328.207 135.021 328.207C135.021 328.207 140.14 356.85 148.893 356.874Z" fill="#C95F50"/>
<path d="M173.213 331.149C168.552 329.555 187.023 325.574 189.15 320.37C191.276 315.166 185.478 314.98 180.409 316.464C162.605 321.742 152.158 317.415 141.463 324.734C140.326 325.5 136.975 327.206 136.913 327.75C136.406 332.868 173.213 331.149 173.213 331.149Z" fill="#C95F50"/>
<path d="M161.505 319.665C158.21 319.34 154.886 319.436 151.614 319.95C148.615 320.605 145.769 321.83 143.232 323.56C143.121 323.622 143.232 323.807 143.331 323.746C148.82 320.444 155.286 320.123 161.505 319.814C161.525 319.814 161.544 319.806 161.558 319.792C161.572 319.778 161.58 319.759 161.58 319.74C161.58 319.72 161.572 319.701 161.558 319.687C161.544 319.673 161.525 319.665 161.505 319.665Z" fill="#263238"/>
<path d="M71.1511 307.316L82.402 305.202L96.5707 302.544C96.5707 302.544 93.2449 286.77 89.1525 276.93C84.9736 266.818 78.0253 263.518 74.2049 277.412C70.4958 291.072 71.1511 307.316 71.1511 307.316Z" fill="#F6CF00"/>
<path d="M72.1537 302.211C76.481 301.234 92.3682 297.847 94.4824 298.18C94.4824 298.18 94.5566 298.341 94.4824 298.366C92.6155 299.417 76.5552 301.877 72.1661 302.471C72.1166 302.483 72.0672 302.236 72.1537 302.211Z" fill="#263238"/>
<path d="M73.192 306.933C72.5243 307.13 71.8566 307.303 71.189 307.477H71.0035V307.266C70.8304 305.499 70.8057 303.719 70.8057 301.951C70.8057 300.183 70.8922 298.403 71.0159 296.635C71.1395 294.867 71.3002 293.1 71.5475 291.344C71.7948 289.589 72.0545 287.846 72.4254 286.103C72.4254 287.883 72.3018 289.638 72.2152 291.406C72.1286 293.174 72.0174 294.929 71.9185 296.697C71.733 300.208 71.4857 303.731 71.3373 307.254L71.1395 307.106C71.8072 307.069 72.4996 306.982 73.192 306.933Z" fill="#263238"/>
<path d="M70.2242 290.071C70.5765 291.144 70.8412 292.244 71.0155 293.359C71.102 293.916 71.1886 294.472 71.238 295.028C71.298 295.595 71.3269 296.164 71.3246 296.734C70.8809 295.686 70.5734 294.585 70.4096 293.458C70.2114 292.341 70.1491 291.203 70.2242 290.071Z" fill="#263238"/>
<path d="M95.6318 302.717L96.5468 302.445L96.4726 302.569C95.9904 301.098 95.6071 299.614 95.1744 298.143L94.0245 293.693C93.2826 290.726 92.5902 287.759 91.9473 284.743C92.5941 286.14 93.1516 287.577 93.6165 289.045C94.1234 290.504 94.519 291.987 94.8529 293.471C95.1867 294.954 95.57 296.462 95.8668 297.97C96.1635 299.478 96.4232 300.987 96.6086 302.519V302.631H96.5097C96.2748 302.68 95.9533 302.692 95.6318 302.717Z" fill="#263238"/>
<path d="M94.2589 287.722C94.5326 288.552 94.6745 289.42 94.6793 290.294C94.6874 290.732 94.6585 291.17 94.5927 291.604C94.5395 292.029 94.4271 292.446 94.2589 292.84C94.1325 291.989 94.0664 291.13 94.0611 290.269C94.0382 289.415 94.1045 288.562 94.2589 287.722Z" fill="#263238"/>
<path d="M159.886 208.235C160.015 209.739 159.695 211.246 158.967 212.568C158.239 213.89 157.135 214.966 155.795 215.66C154.455 216.354 152.94 216.635 151.44 216.468C149.94 216.301 148.524 215.693 147.369 214.721C146.215 213.749 145.376 212.456 144.956 211.007C144.537 209.557 144.557 208.016 145.015 206.578C145.472 205.14 146.345 203.87 147.524 202.928C148.703 201.987 150.135 201.416 151.639 201.288C152.637 201.202 153.642 201.313 154.597 201.615C155.552 201.918 156.438 202.406 157.204 203.051C157.97 203.696 158.601 204.487 159.061 205.376C159.522 206.266 159.802 207.237 159.886 208.235Z" fill="white"/>
<path d="M159.887 208.235C160.059 210.277 159.437 212.307 158.149 213.9C156.861 215.494 155.008 216.529 152.975 216.79C151.927 216.899 150.867 216.799 149.858 216.494C148.849 216.19 147.911 215.687 147.098 215.016C146.285 214.345 145.614 213.519 145.124 212.586C144.634 211.653 144.335 210.632 144.244 209.582C144.152 208.533 144.271 207.475 144.593 206.472C144.915 205.468 145.434 204.539 146.119 203.738C146.804 202.937 147.642 202.281 148.583 201.807C149.525 201.333 150.551 201.052 151.602 200.979C153.653 200.885 155.661 201.588 157.205 202.941C158.749 204.293 159.71 206.191 159.887 208.235ZM159.887 208.235C159.805 207.251 159.524 206.294 159.061 205.421C158.599 204.549 157.964 203.779 157.195 203.158C156.427 202.538 155.54 202.079 154.59 201.811C153.639 201.543 152.644 201.47 151.664 201.597C149.8 201.862 148.106 202.825 146.926 204.292C145.746 205.759 145.168 207.619 145.309 209.496C145.473 211.377 146.356 213.122 147.775 214.368C149.194 215.614 151.039 216.264 152.925 216.184C153.912 216.141 154.88 215.899 155.77 215.471C156.661 215.044 157.455 214.441 158.106 213.698C158.757 212.955 159.25 212.088 159.556 211.149C159.862 210.21 159.974 209.219 159.887 208.235Z" fill="#263238"/>
<path d="M143.442 222.291C143.512 223.126 143.333 223.963 142.928 224.696C142.522 225.429 141.909 226.026 141.165 226.411C140.42 226.796 139.579 226.952 138.746 226.859C137.913 226.766 137.126 226.429 136.485 225.89C135.844 225.35 135.377 224.633 135.143 223.829C134.909 223.024 134.919 222.168 135.171 221.369C135.423 220.57 135.907 219.864 136.56 219.339C137.213 218.815 138.007 218.495 138.842 218.422C139.965 218.326 141.08 218.679 141.943 219.405C142.805 220.13 143.344 221.168 143.442 222.291Z" fill="white"/>
<path d="M143.443 222.291C143.548 223.449 143.21 224.604 142.496 225.522C141.782 226.44 140.746 227.052 139.598 227.236C138.695 227.375 137.771 227.24 136.946 226.849C136.12 226.457 135.431 225.827 134.968 225.04C134.505 224.252 134.289 223.344 134.348 222.433C134.407 221.521 134.739 220.649 135.299 219.928C135.86 219.207 136.624 218.67 137.493 218.389C138.362 218.107 139.296 218.092 140.173 218.347C141.05 218.601 141.831 219.113 142.414 219.817C142.997 220.52 143.355 221.382 143.443 222.291ZM143.443 222.291C143.39 221.739 143.225 221.205 142.957 220.72C142.689 220.235 142.324 219.81 141.885 219.472C141.276 219.016 140.547 218.746 139.788 218.694C139.028 218.643 138.27 218.812 137.605 219.181C136.939 219.551 136.395 220.105 136.038 220.777C135.68 221.449 135.525 222.21 135.591 222.968C135.656 223.727 135.94 224.45 136.407 225.05C136.875 225.651 137.506 226.103 138.225 226.353C138.944 226.603 139.72 226.64 140.46 226.458C141.199 226.277 141.87 225.886 142.392 225.332C142.766 224.924 143.052 224.444 143.233 223.92C143.414 223.397 143.485 222.843 143.443 222.291Z" fill="#263238"/>
<path d="M216.93 172.769C217.406 176.644 216.854 180.575 215.329 184.169C213.805 187.763 211.361 190.892 208.245 193.243C205.128 195.594 201.447 197.084 197.573 197.563C193.698 198.042 189.765 197.494 186.17 195.972C184.421 198.248 182.172 200.089 179.596 201.355C177.021 202.62 174.188 203.275 171.318 203.269C168.448 203.264 165.619 202.597 163.048 201.32C160.478 200.044 158.236 198.193 156.497 195.911C155.69 196.158 154.863 196.332 154.024 196.43C151.114 196.793 148.16 196.304 145.522 195.022C142.883 193.741 140.674 191.721 139.161 189.208C137.648 186.696 136.896 183.798 136.998 180.867C137.099 177.936 138.049 175.097 139.732 172.695C136.409 168.525 134.694 163.301 134.899 157.974C135.104 152.647 137.215 147.57 140.849 143.668C144.482 139.765 149.395 137.297 154.695 136.712C159.995 136.127 165.329 137.464 169.726 140.48C171.787 137.905 174.494 135.921 177.571 134.73C180.647 133.54 183.985 133.185 187.243 133.703C190.501 134.22 193.564 135.591 196.121 137.676C198.677 139.761 200.636 142.486 201.797 145.573C202.576 145.309 203.38 145.127 204.196 145.029C206.674 144.725 209.185 145.186 211.392 146.352C213.6 147.518 215.397 149.332 216.541 151.55C217.686 153.768 218.124 156.284 217.796 158.758C217.467 161.232 216.389 163.546 214.705 165.389C215.88 167.697 216.634 170.196 216.93 172.769Z" fill="white"/>
<path d="M216.932 172.769C217.393 176.642 216.843 180.569 215.337 184.167C214.57 185.958 213.586 187.647 212.407 189.198C211.203 190.723 209.811 192.09 208.265 193.265C205.141 195.636 201.453 197.149 197.564 197.654C193.675 198.16 189.722 197.639 186.097 196.146H186.307C184.538 198.468 182.259 200.352 179.644 201.652C177.03 202.952 174.152 203.632 171.232 203.641C168.313 203.649 165.43 202.985 162.809 201.7C160.187 200.415 157.897 198.544 156.115 196.232L156.56 196.38C155.021 196.845 153.419 197.066 151.812 197.036C150.201 197.033 148.601 196.766 147.077 196.244C143.993 195.212 141.305 193.246 139.387 190.62C138.454 189.299 137.717 187.85 137.199 186.318C136.702 184.779 136.435 183.175 136.407 181.559C136.377 178.293 137.367 175.099 139.239 172.423V173.066C135.863 168.79 134.132 163.446 134.359 158.003C134.585 152.56 136.755 147.378 140.475 143.397C144.204 139.436 149.214 136.923 154.619 136.302C160.012 135.724 165.433 137.096 169.9 140.171L169.356 140.258C171.474 137.647 174.248 135.646 177.394 134.46C180.54 133.274 183.944 132.946 187.259 133.508C190.546 134.055 193.631 135.459 196.201 137.58C198.772 139.701 200.737 142.462 201.897 145.586L201.737 145.511C204.33 144.672 207.127 144.707 209.699 145.61C211.61 146.288 213.324 147.428 214.687 148.93C216.05 150.431 217.019 152.247 217.509 154.215C217.999 156.182 217.994 158.241 217.494 160.206C216.994 162.171 216.015 163.981 214.644 165.476C215.832 167.753 216.606 170.222 216.932 172.769ZM216.932 172.769C216.627 170.182 215.86 167.669 214.669 165.352C216.021 163.863 216.982 162.063 217.467 160.111C217.951 158.159 217.944 156.118 217.445 154.17C216.946 152.222 215.972 150.428 214.609 148.949C213.247 147.47 211.538 146.353 209.637 145.697C207.105 144.826 204.355 144.826 201.823 145.697H201.7V145.573C200.52 142.53 198.558 139.852 196.012 137.81C193.481 135.757 190.445 134.421 187.222 133.941C184.019 133.446 180.742 133.811 177.726 135C174.711 136.188 172.066 138.156 170.061 140.703L169.839 140.999L169.517 140.777C165.196 137.9 159.993 136.654 154.838 137.261C149.683 137.868 144.912 140.289 141.378 144.09C137.883 147.898 135.85 152.82 135.639 157.984C135.429 163.148 137.054 168.22 140.228 172.3L140.487 172.633L140.24 172.992C138.492 175.463 137.562 178.42 137.582 181.447C137.593 182.954 137.83 184.45 138.287 185.885C138.76 187.315 139.438 188.669 140.302 189.903C142.083 192.363 144.571 194.221 147.436 195.231C148.866 195.739 150.369 196.01 151.887 196.034C153.403 196.09 154.918 195.903 156.375 195.478L156.647 195.391L156.832 195.626C158.528 197.868 160.709 199.698 163.212 200.979C167.027 202.907 171.394 203.448 175.565 202.51C179.736 201.572 183.45 199.213 186.072 195.836L186.159 195.725H186.282C189.847 197.266 193.757 197.834 197.613 197.369C201.468 196.904 205.131 195.424 208.228 193.08C209.774 191.914 211.17 190.56 212.382 189.05C213.561 187.528 214.549 185.867 215.324 184.105C216.828 180.528 217.381 176.623 216.932 172.769Z" fill="#263238"/>
<path d="M188.124 172.164L187.419 175.538C187.366 175.88 187.242 176.207 187.055 176.498C186.868 176.788 186.623 177.037 186.334 177.227C186.045 177.416 185.719 177.544 185.378 177.6C185.037 177.656 184.688 177.64 184.353 177.553C184.018 177.484 183.7 177.35 183.418 177.157C183.135 176.965 182.893 176.719 182.706 176.433C182.519 176.147 182.39 175.827 182.327 175.491C182.263 175.155 182.267 174.81 182.338 174.475L183.463 169.073C183.463 169.073 183.463 169.073 183.537 168.987C183.611 168.9 183.537 168.987 183.537 168.863C183.697 168.199 184.105 167.621 184.677 167.248C185.25 166.876 185.944 166.737 186.616 166.86C188.16 167.188 189.771 166.889 191.095 166.029C192.419 165.169 193.347 163.818 193.675 162.274C194.003 160.73 193.704 159.119 192.844 157.795C191.984 156.471 190.633 155.543 189.088 155.215C188.078 155.006 187.031 155.065 186.05 155.386C185.07 155.707 184.191 156.279 183.5 157.045C183.278 157.322 183.002 157.55 182.689 157.717C182.376 157.883 182.033 157.984 181.679 158.013C181.326 158.043 180.971 158 180.634 157.887C180.298 157.774 179.989 157.594 179.725 157.358C179.46 157.121 179.247 156.833 179.098 156.512C178.949 156.19 178.866 155.842 178.857 155.487C178.847 155.133 178.909 154.78 179.04 154.451C179.171 154.121 179.367 153.822 179.618 153.571C180.847 152.198 182.398 151.152 184.132 150.527C185.866 149.902 187.728 149.717 189.551 149.989C191.373 150.261 193.1 150.981 194.576 152.086C196.051 153.19 197.229 154.643 198.004 156.315C198.779 157.987 199.126 159.826 199.015 161.665C198.903 163.504 198.337 165.287 197.366 166.854C196.395 168.42 195.05 169.721 193.452 170.639C191.854 171.557 190.053 172.064 188.21 172.114L188.124 172.164ZM185.762 183.536L185.565 184.476C185.502 184.814 185.371 185.136 185.18 185.422C184.99 185.708 184.743 185.952 184.456 186.141C184.168 186.329 183.845 186.457 183.507 186.517C183.168 186.577 182.821 186.568 182.486 186.491C181.813 186.345 181.225 185.941 180.847 185.365C180.47 184.789 180.335 184.088 180.471 183.413L180.669 182.473C180.823 181.807 181.23 181.226 181.805 180.855C182.379 180.483 183.076 180.35 183.747 180.483C184.418 180.623 185.007 181.022 185.384 181.594C185.762 182.166 185.898 182.865 185.762 183.536Z" fill="#F6CF00"/>
<path d="M161.109 165.303L160.751 161.94C160.689 161.598 160.7 161.247 160.783 160.91C160.866 160.573 161.02 160.257 161.233 159.983C161.447 159.709 161.716 159.483 162.022 159.319C162.329 159.156 162.667 159.059 163.013 159.035C163.696 158.955 164.384 159.147 164.925 159.571C165.467 159.995 165.82 160.615 165.906 161.297L166.586 166.774C166.586 166.774 166.586 166.774 166.586 166.885C166.586 166.996 166.586 166.885 166.648 166.984C166.716 167.665 166.518 168.345 166.097 168.884C165.675 169.423 165.062 169.778 164.386 169.877C163.588 169.944 162.812 170.171 162.104 170.546C161.397 170.92 160.772 171.433 160.268 172.054C159.763 172.676 159.39 173.393 159.169 174.162C158.948 174.931 158.885 175.737 158.983 176.532C159.081 177.326 159.339 178.092 159.741 178.784C160.142 179.477 160.679 180.081 161.32 180.561C161.961 181.041 162.692 181.386 163.469 181.577C164.247 181.767 165.054 181.799 165.844 181.67C166.868 181.551 167.842 181.164 168.667 180.547C169.492 179.931 170.139 179.107 170.543 178.159C170.676 177.838 170.872 177.548 171.119 177.303C171.366 177.059 171.659 176.866 171.981 176.736C172.303 176.607 172.648 176.542 172.995 176.546C173.343 176.551 173.686 176.624 174.004 176.762C174.317 176.898 174.599 177.094 174.836 177.339C175.072 177.584 175.257 177.873 175.382 178.19C175.506 178.508 175.566 178.846 175.559 179.186C175.551 179.527 175.477 179.862 175.34 180.174C174.609 181.86 173.473 183.339 172.031 184.479C170.59 185.618 168.888 186.383 167.079 186.705C165.27 187.027 163.409 186.896 161.663 186.324C159.917 185.751 158.339 184.756 157.072 183.425C155.805 182.095 154.886 180.471 154.4 178.699C153.913 176.928 153.872 175.063 154.282 173.272C154.692 171.481 155.539 169.819 156.747 168.435C157.956 167.051 159.488 165.987 161.208 165.34L161.109 165.303ZM159.687 153.781L159.564 152.83C159.504 152.489 159.517 152.139 159.601 151.803C159.685 151.467 159.838 151.153 160.052 150.88C160.265 150.607 160.533 150.383 160.839 150.22C161.144 150.058 161.481 149.961 161.826 149.937C162.165 149.894 162.509 149.918 162.838 150.009C163.168 150.099 163.476 150.254 163.745 150.465C164.014 150.675 164.238 150.937 164.406 151.234C164.573 151.532 164.68 151.86 164.719 152.199L164.843 153.139C164.917 153.822 164.722 154.507 164.3 155.049C163.878 155.591 163.261 155.948 162.58 156.044C162.241 156.089 161.897 156.065 161.567 155.975C161.237 155.886 160.928 155.731 160.659 155.52C160.389 155.309 160.165 155.047 159.998 154.749C159.831 154.45 159.726 154.121 159.687 153.781Z" fill="#F6CF00"/>
</svg>
