<svg width="502" height="566" viewBox="0 0 502 566" fill="none" xmlns="http://www.w3.org/2000/svg">
<path d="M53.4488 427.634H20.71V441.466H53.4488V427.634Z" fill="#EBEBEB"/>
<path d="M35.1881 445.076H2.44922V458.909H35.1881V445.076Z" fill="#EBEBEB"/>
<path d="M71.7105 445.076H38.9717V458.909H71.7105V445.076Z" fill="#EBEBEB"/>
<path d="M481.304 57.9028H448.565V71.7357H481.304V57.9028Z" fill="#EBEBEB"/>
<path d="M499.565 75.3455H466.826V89.1784H499.565V75.3455Z" fill="#EBEBEB"/>
<path d="M35.1881 57.9276H2.44922V71.7605H35.1881V57.9276Z" fill="#EBEBEB"/>
<path d="M466.839 441.355H499.578V427.522H466.839V441.355Z" fill="#EBEBEB"/>
<path d="M388.664 281.974H421.403V268.141H388.664V281.974Z" fill="#EBEBEB"/>
<path d="M406.925 264.531H439.664V250.698H406.925V264.531Z" fill="#EBEBEB"/>
<path d="M56.8731 0H55.6367V135.98H56.8731V0Z" fill="#C7C7C7"/>
<path d="M102.446 180.273L98.7493 188.395H14.2439L10.5596 180.273L46.5377 155.376H66.4678L102.446 180.273Z" fill="#EBEBEB"/>
<path d="M68.9651 131.394L66.4676 155.376H46.5375L44.04 131.394H68.9651Z" fill="#DBDBDB"/>
<path d="M102.434 180.285L98.7369 188.407H14.2316L10.5596 180.285H102.434Z" fill="#DBDBDB"/>
<path d="M144.655 0H143.419V108.784H144.655V0Z" fill="#C7C7C7"/>
<path d="M190.376 154.078L186.679 162.2H102.174L98.4893 154.078L134.467 129.181H154.398L190.376 154.078Z" fill="#EBEBEB"/>
<path d="M156.895 105.187L154.397 129.181H134.467L131.97 105.187H156.895Z" fill="#DBDBDB"/>
<path d="M190.376 154.078L186.679 162.2H102.174L98.4893 154.078H190.376Z" fill="#DBDBDB"/>
<path d="M496.187 536.604C496.187 552.847 386.423 566 251.004 566C115.585 566 5.82129 552.847 5.82129 536.604C5.82129 520.36 115.585 507.207 251.004 507.207C386.423 507.207 496.187 520.36 496.187 536.604Z" fill="#EBEBEB"/>
<path d="M444.149 371.758C445.052 378.007 444.729 384.373 443.197 390.499C442.479 393.336 441.519 396.107 440.328 398.781C438.832 402.218 437.275 405.555 437.658 409.313C438.016 409.548 436.78 409.511 436.731 409.153C426.704 403.441 413.845 402.391 406.131 393.082C402.654 388.534 400.456 383.139 399.763 377.457C398.811 371.35 398.527 364.6 400.122 358.593C401.445 353.549 404.424 348.604 409.259 346.132C414.093 343.66 420.658 343.783 425.851 345.39C436.99 348.839 442.566 360.966 444.149 371.758Z" fill="#F6CF00"/>
<path d="M449.292 445.966C447.932 441.409 446.551 436.855 445.15 432.306C442.405 423.393 439.549 414.518 436.372 405.741C434.476 400.491 432.477 395.287 430.376 390.128C430.622 386.878 431.035 383.643 431.612 380.436C432.453 376.554 433.664 372.796 434.802 369.001C434.876 368.766 434.493 368.643 434.394 368.865C432.144 374.107 429.201 380.807 429.139 387.013C426.666 381.178 424.037 375.429 421.251 369.768C420.906 364.979 421.03 360.168 421.622 355.403C421.622 355.363 421.607 355.325 421.581 355.294C421.556 355.263 421.52 355.243 421.481 355.235C421.441 355.228 421.401 355.235 421.365 355.254C421.33 355.273 421.303 355.304 421.288 355.341C420.432 359.507 420.1 363.764 420.299 368.012C418.148 363.76 415.869 359.561 413.462 355.416C413.24 355.045 412.733 355.416 412.918 355.799C416.689 363.055 420.176 370.46 423.464 377.964C418.848 373.96 413.51 370.872 407.738 368.865C407.49 368.766 407.305 369.137 407.552 369.236C413.852 371.94 419.615 375.755 424.565 380.498C426.914 385.986 429.16 391.525 431.303 397.112C425.022 390.931 416.466 386.914 408.133 384.75C407.849 384.676 407.775 385.109 408.047 385.183C417.666 388.076 425.121 393.527 432.44 400.017C433.281 402.279 434.122 404.542 434.913 406.804C438.004 415.391 440.951 424.044 443.753 432.764C445.105 436.884 446.432 441.054 447.734 445.274C449.131 449.774 450.207 454.521 452.061 458.872C452.234 459.28 452.976 459.193 452.877 458.687C451.901 454.388 450.704 450.142 449.292 445.966Z" fill="#263238"/>
<path d="M432.663 362.981C430.886 365.718 429.66 368.775 429.053 371.981C429.053 372.067 429.164 372.117 429.201 371.981C430.317 368.96 431.622 366.012 433.108 363.154C433.269 362.907 432.836 362.722 432.663 362.981Z" fill="#263238"/>
<path d="M414.773 383.873C411.985 382.327 408.94 381.301 405.785 380.844C405.698 380.844 405.649 380.955 405.785 380.992C407.231 381.586 408.752 382.006 410.211 382.575C411.67 383.143 413.116 383.811 414.6 384.342C414.657 384.347 414.713 384.333 414.761 384.303C414.809 384.272 414.846 384.227 414.866 384.173C414.885 384.12 414.887 384.062 414.87 384.007C414.853 383.953 414.819 383.906 414.773 383.873Z" fill="#263238"/>
<path d="M409.741 358.753C408.837 358.064 407.868 357.463 406.848 356.961C406.814 356.949 406.777 356.948 406.743 356.96C406.709 356.971 406.68 356.993 406.66 357.023C406.64 357.053 406.631 357.089 406.633 357.124C406.636 357.16 406.651 357.194 406.675 357.22C407.567 357.922 408.523 358.539 409.531 359.062C409.716 359.174 409.927 358.865 409.741 358.753Z" fill="#263238"/>
<path d="M477.952 405.815C470.731 407.954 463.474 409.932 456.254 412.058C455.623 412.243 443.42 388.855 447.834 376.802C449.934 371.343 453.228 366.422 457.474 362.399C461.72 358.376 466.811 355.353 472.376 353.549C477.531 351.794 483.862 350.323 489.314 351.522C494.16 352.597 497.573 356.553 499.205 361.115C501.344 367.296 500.627 374.713 499.464 381.005C498.538 386.939 496.089 392.531 492.355 397.236C488.473 401.76 483.577 404.146 477.952 405.815Z" fill="#F6CF00"/>
<path d="M488.386 383.576C483.82 385.811 479.082 387.675 474.218 389.151C470.978 390.025 467.818 391.17 464.772 392.575C467.826 385.776 471.164 379.126 474.724 372.524C479.386 371.177 484.294 369.076 487.805 365.775C487.825 365.758 487.842 365.737 487.854 365.713C487.867 365.69 487.874 365.664 487.876 365.638C487.879 365.611 487.876 365.585 487.868 365.56C487.86 365.534 487.847 365.511 487.83 365.491C487.813 365.47 487.792 365.454 487.768 365.441C487.745 365.429 487.719 365.422 487.693 365.419C487.666 365.417 487.64 365.42 487.615 365.428C487.589 365.436 487.566 365.449 487.546 365.466C483.7 368.185 479.447 369.817 475.182 371.647C476.146 369.867 477.111 368.099 478.1 366.331C478.372 365.837 477.704 365.355 477.37 365.824C473.575 371.337 470.147 377.093 467.108 383.057C466.329 377.833 466.081 372.544 466.367 367.271C466.367 367.135 466.181 367.122 466.156 367.271C465.26 373.01 465.318 378.857 466.33 384.577C463.857 389.633 461.495 394.813 459.418 400.054C458.602 396.902 457.527 393.799 456.81 390.622C455.718 386.077 455.367 381.385 455.771 376.728C455.771 376.592 455.586 376.579 455.561 376.728C454.32 385.37 455.409 394.186 458.714 402.267C457.477 405.419 456.352 408.584 455.301 411.761C449.856 427.948 446.629 444.798 445.707 461.851C445.707 461.933 445.74 462.012 445.798 462.07C445.856 462.128 445.934 462.16 446.016 462.16C446.098 462.16 446.177 462.128 446.235 462.07C446.293 462.012 446.325 461.933 446.325 461.851C448.217 445.045 451.821 428.477 457.082 412.404C459.171 406.112 461.582 400.042 464.228 393.997C468.493 392.761 472.746 391.03 476.938 389.584C481.128 388.321 485.084 386.379 488.646 383.836C488.68 383.801 488.7 383.754 488.7 383.706C488.7 383.657 488.68 383.61 488.646 383.576C488.611 383.542 488.565 383.522 488.516 383.522C488.467 383.522 488.421 383.542 488.386 383.576Z" fill="#263238"/>
<path d="M495.148 376.789C490.734 378.359 486.494 380.56 482.142 382.154C481.931 382.229 482.055 382.55 482.253 382.513C486.926 381.549 491.55 380.102 495.321 377.037C495.457 376.925 495.309 376.728 495.148 376.789Z" fill="#263238"/>
<path d="M459.084 367.258C459.146 367.023 458.8 366.887 458.725 367.135C457.489 371.202 456.685 375.528 457.86 379.682C457.86 379.843 458.169 379.855 458.169 379.682C458.379 375.467 458.144 371.387 459.084 367.258Z" fill="#263238"/>
<path d="M477.332 357.863C475.926 359.887 475.251 362.328 475.416 364.786C475.416 364.934 475.676 365.021 475.713 364.848C476.257 362.511 477.159 360.398 477.876 358.135C477.897 358.066 477.892 357.991 477.863 357.925C477.834 357.859 477.783 357.805 477.718 357.772C477.653 357.74 477.579 357.731 477.509 357.748C477.438 357.765 477.376 357.805 477.332 357.863Z" fill="#263238"/>
<path d="M392.061 416.125C394.175 422.85 399.207 432.133 407.169 432.195C412.337 432.195 417.53 431.626 422.71 431.552C428.249 431.466 433.838 431.478 439.34 431.812C439.797 431.812 438.672 415.21 425.356 407.088C421.647 404.814 417.06 404.097 412.82 403.182C407.961 402.03 402.975 401.511 397.983 401.637C394.917 401.76 392.37 402.403 391.282 405.543C390.194 408.683 391.035 412.886 392.061 416.125Z" fill="#F6CF00"/>
<path d="M397.785 407.719C401.024 408.547 404.288 409.511 407.54 410.537C406.692 409.617 405.796 408.743 404.857 407.917C403.46 406.767 401.927 405.84 400.431 404.814C400.307 404.74 400.431 404.492 400.542 404.554C403.693 405.863 406.414 408.03 408.393 410.809C412.448 412.107 416.454 413.554 420.311 415.136C422.979 416.231 425.538 417.576 427.952 419.153C427.175 417.475 426.248 415.869 425.183 414.357C423.415 412.058 421.028 410.784 418.716 409.165C418.677 409.133 418.651 409.089 418.642 409.039C418.633 408.99 418.642 408.939 418.667 408.895C418.693 408.852 418.733 408.819 418.781 408.803C418.828 408.787 418.88 408.788 418.927 408.807C421.346 409.858 423.519 411.403 425.307 413.342C427.096 415.281 428.46 417.572 429.312 420.068C432.083 422.06 434.618 424.362 436.866 426.929C445.682 436.942 452.63 450.268 452.655 463.854C452.655 464.175 452.135 464.274 452.074 463.928C449.805 450.607 443.997 438.14 435.259 427.831C434.628 427.09 434.023 426.398 433.318 425.718C430.904 425.388 428.472 425.206 426.036 425.174C423.204 425.174 420.386 425.594 417.567 425.817C412.918 426.2 407.775 426.249 403.571 423.913C403.386 423.814 403.571 423.493 403.719 423.567C413.079 426.966 422.883 422.652 432.255 424.679C428.252 420.862 423.562 417.837 418.432 415.766L417.567 415.42C411.57 416.137 405.203 417.707 399.392 415.754C399.374 415.749 399.358 415.741 399.343 415.729C399.328 415.718 399.316 415.704 399.307 415.688C399.298 415.672 399.292 415.654 399.289 415.636C399.287 415.617 399.288 415.599 399.293 415.581C399.298 415.563 399.306 415.546 399.318 415.532C399.329 415.517 399.343 415.505 399.359 415.496C399.375 415.486 399.393 415.48 399.411 415.478C399.43 415.476 399.448 415.477 399.466 415.482C405.116 416.891 410.532 415.111 416.108 414.827C410.037 412.466 403.843 410.587 397.76 408.238C397.241 408.04 397.229 407.57 397.785 407.719Z" fill="#263238"/>
<path d="M395.139 413.628C398.039 414.005 400.957 414.228 403.881 414.295C403.942 414.295 403.967 414.394 403.881 414.407C400.941 414.953 397.913 414.762 395.065 413.85C394.929 413.813 395.004 413.603 395.139 413.628Z" fill="#263238"/>
<path d="M414.872 407.867C416.488 408.591 417.956 409.609 419.199 410.871C419.347 411.007 419.199 411.279 418.976 411.155C418.247 410.624 417.493 410.117 416.726 409.635C416.003 409.226 415.302 408.78 414.624 408.3C414.585 408.259 414.561 408.207 414.554 408.152C414.547 408.096 414.558 408.039 414.586 407.991C414.614 407.942 414.657 407.904 414.708 407.881C414.76 407.859 414.817 407.854 414.872 407.867Z" fill="#263238"/>
<path d="M461.916 429.5C461.817 429.711 462.139 429.921 462.262 429.686C462.286 429.721 462.317 429.752 462.354 429.775C462.39 429.798 462.43 429.814 462.472 429.822C467.833 431.101 473.266 432.05 478.743 432.665C483.144 433.061 488.226 433.295 492.083 430.749C497.313 427.275 500.738 418.016 497.919 412.132C494.581 405.148 484.504 408.943 479.448 411.427C471.675 415.223 465.473 421.616 461.916 429.5Z" fill="#F6CF00"/>
<path d="M458.009 432.727C460.943 429.878 464.205 427.388 467.727 425.31C470.27 421.293 473.642 417.867 477.617 415.259C477.815 415.123 477.976 415.432 477.803 415.568C474.653 418.09 471.858 421.026 469.495 424.296C473.417 422.153 477.491 420.302 481.685 418.758C483.185 415.98 485.462 413.699 488.238 412.194C488.238 412.194 488.361 412.194 488.312 412.28C486.02 414.01 484.02 416.097 482.39 418.461C484.863 417.546 487.335 416.681 489.87 415.853C490.092 415.779 490.179 416.125 489.969 416.199C485.518 417.942 480.968 419.771 476.554 421.885C481.935 422.744 487.419 422.744 492.8 421.885C492.948 421.885 493.01 422.071 492.8 422.108C487.187 423.769 481.226 423.859 475.565 422.367C472.755 423.733 470.026 425.26 467.393 426.941C469.608 426.76 471.839 426.944 473.995 427.485C477.801 428.371 481.697 428.811 485.604 428.796C485.753 428.796 485.79 429.043 485.604 429.068C478.866 430.217 472.499 427.164 465.823 427.955C463.344 429.643 461.019 431.546 458.874 433.641C454.708 437.8 451.28 442.636 448.736 447.944C445.917 453.668 444.396 459.725 442.121 465.634C442.107 465.688 442.071 465.734 442.022 465.762C441.974 465.79 441.916 465.797 441.862 465.782C441.808 465.768 441.762 465.732 441.734 465.683C441.706 465.634 441.699 465.577 441.714 465.523C443.716 453.878 449.515 441.034 458.009 432.727Z" fill="#263238"/>
<path d="M478.322 416.743C478.772 415.951 479.358 415.244 480.053 414.654C480.615 414.036 481.291 413.532 482.043 413.17C482.105 413.17 482.142 413.17 482.105 413.282C481.549 413.9 480.782 414.369 480.189 414.963C479.595 415.556 479.088 416.273 478.483 416.866C478.466 416.888 478.442 416.902 478.415 416.905C478.389 416.909 478.362 416.901 478.34 416.885C478.319 416.869 478.305 416.844 478.302 416.818C478.298 416.791 478.305 416.764 478.322 416.743Z" fill="#263238"/>
<path d="M489.437 420.365C490.438 420.118 491.489 420.13 492.503 419.92C493.512 419.68 494.507 419.382 495.483 419.03C495.511 419.023 495.541 419.026 495.567 419.039C495.593 419.051 495.614 419.073 495.625 419.1C495.637 419.126 495.639 419.156 495.631 419.184C495.623 419.212 495.606 419.236 495.582 419.252C493.733 420.392 491.561 420.891 489.4 420.674C489.276 420.649 489.288 420.402 489.437 420.365Z" fill="#263238"/>
<path d="M430.253 451.171L431.131 461.208L434.135 495.105H460.692L464.438 461.208L465.539 451.171H430.253Z" fill="#455A64"/>
<path d="M430.253 451.171L431.131 461.208H464.438L465.539 451.171H430.253Z" fill="#263238"/>
<path d="M427.631 456.573H468.184V448.426H427.631V456.573Z" fill="#455A64"/>
<path d="M0 495.018L62.7577 494.721L125.503 494.61L251.006 494.412L376.509 494.61L439.255 494.721L502 495.018L439.255 495.327L376.509 495.438L251.006 495.636L125.503 495.438L62.7577 495.327L0 495.018Z" fill="#263238"/>
<path d="M418.367 96.1758V496.774C418.367 508.098 409.885 517.258 399.426 517.258H212.438C201.954 517.258 193.473 508.098 193.473 496.774V96.1758C193.473 73.1086 201.954 71.9836 212.438 71.9836H249.937C252.113 71.9836 253.894 74.456 253.894 77.5218V78.8445C253.894 86.0267 257.825 86.0514 262.647 86.0514H349.267C354.138 86.0514 358.045 86.0514 358.045 78.8445V77.5218C358.045 74.456 359.8 71.9836 362.013 71.9836H399.463C409.885 71.9836 418.367 75.0494 418.367 96.1758Z" fill="white"/>
<path d="M418.368 96.1758L418.677 428.215V469.714V495.674C418.709 497.429 418.581 499.184 418.293 500.915C417.65 504.392 416.169 507.659 413.978 510.434C412.872 511.823 411.597 513.069 410.183 514.143C408.743 515.166 407.176 515.997 405.522 516.615C403.857 517.222 402.111 517.576 400.341 517.666C398.573 517.777 396.867 517.666 395.136 517.727H374.44H332.923L249.913 517.814H213.589C211.813 517.866 210.037 517.708 208.297 517.344C204.802 516.526 201.614 514.725 199.111 512.152C196.595 509.614 194.755 506.486 193.758 503.054C193.275 501.341 192.993 499.578 192.917 497.8C192.818 496.02 192.917 494.327 192.917 492.583V482.212L193.226 150.172V108.674V98.2773C193.173 94.8097 193.33 91.342 193.696 87.8934L194.092 85.3097L194.685 82.7632C194.932 81.9349 195.241 81.1067 195.526 80.2908C195.895 79.4902 196.308 78.7103 196.762 77.9544C197.674 76.4384 198.901 75.1358 200.36 74.1346C201.878 73.205 203.554 72.5638 205.305 72.2432C208.75 71.7707 212.229 71.6052 215.703 71.7488H249.32C249.767 71.7152 250.217 71.7485 250.655 71.8477C251.102 71.9626 251.522 72.1642 251.891 72.441C252.577 73.041 253.123 73.7831 253.493 74.6157C253.862 75.4483 254.046 76.3514 254.03 77.2622C253.925 78.9732 254.079 80.6904 254.488 82.3552C254.7 83.1591 255.128 83.89 255.724 84.4691C256.351 85.0243 257.108 85.4114 257.925 85.594C259.617 85.8982 261.338 86.0102 263.056 85.9278H278.622H320.126H340.885C344.347 85.9278 347.808 85.9278 351.258 85.9278C352.977 86.0244 354.678 85.5316 356.08 84.5309C356.74 83.966 357.232 83.2304 357.501 82.4047C357.752 81.6027 357.897 80.7717 357.934 79.9323C357.934 79.0794 357.934 78.214 357.934 77.3487C357.956 76.4706 358.136 75.6037 358.466 74.7898C358.785 73.9679 359.314 73.2435 359.999 72.6883C360.345 72.4147 360.739 72.2092 361.161 72.0825C361.591 71.9883 362.032 71.9551 362.472 71.9836H372.845H393.603H398.796C400.527 71.9609 402.258 72.0559 403.976 72.268C407.445 72.5465 410.697 74.0649 413.138 76.5452C415.406 79.2168 416.902 82.4566 417.465 85.9155C418.077 89.3011 418.379 92.7354 418.368 96.1758ZM418.368 96.1758C418.375 92.714 418.064 89.2588 417.44 85.8536C416.868 82.4282 415.382 79.2207 413.138 76.5699C410.69 74.096 407.434 72.5864 403.964 72.3174C402.249 72.1135 400.523 72.0268 398.796 72.0578H393.603H372.845H362.447C362.032 72.0418 361.616 72.0792 361.211 72.1691C360.804 72.295 360.423 72.4916 360.085 72.7501C359.423 73.2903 358.912 73.9931 358.602 74.7898C357.885 76.3845 358.157 78.1522 358.045 79.8829C358.008 80.7555 357.858 81.6196 357.6 82.4541C357.361 83.3015 356.9 84.0696 356.265 84.6793C354.833 85.7175 353.086 86.2285 351.32 86.1256C347.846 86.1256 344.396 86.1256 340.934 86.1256H320.163H278.659H263.093C261.35 86.2018 259.605 86.0857 257.888 85.7795C257.005 85.575 256.188 85.1497 255.514 84.5433C254.86 83.9279 254.385 83.1458 254.142 82.2811C253.743 80.6395 253.576 78.95 253.647 77.2622C253.649 76.4225 253.471 75.5922 253.125 74.8269C252.78 74.0615 252.275 73.3787 251.644 72.8243C251.31 72.586 250.938 72.4063 250.544 72.2927C250.137 72.213 249.722 72.184 249.307 72.2062H215.592C212.147 72.0767 208.697 72.2463 205.281 72.713C203.61 73.0366 202.01 73.6562 200.558 74.5426C199.156 75.5179 197.98 76.7826 197.108 78.2511C196.663 78.9681 196.342 79.7716 195.958 80.5257C195.575 81.2798 195.39 82.1451 195.155 82.9981L194.561 85.4704L194.19 88.017C193.822 91.4447 193.669 94.8922 193.733 98.3391V108.723V150.222L194.042 482.261V492.621C194.042 494.339 194.042 496.107 194.042 497.788C194.116 499.461 194.382 501.12 194.833 502.733C195.757 505.994 197.487 508.97 199.865 511.386C202.217 513.828 205.221 515.544 208.52 516.331C210.17 516.678 211.854 516.831 213.54 516.788H249.938L332.947 516.875H374.464H395.223C396.941 516.875 398.697 516.875 400.379 516.875C402.068 516.789 403.734 516.451 405.324 515.873C406.916 515.293 408.422 514.498 409.8 513.512C411.156 512.493 412.382 511.31 413.447 509.989C415.568 507.317 417.006 504.169 417.638 500.816C417.911 499.129 418.035 497.42 418.009 495.711V490.531V469.776V428.277L418.368 96.1758Z" fill="#263238"/>
<path d="M418.367 96.1758V144.202H193.473V96.1758C193.473 73.1086 201.954 71.9836 212.438 71.9836H249.937C252.113 71.9836 253.894 74.456 253.894 77.5218V78.8445C253.894 86.0267 257.825 86.0514 262.647 86.0514H349.267C354.138 86.0514 358.045 86.0514 358.045 78.8445V77.5218C358.045 74.456 359.8 71.9836 362.013 71.9836H399.463C409.885 71.9836 418.367 75.0494 418.367 96.1758Z" fill="#F6CF00"/>
<path d="M208.137 82.0709C208.137 81.775 208.224 81.4858 208.389 81.2398C208.553 80.9939 208.787 80.8021 209.06 80.6889C209.334 80.5757 209.634 80.5461 209.925 80.6038C210.215 80.6615 210.481 80.804 210.691 81.0132C210.9 81.2224 211.042 81.4889 211.1 81.779C211.158 82.0692 211.128 82.3699 211.015 82.6433C210.902 82.9166 210.71 83.1502 210.464 83.3146C210.218 83.4789 209.929 83.5666 209.633 83.5666C209.236 83.5666 208.855 83.409 208.575 83.1285C208.294 82.848 208.137 82.4676 208.137 82.0709Z" fill="white"/>
<path d="M212.847 82.0709C212.847 81.7746 212.935 81.4849 213.1 81.2386C213.265 80.9924 213.499 80.8007 213.773 80.6879C214.047 80.575 214.349 80.5461 214.639 80.6049C214.93 80.6636 215.196 80.8073 215.405 81.0177C215.614 81.2281 215.755 81.4958 215.811 81.7868C215.868 82.0777 215.836 82.3789 215.721 82.652C215.606 82.9251 215.412 83.1578 215.165 83.3207C214.917 83.4835 214.627 83.5692 214.33 83.5667C214.134 83.5667 213.941 83.5279 213.76 83.4526C213.579 83.3773 213.415 83.2669 213.277 83.1279C213.139 82.9888 213.03 82.8238 212.956 82.6424C212.882 82.461 212.845 82.2668 212.847 82.0709Z" fill="white"/>
<path d="M217.532 82.0709C217.532 81.775 217.62 81.4858 217.784 81.2398C217.949 80.9939 218.182 80.8021 218.456 80.6889C218.729 80.5757 219.03 80.5461 219.32 80.6038C219.61 80.6615 219.877 80.804 220.086 81.0132C220.295 81.2224 220.438 81.4889 220.496 81.779C220.553 82.0692 220.524 82.3699 220.41 82.6433C220.297 82.9166 220.105 83.1502 219.859 83.3146C219.613 83.4789 219.324 83.5666 219.028 83.5666C218.831 83.5683 218.636 83.5307 218.454 83.4561C218.272 83.3816 218.106 83.2714 217.967 83.1322C217.828 82.993 217.717 82.8274 217.643 82.6452C217.568 82.463 217.531 82.2677 217.532 82.0709Z" fill="white"/>
<path d="M222.219 82.0709C222.219 81.775 222.306 81.4858 222.471 81.2398C222.635 80.9939 222.869 80.8021 223.142 80.6889C223.416 80.5757 223.716 80.5461 224.007 80.6038C224.297 80.6615 224.563 80.804 224.773 81.0132C224.982 81.2224 225.124 81.4889 225.182 81.779C225.24 82.0692 225.21 82.3699 225.097 82.6433C224.984 82.9166 224.792 83.1502 224.546 83.3146C224.3 83.4789 224.011 83.5666 223.715 83.5666C223.518 83.5666 223.324 83.528 223.142 83.4528C222.961 83.3776 222.796 83.2674 222.657 83.1285C222.518 82.9896 222.408 82.8247 222.333 82.6433C222.257 82.4618 222.219 82.2673 222.219 82.0709Z" fill="white"/>
<path d="M226.916 82.0709C226.916 81.775 227.004 81.4858 227.168 81.2398C227.333 80.9939 227.566 80.8021 227.84 80.6889C228.113 80.5757 228.414 80.5461 228.704 80.6038C228.994 80.6615 229.261 80.804 229.47 81.0132C229.679 81.2224 229.822 81.4889 229.879 81.779C229.937 82.0692 229.907 82.3699 229.794 82.6433C229.681 82.9166 229.489 83.1502 229.243 83.3146C228.997 83.4789 228.708 83.5666 228.412 83.5666C228.015 83.5666 227.635 83.409 227.354 83.1285C227.074 82.848 226.916 82.4676 226.916 82.0709Z" fill="white"/>
<path d="M213.972 130.999L207.333 124.781L213.972 118.563L214.998 119.651L209.534 124.781L214.998 129.911L213.972 130.999Z" fill="white"/>
<path d="M224.852 339.334V334.228C224.85 334.164 224.861 334.101 224.885 334.042C224.909 333.982 224.944 333.929 224.989 333.883C225.034 333.838 225.088 333.803 225.147 333.779C225.207 333.756 225.27 333.744 225.334 333.746H228.165C228.291 333.749 228.41 333.801 228.498 333.892C228.586 333.982 228.635 334.102 228.635 334.228C228.632 334.353 228.582 334.472 228.495 334.561C228.408 334.651 228.29 334.704 228.165 334.71H225.816V336.293H227.831C227.895 336.293 227.957 336.305 228.016 336.329C228.074 336.353 228.128 336.389 228.172 336.434C228.217 336.479 228.253 336.532 228.277 336.59C228.301 336.649 228.314 336.711 228.314 336.775C228.314 336.838 228.301 336.901 228.277 336.959C228.253 337.018 228.217 337.071 228.172 337.116C228.128 337.16 228.074 337.196 228.016 337.22C227.957 337.244 227.895 337.257 227.831 337.257H225.816V338.851H228.165C228.278 338.87 228.381 338.928 228.455 339.015C228.53 339.102 228.57 339.213 228.57 339.327C228.57 339.442 228.53 339.553 228.455 339.64C228.381 339.727 228.278 339.785 228.165 339.803H225.334C225.271 339.805 225.209 339.794 225.15 339.771C225.092 339.748 225.039 339.714 224.994 339.67C224.949 339.626 224.913 339.574 224.889 339.516C224.864 339.458 224.852 339.396 224.852 339.334Z" fill="#263238"/>
<path d="M233.519 337.319V339.395C233.519 339.456 233.507 339.517 233.483 339.573C233.459 339.63 233.425 339.681 233.381 339.723C233.337 339.766 233.285 339.799 233.228 339.821C233.171 339.844 233.11 339.854 233.049 339.853C232.929 339.85 232.815 339.8 232.729 339.715C232.644 339.63 232.595 339.516 232.592 339.395V337.319C232.582 337.086 232.483 336.866 232.315 336.704C232.147 336.543 231.922 336.453 231.689 336.453C231.574 336.455 231.46 336.479 231.354 336.525C231.248 336.57 231.153 336.636 231.072 336.719C230.992 336.802 230.929 336.899 230.886 337.006C230.843 337.114 230.822 337.228 230.824 337.343V339.395C230.825 339.416 230.825 339.437 230.824 339.457V339.519C230.785 339.6 230.723 339.669 230.647 339.717C230.57 339.765 230.482 339.791 230.391 339.791H230.305C230.2 339.768 230.106 339.711 230.039 339.628C229.971 339.544 229.934 339.441 229.934 339.334V337.281V335.996C229.932 335.935 229.943 335.874 229.965 335.817C229.987 335.76 230.021 335.708 230.063 335.664C230.106 335.621 230.157 335.586 230.213 335.562C230.27 335.538 230.33 335.526 230.391 335.526C230.478 335.522 230.563 335.545 230.636 335.591C230.709 335.638 230.766 335.706 230.799 335.786C231.081 335.621 231.4 335.532 231.726 335.526C231.984 335.52 232.239 335.572 232.474 335.676C232.71 335.781 232.919 335.937 233.086 336.132C233.255 335.937 233.464 335.782 233.699 335.678C233.934 335.573 234.189 335.521 234.446 335.526C234.685 335.526 234.92 335.573 235.14 335.665C235.36 335.756 235.559 335.89 235.727 336.059C235.895 336.228 236.028 336.428 236.118 336.649C236.208 336.869 236.253 337.105 236.252 337.343V339.395C236.252 339.455 236.24 339.515 236.217 339.57C236.194 339.626 236.16 339.676 236.118 339.719C236.075 339.761 236.025 339.795 235.969 339.818C235.914 339.841 235.854 339.853 235.794 339.853C235.672 339.853 235.554 339.805 235.466 339.72C235.378 339.634 235.328 339.518 235.324 339.395V337.343C235.299 337.127 235.194 336.927 235.032 336.783C234.869 336.638 234.658 336.558 234.44 336.558C234.222 336.558 234.012 336.638 233.849 336.783C233.686 336.927 233.582 337.127 233.556 337.343L233.519 337.319Z" fill="#263238"/>
<path d="M241.791 337.702V339.395C241.791 339.517 241.742 339.633 241.657 339.719C241.571 339.805 241.455 339.853 241.333 339.853C241.226 339.852 241.122 339.815 241.039 339.748C240.956 339.68 240.898 339.587 240.876 339.482C240.481 339.763 239.998 339.891 239.517 339.843C239.035 339.796 238.586 339.575 238.255 339.222C237.869 338.81 237.657 338.266 237.661 337.702C237.656 337.137 237.868 336.593 238.255 336.181C238.441 335.976 238.668 335.812 238.922 335.699C239.175 335.587 239.449 335.528 239.726 335.526C240.14 335.53 240.542 335.664 240.876 335.909C240.898 335.803 240.955 335.708 241.038 335.638C241.121 335.569 241.225 335.529 241.333 335.526C241.456 335.529 241.572 335.58 241.657 335.668C241.743 335.756 241.791 335.873 241.791 335.996V337.702ZM240.863 337.702C240.869 337.539 240.843 337.376 240.785 337.223C240.728 337.071 240.641 336.931 240.53 336.812C240.429 336.698 240.305 336.607 240.167 336.545C240.028 336.484 239.878 336.452 239.726 336.453C239.574 336.451 239.423 336.481 239.284 336.543C239.145 336.605 239.022 336.697 238.922 336.812C238.811 336.931 238.724 337.071 238.666 337.223C238.609 337.376 238.583 337.539 238.589 337.702C238.583 337.865 238.609 338.027 238.666 338.18C238.724 338.333 238.811 338.473 238.922 338.592C239.025 338.703 239.149 338.791 239.287 338.85C239.426 338.91 239.575 338.94 239.726 338.938C239.877 338.939 240.026 338.909 240.164 338.849C240.302 338.79 240.427 338.702 240.53 338.592C240.641 338.473 240.728 338.333 240.785 338.18C240.843 338.027 240.869 337.865 240.863 337.702Z" fill="#263238"/>
<path d="M244.424 334.451C244.426 334.513 244.415 334.575 244.392 334.632C244.369 334.69 244.334 334.743 244.29 334.786C244.246 334.83 244.194 334.865 244.136 334.888C244.078 334.911 244.017 334.922 243.954 334.92C243.83 334.92 243.71 334.871 243.622 334.783C243.534 334.695 243.485 334.575 243.485 334.451V334.265C243.485 334.141 243.534 334.021 243.622 333.933C243.71 333.845 243.83 333.795 243.954 333.795C244.017 333.794 244.078 333.805 244.136 333.828C244.194 333.851 244.246 333.885 244.29 333.929C244.334 333.973 244.369 334.026 244.392 334.083C244.415 334.141 244.426 334.203 244.424 334.265V334.451ZM244.424 336.008V339.395C244.424 339.456 244.412 339.517 244.388 339.573C244.364 339.63 244.33 339.68 244.286 339.723C244.242 339.766 244.19 339.799 244.133 339.821C244.076 339.844 244.015 339.854 243.954 339.853C243.893 339.854 243.832 339.844 243.776 339.821C243.719 339.799 243.667 339.766 243.623 339.723C243.579 339.68 243.544 339.63 243.521 339.573C243.497 339.517 243.485 339.456 243.485 339.395V336.008C243.483 335.946 243.494 335.884 243.517 335.826C243.54 335.769 243.574 335.716 243.618 335.672C243.662 335.628 243.715 335.594 243.773 335.571C243.83 335.548 243.892 335.537 243.954 335.538C244.017 335.537 244.078 335.548 244.136 335.571C244.194 335.594 244.246 335.628 244.29 335.672C244.334 335.716 244.369 335.769 244.392 335.826C244.415 335.884 244.426 335.946 244.424 336.008Z" fill="#263238"/>
<path d="M246.229 333.795C246.356 333.795 246.479 333.846 246.57 333.937C246.66 334.027 246.711 334.15 246.711 334.278V339.334C246.693 339.447 246.635 339.549 246.547 339.624C246.46 339.698 246.349 339.739 246.235 339.739C246.12 339.739 246.009 339.698 245.922 339.624C245.835 339.549 245.777 339.447 245.759 339.334V334.228C245.771 334.111 245.825 334.002 245.912 333.923C245.998 333.843 246.111 333.798 246.229 333.795Z" fill="#263238"/>
<path d="M387.879 346.021H223.962V360.534H387.879V346.021Z" fill="#EBEBEB"/>
<path d="M231.38 299.207L250.012 299.059L268.644 299.009L305.92 298.898L343.184 299.009L361.816 299.059L380.448 299.207L361.816 299.355L343.184 299.417L305.92 299.516L268.644 299.417L250.012 299.355L231.38 299.207Z" fill="#263238"/>
<path d="M245.141 307.465L260.336 307.316L275.53 307.267L305.92 307.156L336.31 307.267L351.492 307.316L366.687 307.465L351.492 307.613L336.31 307.675L305.92 307.774L275.53 307.675L260.336 307.613L245.141 307.465Z" fill="#263238"/>
<path d="M223.962 387.965L244.448 387.804L264.935 387.755L305.92 387.656L346.893 387.755L367.392 387.804L387.879 387.965L367.392 388.113L346.893 388.163L305.92 388.262L264.935 388.163L244.448 388.113L223.962 387.965Z" fill="#EBEBEB"/>
<path d="M370.051 409.438H241.778V429.353H370.051V409.438Z" fill="#F6CF00"/>
<path d="M339.451 232.886C355.272 232.886 368.098 220.062 368.098 204.243C368.098 188.424 355.272 175.601 339.451 175.601C323.63 175.601 310.805 188.424 310.805 204.243C310.805 220.062 323.63 232.886 339.451 232.886Z" fill="#455A64"/>
<path d="M263.303 265.125C274.112 265.125 282.875 256.364 282.875 245.556C282.875 234.749 274.112 225.988 263.303 225.988C252.494 225.988 243.731 234.749 243.731 245.556C243.731 256.364 252.494 265.125 263.303 265.125Z" fill="#EBEBEB"/>
<path d="M321.981 198.903V219.424H316.17V198.903C316.17 191.09 310.236 184.736 302.941 184.736C295.647 184.736 289.712 191.09 289.712 198.903V219.424H283.901V198.903C283.901 187.715 292.445 178.617 302.941 178.617C313.438 178.617 321.981 187.715 321.981 198.903Z" fill="#C7C7C7"/>
<path d="M283.901 204.243L289.712 204.478V219.448H283.901V204.243Z" fill="#A6A6A6"/>
<path d="M321.981 205.801V219.448H316.17V205.554L321.981 205.801Z" fill="#A6A6A6"/>
<path d="M329.424 207.754H276.458V255.792H329.424V207.754Z" fill="#F6CF00"/>
<path opacity="0.1" d="M329.423 207.754H302.94V255.792H329.423V207.754Z" fill="black"/>
<path d="M305.179 233.528L307.404 244.048H297.983L300.209 233.528C299.336 232.99 298.663 232.182 298.291 231.227C297.919 230.271 297.87 229.221 298.149 228.235C298.429 227.249 299.023 226.381 299.841 225.762C300.659 225.144 301.656 224.81 302.681 224.81C303.706 224.81 304.704 225.144 305.522 225.762C306.34 226.381 306.933 227.249 307.213 228.235C307.493 229.221 307.443 230.271 307.071 231.227C306.7 232.182 306.027 232.99 305.154 233.528H305.179Z" fill="#263238"/>
<path d="M291.591 475.821C291.588 476.439 291.403 477.042 291.058 477.555C290.713 478.068 290.223 478.467 289.651 478.701C289.08 478.936 288.451 478.996 287.845 478.874C287.239 478.752 286.683 478.454 286.247 478.016C285.811 477.578 285.514 477.02 285.394 476.414C285.274 475.808 285.337 475.18 285.574 474.609C285.811 474.038 286.212 473.55 286.726 473.207C287.241 472.864 287.845 472.681 288.463 472.681C288.875 472.681 289.282 472.762 289.663 472.92C290.043 473.078 290.388 473.31 290.679 473.601C290.97 473.893 291.2 474.239 291.356 474.62C291.513 475.001 291.593 475.409 291.591 475.821Z" fill="#DBDBDB"/>
<path d="M310.656 475.821C310.654 476.757 310.374 477.671 309.852 478.448C309.33 479.225 308.59 479.83 307.724 480.186C306.859 480.543 305.907 480.635 304.989 480.451C304.072 480.267 303.229 479.815 302.568 479.152C301.907 478.489 301.457 477.646 301.276 476.728C301.094 475.81 301.188 474.858 301.547 473.994C301.906 473.129 302.513 472.391 303.291 471.871C304.07 471.351 304.985 471.074 305.921 471.074C307.178 471.077 308.382 471.579 309.27 472.469C310.158 473.359 310.656 474.564 310.656 475.821Z" fill="#C7C7C7"/>
<path d="M326.506 475.821C326.506 476.442 326.322 477.049 325.977 477.565C325.632 478.082 325.142 478.484 324.568 478.722C323.994 478.959 323.362 479.022 322.753 478.9C322.144 478.779 321.585 478.48 321.145 478.041C320.706 477.602 320.407 477.042 320.286 476.433C320.165 475.824 320.227 475.193 320.465 474.619C320.702 474.045 321.105 473.555 321.621 473.21C322.138 472.865 322.745 472.681 323.366 472.681C324.199 472.681 324.998 473.012 325.587 473.601C326.175 474.189 326.506 474.988 326.506 475.821Z" fill="#DBDBDB"/>
<path d="M126.726 411.044L129.656 428.635L149.536 535.961H152.739L138.286 428.635L136.147 411.044H126.726Z" fill="#DBDBDB"/>
<path d="M136.147 411.044H126.726L129.656 428.635H138.286L136.147 411.044Z" fill="#A6A6A6"/>
<path d="M64.3018 535.961H67.5039L87.3846 428.635L90.3148 411.044H80.8937L78.7548 428.635L64.3018 535.961Z" fill="#DBDBDB"/>
<path d="M80.8938 411.044L78.7549 428.635H87.3847L90.3149 411.044H80.8938Z" fill="#A6A6A6"/>
<path d="M4.68457 535.961H7.88675L27.7674 428.635L30.6976 411.044H21.2765L19.1376 428.635L4.68457 535.961Z" fill="#DBDBDB"/>
<path d="M19.1387 428.635H27.7685L30.6987 411.044H21.2776L19.1387 428.635Z" fill="#A6A6A6"/>
<path d="M9.7666 419.302H155.41V403.961H100.886L82.5636 324.054H15.3179L9.7666 419.302Z" fill="#DBDBDB"/>
<path d="M9.7666 419.302H17.704L22.8844 324.054H15.3179L9.7666 419.302Z" fill="#A6A6A6"/>
<path d="M154.297 549.546C151.553 549.892 76.5673 532.4 74.1317 530.039C73.835 529.78 76.4684 515.267 76.4684 515.267C77.7048 509.346 98.08 461.097 98.08 461.097L147.151 473.187L126.331 517.962C126.331 517.962 135.678 524.291 143.714 530.324C147.262 532.829 150.655 535.545 153.877 538.458C156.263 541.375 157.042 549.225 154.297 549.546Z" fill="#C95F50"/>
<path d="M74.1189 530.039C76.5916 532.4 151.552 549.892 154.297 549.546C157.042 549.2 156.263 541.375 153.889 538.52C150.666 535.612 147.272 532.9 143.726 530.398C135.702 524.365 126.355 518.036 126.355 518.036L130.954 508.072L83.4535 496.502C79.8556 505.464 76.9007 513.178 76.468 515.329C76.468 515.279 73.8222 529.78 74.1189 530.039Z" fill="#EBEBEB"/>
<path d="M154.57 549.757C151.738 550.053 76.1348 533.117 73.6745 530.645C72.7225 529.718 74.5523 518.58 77.1486 505.18C77.1486 505.044 77.1486 504.895 77.2352 504.759L126.121 515.143L125.923 515.972C125.923 515.972 151.949 535.38 154.359 538.384C156.77 541.388 157.351 549.472 154.57 549.757Z" fill="#F6CF00"/>
<path d="M154.309 546.641C141.636 543.477 90.2284 531.894 77.4568 529.718C77.3579 529.718 77.3455 529.718 77.4568 529.792C89.9441 533.216 141.451 544.379 154.284 546.851C154.569 546.901 154.569 546.703 154.309 546.641Z" fill="#263238"/>
<path d="M131.461 516.503C126.652 514.439 120.334 513.833 115.722 516.503C115.537 516.614 115.722 516.862 115.871 516.849C121.008 516.381 126.181 516.464 131.3 517.096C131.365 517.088 131.426 517.06 131.476 517.017C131.525 516.973 131.56 516.916 131.577 516.853C131.595 516.79 131.593 516.723 131.572 516.661C131.551 516.598 131.513 516.544 131.461 516.503Z" fill="#263238"/>
<path d="M134.589 519.495C129.792 517.43 123.462 516.825 118.85 519.495C118.665 519.606 118.85 519.853 118.999 519.841C124.136 519.375 129.308 519.454 134.428 520.076C134.494 520.07 134.556 520.045 134.607 520.003C134.657 519.961 134.694 519.904 134.711 519.841C134.729 519.778 134.726 519.711 134.704 519.649C134.683 519.587 134.642 519.533 134.589 519.495Z" fill="#263238"/>
<path d="M137.717 522.474C132.92 520.422 126.59 519.816 121.978 522.474C121.793 522.585 121.978 522.832 122.127 522.82C127.263 522.348 132.436 522.427 137.556 523.055C137.618 523.044 137.676 523.016 137.723 522.973C137.77 522.931 137.803 522.876 137.82 522.815C137.837 522.754 137.836 522.69 137.818 522.63C137.8 522.569 137.765 522.515 137.717 522.474Z" fill="#263238"/>
<path d="M140.437 507.046C139.077 503.894 135.133 504.29 132.648 505.575C128.418 507.861 124.866 511.221 122.349 515.316C122.336 515.333 122.327 515.353 122.324 515.374C122.32 515.395 122.323 515.416 122.33 515.436C122.338 515.456 122.35 515.474 122.366 515.487C122.382 515.501 122.402 515.51 122.423 515.514C122.395 515.611 122.391 515.713 122.411 515.812C122.43 515.911 122.474 516.003 122.536 516.082C122.599 516.161 122.68 516.223 122.772 516.264C122.865 516.305 122.965 516.324 123.066 516.318C127.554 515.724 132.425 515.625 136.592 513.672C139.015 512.523 141.722 510.025 140.437 507.046ZM129.68 514.018C127.48 514.364 125.279 514.612 123.09 515.044C125.055 513.086 127.119 511.23 129.272 509.482C130.321 508.655 131.424 507.899 132.573 507.219C134.366 506.193 140.919 504.636 138.755 509.927C137.605 512.844 132.314 513.598 129.68 514.018Z" fill="#263238"/>
<path d="M109.887 511.15C113.596 513.833 118.406 514.859 122.696 516.219C122.794 516.242 122.896 516.242 122.994 516.219C123.092 516.196 123.183 516.15 123.26 516.085C123.337 516.02 123.398 515.938 123.437 515.845C123.477 515.752 123.494 515.652 123.487 515.551C123.561 515.551 123.636 515.465 123.598 515.366C121.87 510.88 118.992 506.928 115.253 503.906C113.04 502.188 109.232 501.088 107.316 503.906C105.399 506.725 107.711 509.58 109.887 511.15ZM108.428 507.071C107.316 501.483 113.473 504.203 115.055 505.538C116.063 506.42 117.009 507.37 117.886 508.381C119.671 510.487 121.346 512.682 122.906 514.958C120.841 514.13 118.715 513.499 116.625 512.758C114.116 511.867 109.046 510.162 108.428 507.071Z" fill="#263238"/>
<path opacity="0.2" d="M132.462 545.418C144.343 548.014 153.554 549.868 154.506 549.769C157.35 549.485 156.719 541.375 154.308 538.384C151.179 535.429 147.876 532.663 144.418 530.101L132.462 545.418Z" fill="black"/>
<path d="M129.607 516.355L77.5685 504.092C77.5685 504.092 120.99 404.566 117.132 399.51C115.216 396.976 66.7627 396.235 51.3576 383.18C31.3409 366.22 44.7678 340.31 44.7678 340.31L98.9328 338.715C98.9328 338.715 98.2775 350.014 100.392 351.707C101.776 352.844 166.253 358.271 173.337 379.991C182.016 406.631 129.607 516.355 129.607 516.355Z" fill="#37474F"/>
<path d="M129.582 508.307C128.222 507.664 114.746 503.709 111.717 502.942C105.634 501.385 99.526 499.852 93.406 498.455C90.2039 497.725 83.3544 496.143 82.9341 496.217C82.7362 496.217 82.6991 496.588 82.9341 496.65C88.8686 498.603 94.8897 500.26 100.911 501.941C106.932 503.622 127.666 508.604 129.483 508.727C129.619 508.74 129.842 508.394 129.582 508.307Z" fill="#263238"/>
<path d="M126.429 395.023C125.199 394.265 123.793 393.839 122.349 393.787L98.8582 389.868C91.5513 388.632 84.1949 387.557 76.9251 386.16C70.904 384.998 64.7717 383.428 59.616 380.164C54.514 376.955 50.7359 372.02 48.971 366.257C47.3246 360.467 46.8579 354.405 47.5986 348.431C47.7346 346.973 48.0066 345.526 48.2786 344.092C48.2786 343.981 48.1179 343.944 48.1055 344.092C46.115 355.218 45.9419 368.025 54.2873 376.864C58.3426 381.166 63.9062 383.687 69.5811 385.331C76.0632 386.982 82.635 388.257 89.264 389.151L112.755 393.058C116.464 393.688 120.334 394.17 124.068 394.949C124.817 395.047 125.521 395.36 126.095 395.851C126.37 396.24 126.545 396.691 126.603 397.163C126.661 397.635 126.601 398.115 126.429 398.559C126.058 400.401 125.551 402.267 125.032 404.023C120.766 418.573 89.2887 492.781 88.448 494.375C88.4367 494.409 88.4377 494.445 88.4508 494.478C88.464 494.511 88.4884 494.538 88.5197 494.554C88.551 494.571 88.5871 494.575 88.6216 494.568C88.656 494.56 88.6866 494.54 88.7076 494.511C95.8785 481.754 119.431 423.344 124.166 409.585C125.414 406.085 126.438 402.51 127.233 398.88C127.369 397.471 127.579 396 126.429 395.023Z" fill="#263238"/>
<path d="M231.694 552.822C229.072 553.7 154.025 552.649 151.169 550.82C148.041 547.84 146.706 477.044 146.706 477.044L194.986 476.649L198.003 527.481C198.003 527.481 208.425 531.82 217.5 536.134C221.472 537.884 225.337 539.869 229.072 542.08C232.003 544.416 234.315 551.957 231.694 552.822Z" fill="#C95F50"/>
<path d="M148.016 518.926C148.733 534.836 149.759 549.509 151.156 550.82C154.012 552.649 229.047 553.712 231.693 552.822C234.338 551.932 232.002 544.429 229.096 542.105C225.357 539.892 221.489 537.907 217.512 536.158C208.437 531.844 198.014 527.505 198.014 527.505L197.507 518.951L148.016 518.926Z" fill="#EBEBEB"/>
<path d="M233.239 552.872C230.519 553.774 153.048 553.403 150.118 551.512C148.981 550.82 148.375 539.546 148.041 525.898V525.466L198.015 525.156V525.997C198.015 525.997 227.601 539.385 230.618 541.796C233.634 544.206 235.946 551.994 233.239 552.872Z" fill="#F6CF00"/>
<path d="M232.373 549.868C219.317 549.485 166.611 549.176 153.678 549.781C153.567 549.781 153.567 549.868 153.678 549.868C166.611 550.535 219.317 550.412 232.373 550.09C232.645 550.103 232.645 549.88 232.373 549.868Z" fill="#263238"/>
<path d="M203.578 525.379C198.447 524.402 192.154 525.156 188.21 528.791C188.062 528.939 188.21 529.149 188.433 529.1C193.353 527.541 198.426 526.514 203.566 526.034C203.642 526.021 203.711 525.981 203.762 525.922C203.812 525.864 203.841 525.789 203.842 525.712C203.843 525.634 203.818 525.558 203.77 525.498C203.722 525.437 203.654 525.395 203.578 525.379Z" fill="#263238"/>
<path d="M207.287 527.567C202.144 526.59 195.863 527.344 191.919 530.979C191.758 531.127 191.919 531.337 192.129 531.288C197.05 529.73 202.123 528.702 207.262 528.222C207.339 528.21 207.409 528.172 207.461 528.114C207.513 528.056 207.542 527.982 207.545 527.905C207.548 527.827 207.524 527.751 207.477 527.689C207.43 527.628 207.363 527.584 207.287 527.567Z" fill="#263238"/>
<path d="M210.984 529.817C205.841 528.84 199.56 529.594 195.616 533.229C195.455 533.377 195.616 533.587 195.826 533.538C200.747 531.98 205.82 530.952 210.959 530.472C211.036 530.46 211.106 530.422 211.158 530.364C211.21 530.306 211.24 530.232 211.243 530.155C211.246 530.077 211.221 530.001 211.174 529.939C211.127 529.878 211.06 529.834 210.984 529.817Z" fill="#263238"/>
<path d="M210.316 514.167C208.313 511.373 204.542 512.609 202.391 514.402C198.752 517.537 196.001 521.574 194.417 526.108C194.409 526.129 194.406 526.151 194.408 526.172C194.41 526.194 194.418 526.215 194.43 526.233C194.442 526.251 194.459 526.266 194.478 526.277C194.497 526.287 194.518 526.293 194.54 526.294C194.534 526.394 194.553 526.495 194.594 526.587C194.635 526.679 194.697 526.76 194.776 526.823C194.854 526.886 194.947 526.929 195.046 526.949C195.145 526.969 195.247 526.964 195.344 526.937C199.597 525.391 204.332 524.266 207.979 521.46C210.106 519.816 212.22 516.8 210.316 514.167ZM201.315 523.277C199.238 524.093 197.137 524.798 195.134 525.688C196.617 523.359 198.222 521.11 199.943 518.951C200.786 517.913 201.699 516.934 202.675 516.021C204.209 514.636 210.279 511.707 209.352 517.331C208.795 520.434 203.776 522.313 201.315 523.277Z" fill="#263238"/>
<path d="M181.374 524.712C185.59 526.529 190.461 526.467 194.974 526.924C195.444 526.924 195.679 526.479 195.604 526.096C195.62 526.083 195.632 526.067 195.641 526.049C195.65 526.031 195.654 526.011 195.654 525.991C195.654 525.971 195.65 525.951 195.641 525.933C195.632 525.915 195.62 525.899 195.604 525.886C192.954 521.878 189.295 518.638 184.996 516.491C182.462 515.255 178.518 515.02 177.257 518.209C175.996 521.399 178.901 523.648 181.374 524.712ZM179.062 521.003C176.775 515.774 183.377 517.121 185.244 518.086C186.416 518.731 187.543 519.454 188.619 520.249C190.814 521.925 192.923 523.712 194.937 525.602C192.736 525.243 190.535 525.082 188.322 524.798C185.652 524.501 180.323 523.92 179.062 521.04V521.003Z" fill="#263238"/>
<path d="M200.685 525.737H146.285C146.285 525.737 146.965 427.498 142.7 422.059C137.013 414.79 57.3909 414.951 40.3168 391.265C24.9859 369.978 37.9306 339.865 37.9306 339.865L98.228 338.072C96.8659 344.53 94.9974 350.871 92.6396 357.035C92.6396 357.035 165.264 370.423 185.614 392.662C199.288 407.694 200.685 525.737 200.685 525.737Z" fill="#37474F"/>
<path d="M103.186 352.919C101.438 353.307 99.729 353.853 98.0799 354.55C96.349 355.218 94.6428 355.96 92.9737 356.776C89.7019 358.4 86.5199 360.199 83.4414 362.165C83.3425 362.165 83.4414 362.351 83.5403 362.301C86.7919 360.608 90.1672 359.087 93.5424 357.641L98.4137 355.539C100.1 354.904 101.751 354.178 103.359 353.364C103.403 353.332 103.435 353.286 103.45 353.234C103.465 353.181 103.463 353.126 103.443 353.075C103.423 353.024 103.388 352.981 103.341 352.953C103.295 352.925 103.24 352.913 103.186 352.919Z" fill="#263238"/>
<path d="M99.5759 338.06C98.8835 340.804 98.3395 343.573 97.4864 346.305C97.1279 347.541 96.7693 348.777 96.2501 350.014C95.8544 351.027 95.2486 352.202 94.0617 352.424C92.8748 352.647 92.3061 351.522 92.4173 350.397C92.5286 349.272 92.8624 347.924 93.1097 346.688C93.3941 345.267 93.6908 343.833 93.9504 342.411C94.0741 341.694 94.2101 340.977 94.3337 340.26C94.3337 340.075 94.4944 338.703 94.5933 338.307C94.5933 338.307 94.5933 338.381 94.6675 338.369C94.6675 338.369 94.7541 338.369 94.7541 338.295C94.7541 338.22 94.7541 338.159 94.6799 338.084C94.6057 338.01 94.6057 338.084 94.5562 338.084C94.2966 338.233 94.2842 338.591 94.1977 338.851C93.9751 339.543 93.7526 340.248 93.5424 340.94C93.1592 342.25 92.7882 343.573 92.4544 344.896C92.1206 346.219 91.7992 347.541 91.4777 348.864C91.132 349.843 91.0385 350.893 91.2057 351.917C91.3295 352.405 91.6066 352.84 91.9961 353.158C92.3856 353.476 92.8669 353.661 93.3693 353.685L93.221 353.945C93.0973 354.217 93.0108 354.501 92.9119 354.785C92.813 355.07 92.7141 355.354 92.6275 355.638C92.5908 355.78 92.566 355.925 92.5533 356.071C92.5533 356.232 92.5533 356.38 92.5533 356.541C92.5533 356.701 92.8624 356.936 92.9861 356.701C93.0654 356.565 93.1521 356.433 93.2457 356.306C93.3264 356.16 93.3927 356.007 93.4435 355.848C93.5301 355.576 93.6166 355.304 93.6784 355.02C93.7402 354.736 93.8391 354.464 93.8886 354.18C93.9014 354.011 93.9014 353.841 93.8886 353.673C94.4665 353.624 95.0192 353.414 95.4835 353.067C96.2554 352.416 96.8258 351.558 97.1279 350.595C97.5359 349.457 97.8573 348.271 98.1788 347.096C99.028 344.204 99.6156 341.242 99.9344 338.245C100.095 337.85 99.65 337.738 99.5759 338.06Z" fill="#263238"/>
<path d="M63.7204 344.785C63.4731 346.144 63.3124 347.529 62.9909 348.876C62.6695 350.224 62.3233 351.522 61.8906 352.807C61.5002 354.063 60.9341 355.258 60.2091 356.355C59.4546 357.386 58.5552 358.302 57.5386 359.075C55.5936 360.615 53.4093 361.826 51.0724 362.66C49.9004 363.085 48.7029 363.436 47.4869 363.711C46.8564 363.859 46.2506 363.97 45.5706 364.057C45.0376 364.069 44.5123 364.186 44.0251 364.403C43.9792 364.432 43.9413 364.472 43.915 364.52C43.8888 364.567 43.875 364.621 43.875 364.675C43.875 364.729 43.8888 364.783 43.915 364.83C43.9413 364.878 43.9792 364.918 44.0251 364.947C44.9545 365.217 45.9371 365.246 46.8811 365.033C47.9099 364.925 48.9302 364.748 49.9349 364.502C51.9668 363.955 53.9107 363.122 55.7088 362.029C57.5555 361.022 59.2124 359.7 60.6047 358.123C61.8905 356.465 62.7749 354.531 63.1887 352.474C63.8259 349.971 64.1089 347.391 64.0295 344.809C63.9676 344.661 63.7451 344.636 63.7204 344.785Z" fill="#263238"/>
<path d="M154.062 457.599C153.526 449.045 152.817 440.511 151.935 431.997C151.713 429.896 151.502 427.782 151.243 425.693C151.093 424.055 150.736 422.444 150.179 420.897C148.943 417.695 146.26 416.075 143.033 415.272C139.225 414.308 135.281 413.727 131.411 413.109C127.542 412.49 123.474 411.872 119.493 411.341C111.444 410.216 103.42 409.178 95.3715 407.83C87.3747 406.562 79.4667 404.786 71.6952 402.514C64.5738 400.363 57.2669 397.706 51.5672 392.773C39.2902 382.155 38.8451 364.341 40.3411 349.507C40.5512 347.405 40.8109 345.316 41.0705 343.215C41.0705 343.103 40.9098 343.066 40.8974 343.215C39.9331 351.596 38.7956 360.039 39.6611 368.482C40.1975 375.472 42.5036 382.21 46.3621 388.063C50.5163 394.01 56.6734 397.854 63.3127 400.537C70.6368 403.359 78.1955 405.531 85.901 407.027C101.813 410.364 118.046 411.773 134.057 414.505C136.035 414.839 138.001 415.198 139.967 415.581C141.795 415.859 143.587 416.34 145.308 417.015C148.943 418.634 149.945 422.17 150.39 425.829C151.441 434.309 152.145 442.839 152.763 451.369C154 468.539 154.655 485.809 154.63 503.029C154.63 505.155 154.63 512.312 154.63 514.439C154.63 514.624 154.915 514.599 154.915 514.439C155.372 497.083 155.15 474.819 154.062 457.599Z" fill="#263238"/>
<path d="M198.138 517.195C185.774 516.355 150.34 516.701 149.92 516.874C149.734 516.961 149.784 517.294 149.981 517.307C156.163 517.752 196.283 517.962 198.076 517.64C198.274 517.603 198.348 517.208 198.138 517.195Z" fill="#263238"/>
<path d="M92.9611 357.258C104.091 358.591 115.091 360.845 125.848 363.995C136.694 367.042 147.302 370.88 157.586 375.479C163.36 378.063 168.948 380.955 174.474 383.996C174.586 384.058 174.474 384.219 174.376 384.169C164.381 379.005 154.055 374.508 143.467 370.707C132.972 366.886 122.232 363.772 111.321 361.387C105.139 360.051 98.9575 359.013 92.7757 357.987C92.4295 357.851 92.5408 357.146 92.9611 357.258Z" fill="#263238"/>
<path d="M146.001 444.026C145.618 438.117 145 432.208 144.035 426.348C143.64 423.987 143.541 420.934 141.056 419.759C139.906 419.203 116.835 415.198 113.522 415.259C113.488 415.262 113.456 415.275 113.43 415.297C113.404 415.318 113.385 415.348 113.377 415.381C113.369 415.414 113.371 415.449 113.384 415.48C113.397 415.512 113.419 415.538 113.448 415.556C113.757 415.692 135.702 419.833 138.472 420.501C139.067 420.545 139.648 420.71 140.177 420.986C140.707 421.262 141.174 421.644 141.55 422.108C142.078 423.309 142.392 424.594 142.478 425.903C144.327 437.39 145.352 448.994 145.544 460.627C145.634 463.858 145.688 467.076 145.704 470.282C145.704 473.595 145.593 476.945 145.84 480.233C145.84 480.306 145.869 480.375 145.92 480.426C145.971 480.477 146.04 480.505 146.112 480.505C146.185 480.505 146.254 480.477 146.305 480.426C146.356 480.375 146.384 480.306 146.384 480.233C146.632 477.242 146.545 474.188 146.557 471.185C146.57 468.181 146.557 465.152 146.557 462.123C146.545 456.078 146.409 450.046 146.001 444.026Z" fill="#263238"/>
<path d="M95.4206 283.742C111.011 304.473 148.04 333.622 156.732 326.835C167.414 318.503 165.386 287.846 165.658 283.902C165.893 279.687 130.867 280.75 132.277 285.052C133.105 287.599 133.513 290.331 132.833 290.071C130.768 289.255 126.181 285.126 106.288 274.001C95.2228 267.783 85.097 270.02 95.4206 283.742Z" fill="#C95F50"/>
<path d="M127.368 284.928L119.171 292.976L108.885 303.063C108.885 303.063 97.1765 291.715 92.1074 282.357C88.3983 275.472 88.2747 269.662 91.9591 268.401C93.7943 267.94 95.7322 268.123 97.4485 268.92C110.715 273.877 127.368 284.928 127.368 284.928Z" fill="#F6CF00"/>
<path d="M122.584 282.827C119.308 285.819 107.439 296.907 106.512 298.897C106.512 298.897 106.598 299.046 106.648 299.033C108.576 298.094 119.778 286.338 122.782 283.087C122.832 282.963 122.646 282.778 122.584 282.827Z" fill="#263238"/>
<path d="M119.171 292.976L108.885 303.063C108.885 303.063 97.1765 291.715 92.1074 282.357C88.3983 275.472 88.2747 269.662 91.9591 268.401L119.171 292.976Z" fill="#263238"/>
<path d="M165.696 265.15C167.674 271.862 166.351 287.178 164.621 290.751C162.89 294.324 136.753 292.951 134.429 289.589C132.104 286.227 127.184 263.11 129.891 256.496C132.599 249.883 163.619 258.19 165.696 265.15Z" fill="#C95F50"/>
<path d="M135.715 241.452C134.59 238.411 129.1 229.696 126.454 230.709C123.809 231.723 126.17 238.621 127.209 241.39C129.372 247.089 129.298 255.507 129.199 259.587C129.1 263.666 138.633 259.587 138.633 259.587C138.633 259.587 138.657 249.351 135.715 241.452Z" fill="#C95F50"/>
<path d="M131.869 265.347C131.869 265.347 131.498 272.53 135.319 274.001C139.139 275.472 140.474 269.723 140.586 269.328C140.586 269.699 140.4 276.312 144.406 277.412C148.412 278.513 149.055 272.591 149.079 272.208C149.178 272.567 150.551 277.363 153.765 277.511C159.316 277.759 156.151 265.409 158.599 261.639C158.599 261.639 165.461 265.063 165.671 265.125C165.671 265.125 162.902 253.307 157.647 250.291C156.889 249.838 155.998 249.658 155.123 249.782C154.248 249.906 153.441 250.325 152.838 250.97C152.838 250.97 152.368 247.064 149.24 246.1C147.645 245.605 145.432 247.732 145.432 247.732C145.279 246.853 144.886 246.034 144.297 245.365C143.708 244.695 142.946 244.201 142.094 243.937C139.844 243.38 137.668 245.556 137.148 246.52C132.834 253.95 131.869 265.347 131.869 265.347Z" fill="#C95F50"/>
<path d="M145.432 247.645C145.432 247.583 145.345 247.521 145.296 247.645C141.083 254.117 139.329 261.884 140.35 269.538C140.35 269.81 140.709 269.995 140.672 269.686C140.214 264.42 142.749 253.505 145.432 247.645Z" fill="#263238"/>
<path d="M149.352 272.74C148.437 265.248 150.007 258.215 152.665 251.23C152.665 251.131 152.566 251.094 152.517 251.156C150.292 254.234 149.055 258.857 148.412 262.554C147.737 265.962 147.972 269.488 149.092 272.777C149.142 272.9 149.377 272.9 149.352 272.74Z" fill="#263238"/>
<path d="M131.869 265.347C131.925 266.729 132.107 268.103 132.413 269.452C132.659 270.777 133.252 272.014 134.131 273.036C134.558 273.481 135.136 273.75 135.751 273.791C136.373 273.83 136.996 273.707 137.556 273.432C138.092 273.117 138.556 272.692 138.916 272.185C139.276 271.678 139.525 271.1 139.645 270.49L140.375 267.523L140.721 270.552C140.86 271.901 141.224 273.217 141.796 274.446C142.028 275.028 142.378 275.555 142.825 275.994C143.272 276.432 143.806 276.772 144.393 276.992C144.942 277.186 145.54 277.187 146.089 276.993C146.638 276.8 147.104 276.424 147.41 275.929C148.074 274.804 148.44 273.527 148.473 272.221L148.695 268.623L149.66 272.072C149.93 273.036 150.321 273.962 150.822 274.829C151.268 275.665 151.952 276.349 152.788 276.794C153.17 276.984 153.598 277.061 154.023 277.017C154.447 276.973 154.85 276.81 155.186 276.547C155.852 275.866 156.307 275.008 156.497 274.075C156.942 272.04 157.223 269.973 157.338 267.894C157.436 266.843 157.535 265.792 157.684 264.742C157.767 263.678 158.079 262.645 158.599 261.713C158.191 262.684 157.977 263.726 157.968 264.779C157.906 265.817 157.894 266.868 157.882 267.931C157.9 270.065 157.722 272.196 157.35 274.297C157.163 275.441 156.647 276.506 155.866 277.363C155.389 277.78 154.8 278.049 154.172 278.137C153.544 278.224 152.904 278.127 152.33 277.858C151.287 277.325 150.427 276.495 149.858 275.472C149.281 274.521 148.832 273.499 148.522 272.431L149.759 272.295C149.733 273.84 149.307 275.352 148.522 276.683C148.066 277.41 147.371 277.956 146.556 278.228C145.751 278.479 144.889 278.479 144.084 278.228C143.337 277.957 142.657 277.53 142.088 276.976C141.519 276.422 141.074 275.753 140.783 275.014C140.186 273.648 139.811 272.196 139.67 270.712L140.746 270.787C140.568 271.538 140.228 272.242 139.75 272.849C139.272 273.455 138.666 273.95 137.976 274.297C137.262 274.597 136.484 274.712 135.714 274.631C134.932 274.533 134.211 274.156 133.686 273.568C132.796 272.419 132.244 271.045 132.091 269.6C131.857 268.195 131.783 266.769 131.869 265.347Z" fill="#263238"/>
<path d="M132.87 285.806C132.87 285.806 113.929 262.912 126.503 259.846C130.212 258.944 146.656 259.723 146.569 263.023C146.446 267.276 139.534 268.24 135.096 268.141C135.096 268.141 142.638 275.027 139.411 281.739C138.797 282.951 137.863 283.971 136.71 284.688C135.556 285.405 134.228 285.792 132.87 285.806Z" fill="#C95F50"/>
<path d="M125.478 260.205C126.899 259.68 128.391 259.368 129.904 259.278C131.417 259.146 132.936 259.113 134.454 259.179C137.496 259.278 140.524 259.642 143.504 260.266C144.295 260.426 145.058 260.706 145.766 261.095C146.18 261.313 146.539 261.622 146.817 261.997C146.967 262.205 147.084 262.434 147.163 262.677C147.227 262.919 147.256 263.169 147.25 263.419C147.213 264.339 146.849 265.215 146.224 265.891C145.64 266.488 144.958 266.982 144.208 267.35C142.781 268.016 141.251 268.434 139.683 268.586C138.161 268.755 136.628 268.812 135.096 268.759L135.443 267.832C136.276 268.648 137.03 269.542 137.693 270.502C138.355 271.45 138.922 272.46 139.387 273.518C139.833 274.584 140.125 275.708 140.252 276.856C140.376 277.997 140.279 279.151 139.968 280.256C140.129 279.147 140.104 278.019 139.894 276.918C139.67 275.833 139.296 274.784 138.781 273.803C138.283 272.814 137.686 271.878 137 271.009C136.322 270.149 135.569 269.351 134.75 268.623L133.724 267.745H135.109C136.585 267.742 138.06 267.639 139.523 267.436C140.952 267.27 142.346 266.878 143.652 266.274C144.888 265.656 145.976 264.643 145.989 263.481C146.001 262.319 144.567 261.849 143.207 261.49C141.768 261.129 140.311 260.844 138.843 260.637C137.371 260.402 135.888 260.18 134.404 260.044C131.438 259.634 128.427 259.688 125.478 260.205Z" fill="#263238"/>
<path d="M132.834 290.071L133.86 293.001L134.849 295.943L136.852 301.79C137.52 303.743 138.2 305.684 138.917 307.613C139.275 308.577 139.634 309.541 140.03 310.493C140.425 311.445 140.833 312.397 141.266 313.361C140.131 311.621 139.135 309.794 138.286 307.897C137.421 306.005 136.691 304.052 135.999 302.099C135.307 300.146 134.763 298.156 134.206 296.153C133.65 294.15 133.155 292.123 132.834 290.071Z" fill="#263238"/>
<path d="M106.277 354.563C104.422 356.046 30.9949 356.874 30.6858 356.355C29.845 354.946 49.7628 287.969 81.0675 267.152C86.5817 263.444 94.9889 266.027 98.6238 268.87C100.454 270.304 105.758 281.146 106.487 290.009C107.217 298.873 107.451 353.611 106.277 354.563Z" fill="#F6CF00"/>
<path d="M107.092 327.045V327.589C106.746 327.379 106.387 327.144 106.054 326.897C103.392 324.818 101.095 322.311 99.2537 319.48C97.325 316.748 95.5446 313.892 93.8384 311.074C91.4616 307.05 88.722 303.251 85.6537 299.726L85.2704 299.318C84.0527 298.042 82.7291 296.872 81.3141 295.819C78.6577 293.872 75.5871 292.566 72.3421 292.002C69.0971 291.438 65.7656 291.632 62.6079 292.568C59.8531 293.473 57.3238 294.957 55.1898 296.92L56.0923 295.411C57.9776 293.906 60.1173 292.75 62.4101 292C65.6559 291.024 69.0835 290.812 72.4246 291.381C75.7683 291.994 78.92 293.388 81.6232 295.448C83.174 296.607 84.6144 297.906 85.9257 299.33C86.0617 299.478 86.1977 299.614 86.3214 299.763C89.2885 303.231 91.9446 306.954 94.2588 310.888C96.0144 313.719 97.733 316.563 99.637 319.282C101.448 322.048 103.699 324.499 106.301 326.539C106.585 326.712 106.833 326.885 107.092 327.045ZM100.169 330.21C96.6749 330.092 93.2437 329.25 90.0923 327.738C83.725 324.709 78.6064 319.702 73.5003 314.869C71.6457 313.114 69.7912 311.358 67.8501 309.702L67.541 309.43C66.8981 308.886 66.3047 308.354 65.5628 307.835C62.804 305.558 59.5799 303.912 56.117 303.014C54.7677 302.705 53.3828 302.581 51.9999 302.643L51.7156 303.138C53.159 303.043 54.6085 303.159 56.0181 303.484C59.4057 304.381 62.5573 306.005 65.2537 308.243C65.8967 308.737 66.4901 309.244 67.133 309.763C67.2457 309.847 67.353 309.938 67.4545 310.035C69.4079 311.692 71.2748 313.484 73.1417 315.252C78.2232 320.098 83.3664 325.142 89.8326 328.257C93.0552 329.829 96.5727 330.705 100.156 330.828C102.49 330.889 104.822 330.644 107.092 330.099C107.092 329.889 107.092 329.691 107.092 329.481C104.826 330.025 102.498 330.271 100.169 330.21ZM107.043 312.903C106.289 311.667 105.51 310.431 104.681 309.195C102.823 306.383 100.468 303.933 97.733 301.963C94.9038 300.068 91.5551 299.101 88.1512 299.194C87.4217 299.194 86.7046 299.194 85.9752 299.318L85.2828 299.404C84.5635 299.499 83.8496 299.631 83.1439 299.8C81.518 300.228 79.9397 300.821 78.4334 301.568C74.5082 303.745 70.8524 306.375 67.541 309.405C67.405 309.516 67.269 309.64 67.133 309.739C65.5999 311.061 64.0545 312.359 62.4719 313.583C59.8787 315.658 57.0432 317.409 54.0276 318.8C50.9911 320.142 47.7361 320.921 44.421 321.099C43.9018 321.099 43.3949 321.099 42.888 321.099C42.888 321.211 42.789 321.322 42.752 321.433L44.4458 321.371C47.7973 321.198 51.0897 320.419 54.1636 319.072C57.2089 317.674 60.0768 315.919 62.7068 313.843C64.3265 312.607 65.8967 311.284 67.4545 309.961L67.8501 309.628C71.1241 306.637 74.7434 304.047 78.6312 301.914C80.1091 301.183 81.6587 300.607 83.2552 300.195C84.0694 299.999 84.8953 299.854 85.7279 299.763H86.4326C87.0261 299.701 87.669 299.676 88.213 299.664C91.5223 299.59 94.7736 300.54 97.5228 302.383C100.204 304.324 102.508 306.737 104.323 309.504C105.312 310.925 106.227 312.384 107.117 313.88C107.043 313.534 107.043 313.188 107.03 312.854L107.043 312.903Z" fill="white"/>
<path d="M98.1164 281.591C93.8139 281.405 88.6335 273.271 87.3106 267.511C87.2241 267.115 92.5281 253.826 93.307 251.082C93.4677 250.526 109.38 260.155 109.38 260.155C107.424 263.302 105.863 266.678 104.731 270.206C104.583 270.601 102.283 281.776 98.1164 281.591Z" fill="#C95F50"/>
<path d="M93.8509 251.23C93.4676 255.89 93.3687 268.277 102.666 271.157C103.228 271.328 103.803 271.452 104.385 271.528C104.57 270.774 104.681 270.292 104.694 270.193C105.827 266.67 107.389 263.299 109.342 260.155C109.263 260.091 109.176 260.037 109.083 259.995C108.972 259.908 108.823 259.834 108.65 259.723L108.465 259.611C108.366 259.537 108.242 259.475 108.118 259.401L107.673 259.129L106.932 258.697L106.66 258.523L106.091 258.177L103.841 256.842L102.988 256.335C102.617 256.125 102.246 255.915 101.887 255.68L100.787 255.05L100.651 254.976L98.784 253.888L98.1658 253.529L96.9294 252.862L96.1258 252.417L94.5432 251.576L94.1847 251.403L93.8509 251.23Z" fill="#263238"/>
<path d="M98.8456 230.425C94.7904 235.666 91.4275 253.913 94.2093 259.389C98.2274 267.239 108.044 271.565 115.537 266.002C122.806 260.613 126.763 236.68 123.363 231.389C118.355 223.75 104.842 222.687 98.8456 230.425Z" fill="#C95F50"/>
<path d="M111.037 247.954C111.037 247.954 110.925 247.954 110.925 248.041C110.653 249.277 110.134 250.686 108.91 250.822V250.896C110.32 251.045 110.987 249.19 111.037 247.954Z" fill="#263238"/>
<path d="M110.257 246.384C108.291 245.741 107.141 249.71 109.021 250.315C110.9 250.921 111.901 246.928 110.257 246.384Z" fill="#263238"/>
<path d="M118.084 249.438C118.084 249.438 118.17 249.524 118.084 249.574C117.688 250.81 117.428 252.244 118.418 252.985C117.144 252.454 117.478 250.525 118.084 249.438Z" fill="#263238"/>
<path d="M119.568 248.473C121.584 248.918 120.557 252.924 118.69 252.516C116.824 252.108 117.874 248.115 119.568 248.473Z" fill="#263238"/>
<path d="M107.587 258.066C107.785 258.449 107.946 258.931 108.366 259.117C108.82 259.266 109.301 259.313 109.775 259.253C109.775 259.253 109.85 259.315 109.775 259.339C109.52 259.518 109.221 259.625 108.91 259.649C108.599 259.673 108.287 259.613 108.007 259.475C107.782 259.327 107.605 259.115 107.5 258.866C107.394 258.618 107.364 258.344 107.414 258.079C107.413 258.067 107.414 258.056 107.418 258.045C107.422 258.034 107.427 258.024 107.435 258.016C107.442 258.007 107.451 258 107.462 257.995C107.472 257.99 107.483 257.987 107.494 257.986C107.506 257.985 107.517 257.986 107.528 257.99C107.539 257.994 107.549 257.999 107.557 258.007C107.566 258.014 107.573 258.023 107.578 258.034C107.583 258.044 107.586 258.055 107.587 258.066Z" fill="#263238"/>
<path d="M114.634 254.654C114.634 254.654 114.374 256.57 114.139 257.436C112.434 256.982 110.674 256.762 108.91 256.78C108.489 256.78 108.576 256.484 109.083 256.348C110.565 255.934 112.138 255.977 113.595 256.471C113.731 256.249 113.942 253.517 114.078 253.554C114.738 253.798 115.362 254.131 115.932 254.543C116.575 250.575 116.587 246.52 117.292 242.577C117.3 242.552 117.316 242.53 117.337 242.515C117.358 242.5 117.384 242.492 117.41 242.492C117.436 242.492 117.461 242.5 117.482 242.515C117.503 242.53 117.519 242.552 117.527 242.577C117.658 246.911 117.351 251.247 116.612 255.52C116.55 256.051 115.005 254.901 114.634 254.654Z" fill="#263238"/>
<path d="M108.823 243.084C109.392 242.997 109.924 242.997 110.492 242.96C111.077 242.842 111.684 242.916 112.223 243.17C112.376 243.284 112.486 243.445 112.537 243.629C112.589 243.812 112.578 244.007 112.508 244.184C112.313 244.51 112.036 244.78 111.704 244.964C111.371 245.149 110.996 245.242 110.616 245.234C109.844 245.338 109.06 245.153 108.415 244.715C108.273 244.607 108.165 244.459 108.106 244.29C108.046 244.121 108.038 243.939 108.081 243.765C108.124 243.591 108.218 243.434 108.35 243.313C108.482 243.192 108.647 243.112 108.823 243.084Z" fill="#263238"/>
<path d="M123.042 244.147C122.621 243.777 122.179 243.43 121.719 243.108C121.311 242.679 120.772 242.397 120.186 242.305C119.997 242.309 119.814 242.377 119.668 242.499C119.522 242.62 119.422 242.787 119.383 242.972C119.355 243.353 119.429 243.733 119.599 244.075C119.769 244.416 120.027 244.706 120.347 244.913C120.926 245.436 121.681 245.723 122.461 245.717C122.638 245.706 122.809 245.644 122.951 245.538C123.093 245.432 123.202 245.287 123.264 245.121C123.325 244.955 123.337 244.774 123.298 244.601C123.259 244.428 123.17 244.27 123.042 244.147Z" fill="#263238"/>
<path d="M103.087 246.001C104.608 246.582 104.892 243.405 104.967 242.292C105.151 241.149 105.437 240.023 105.82 238.93C105.372 240 104.826 241.027 104.188 241.996C103.483 242.849 101.567 245.395 103.087 246.001Z" fill="white"/>
<path d="M92.8375 247.979C92.8375 247.979 89.932 235.098 92.6026 229.102C93.8389 226.395 98.2527 225.789 98.2527 225.789C98.3419 224.549 98.7758 223.359 99.5054 222.352C100.235 221.345 101.231 220.562 102.382 220.091C106.734 218.076 114.523 221.463 114.523 221.463C114.523 221.463 122.226 215.69 128.581 221.117C134.936 226.543 127.344 233.293 127.344 233.293C127.344 233.293 128.766 238.015 121.163 238.806C113.744 239.585 101.603 232.329 101.603 232.329C100.705 237.049 99.1048 241.607 96.8556 245.853C96.4459 246.542 95.8541 247.105 95.1453 247.48C94.4365 247.855 93.638 248.028 92.8375 247.979Z" fill="#263238"/>
<path d="M115.76 221.982C114.341 220.768 112.687 219.859 110.901 219.312C109.313 218.75 107.64 218.47 105.955 218.483C104.474 218.409 103 218.74 101.692 219.442C100.385 220.143 99.2941 221.188 98.5373 222.464C98.1908 223.14 97.9828 223.879 97.9254 224.637C97.8681 225.395 97.9627 226.156 98.2035 226.877C98.2035 226.939 98.3147 226.877 98.29 226.877C97.3009 224.195 99.2915 221.228 101.628 220.053C104.384 218.911 107.461 218.815 110.283 219.781C112.116 220.358 113.872 221.155 115.513 222.155C115.524 222.171 115.538 222.185 115.555 222.196C115.572 222.206 115.59 222.214 115.61 222.217C115.629 222.22 115.649 222.22 115.669 222.216C115.688 222.211 115.706 222.203 115.723 222.192C115.739 222.181 115.753 222.166 115.763 222.15C115.774 222.133 115.781 222.114 115.785 222.095C115.788 222.075 115.788 222.055 115.784 222.036C115.779 222.016 115.771 221.998 115.76 221.982Z" fill="#263238"/>
<path d="M132.661 226.432C132.644 225.342 132.361 224.273 131.835 223.318C131.309 222.364 130.556 221.552 129.644 220.956C127.592 219.497 125.112 218.766 122.597 218.879C120.067 219 117.616 219.798 115.5 221.191C115.5 221.191 115.5 221.302 115.5 221.277C117.395 220.062 119.583 219.38 121.833 219.304C124.082 219.228 126.311 219.76 128.284 220.845C129.219 221.264 130.035 221.909 130.658 222.722C131.282 223.534 131.694 224.489 131.857 225.501C132.02 226.512 131.929 227.548 131.593 228.515C131.256 229.483 130.684 230.351 129.928 231.043C128.159 232.664 125.97 233.757 123.611 234.195C123.611 234.195 123.611 234.294 123.611 234.282C125.808 233.988 127.893 233.137 129.669 231.81C130.523 231.18 131.233 230.374 131.749 229.446C132.265 228.518 132.576 227.49 132.661 226.432Z" fill="#263238"/>
<path d="M122.671 239.696C119.342 239.896 116.008 239.386 112.891 238.201C109.635 237.014 106.517 235.476 103.594 233.614C101.888 232.551 100.219 231.414 98.5742 230.252C98.5742 230.252 98.4753 230.252 98.5742 230.338C101.317 232.779 104.309 234.926 107.501 236.742C110.483 238.395 113.758 239.453 117.144 239.857C119.003 240.063 120.881 240.034 122.733 239.771C122.733 239.771 122.72 239.684 122.671 239.696Z" fill="#263238"/>
<path d="M97.2267 245.766C97.2267 245.766 95.3104 238.794 92.2813 239.289C89.2522 239.783 89.3017 248.906 91.8857 251.069C92.1919 251.366 92.5543 251.598 92.9515 251.752C93.3488 251.907 93.7728 251.981 94.1989 251.969C94.625 251.958 95.0444 251.861 95.4327 251.685C95.821 251.51 96.1704 251.258 96.4602 250.946L97.2267 245.766Z" fill="#C95F50"/>
<path d="M92.3548 241.897V241.971C94.1351 243.566 94.5431 245.877 94.6049 248.152C94.5574 247.899 94.4556 247.659 94.3064 247.45C94.1573 247.24 93.9644 247.065 93.7412 246.937C93.5179 246.809 93.2694 246.73 93.013 246.708C92.7566 246.685 92.4983 246.718 92.2559 246.805V246.928C92.6643 246.944 93.0579 247.086 93.3831 247.334C93.7082 247.581 93.9492 247.923 94.0733 248.313C94.2739 248.965 94.4065 249.636 94.4689 250.315C94.4689 250.538 94.8646 250.563 94.877 250.315C95.8537 247.633 95.1119 243.182 92.3548 241.897Z" fill="#263238"/>
<path d="M74.8479 280.206C71.2254 300.43 73.4014 342.831 82.6123 349.939C93.2821 358.16 139.992 359.829 150.377 356.788C154.519 355.552 144.665 328.195 140.066 328.232C120.742 328.368 104.471 326.143 102.814 323.856C100.268 320.358 93.6036 295.696 89.0538 280.243C83.3541 260.835 76.4676 271.133 74.8479 280.206Z" fill="#C95F50"/>
<path d="M191.957 299.824L162.285 319.208C162.1 319.304 161.943 319.444 161.827 319.617C161.711 319.789 161.641 319.988 161.622 320.195C161.604 320.402 161.638 320.611 161.721 320.801C161.804 320.992 161.934 321.158 162.099 321.285L175.897 331.644C176.342 331.926 176.859 332.076 177.387 332.076C177.914 332.076 178.431 331.926 178.876 331.644L208.549 312.261C208.736 312.166 208.896 312.025 209.014 311.851C209.131 311.677 209.203 311.476 209.221 311.267C209.24 311.058 209.205 310.848 209.12 310.656C209.035 310.465 208.902 310.298 208.735 310.171L194.937 299.824C194.491 299.542 193.975 299.392 193.447 299.392C192.919 299.392 192.403 299.542 191.957 299.824Z" fill="#263238"/>
<path d="M190.683 298.959L161.01 318.343C160.826 318.438 160.668 318.579 160.552 318.752C160.437 318.924 160.366 319.123 160.348 319.33C160.329 319.537 160.363 319.746 160.447 319.936C160.53 320.126 160.66 320.293 160.825 320.419L174.622 330.779C175.068 331.061 175.585 331.211 176.112 331.211C176.64 331.211 177.157 331.061 177.602 330.779L207.275 311.395C207.462 311.3 207.622 311.159 207.739 310.986C207.857 310.812 207.928 310.611 207.947 310.402C207.965 310.193 207.931 309.983 207.845 309.791C207.76 309.599 207.628 309.433 207.46 309.306L193.662 298.959C193.217 298.677 192.7 298.527 192.173 298.527C191.645 298.527 191.128 298.677 190.683 298.959Z" fill="#37474F"/>
<path d="M190.064 300.579L162.864 318.355C162.024 318.899 161.912 319.764 162.605 320.283L174.968 329.542C175.385 329.8 175.864 329.936 176.353 329.936C176.842 329.936 177.322 329.8 177.738 329.542L204.938 311.754C206.644 310.654 206.459 309.986 205.766 309.467L203.294 307.613C203.186 307.562 203.067 307.542 202.949 307.556C202.831 307.569 202.72 307.614 202.626 307.687H202.527C202.366 307.819 202.161 307.884 201.953 307.868C201.746 307.852 201.552 307.756 201.414 307.6L195.69 303.311C195.368 303.063 195.121 302.866 195.69 302.519L195.776 302.458C196.011 302.309 196.073 302.112 195.925 302L193.452 300.146C192.698 299.652 191.659 299.565 190.064 300.579Z" fill="white"/>
<path d="M198.41 304.46L199.968 305.696C200 305.715 200.036 305.725 200.073 305.725C200.11 305.725 200.146 305.715 200.178 305.696C200.189 305.687 200.197 305.676 200.203 305.663C200.209 305.65 200.212 305.636 200.212 305.622C200.212 305.608 200.209 305.594 200.203 305.582C200.197 305.569 200.189 305.557 200.178 305.548L198.608 304.386C198.58 304.364 198.545 304.352 198.509 304.352C198.473 304.352 198.438 304.364 198.41 304.386C198.361 304.361 198.361 304.423 198.41 304.46Z" fill="white"/>
<path d="M176.192 312.693L186.677 320.555L198.373 312.94L187.876 305.066L176.192 312.693Z" fill="#F6CF00"/>
<path d="M178.641 317.218L184.761 321.816L185.453 321.359L179.333 316.773L178.641 317.218Z" fill="#A6A6A6"/>
<path d="M176.391 317.106L183.636 322.546L183.982 322.323L176.724 316.884L176.391 317.106Z" fill="#A6A6A6"/>
<path d="M175.76 317.514L183.005 322.954L183.351 322.731L176.094 317.292L175.76 317.514Z" fill="#A6A6A6"/>
<path d="M175.13 317.935L182.375 323.361L182.721 323.139L175.476 317.7L175.13 317.935Z" fill="#A6A6A6"/>
<path d="M200.624 309.64L201.935 310.616L202.207 310.431L200.908 309.454L200.624 309.64Z" fill="#A6A6A6"/>
<path d="M200.104 309.974L201.402 310.95L201.686 310.765L200.388 309.788L200.104 309.974Z" fill="#A6A6A6"/>
<path d="M199.584 310.307L200.895 311.296L201.167 311.111L199.868 310.122L199.584 310.307Z" fill="#A6A6A6"/>
<path d="M174.585 313.905C174.543 314.063 174.543 314.229 174.585 314.387C174.818 314.423 175.056 314.423 175.289 314.387C175.747 314.387 176.093 314.09 175.846 313.892C175.599 313.694 175.265 313.892 175.265 313.892C175.265 313.892 175.549 313.657 175.339 313.509C175.129 313.361 174.671 313.583 174.585 313.905Z" fill="#F6CF00"/>
<path d="M167.217 319.962L175.674 326.316L178.381 324.561L169.912 318.207L167.217 319.962Z" fill="#F6CF00"/>
<path d="M148.893 356.874C151.168 356.874 170.307 352.127 176.093 348.876C182.293 345.57 187.913 341.278 192.735 336.168C200.301 328.059 204.765 321.73 204.913 318.231C205.074 314.164 204.913 313.447 189.619 325.92C180.965 332.967 175.401 332.101 170.95 330.42C152.652 323.448 135.021 328.207 135.021 328.207C135.021 328.207 140.14 356.85 148.893 356.874Z" fill="#C95F50"/>
<path d="M173.213 331.149C168.552 329.555 187.023 325.574 189.15 320.37C191.276 315.166 185.478 314.98 180.409 316.464C162.605 321.742 152.158 317.415 141.463 324.734C140.326 325.5 136.975 327.206 136.913 327.75C136.406 332.868 173.213 331.149 173.213 331.149Z" fill="#C95F50"/>
<path d="M161.504 319.665C158.209 319.34 154.885 319.436 151.614 319.95C148.614 320.604 145.768 321.83 143.231 323.559C143.12 323.621 143.231 323.806 143.33 323.745C148.819 320.444 155.286 320.123 161.504 319.814C161.524 319.814 161.543 319.806 161.557 319.792C161.571 319.778 161.579 319.759 161.579 319.739C161.579 319.72 161.571 319.701 161.557 319.687C161.543 319.673 161.524 319.665 161.504 319.665Z" fill="#263238"/>
<path d="M71.1511 307.316L82.402 305.202L96.5707 302.544C96.5707 302.544 93.2449 286.77 89.1525 276.93C84.9736 266.818 78.0253 263.518 74.2049 277.413C70.4958 291.072 71.1511 307.316 71.1511 307.316Z" fill="#F6CF00"/>
<path d="M72.1537 302.21C76.481 301.234 92.3682 297.847 94.4824 298.18C94.4824 298.18 94.5566 298.341 94.4824 298.366C92.6155 299.417 76.5552 301.877 72.1661 302.47C72.1166 302.482 72.0672 302.235 72.1537 302.21Z" fill="#263238"/>
<path d="M73.1918 306.933C72.5242 307.13 71.8566 307.303 71.1889 307.477H71.0035V307.266C70.8304 305.499 70.8057 303.719 70.8057 301.951C70.8057 300.183 70.8922 298.403 71.0158 296.635C71.1395 294.867 71.3002 293.1 71.5475 291.344C71.7948 289.589 72.0544 287.846 72.4253 286.103C72.4253 287.883 72.3017 289.638 72.2151 291.406C72.1286 293.174 72.0173 294.929 71.9184 296.697C71.7329 300.208 71.4857 303.731 71.3373 307.254L71.1395 307.106C71.8071 307.069 72.4995 306.982 73.1918 306.933Z" fill="#263238"/>
<path d="M70.2242 290.071C70.5765 291.144 70.8411 292.244 71.0154 293.359C71.102 293.916 71.1885 294.472 71.238 295.028C71.2979 295.595 71.3268 296.164 71.3245 296.734C70.8809 295.686 70.5734 294.585 70.4096 293.458C70.2114 292.341 70.1491 291.203 70.2242 290.071Z" fill="#263238"/>
<path d="M95.6316 302.717L96.5465 302.445L96.4724 302.569C95.9902 301.098 95.6069 299.614 95.1742 298.143L94.0244 293.693C93.2825 290.726 92.5902 287.759 91.9473 284.743C92.5941 286.14 93.1516 287.577 93.6164 289.045C94.1233 290.504 94.5189 291.987 94.8527 293.471C95.1865 294.954 95.5698 296.462 95.8665 297.97C96.1633 299.478 96.4229 300.987 96.6084 302.52V302.631H96.5094C96.2745 302.68 95.9531 302.693 95.6316 302.717Z" fill="#263238"/>
<path d="M94.2589 287.722C94.5326 288.552 94.6744 289.42 94.6792 290.293C94.6874 290.732 94.6584 291.17 94.5927 291.604C94.5395 292.029 94.4271 292.445 94.2589 292.84C94.1325 291.989 94.0664 291.129 94.0611 290.269C94.0382 289.415 94.1045 288.562 94.2589 287.722Z" fill="#263238"/>
<path d="M159.885 208.235C160.014 209.739 159.694 211.246 158.966 212.568C158.238 213.89 157.134 214.966 155.795 215.66C154.455 216.354 152.939 216.635 151.439 216.468C149.94 216.301 148.523 215.693 147.369 214.721C146.215 213.749 145.376 212.456 144.956 211.007C144.537 209.557 144.557 208.016 145.014 206.578C145.472 205.14 146.345 203.87 147.524 202.928C148.703 201.987 150.135 201.416 151.638 201.288C152.636 201.202 153.642 201.313 154.597 201.615C155.551 201.918 156.437 202.406 157.203 203.051C157.969 203.697 158.6 204.487 159.061 205.376C159.521 206.266 159.801 207.237 159.885 208.235Z" fill="white"/>
<path d="M159.885 208.235C160.057 210.277 159.435 212.307 158.147 213.9C156.86 215.494 155.006 216.529 152.973 216.79C151.925 216.899 150.866 216.799 149.857 216.494C148.848 216.19 147.91 215.687 147.097 215.016C146.284 214.345 145.613 213.519 145.123 212.586C144.633 211.653 144.334 210.632 144.243 209.582C144.151 208.533 144.27 207.475 144.592 206.472C144.914 205.468 145.433 204.539 146.118 203.738C146.803 202.937 147.64 202.281 148.582 201.807C149.523 201.333 150.55 201.052 151.601 200.979C153.652 200.885 155.659 201.588 157.203 202.941C158.747 204.293 159.708 206.191 159.885 208.235ZM159.885 208.235C159.803 207.251 159.522 206.294 159.059 205.421C158.597 204.549 157.962 203.779 157.194 203.158C156.425 202.538 155.539 202.08 154.588 201.811C153.638 201.543 152.642 201.47 151.663 201.597C149.799 201.862 148.105 202.825 146.925 204.292C145.745 205.759 145.167 207.619 145.308 209.496C145.472 211.377 146.355 213.122 147.774 214.368C149.193 215.614 151.037 216.264 152.924 216.184C153.911 216.141 154.878 215.899 155.769 215.471C156.659 215.044 157.454 214.441 158.104 213.698C158.755 212.955 159.248 212.088 159.554 211.149C159.86 210.21 159.972 209.219 159.885 208.235Z" fill="#263238"/>
<path d="M143.441 222.291C143.511 223.126 143.332 223.963 142.927 224.696C142.522 225.429 141.908 226.026 141.164 226.411C140.42 226.796 139.578 226.952 138.746 226.859C137.913 226.766 137.126 226.429 136.485 225.89C135.844 225.35 135.377 224.633 135.143 223.829C134.909 223.024 134.919 222.168 135.171 221.369C135.423 220.57 135.907 219.864 136.56 219.339C137.213 218.815 138.007 218.495 138.842 218.422C139.965 218.326 141.08 218.679 141.942 219.405C142.805 220.13 143.344 221.168 143.441 222.291Z" fill="white"/>
<path d="M143.441 222.291C143.547 223.449 143.208 224.604 142.494 225.522C141.781 226.44 140.745 227.052 139.596 227.236C138.693 227.375 137.77 227.24 136.944 226.849C136.119 226.457 135.43 225.827 134.967 225.04C134.504 224.252 134.288 223.344 134.347 222.433C134.406 221.521 134.738 220.649 135.298 219.928C135.859 219.207 136.623 218.67 137.492 218.389C138.361 218.107 139.295 218.092 140.172 218.347C141.049 218.601 141.83 219.113 142.413 219.817C142.995 220.52 143.354 221.382 143.441 222.291ZM143.441 222.291C143.389 221.739 143.223 221.205 142.955 220.72C142.687 220.235 142.322 219.81 141.883 219.472C141.274 219.016 140.546 218.746 139.787 218.694C139.027 218.642 138.269 218.812 137.604 219.181C136.938 219.551 136.394 220.105 136.037 220.777C135.679 221.449 135.524 222.21 135.59 222.968C135.655 223.727 135.939 224.45 136.406 225.05C136.874 225.651 137.505 226.103 138.224 226.353C138.943 226.603 139.719 226.64 140.458 226.458C141.198 226.277 141.869 225.886 142.39 225.332C142.764 224.924 143.051 224.443 143.231 223.92C143.412 223.397 143.484 222.843 143.441 222.291Z" fill="#263238"/>
<path d="M216.93 172.769C217.406 176.644 216.854 180.575 215.329 184.169C213.805 187.763 211.361 190.892 208.245 193.243C205.128 195.594 201.447 197.084 197.573 197.563C193.698 198.042 189.765 197.494 186.17 195.972C184.421 198.248 182.172 200.089 179.596 201.355C177.021 202.62 174.188 203.275 171.318 203.27C168.448 203.264 165.619 202.597 163.048 201.32C160.478 200.044 158.236 198.193 156.497 195.911C155.69 196.158 154.863 196.332 154.024 196.43C151.114 196.793 148.16 196.304 145.522 195.022C142.883 193.741 140.674 191.721 139.161 189.208C137.648 186.696 136.896 183.798 136.998 180.867C137.099 177.936 138.049 175.097 139.732 172.695C136.409 168.525 134.694 163.301 134.899 157.974C135.104 152.647 137.215 147.57 140.849 143.668C144.482 139.765 149.395 137.297 154.695 136.712C159.995 136.127 165.329 137.464 169.726 140.48C171.787 137.905 174.494 135.921 177.571 134.73C180.647 133.54 183.985 133.185 187.243 133.703C190.501 134.22 193.564 135.591 196.121 137.676C198.677 139.761 200.636 142.486 201.797 145.573C202.576 145.309 203.38 145.127 204.196 145.029C206.674 144.725 209.185 145.186 211.392 146.352C213.6 147.518 215.397 149.332 216.541 151.55C217.686 153.768 218.124 156.284 217.796 158.758C217.467 161.232 216.389 163.546 214.705 165.389C215.88 167.697 216.634 170.196 216.93 172.769Z" fill="white"/>
<path d="M216.931 172.769C217.392 176.642 216.842 180.569 215.336 184.167C214.569 185.958 213.585 187.647 212.406 189.198C211.202 190.723 209.81 192.09 208.264 193.265C205.141 195.636 201.452 197.149 197.563 197.654C193.674 198.16 189.721 197.639 186.096 196.145H186.306C184.537 198.468 182.258 200.352 179.643 201.652C177.029 202.952 174.151 203.632 171.231 203.64C168.312 203.649 165.43 202.985 162.808 201.7C160.186 200.415 157.896 198.544 156.114 196.232L156.559 196.38C155.02 196.845 153.418 197.066 151.811 197.036C150.2 197.033 148.601 196.766 147.076 196.244C143.992 195.212 141.304 193.246 139.386 190.62C138.453 189.299 137.716 187.85 137.198 186.318C136.701 184.779 136.434 183.175 136.406 181.558C136.376 178.293 137.366 175.099 139.238 172.423V173.066C135.862 168.79 134.131 163.446 134.358 158.003C134.584 152.56 136.754 147.378 140.474 143.397C144.203 139.436 149.213 136.923 154.618 136.302C160.011 135.724 165.432 137.096 169.899 140.171L169.355 140.258C171.473 137.647 174.247 135.646 177.393 134.46C180.539 133.274 183.943 132.945 187.258 133.508C190.545 134.054 193.63 135.459 196.2 137.58C198.771 139.7 200.736 142.462 201.896 145.585L201.736 145.511C204.329 144.672 207.126 144.707 209.698 145.61C211.609 146.288 213.323 147.428 214.686 148.93C216.049 150.431 217.018 152.247 217.508 154.215C217.998 156.182 217.993 158.24 217.493 160.206C216.993 162.171 216.014 163.981 214.643 165.476C215.831 167.753 216.605 170.222 216.931 172.769ZM216.931 172.769C216.626 170.182 215.859 167.669 214.668 165.352C216.02 163.863 216.981 162.062 217.466 160.111C217.95 158.159 217.943 156.118 217.444 154.17C216.945 152.222 215.971 150.428 214.608 148.949C213.246 147.47 211.537 146.353 209.636 145.697C207.104 144.825 204.354 144.825 201.822 145.697H201.699V145.573C200.519 142.53 198.557 139.852 196.011 137.81C193.48 135.757 190.444 134.421 187.221 133.941C184.018 133.446 180.741 133.811 177.725 135C174.71 136.188 172.065 138.156 170.06 140.703L169.838 140.999L169.516 140.777C165.195 137.9 159.992 136.654 154.837 137.261C149.682 137.868 144.911 140.289 141.377 144.09C137.882 147.898 135.849 152.82 135.638 157.984C135.428 163.148 137.053 168.22 140.227 172.299L140.486 172.633L140.239 172.992C138.491 175.463 137.561 178.42 137.581 181.447C137.592 182.953 137.829 184.45 138.286 185.885C138.759 187.315 139.438 188.669 140.301 189.903C142.082 192.363 144.57 194.221 147.435 195.231C148.865 195.739 150.368 196.01 151.886 196.034C153.402 196.09 154.917 195.903 156.374 195.478L156.646 195.391L156.831 195.626C158.527 197.868 160.708 199.698 163.211 200.979C167.026 202.907 171.393 203.448 175.564 202.51C179.735 201.572 183.449 199.213 186.071 195.836L186.158 195.725H186.281C189.846 197.266 193.756 197.833 197.612 197.369C201.467 196.904 205.13 195.424 208.227 193.08C209.773 191.914 211.169 190.56 212.381 189.05C213.56 187.528 214.548 185.867 215.323 184.105C216.827 180.528 217.38 176.623 216.931 172.769Z" fill="#263238"/>
<path d="M188.124 172.164L187.419 175.538C187.366 175.88 187.242 176.207 187.055 176.498C186.868 176.788 186.623 177.037 186.334 177.227C186.045 177.416 185.719 177.544 185.378 177.6C185.037 177.656 184.688 177.64 184.353 177.553C184.018 177.484 183.7 177.35 183.418 177.157C183.135 176.965 182.893 176.719 182.706 176.433C182.519 176.147 182.39 175.827 182.327 175.491C182.263 175.155 182.267 174.81 182.338 174.475L183.463 169.073C183.463 169.073 183.463 169.073 183.537 168.986C183.611 168.9 183.537 168.987 183.537 168.863C183.697 168.199 184.105 167.621 184.677 167.248C185.25 166.876 185.944 166.737 186.616 166.86C188.16 167.188 189.771 166.889 191.095 166.029C192.419 165.169 193.347 163.818 193.675 162.274C194.003 160.73 193.704 159.119 192.844 157.795C191.984 156.471 190.633 155.543 189.088 155.215C188.078 155.006 187.031 155.065 186.05 155.386C185.07 155.707 184.191 156.279 183.5 157.045C183.278 157.322 183.002 157.55 182.689 157.717C182.376 157.883 182.033 157.984 181.679 158.013C181.326 158.043 180.971 157.999 180.634 157.887C180.298 157.774 179.989 157.594 179.725 157.358C179.46 157.121 179.247 156.833 179.098 156.512C178.949 156.19 178.866 155.842 178.857 155.487C178.847 155.133 178.909 154.78 179.04 154.451C179.171 154.121 179.367 153.822 179.618 153.571C180.847 152.198 182.398 151.152 184.132 150.527C185.866 149.902 187.728 149.717 189.551 149.989C191.373 150.261 193.1 150.981 194.576 152.086C196.051 153.19 197.229 154.643 198.004 156.315C198.779 157.987 199.126 159.826 199.015 161.665C198.903 163.504 198.337 165.287 197.366 166.854C196.395 168.42 195.05 169.721 193.452 170.639C191.854 171.557 190.053 172.064 188.21 172.114L188.124 172.164ZM185.762 183.536L185.565 184.476C185.502 184.814 185.371 185.136 185.18 185.422C184.99 185.708 184.743 185.952 184.456 186.141C184.168 186.329 183.845 186.457 183.507 186.517C183.168 186.577 182.821 186.568 182.486 186.491C181.813 186.345 181.225 185.941 180.847 185.365C180.47 184.789 180.335 184.088 180.471 183.413L180.669 182.473C180.823 181.807 181.23 181.226 181.805 180.855C182.379 180.483 183.076 180.35 183.747 180.483C184.418 180.623 185.007 181.022 185.384 181.594C185.762 182.166 185.898 182.865 185.762 183.536Z" fill="#F6CF00"/>
<path d="M161.108 165.303L160.75 161.94C160.688 161.598 160.699 161.247 160.782 160.91C160.865 160.573 161.019 160.257 161.232 159.983C161.446 159.709 161.715 159.482 162.021 159.319C162.328 159.156 162.666 159.059 163.012 159.035C163.695 158.955 164.383 159.147 164.924 159.571C165.466 159.995 165.819 160.615 165.905 161.297L166.585 166.774C166.585 166.774 166.585 166.774 166.585 166.885C166.585 166.996 166.585 166.885 166.647 166.984C166.715 167.664 166.517 168.345 166.096 168.884C165.674 169.422 165.062 169.778 164.385 169.877C163.587 169.944 162.811 170.171 162.104 170.546C161.396 170.92 160.771 171.433 160.267 172.054C159.762 172.676 159.389 173.393 159.168 174.162C158.947 174.931 158.884 175.737 158.982 176.531C159.08 177.326 159.338 178.092 159.74 178.784C160.141 179.477 160.678 180.081 161.319 180.561C161.96 181.041 162.691 181.386 163.468 181.577C164.246 181.767 165.053 181.799 165.843 181.67C166.867 181.551 167.841 181.164 168.666 180.547C169.491 179.931 170.138 179.107 170.542 178.159C170.675 177.838 170.871 177.548 171.118 177.303C171.365 177.059 171.658 176.866 171.98 176.736C172.302 176.606 172.647 176.542 172.994 176.546C173.342 176.551 173.685 176.624 174.003 176.762C174.316 176.898 174.598 177.094 174.835 177.339C175.071 177.584 175.256 177.873 175.381 178.19C175.505 178.508 175.565 178.846 175.558 179.186C175.55 179.527 175.476 179.862 175.339 180.174C174.608 181.86 173.472 183.339 172.03 184.479C170.589 185.618 168.887 186.383 167.078 186.705C165.269 187.027 163.408 186.896 161.662 186.324C159.916 185.751 158.338 184.756 157.071 183.425C155.804 182.095 154.885 180.471 154.399 178.699C153.912 176.928 153.871 175.063 154.281 173.272C154.691 171.481 155.538 169.819 156.746 168.435C157.955 167.05 159.487 165.987 161.207 165.34L161.108 165.303ZM159.686 153.781L159.563 152.83C159.503 152.489 159.516 152.139 159.6 151.803C159.684 151.467 159.837 151.153 160.051 150.88C160.264 150.607 160.532 150.383 160.838 150.22C161.143 150.058 161.48 149.961 161.825 149.937C162.164 149.894 162.508 149.918 162.837 150.009C163.167 150.099 163.475 150.254 163.744 150.465C164.013 150.675 164.237 150.937 164.405 151.234C164.572 151.532 164.679 151.86 164.718 152.199L164.842 153.139C164.916 153.822 164.721 154.507 164.299 155.049C163.877 155.591 163.26 155.948 162.579 156.044C162.24 156.089 161.896 156.065 161.566 155.975C161.236 155.885 160.927 155.731 160.658 155.52C160.388 155.309 160.164 155.047 159.997 154.749C159.83 154.45 159.725 154.121 159.686 153.781Z" fill="#F6CF00"/>
</svg>
